<svg xmlns="http://www.w3.org/2000/svg" viewBox="0 0 1093 2060" preserveAspectRatio="xMidYMid slice">
  <path d="M865.5,1160.3L859.9,1145.5L866.8,1133.2L882.5,1139.0L893.7,1148.3L877.8,1176.5L858.4,1174.8L865.5,1160.3Z" fill="none" stroke="rgba(0,0,0,0.2)" stroke-width="0.5"/>
  <path d="M859.2,1174.8L854.4,1171.7L842.9,1172.6L843.0,1180.3L834.8,1178.4L827.6,1162.7L823.7,1162.8L819.4,1156.0L820.7,1146.4L827.9,1144.1L831.6,1132.9L843.7,1136.7L844.3,1133.3L864.9,1134.8L859.8,1145.5L864.4,1163.7L859.2,1174.8Z" fill="none" stroke="rgba(0,0,0,0.2)" stroke-width="0.5"/>
  <path d="M663.5,983.9L660.2,985.9L662.9,992.6L641.6,990.0L639.0,992.8L632.0,988.0L634.7,985.1L650.1,987.9L656.3,986.8L651.1,980.5L652.4,975.7L644.4,971.1L663.2,973.3L663.5,983.9Z" fill="none" stroke="rgba(0,0,0,0.2)" stroke-width="0.5"/>
  <path d="M729.4,993.5L715.1,993.9L714.2,988.8L732.9,990.0L729.4,993.5Z" fill="none" stroke="rgba(0,0,0,0.2)" stroke-width="0.5"/>
  <path d="M462.3,1035.2L472.5,1042.2L480.3,1041.5L481.4,1046.6L479.0,1050.3L473.5,1050.2L472.9,1049.1L470.0,1049.0L471.6,1049.1L472.9,1050.2L457.6,1046.0L454.1,1042.7L462.3,1035.2Z" fill="none" stroke="rgba(0,0,0,0.2)" stroke-width="0.5"/>
  <path d="M827.5,1178.9L810.3,1187.9L799.7,1180.2L797.0,1170.7L802.4,1156.5L800.5,1151.5L795.2,1149.8L795.5,1141.6L788.6,1142.1L781.1,1133.6L784.1,1124.8L793.5,1120.9L788.7,1115.5L798.9,1107.2L796.7,1103.6L814.2,1117.2L812.0,1128.7L816.2,1122.8L829.2,1132.0L829.0,1142.5L821.5,1145.3L819.0,1154.1L836.5,1179.5L827.5,1178.9Z" fill="none" stroke="rgba(0,0,0,0.2)" stroke-width="0.5"/>
  <path d="M540.1,1092.3L535.8,1093.3L538.3,1099.5L534.5,1106.3L535.8,1107.2L536.4,1108.9L536.3,1109.7L533.4,1105.8L533.2,1102.7L529.6,1101.9L531.8,1105.7L526.7,1103.2L527.9,1098.1L516.7,1091.9L515.4,1087.4L509.1,1083.8L510.2,1086.6L513.9,1089.0L511.0,1092.2L502.7,1084.4L505.2,1079.8L501.6,1076.6L505.5,1073.0L524.7,1078.8L527.4,1076.2L540.1,1092.3Z" fill="none" stroke="rgba(0,0,0,0.2)" stroke-width="0.5"/>
  <path d="M858.3,1174.9L865.4,1160.3L859.8,1145.5L866.0,1135.9L877.9,1139.8L887.8,1147.9L887.5,1152.0L890.3,1148.8L892.1,1154.1L880.0,1174.5L858.3,1174.9Z" fill="none" stroke="rgba(0,0,0,0.2)" stroke-width="0.5"/>
  <path d="M777.0,1429.5L807.6,1425.2L817.9,1431.7L821.8,1445.3L819.9,1459.0L844.1,1461.7L849.1,1482.3L858.0,1480.4L862.5,1483.5L856.3,1516.1L845.3,1526.3L841.1,1524.5L838.0,1528.2L812.9,1524.7L824.6,1502.4L822.6,1497.6L785.5,1480.4L766.8,1461.0L777.0,1429.5Z" fill="none" stroke="rgba(0,0,0,0.2)" stroke-width="0.5"/>
  <path d="M790.2,1900.9L785.2,1897.4L794.9,1892.1L790.7,1892.6L789.9,1890.4L796.1,1890.8L789.6,1884.6L795.2,1887.1L796.8,1885.0L802.8,1886.5L803.8,1884.3L805.9,1885.7L790.2,1900.9Z M809.0,1892.7L812.4,1898.5L805.3,1896.3L807.8,1900.4L803.2,1899.1L804.5,1902.8L800.1,1898.5L808.5,1892.9L808.9,1882.7L815.1,1884.1L813.8,1887.1L817.1,1890.1L816.4,1885.9L820.8,1885.0L822.3,1888.1L818.1,1888.1L822.8,1890.8L809.0,1892.7Z" fill="none" stroke="rgba(0,0,0,0.2)" stroke-width="0.5"/>
  <path d="M536.2,951.6L534.2,951.2L532.9,949.2L535.6,950.0L536.7,945.5L540.0,950.1L536.2,951.6Z M595.4,971.1L602.1,964.6L601.2,961.3L591.3,960.4L583.6,949.1L569.2,948.1L563.8,942.3L548.5,942.3L544.6,939.8L550.5,938.7L547.9,936.3L537.8,936.0L523.4,945.7L512.9,946.2L520.4,944.4L521.3,937.5L532.5,932.3L544.0,929.9L556.2,931.9L562.5,930.4L564.4,933.0L571.6,933.6L576.8,939.6L584.0,939.9L599.5,949.1L597.1,945.5L604.7,953.1L618.2,955.4L617.9,960.6L626.2,960.5L636.0,966.1L595.4,971.1Z" fill="none" stroke="rgba(0,0,0,0.2)" stroke-width="0.5"/>
  <path d="M671.7,969.8L683.7,972.9L685.8,977.5L692.6,977.4L687.6,980.0L697.5,981.5L702.1,986.2L697.4,990.7L684.8,987.5L676.8,990.7L675.1,988.0L670.8,989.5L667.0,997.8L660.2,985.9L663.5,983.9L663.5,972.7L671.7,969.8Z" fill="none" stroke="rgba(0,0,0,0.2)" stroke-width="0.5"/>
  <path d="M704.8,1059.3L705.3,1064.6L701.9,1065.6L698.8,1060.8L704.8,1059.3Z M760.1,994.9L765.3,997.7L762.3,1001.8L757.5,997.6L760.1,994.9Z" fill="none" stroke="rgba(0,0,0,0.2)" stroke-width="0.5"/>
  <path d="M465.0,1028.0L482.8,1017.7L512.3,1017.1L533.6,1028.8L518.2,1033.2L513.4,1030.9L503.9,1042.5L500.7,1039.8L492.2,1043.5L492.9,1048.7L489.2,1052.4L486.0,1052.4L485.0,1047.4L480.3,1047.4L480.3,1041.5L472.5,1042.2L462.8,1034.9L465.0,1028.0Z" fill="none" stroke="rgba(0,0,0,0.2)" stroke-width="0.5"/>
  <path d="M601.4,996.7L587.8,989.9L600.3,987.6L611.8,993.0L601.4,996.7Z" fill="none" stroke="rgba(0,0,0,0.2)" stroke-width="0.5"/>
  <path d="M454.3,1043.6L440.4,1041.0L429.8,1034.1L435.6,1016.2L450.4,1015.7L450.9,1011.9L439.0,1002.2L444.1,1002.0L444.2,995.4L465.0,995.3L464.1,1018.2L475.7,1020.2L465.0,1028.0L462.7,1035.6L454.3,1043.6Z" fill="none" stroke="rgba(0,0,0,0.2)" stroke-width="0.5"/>
  <path d="M687.4,1399.9L696.4,1389.8L689.6,1381.4L692.8,1376.8L690.3,1371.7L696.1,1364.5L693.4,1358.4L698.1,1344.8L687.9,1326.8L698.9,1328.6L721.4,1314.7L735.3,1312.1L735.6,1330.6L739.9,1338.8L748.2,1344.7L762.0,1346.6L776.1,1356.9L785.1,1356.0L791.6,1359.9L793.9,1375.0L790.4,1375.2L795.1,1389.0L815.8,1389.2L815.2,1400.6L822.0,1404.1L825.8,1412.5L818.3,1430.5L821.3,1433.5L817.9,1435.7L817.8,1431.6L807.3,1425.1L777.0,1429.5L766.8,1461.0L752.2,1458.1L747.7,1468.9L744.6,1460.7L726.1,1455.5L715.1,1468.2L708.5,1469.1L697.2,1438.8L700.8,1426.9L694.6,1421.0L693.6,1410.1L687.4,1399.9Z" fill="none" stroke="rgba(0,0,0,0.2)" stroke-width="0.5"/>
  <path d="M591.7,905.2L595.1,914.0L591.6,916.5L588.5,911.1L591.7,905.2Z" fill="none" stroke="rgba(0,0,0,0.2)" stroke-width="0.5"/>
  <path d="M862.2,89.6L872.1,88.4L872.7,83.6L854.3,80.7L860.9,80.5L855.4,71.8L862.7,72.6L855.9,63.3L873.6,63.2L889.9,81.7L870.0,94.8L862.2,89.6Z M1011.6,220.5L1020.6,236.3L1006.8,238.7L1018.3,242.9L1015.1,246.9L1018.7,253.5L1007.7,249.3L1016.1,258.1L1006.7,258.7L1009.2,260.4L1012.0,263.4L1007.3,260.3L1005.2,257.2L1003.0,259.3L1008.4,268.0L999.6,268.4L1004.8,275.1L998.4,272.5L996.4,278.7L988.8,277.2L1000.0,286.3L990.8,283.0L998.9,288.2L995.7,297.0L1000.6,295.7L992.0,301.4L999.0,302.8L997.0,306.4L989.6,305.6L995.9,307.0L997.2,310.2L987.7,311.6L994.7,317.3L983.6,316.6L993.9,318.3L985.0,321.0L992.8,324.2L984.5,323.4L993.4,326.9L987.9,332.0L977.0,328.0L988.5,333.6L989.5,340.5L983.4,338.4L983.0,339.3L979.3,338.4L977.3,338.8L979.2,335.8L978.0,333.9L978.0,336.3L976.0,335.1L972.4,343.0L965.8,340.8L970.5,338.1L973.8,329.8L965.8,339.7L972.0,325.8L957.7,330.9L964.9,321.8L954.0,325.6L962.0,320.1L965.4,315.1L961.9,313.8L960.7,319.2L958.8,320.7L956.0,321.7L955.6,321.1L960.7,316.3L959.6,311.9L946.3,321.1L948.3,322.3L946.6,324.4L944.6,320.3L931.0,323.9L937.2,319.5L929.0,320.0L935.4,318.7L931.1,315.3L934.6,311.9L929.0,316.5L926.3,314.0L929.1,312.6L929.7,310.8L921.5,310.2L931.0,306.7L929.7,305.2L918.8,306.4L926.9,304.6L920.5,302.4L924.7,296.0L917.3,300.1L924.0,293.9L914.9,296.1L918.9,289.3L907.2,283.5L912.3,273.8L908.1,274.9L914.2,269.6L908.8,272.2L907.7,274.9L906.4,276.4L909.1,270.7L903.9,268.8L910.2,265.4L898.3,262.9L907.7,261.0L896.9,259.9L905.1,254.2L894.6,257.5L893.4,251.8L897.1,250.5L900.3,247.3L892.0,245.3L910.3,240.5L904.5,241.0L906.7,236.3L894.4,243.5L890.7,240.8L900.0,240.0L908.8,233.9L900.4,229.8L905.4,226.9L909.1,232.9L915.5,236.7L908.4,226.6L910.9,222.9L904.5,225.3L903.0,213.7L899.7,213.3L903.5,225.7L896.6,225.7L886.2,239.0L886.6,226.9L896.7,218.7L886.0,224.5L888.0,210.7L881.6,210.5L891.3,203.2L891.6,200.0L899.1,198.3L902.4,200.6L904.5,199.8L900.1,197.9L894.4,198.1L888.2,200.9L882.5,208.6L882.7,200.9L878.9,204.2L880.2,197.2L878.7,200.9L873.7,198.7L891.0,193.7L891.1,189.7L871.3,192.3L896.2,167.8L910.9,163.8L897.5,165.4L871.5,188.9L869.1,187.9L875.3,183.7L869.6,184.7L869.6,177.4L883.3,176.2L871.5,173.7L885.4,167.8L865.7,161.0L885.9,152.3L897.4,159.6L906.9,157.8L893.5,153.0L898.1,150.7L874.5,153.2L866.7,156.4L882.0,141.3L879.1,141.1L883.4,140.5L889.6,144.5L895.5,143.2L902.9,148.7L908.6,149.5L900.9,145.4L911.6,142.6L895.8,142.1L899.4,141.9L907.8,138.2L895.3,137.0L899.0,134.1L884.2,138.9L892.5,134.2L878.7,139.7L868.4,147.4L868.8,139.2L877.9,134.1L874.7,132.1L881.4,135.2L885.7,135.7L887.4,134.3L873.2,127.8L897.0,131.4L904.4,136.4L909.1,135.1L894.5,127.4L900.0,127.7L895.1,125.7L897.7,124.5L897.5,120.8L902.0,118.3L901.2,117.9L883.0,128.0L872.2,123.4L901.0,114.4L903.4,107.8L896.1,110.4L898.5,98.2L908.3,103.7L903.0,98.4L909.2,96.7L906.7,91.6L898.1,95.7L908.5,85.6L900.8,86.1L908.7,77.8L904.1,72.4L908.1,68.7L884.4,68.3L858.1,47.9L879.1,44.3L893.2,55.5L904.8,57.9L895.5,50.7L903.4,48.0L894.4,45.2L903.6,44.9L901.2,40.3L888.6,35.0L897.1,37.2L900.4,35.0L885.3,31.4L892.1,22.9L881.7,29.6L895.3,18.4L876.8,21.0L890.5,14.5L891.9,9.9L886.2,14.1L873.6,10.6L877.9,6.0L880.1,0.0L1093.0,0.0L1093.0,164.4L1089.9,175.5L1088.2,170.5L1084.9,182.1L1072.1,179.3L1074.9,188.7L1063.9,189.4L1058.7,196.3L1057.9,190.0L1056.7,198.1L1051.1,193.3L1049.6,195.1L1049.1,194.8L1056.9,182.7L1049.1,179.2L1045.9,181.4L1051.0,184.2L1047.5,185.0L1047.5,193.5L1041.9,191.4L1044.9,201.6L1032.2,198.8L1033.7,203.4L1022.2,205.4L1027.1,208.1L1025.4,216.6L1011.6,220.5Z M872.5,8.1L872.2,0.0L879.9,0.0L872.5,8.1Z M872.1,5.7L864.1,10.6L866.3,19.9L848.0,20.0L843.6,11.6L855.6,3.2L858.0,0.0L869.7,0.0L872.1,5.7Z M850.9,2.7L847.0,0.4L847.2,0.0L853.3,0.0L850.9,2.7Z" fill="none" stroke="rgba(0,0,0,0.2)" stroke-width="0.5"/>
  <path d="M833.1,1560.9L842.4,1573.8L847.2,1570.7L875.3,1595.6L870.9,1600.9L872.4,1609.7L868.0,1618.6L854.6,1626.6L840.7,1626.2L817.4,1615.2L814.7,1609.1L819.2,1598.4L817.4,1584.6L824.3,1562.0L833.1,1560.9Z" fill="none" stroke="rgba(0,0,0,0.2)" stroke-width="0.5"/>
  <path d="M543.7,1098.5L549.1,1099.2L547.8,1096.5L554.4,1101.1L573.5,1091.5L581.0,1091.9L593.6,1097.3L601.6,1110.8L596.8,1115.5L594.7,1113.4L593.0,1118.8L587.1,1109.4L590.5,1105.4L592.0,1107.3L593.3,1107.4L594.6,1108.7L595.0,1108.6L590.5,1103.6L587.3,1106.0L580.1,1097.1L574.2,1099.0L563.9,1107.5L569.1,1116.3L559.5,1119.2L557.3,1111.1L553.1,1113.8L544.4,1106.1L537.3,1106.7L536.3,1109.7L534.5,1106.3L538.3,1099.5L535.8,1093.3L542.3,1093.8L543.7,1098.5Z" fill="none" stroke="rgba(0,0,0,0.2)" stroke-width="0.5"/>
  <path d="M465.3,993.5L468.3,994.4L472.6,987.3L477.1,988.7L474.9,997.8L476.3,998.9L474.9,1001.0L475.7,1005.4L474.3,1010.7L467.3,1018.3L464.1,1018.2L465.3,993.5Z" fill="none" stroke="rgba(0,0,0,0.2)" stroke-width="0.5"/>
  <path d="M785.6,1085.4L775.0,1086.4L780.3,1083.8L778.0,1078.8L785.4,1078.9L785.6,1085.4Z" fill="none" stroke="rgba(0,0,0,0.2)" stroke-width="0.5"/>
  <path d="M482.0,1052.4L489.2,1052.4L492.9,1048.7L492.2,1043.5L499.9,1040.0L503.9,1042.5L513.4,1030.9L518.2,1033.2L529.3,1028.6L533.6,1028.8L531.8,1031.0L531.4,1029.7L530.9,1030.1L530.3,1031.0L533.0,1036.4L528.7,1047.3L529.6,1059.0L528.7,1054.4L526.3,1057.6L525.2,1072.3L527.6,1077.7L503.6,1074.2L482.0,1052.4Z" fill="none" stroke="rgba(0,0,0,0.2)" stroke-width="0.5"/>
  <path id="hl_USA" d="M0.1,443.2L0.0,443.4L0.0,441.1L0.1,443.2Z M396.5,560.1L396.7,553.6L400.3,554.6L403.1,564.7L421.5,566.6L437.5,576.3L445.5,573.2L462.7,577.5L473.9,572.0L513.7,595.7L517.3,602.9L522.5,601.9L524.1,609.5L529.8,610.4L527.9,614.2L540.3,621.4L544.8,649.4L540.5,664.3L533.3,673.1L538.9,678.9L580.4,661.5L578.7,651.2L583.5,648.8L605.2,648.6L627.3,626.7L673.0,623.0L691.8,586.3L708.0,592.6L708.1,615.2L717.5,629.7L705.2,637.5L703.6,634.4L700.5,634.9L699.4,636.2L699.7,639.0L696.8,633.8L692.3,643.5L687.8,645.8L687.3,642.3L685.9,644.5L685.9,646.5L685.7,641.8L685.1,647.5L679.9,648.2L673.3,661.1L676.3,664.1L671.2,668.9L679.3,678.1L683.1,676.7L682.2,673.0L683.8,678.8L669.6,681.9L670.5,676.9L667.3,676.6L666.1,683.5L650.0,684.4L638.8,692.0L639.0,686.7L637.9,684.6L634.4,696.6L637.8,697.3L636.5,707.3L637.0,703.5L636.9,703.1L632.9,710.6L632.2,712.9L632.9,713.5L626.7,719.8L627.3,716.1L619.8,709.7L621.6,706.9L624.6,705.9L625.9,703.8L621.7,706.4L619.5,709.2L625.7,727.1L624.2,727.4L625.0,728.7L616.9,741.1L617.1,741.8L616.1,742.5L615.4,745.9L615.6,739.4L619.0,733.9L616.2,734.0L616.6,727.4L614.4,729.9L611.2,726.4L615.2,724.5L610.9,723.5L613.6,720.5L610.5,721.1L616.7,710.2L607.7,714.9L610.3,728.2L607.1,726.2L610.6,729.0L611.1,732.7L603.1,726.3L600.5,727.6L603.3,723.2L603.2,720.9L602.6,720.2L599.5,728.2L612.0,734.7L609.1,738.2L604.2,731.9L602.7,730.9L601.9,730.9L608.5,738.7L611.6,739.5L609.2,744.1L606.5,740.6L605.7,740.4L611.7,746.9L605.0,743.0L600.3,743.1L607.2,745.0L608.8,749.6L614.8,748.6L620.2,764.7L615.4,751.6L617.3,760.6L612.5,757.2L614.1,759.5L608.2,761.6L607.0,761.0L607.1,757.7L606.5,757.2L606.5,762.6L614.3,762.0L614.4,766.7L618.0,764.2L613.1,770.9L602.8,768.3L609.5,772.0L606.1,775.9L602.5,773.6L604.1,776.0L610.9,777.4L601.9,779.1L599.6,781.8L598.9,781.5L599.6,780.6L598.5,779.2L598.3,781.2L599.1,782.3L597.3,783.1L595.1,785.2L593.9,786.7L593.5,787.9L593.1,790.1L592.7,790.5L592.9,788.1L592.5,786.9L591.8,791.0L583.4,792.6L576.2,803.0L561.6,809.7L563.0,813.0L559.5,809.5L561.6,813.8L552.3,825.2L554.8,826.6L551.8,832.0L554.5,844.7L563.3,863.2L564.1,871.0L562.4,861.5L559.6,859.1L560.9,864.5L564.9,873.6L565.3,875.5L567.0,879.6L567.0,879.8L566.8,879.4L565.7,879.0L568.8,884.5L564.7,905.1L556.7,905.9L558.8,904.3L553.9,897.1L550.8,895.5L549.6,895.8L546.4,888.7L549.0,885.8L546.1,888.1L546.7,882.2L542.9,884.0L540.0,877.1L538.5,876.3L538.2,875.5L539.8,875.7L541.7,870.4L536.9,871.5L539.3,857.8L527.4,844.3L521.3,841.9L508.4,847.5L505.7,839.0L504.1,841.5L495.1,837.9L499.7,838.2L498.6,836.6L487.4,838.5L490.8,837.5L489.2,835.3L485.8,839.1L483.5,839.6L485.6,837.6L484.7,836.9L482.9,839.6L482.1,839.9L477.8,840.3L480.9,839.6L477.8,833.5L476.6,839.1L450.8,840.4L459.2,841.1L459.2,844.9L461.3,842.3L462.6,842.6L458.2,848.1L466.7,854.1L462.1,857.3L463.7,854.3L457.5,850.2L453.3,848.8L452.8,855.2L450.5,851.7L445.4,854.6L434.4,845.5L429.1,849.4L411.8,847.2L411.5,843.4L411.3,847.5L401.2,851.6L401.9,850.3L404.1,849.5L404.3,849.0L397.9,846.5L400.5,851.5L396.5,853.6L396.7,855.7L387.7,860.4L390.3,860.0L384.6,863.0L387.2,861.0L379.7,859.9L382.5,863.7L378.1,863.1L373.6,871.4L369.8,870.9L372.8,873.2L371.0,877.8L366.9,876.1L370.9,878.7L369.3,884.2L374.2,895.2L371.6,896.8L351.7,889.5L347.1,874.6L325.6,846.2L315.1,844.7L303.0,856.0L290.1,847.8L285.4,835.2L268.8,820.1L248.0,819.7L248.0,825.7L215.6,825.6L172.8,810.0L173.9,807.1L146.6,809.6L142.2,798.7L130.8,789.3L106.6,781.8L106.5,773.8L92.2,757.5L93.3,750.0L85.2,740.0L86.4,736.0L86.8,739.0L89.9,741.1L90.7,741.0L86.9,733.1L97.4,733.2L86.6,731.1L85.1,735.9L79.4,733.4L79.7,729.8L81.7,732.2L81.6,731.9L71.4,719.9L70.0,706.5L63.7,697.4L67.5,680.9L61.9,661.0L67.5,647.3L68.1,606.7L70.6,608.9L69.8,607.5L73.8,606.7L75.3,608.1L76.8,608.3L77.6,607.6L76.3,608.0L74.5,606.1L71.8,605.5L67.4,606.1L67.6,599.7L68.2,604.2L68.8,604.3L71.0,599.4L67.2,598.3L66.9,595.7L70.4,594.7L66.3,595.2L60.0,570.5L82.3,574.8L82.1,575.7L84.0,579.2L81.3,580.1L77.9,588.0L78.9,588.2L81.5,586.8L78.4,587.5L84.6,580.2L84.1,578.1L85.8,581.3L83.6,581.7L84.3,584.2L83.1,583.5L84.6,589.6L81.9,587.3L78.8,591.8L80.9,593.2L81.4,591.2L82.9,592.5L87.3,588.0L88.9,576.7L85.3,574.6L86.7,572.1L83.1,568.9L86.0,566.8L81.8,560.8L396.5,560.1Z M640.9,694.9L642.3,695.3L637.1,694.8L643.4,689.9L660.3,688.9L640.9,694.9Z" fill="none" stroke="rgba(0,0,0,0.2)" stroke-width="0.5">
    <animate attributeName="fill" values="rgba(0,0,0,0);rgba(230,57,70,0.45);rgba(230,57,70,0.45);rgba(0,0,0,0);rgba(0,0,0,0)" keyTimes="0.0000;0.0100;0.0800;0.1000;1.0000" dur="20s" repeatCount="indefinite"/>
    <animate attributeName="stroke" values="rgba(0,0,0,0.2);rgba(193,18,31,0.8);rgba(193,18,31,0.8);rgba(0,0,0,0.2);rgba(0,0,0,0.2)" keyTimes="0.0000;0.0100;0.0800;0.1000;1.0000" dur="20s" repeatCount="indefinite"/>
    <animate attributeName="stroke-width" values="0.5;1.5;1.5;0.5;0.5" keyTimes="0.0000;0.0100;0.0800;0.1000;1.0000" dur="20s" repeatCount="indefinite"/>
  </path>
  <path id="hl_BRA" d="M845.1,1536.5L867.2,1522.7L869.1,1511.2L866.3,1503.3L858.5,1502.6L862.5,1483.5L858.0,1480.4L849.1,1482.3L844.1,1461.7L819.9,1459.0L821.8,1445.3L817.9,1435.7L821.3,1433.5L818.3,1430.5L825.8,1412.3L822.0,1404.1L815.2,1400.6L815.9,1389.3L795.1,1389.0L790.4,1375.2L793.9,1375.0L791.6,1359.9L785.1,1356.0L776.1,1356.9L762.0,1346.6L748.2,1344.7L740.1,1338.9L735.6,1330.6L735.5,1312.1L721.4,1314.7L698.9,1328.6L675.8,1327.5L677.1,1309.2L668.3,1315.7L658.1,1315.8L656.8,1310.4L646.5,1308.9L649.2,1304.1L637.4,1287.5L640.3,1280.0L647.3,1275.2L649.9,1259.9L675.8,1248.3L683.4,1250.3L690.0,1214.9L682.4,1203.2L682.5,1194.7L692.9,1194.0L691.2,1189.6L684.8,1189.3L684.8,1182.0L704.0,1181.8L703.7,1178.5L706.7,1181.6L712.4,1177.1L716.3,1188.0L725.4,1192.9L733.3,1190.2L734.4,1193.9L758.6,1175.6L750.9,1173.3L749.1,1160.5L742.4,1152.6L751.0,1157.2L758.8,1156.3L764.1,1160.8L765.5,1155.6L785.9,1149.7L790.2,1145.0L788.6,1142.1L794.5,1141.4L797.2,1143.4L795.2,1149.8L800.5,1151.5L802.4,1156.5L797.1,1168.9L799.7,1180.2L810.3,1187.9L827.5,1178.9L843.0,1180.3L842.9,1172.6L854.4,1171.7L863.8,1177.4L868.0,1174.4L877.1,1176.6L892.8,1153.2L894.5,1156.6L893.6,1150.8L897.4,1159.8L898.5,1157.2L902.0,1177.8L905.5,1180.7L911.4,1181.8L912.2,1186.5L909.1,1187.5L912.1,1188.0L895.7,1202.3L888.8,1216.6L880.0,1219.6L885.7,1220.6L901.3,1211.8L901.2,1223.6L911.1,1222.2L913.0,1225.4L917.4,1221.6L917.1,1222.2L917.0,1222.5L917.9,1224.1L914.7,1231.9L922.6,1219.6L921.8,1222.4L926.1,1217.1L928.7,1220.3L933.2,1208.9L934.0,1210.3L935.9,1209.2L935.8,1207.8L936.7,1210.0L938.0,1209.3L938.3,1208.0L939.3,1210.1L940.5,1210.6L941.6,1208.1L945.6,1211.6L947.0,1209.5L947.8,1213.0L954.1,1211.7L953.4,1214.9L963.0,1216.0L961.6,1218.4L962.5,1219.0L964.0,1216.3L964.1,1221.2L969.3,1217.6L969.9,1222.0L972.3,1221.2L973.5,1224.7L969.8,1227.3L975.0,1228.0L971.7,1230.9L970.1,1239.0L974.2,1235.0L975.8,1229.6L978.8,1228.9L976.9,1234.1L985.7,1228.0L999.2,1233.7L1010.5,1235.7L1024.9,1233.8L1042.0,1243.5L1056.8,1257.3L1075.8,1260.0L1084.0,1283.3L1078.1,1306.5L1070.6,1311.3L1065.6,1321.6L1055.7,1327.6L1043.8,1349.8L1041.4,1350.8L1039.6,1345.6L1036.9,1347.5L1039.2,1349.1L1035.6,1354.5L1034.8,1357.6L1036.3,1360.4L1035.0,1358.9L1034.4,1359.2L1037.6,1384.1L1034.5,1405.8L1028.6,1412.9L1027.1,1428.9L1012.7,1451.8L1013.4,1458.3L1002.3,1464.7L1001.8,1470.2L990.2,1470.1L989.7,1466.3L984.2,1471.3L974.5,1469.7L971.2,1471.8L973.4,1474.1L963.1,1478.1L962.9,1480.7L952.0,1481.3L933.0,1495.8L934.9,1496.1L931.2,1501.1L932.2,1498.9L929.9,1498.2L925.1,1499.8L929.5,1502.5L924.8,1506.3L926.9,1510.3L924.5,1508.8L928.2,1522.6L925.0,1540.3L913.0,1552.2L902.6,1573.3L887.2,1588.3L887.1,1583.8L896.7,1578.9L904.4,1565.4L896.2,1559.6L896.4,1569.8L885.6,1582.6L887.0,1588.3L880.7,1601.4L872.4,1609.7L870.6,1601.9L875.4,1595.8L868.1,1586.8L847.2,1570.7L842.4,1573.8L833.1,1560.9L824.7,1562.9L845.1,1536.5Z M894.5,1214.9L888.7,1218.0L893.7,1208.3L896.7,1207.5L894.5,1214.9Z M922.3,1216.1L924.0,1217.9L916.2,1218.4L913.1,1222.1L907.9,1218.3L904.5,1221.9L901.7,1217.7L901.8,1213.8L904.5,1214.9L905.4,1213.2L901.8,1213.0L902.9,1205.5L906.8,1202.5L928.7,1204.3L922.3,1216.1Z M916.2,1198.0L910.8,1202.0L906.5,1200.1L916.2,1198.0Z" fill="none" stroke="rgba(0,0,0,0.2)" stroke-width="0.5">
    <animate attributeName="fill" values="rgba(0,0,0,0);rgba(0,0,0,0);rgba(230,57,70,0.45);rgba(230,57,70,0.45);rgba(0,0,0,0);rgba(0,0,0,0)" keyTimes="0.0000;0.1000;0.1100;0.1800;0.2000;1.0000" dur="20s" repeatCount="indefinite"/>
    <animate attributeName="stroke" values="rgba(0,0,0,0.2);rgba(0,0,0,0.2);rgba(193,18,31,0.8);rgba(193,18,31,0.8);rgba(0,0,0,0.2);rgba(0,0,0,0.2)" keyTimes="0.0000;0.1000;0.1100;0.1800;0.2000;1.0000" dur="20s" repeatCount="indefinite"/>
    <animate attributeName="stroke-width" values="0.5;0.5;1.5;1.5;0.5;0.5" keyTimes="0.0000;0.1000;0.1100;0.1800;0.2000;1.0000" dur="20s" repeatCount="indefinite"/>
  </path>
  <path id="hl_PER" d="M684.5,1411.6L678.6,1413.7L667.4,1406.1L665.9,1401.1L625.6,1379.5L615.6,1369.9L610.3,1361.2L612.3,1354.8L596.1,1330.7L580.8,1295.2L569.2,1278.3L556.2,1269.5L559.5,1265.8L554.1,1252.4L560.1,1244.0L566.1,1240.3L567.4,1245.7L563.7,1247.1L563.8,1251.9L573.2,1252.0L579.9,1258.5L588.0,1240.0L607.7,1230.3L619.7,1218.9L623.6,1212.4L618.9,1202.7L628.2,1203.3L634.5,1212.5L641.7,1215.7L649.7,1229.0L671.8,1226.4L682.6,1232.3L674.8,1244.5L679.6,1245.0L683.2,1250.5L675.8,1248.3L649.9,1259.9L647.3,1275.2L640.3,1280.0L637.4,1287.5L649.2,1304.1L646.5,1308.9L656.8,1310.4L658.1,1315.8L668.3,1315.7L677.1,1309.2L675.8,1327.5L687.9,1326.8L698.1,1344.8L693.4,1358.4L696.1,1364.5L690.3,1371.7L692.8,1376.8L689.6,1381.4L696.4,1389.8L684.5,1411.6Z" fill="none" stroke="rgba(0,0,0,0.2)" stroke-width="0.5">
    <animate attributeName="fill" values="rgba(0,0,0,0);rgba(0,0,0,0);rgba(230,57,70,0.45);rgba(230,57,70,0.45);rgba(0,0,0,0);rgba(0,0,0,0)" keyTimes="0.0000;0.2000;0.2100;0.2800;0.3000;1.0000" dur="20s" repeatCount="indefinite"/>
    <animate attributeName="stroke" values="rgba(0,0,0,0.2);rgba(0,0,0,0.2);rgba(193,18,31,0.8);rgba(193,18,31,0.8);rgba(0,0,0,0.2);rgba(0,0,0,0.2)" keyTimes="0.0000;0.2000;0.2100;0.2800;0.3000;1.0000" dur="20s" repeatCount="indefinite"/>
    <animate attributeName="stroke-width" values="0.5;0.5;1.5;1.5;0.5;0.5" keyTimes="0.0000;0.2000;0.2100;0.2800;0.3000;1.0000" dur="20s" repeatCount="indefinite"/>
  </path>
  <path id="hl_MEX" d="M365.5,937.2L372.1,950.0L371.0,953.6L371.5,950.3L366.8,943.5L368.1,948.6L388.7,984.4L396.3,984.7L403.8,991.2L428.0,985.1L438.5,987.9L442.0,985.2L439.3,983.4L441.3,981.6L438.3,983.3L446.7,977.4L450.0,970.0L451.3,956.9L456.3,954.0L476.7,949.4L491.5,951.6L491.0,958.7L481.1,973.0L484.9,974.2L480.0,990.8L477.8,982.6L468.3,994.4L444.2,995.4L444.1,1002.0L439.0,1002.2L450.9,1011.9L450.4,1015.7L435.6,1016.2L430.2,1025.5L430.1,1034.0L408.3,1014.2L404.9,1014.0L410.3,1016.9L399.9,1011.9L397.8,1013.7L400.4,1013.5L401.1,1014.6L381.4,1021.0L366.9,1017.2L329.5,1001.9L318.9,993.4L303.3,989.9L284.7,977.0L276.7,964.1L281.9,962.0L278.4,959.7L282.5,951.5L275.5,936.8L246.7,906.0L250.4,907.0L241.7,900.6L237.8,900.7L239.3,900.6L240.9,897.3L237.3,900.4L234.4,899.3L238.1,891.1L228.1,880.7L221.8,878.4L221.9,870.9L215.1,870.1L203.0,856.8L202.2,852.2L192.6,834.4L192.5,827.4L170.4,817.1L176.1,843.7L195.3,863.6L196.1,871.0L207.4,887.6L206.6,883.6L209.9,886.0L212.8,897.6L219.9,908.9L220.8,916.8L225.1,915.7L233.8,925.5L233.5,930.5L227.7,933.7L224.2,925.6L203.9,910.3L204.6,901.5L202.9,895.4L192.2,884.7L191.1,885.4L191.9,882.5L186.3,885.6L170.5,872.6L182.7,873.7L179.0,870.6L181.4,862.6L162.8,846.5L146.6,809.6L173.9,807.1L172.8,810.0L216.3,825.7L248.0,825.7L248.0,819.7L268.8,820.1L285.4,835.2L290.1,847.8L303.0,856.0L315.1,844.7L325.6,846.2L347.1,874.6L351.7,889.5L374.1,895.3L365.5,937.2Z" fill="none" stroke="rgba(0,0,0,0.2)" stroke-width="0.5">
    <animate attributeName="fill" values="rgba(0,0,0,0);rgba(0,0,0,0);rgba(230,57,70,0.45);rgba(230,57,70,0.45);rgba(0,0,0,0);rgba(0,0,0,0)" keyTimes="0.0000;0.3000;0.3100;0.3800;0.4000;1.0000" dur="20s" repeatCount="indefinite"/>
    <animate attributeName="stroke" values="rgba(0,0,0,0.2);rgba(0,0,0,0.2);rgba(193,18,31,0.8);rgba(193,18,31,0.8);rgba(0,0,0,0.2);rgba(0,0,0,0.2)" keyTimes="0.0000;0.3000;0.3100;0.3800;0.4000;1.0000" dur="20s" repeatCount="indefinite"/>
    <animate attributeName="stroke-width" values="0.5;0.5;1.5;1.5;0.5;0.5" keyTimes="0.0000;0.3000;0.3100;0.3800;0.4000;1.0000" dur="20s" repeatCount="indefinite"/>
  </path>
  <path id="hl_ARG" d="M698.8,1908.4L702.4,1913.5L703.3,1917.1L699.6,1919.7L710.8,1932.5L723.2,1943.4L738.4,1946.9L736.0,1952.5L723.5,1954.9L699.7,1950.9L698.8,1908.4Z M726.1,1455.5L744.6,1460.7L747.7,1468.9L752.0,1458.2L765.1,1458.2L785.5,1480.4L822.6,1497.6L824.6,1502.4L812.9,1524.7L845.3,1526.3L856.3,1516.1L858.5,1502.6L866.3,1503.3L869.1,1511.2L867.2,1522.7L845.1,1536.5L821.0,1566.8L813.3,1617.2L828.3,1630.5L827.0,1640.8L834.9,1649.5L824.8,1671.2L799.3,1681.7L769.9,1681.1L773.9,1689.4L771.0,1688.6L772.9,1696.1L768.6,1703.4L772.1,1708.1L765.9,1714.4L753.9,1716.1L738.6,1711.4L740.0,1730.4L746.4,1735.8L754.1,1730.1L755.8,1740.5L740.7,1739.0L748.0,1744.1L736.3,1754.8L737.6,1765.9L731.8,1773.0L734.1,1774.9L718.1,1780.2L710.7,1792.1L712.5,1801.6L719.7,1808.9L731.6,1812.2L730.4,1821.3L728.3,1821.2L724.2,1823.3L731.4,1824.8L710.9,1843.1L707.1,1860.3L702.0,1862.4L698.4,1856.0L697.5,1855.5L699.3,1859.0L694.4,1860.5L701.9,1863.0L695.9,1866.2L689.8,1879.7L692.6,1877.8L694.9,1888.4L690.2,1888.3L687.5,1889.6L694.8,1889.5L701.7,1902.2L700.9,1903.7L683.7,1896.6L660.7,1895.9L655.2,1888.3L656.9,1871.9L646.9,1873.7L642.4,1859.1L656.9,1831.6L654.2,1824.2L663.9,1803.6L663.0,1785.3L668.1,1780.3L659.3,1772.5L670.3,1768.8L661.9,1766.0L663.3,1747.3L658.9,1745.0L658.7,1738.1L663.4,1730.2L660.9,1709.5L663.6,1692.9L667.2,1682.7L673.6,1678.0L669.5,1652.9L678.7,1641.8L676.5,1630.6L685.1,1616.4L685.5,1604.7L681.9,1601.9L677.0,1575.2L685.0,1561.6L682.7,1550.3L687.1,1538.6L696.6,1522.2L702.1,1521.2L699.1,1513.8L701.7,1496.9L699.4,1492.5L713.4,1482.8L716.9,1466.2L726.1,1455.5Z" fill="none" stroke="rgba(0,0,0,0.2)" stroke-width="0.5">
    <animate attributeName="fill" values="rgba(0,0,0,0);rgba(0,0,0,0);rgba(230,57,70,0.45);rgba(230,57,70,0.45);rgba(0,0,0,0);rgba(0,0,0,0)" keyTimes="0.0000;0.4000;0.4100;0.4800;0.5000;1.0000" dur="20s" repeatCount="indefinite"/>
    <animate attributeName="stroke" values="rgba(0,0,0,0.2);rgba(0,0,0,0.2);rgba(193,18,31,0.8);rgba(193,18,31,0.8);rgba(0,0,0,0.2);rgba(0,0,0,0.2)" keyTimes="0.0000;0.4000;0.4100;0.4800;0.5000;1.0000" dur="20s" repeatCount="indefinite"/>
    <animate attributeName="stroke-width" values="0.5;0.5;1.5;1.5;0.5;0.5" keyTimes="0.0000;0.4000;0.4100;0.4800;0.5000;1.0000" dur="20s" repeatCount="indefinite"/>
  </path>
  <path id="hl_COL" d="M580.4,1182.7L585.5,1181.1L585.5,1173.7L594.8,1171.9L603.1,1156.8L598.5,1155.5L600.7,1152.8L597.1,1138.7L600.6,1136.0L599.5,1126.5L593.2,1118.8L594.7,1113.4L596.8,1115.5L601.6,1110.8L598.5,1102.8L606.2,1110.9L604.0,1103.8L619.1,1093.3L620.2,1084.2L618.2,1085.5L620.3,1083.3L620.3,1080.4L623.2,1077.8L628.0,1074.2L634.2,1075.5L630.8,1077.0L633.1,1078.4L635.8,1071.5L645.6,1072.0L657.4,1065.2L658.8,1060.9L668.8,1059.9L670.2,1063.7L660.5,1067.9L652.6,1077.1L644.5,1096.6L651.3,1097.2L656.5,1108.9L654.9,1116.0L660.4,1121.4L681.7,1121.9L691.7,1132.1L712.2,1130.7L707.3,1149.8L713.8,1162.9L707.7,1168.5L707.5,1169.6L715.1,1174.1L718.6,1186.0L716.3,1188.0L712.4,1177.1L706.7,1181.6L703.7,1178.5L704.0,1181.8L684.8,1182.0L684.8,1189.3L691.2,1189.6L692.9,1194.0L682.5,1194.7L682.4,1203.2L690.0,1214.9L683.5,1249.6L674.8,1244.5L681.9,1231.3L663.2,1225.7L649.7,1229.0L641.7,1215.7L634.5,1212.5L628.2,1203.3L611.4,1196.1L608.4,1198.9L598.9,1197.0L580.4,1182.7Z" fill="none" stroke="rgba(0,0,0,0.2)" stroke-width="0.5">
    <animate attributeName="fill" values="rgba(0,0,0,0);rgba(0,0,0,0);rgba(230,57,70,0.45);rgba(230,57,70,0.45);rgba(0,0,0,0);rgba(0,0,0,0)" keyTimes="0.0000;0.5000;0.5100;0.5800;0.6000;1.0000" dur="20s" repeatCount="indefinite"/>
    <animate attributeName="stroke" values="rgba(0,0,0,0.2);rgba(0,0,0,0.2);rgba(193,18,31,0.8);rgba(193,18,31,0.8);rgba(0,0,0,0.2);rgba(0,0,0,0.2)" keyTimes="0.0000;0.5000;0.5100;0.5800;0.6000;1.0000" dur="20s" repeatCount="indefinite"/>
    <animate attributeName="stroke-width" values="0.5;0.5;1.5;1.5;0.5;0.5" keyTimes="0.0000;0.5000;0.5100;0.5800;0.6000;1.0000" dur="20s" repeatCount="indefinite"/>
  </path>
  <path id="hl_CHL" d="M620.9,1848.1L627.4,1849.1L628.2,1841.9L625.5,1839.6L631.4,1837.7L632.2,1859.3L627.2,1859.0L630.2,1848.9L626.3,1851.2L626.1,1858.5L620.9,1848.1Z M626.1,1835.7L629.2,1827.8L632.0,1835.7L626.1,1835.7Z M634.0,1917.0L629.0,1910.6L641.9,1916.3L646.5,1922.1L634.0,1917.0Z M648.9,1765.8L652.1,1768.5L645.8,1775.0L643.6,1770.3L648.9,1765.8Z M636.9,1726.0L643.2,1726.5L644.6,1733.4L641.4,1734.4L642.0,1736.8L639.6,1736.8L639.8,1738.3L643.4,1741.6L640.9,1742.3L643.2,1746.4L640.1,1746.2L639.3,1751.0L633.5,1747.1L636.9,1726.0Z M695.8,1963.8L696.8,1957.7L694.7,1959.2L693.1,1956.8L693.0,1958.8L691.8,1956.4L689.5,1957.1L692.7,1964.2L682.8,1956.8L687.9,1957.0L688.5,1954.5L700.9,1952.7L693.8,1954.8L703.5,1959.1L700.2,1960.1L698.4,1959.0L697.4,1959.3L705.5,1967.8L695.8,1963.8Z M701.8,1952.5L716.7,1955.8L714.2,1960.0L701.8,1952.5Z M671.4,1936.0L671.8,1939.6L664.3,1938.8L665.4,1933.2L671.4,1936.0Z M645.5,1933.8L646.2,1928.8L642.0,1926.9L649.5,1927.8L644.2,1924.3L648.5,1922.5L650.3,1928.2L650.6,1923.8L658.8,1930.4L645.5,1933.8Z M697.5,1951.9L674.5,1950.8L678.0,1946.7L671.4,1949.5L660.3,1944.2L674.0,1940.5L674.4,1946.0L681.6,1944.9L672.5,1936.5L685.7,1945.1L684.7,1939.8L691.8,1942.9L689.8,1946.5L690.2,1947.6L694.6,1943.4L681.1,1931.1L690.5,1921.9L677.7,1921.1L682.1,1913.5L678.4,1910.6L684.1,1912.3L689.8,1904.9L698.8,1908.4L698.6,1951.0L694.9,1949.8L697.5,1951.9Z M694.6,1421.0L700.8,1426.9L697.2,1438.8L703.5,1449.4L707.2,1468.2L717.1,1470.4L713.2,1483.2L699.4,1492.5L701.7,1496.9L699.1,1513.8L702.1,1521.2L696.6,1522.2L687.1,1538.6L682.7,1550.3L685.0,1561.6L677.0,1575.2L681.9,1601.9L685.5,1604.7L685.1,1616.4L676.5,1630.6L678.7,1641.8L669.5,1652.9L673.6,1678.0L667.2,1682.7L663.6,1692.9L660.9,1709.5L663.4,1730.2L658.7,1738.1L658.9,1745.0L663.3,1747.3L661.9,1766.0L670.3,1768.8L659.3,1772.5L668.1,1780.3L663.0,1785.3L663.9,1803.6L660.9,1805.7L661.7,1812.5L656.2,1816.3L654.2,1824.2L657.0,1831.3L653.6,1839.2L642.3,1852.2L646.9,1873.7L656.9,1871.9L655.2,1888.3L660.7,1895.9L683.7,1896.6L700.7,1902.1L700.8,1902.9L691.8,1900.3L673.3,1909.9L672.0,1929.6L668.5,1932.1L655.2,1922.9L662.0,1919.5L662.5,1925.1L670.4,1913.7L667.2,1910.1L660.1,1917.6L657.1,1915.7L653.9,1916.7L658.2,1918.6L653.0,1921.2L656.2,1925.4L645.5,1918.1L652.2,1920.7L649.4,1911.9L655.4,1912.5L665.2,1906.9L650.6,1905.8L649.1,1909.6L652.7,1908.6L648.8,1912.2L649.2,1916.2L646.7,1917.2L643.8,1914.9L646.5,1913.1L642.6,1911.4L646.3,1911.2L650.0,1905.7L641.0,1909.8L643.3,1905.3L640.6,1897.0L645.5,1900.6L649.0,1897.7L648.1,1900.9L650.5,1901.2L651.2,1895.3L654.3,1900.6L649.8,1904.8L654.4,1904.8L655.0,1892.6L652.5,1889.0L648.1,1885.8L646.0,1886.8L654.1,1891.7L645.8,1889.2L649.9,1893.9L646.4,1898.2L645.2,1891.5L644.6,1890.1L645.4,1899.6L641.6,1893.7L644.4,1896.8L643.7,1890.7L638.7,1889.6L638.9,1884.9L642.1,1889.3L641.1,1880.7L634.7,1877.1L639.8,1877.5L642.6,1867.5L637.1,1875.0L634.2,1868.9L639.0,1870.0L637.4,1866.8L629.7,1863.6L639.2,1865.5L633.4,1859.5L638.9,1861.7L633.6,1856.6L636.7,1852.2L640.9,1856.2L636.2,1850.2L639.6,1843.5L634.8,1852.0L632.2,1843.3L636.9,1838.3L633.1,1835.9L637.7,1835.8L638.8,1832.6L630.4,1826.2L642.6,1829.8L645.0,1829.4L645.8,1828.0L645.8,1827.0L643.5,1827.7L641.5,1823.9L643.2,1825.3L646.4,1825.7L640.8,1817.6L638.5,1823.0L629.2,1820.9L637.1,1819.0L631.6,1816.0L637.9,1813.0L638.3,1809.2L636.1,1805.9L626.1,1804.7L626.9,1799.4L623.9,1802.6L621.5,1802.7L619.7,1803.6L618.7,1804.9L621.5,1807.6L618.8,1806.7L618.1,1803.0L633.5,1788.8L637.9,1793.6L632.0,1795.4L639.3,1797.9L638.9,1794.6L640.2,1797.5L637.7,1801.5L640.5,1801.0L645.0,1792.7L641.1,1797.5L641.4,1791.9L646.9,1786.7L642.2,1788.7L643.2,1783.3L650.9,1782.8L643.9,1780.5L644.4,1775.8L652.1,1772.1L653.5,1768.1L645.7,1762.5L651.0,1757.0L648.0,1749.3L652.0,1745.6L650.8,1737.0L654.2,1737.5L650.7,1733.2L655.6,1735.7L655.1,1728.6L650.2,1727.6L656.9,1723.6L656.9,1719.5L655.5,1723.8L649.5,1721.1L643.1,1725.9L638.3,1714.5L640.9,1698.3L644.7,1697.3L646.4,1690.2L641.2,1660.1L646.6,1657.4L664.6,1606.9L663.1,1600.9L667.1,1591.3L663.6,1567.6L668.5,1557.9L665.8,1545.7L676.0,1512.3L678.7,1477.6L676.3,1473.5L682.5,1451.2L678.6,1413.7L683.5,1412.7L688.7,1403.8L694.6,1421.0Z" fill="none" stroke="rgba(0,0,0,0.2)" stroke-width="0.5">
    <animate attributeName="fill" values="rgba(0,0,0,0);rgba(0,0,0,0);rgba(230,57,70,0.45);rgba(230,57,70,0.45);rgba(0,0,0,0);rgba(0,0,0,0)" keyTimes="0.0000;0.6000;0.6100;0.6800;0.7000;1.0000" dur="20s" repeatCount="indefinite"/>
    <animate attributeName="stroke" values="rgba(0,0,0,0.2);rgba(0,0,0,0.2);rgba(193,18,31,0.8);rgba(193,18,31,0.8);rgba(0,0,0,0.2);rgba(0,0,0,0.2)" keyTimes="0.0000;0.6000;0.6100;0.6800;0.7000;1.0000" dur="20s" repeatCount="indefinite"/>
    <animate attributeName="stroke-width" values="0.5;0.5;1.5;1.5;0.5;0.5" keyTimes="0.0000;0.6000;0.6100;0.6800;0.7000;1.0000" dur="20s" repeatCount="indefinite"/>
  </path>
  <path id="hl_VEN" d="M788.7,1115.5L792.7,1122.2L783.3,1126.2L781.1,1133.6L790.2,1145.0L785.9,1149.7L765.7,1155.5L764.1,1160.8L758.8,1156.3L751.0,1157.2L742.3,1152.7L749.1,1160.5L750.9,1173.3L758.6,1175.6L733.9,1194.0L733.3,1190.2L725.4,1192.9L718.7,1187.5L715.1,1174.1L707.5,1169.6L713.8,1162.9L707.3,1149.8L712.2,1130.7L691.7,1132.1L681.7,1121.9L660.4,1121.4L654.9,1116.0L656.5,1108.9L651.3,1097.2L644.5,1096.3L654.7,1074.0L660.7,1067.8L667.7,1065.6L660.8,1068.6L665.2,1078.7L658.9,1089.0L663.7,1097.7L669.0,1096.8L671.3,1090.0L665.1,1077.7L681.3,1068.9L685.5,1070.4L679.7,1065.5L682.9,1061.5L687.4,1070.0L701.3,1073.1L704.4,1081.4L725.5,1079.5L739.1,1086.5L755.4,1081.3L748.8,1081.1L748.4,1079.2L776.0,1078.4L763.7,1080.9L762.8,1083.8L767.1,1085.5L762.6,1085.8L765.1,1087.1L767.2,1086.0L767.6,1084.4L771.8,1091.2L772.0,1086.8L787.9,1094.1L784.6,1097.4L783.2,1103.1L778.2,1103.3L782.4,1105.5L794.7,1102.9L799.1,1107.0L788.7,1115.5Z" fill="none" stroke="rgba(0,0,0,0.2)" stroke-width="0.5">
    <animate attributeName="fill" values="rgba(0,0,0,0);rgba(0,0,0,0);rgba(230,57,70,0.45);rgba(230,57,70,0.45);rgba(0,0,0,0);rgba(0,0,0,0)" keyTimes="0.0000;0.7000;0.7100;0.7800;0.8000;1.0000" dur="20s" repeatCount="indefinite"/>
    <animate attributeName="stroke" values="rgba(0,0,0,0.2);rgba(0,0,0,0.2);rgba(193,18,31,0.8);rgba(193,18,31,0.8);rgba(0,0,0,0.2);rgba(0,0,0,0.2)" keyTimes="0.0000;0.7000;0.7100;0.7800;0.8000;1.0000" dur="20s" repeatCount="indefinite"/>
    <animate attributeName="stroke-width" values="0.5;0.5;1.5;1.5;0.5;0.5" keyTimes="0.0000;0.7000;0.7100;0.7800;0.8000;1.0000" dur="20s" repeatCount="indefinite"/>
  </path>
  <path id="hl_CAN" d="M13.2,486.9L9.4,488.8L10.5,481.9L15.7,484.7L16.0,494.9L15.2,488.2L14.1,493.8L10.8,492.3L13.2,486.9Z M0.0,482.6L0.0,478.9L0.8,479.4L2.2,484.2L0.0,482.6Z M55.7,564.5L54.8,563.4L58.7,559.6L59.4,557.3L59.1,555.7L51.4,561.4L46.5,552.3L39.5,553.4L44.5,548.3L35.9,542.9L32.5,544.8L33.1,539.8L23.9,540.4L23.6,534.2L29.1,535.8L29.4,531.7L22.1,534.4L18.0,528.7L51.8,536.6L54.9,543.8L58.3,547.3L59.3,551.8L70.4,557.9L74.5,569.8L55.7,564.5Z M106.6,18.5L82.0,32.8L54.0,1.6L57.4,1.2L46.9,1.3L47.4,0.0L109.5,0.0L106.6,18.5Z M78.7,560.1L76.9,555.2L80.1,555.1L81.3,552.3L76.6,554.1L77.8,547.7L74.0,551.2L73.6,553.2L67.6,549.0L70.9,551.2L73.6,547.7L69.1,546.6L71.1,540.8L70.3,539.7L65.1,546.9L58.9,541.5L60.5,542.7L61.4,538.2L60.2,536.6L63.6,534.5L64.2,533.4L56.0,536.7L58.4,532.1L59.0,525.9L54.9,535.0L52.9,532.8L50.4,534.1L51.8,529.6L49.3,534.6L48.0,533.0L45.5,534.1L42.3,533.2L49.9,528.9L51.2,525.7L49.7,522.7L46.4,530.3L43.4,527.0L39.3,527.5L43.6,525.7L39.7,523.2L29.3,525.6L28.7,522.6L25.2,520.3L31.6,519.3L32.6,518.7L32.8,517.3L25.3,517.9L27.9,516.0L28.8,513.1L37.8,512.8L38.7,511.6L29.3,512.3L30.2,508.7L26.8,511.8L28.8,512.5L26.0,516.3L24.1,508.9L32.5,500.4L37.9,506.5L37.0,499.0L31.6,497.8L34.9,493.0L34.5,490.8L27.1,500.8L22.6,499.9L24.2,495.4L19.4,501.2L18.3,500.8L22.4,489.2L17.7,490.9L17.3,484.8L11.7,477.0L24.2,483.3L13.6,475.9L16.0,467.9L11.3,470.4L8.1,480.3L0.0,470.9L0.0,468.5L5.8,463.6L0.0,462.4L0.0,462.1L0.5,462.2L0.0,461.5L0.0,456.4L1.4,456.4L0.0,454.6L0.0,451.0L4.1,449.1L0.0,448.4L0.0,448.4L5.9,439.2L2.0,436.5L2.4,441.8L0.0,446.2L0.0,77.7L12.7,70.8L9.4,75.5L12.1,80.5L18.9,65.6L28.3,62.5L20.5,56.5L22.9,50.0L51.8,92.3L55.9,87.9L49.8,89.0L55.6,86.7L52.7,80.1L59.0,79.4L53.7,76.2L61.1,70.4L54.6,69.9L63.7,64.8L62.5,78.7L67.9,80.5L63.5,90.7L75.3,89.2L79.9,75.4L95.1,76.9L146.1,105.8L164.3,103.4L183.2,121.3L164.6,135.8L169.4,139.4L206.2,143.0L227.0,133.4L238.3,142.0L241.1,152.8L243.2,144.7L245.1,152.9L250.6,155.0L251.8,161.8L243.4,158.8L259.1,182.0L252.8,170.0L254.5,161.0L260.9,168.2L255.2,148.5L250.4,142.3L254.4,135.1L251.5,133.7L251.9,130.7L268.2,128.9L277.3,113.8L251.7,125.3L254.9,128.4L241.2,125.1L247.3,114.4L270.7,104.2L290.5,132.5L302.7,128.4L316.3,142.8L360.2,139.7L357.7,130.6L365.2,142.7L369.4,145.7L373.3,144.8L372.9,135.8L363.3,138.5L356.2,121.9L382.5,123.8L378.4,133.0L388.3,124.4L381.8,149.2L386.0,149.5L385.8,156.8L391.9,152.0L389.0,158.4L394.7,163.0L381.9,161.5L389.1,175.1L391.2,172.8L386.0,165.6L396.0,164.0L394.6,147.0L390.4,141.6L393.0,131.6L400.8,132.4L417.0,113.8L412.7,114.7L414.8,107.4L411.8,100.3L402.6,110.2L409.8,97.4L406.7,92.2L415.3,88.3L411.7,97.1L416.1,86.7L389.5,78.5L381.0,65.4L384.5,50.7L389.5,51.6L380.2,43.1L381.3,26.1L392.4,25.4L394.2,17.8L388.1,14.3L403.0,4.9L395.9,1.9L413.1,8.6L421.5,23.6L420.8,40.7L438.2,64.6L428.5,62.1L426.0,67.3L433.3,69.2L422.1,80.7L451.9,87.9L438.9,91.2L450.5,106.3L448.5,119.9L452.3,126.1L463.0,94.5L477.9,108.5L480.6,123.4L473.7,124.6L473.9,134.3L485.4,155.4L483.7,159.8L495.2,152.1L504.7,111.1L514.8,110.8L510.1,106.6L517.7,101.7L507.0,93.6L508.6,76.9L505.9,74.7L519.9,74.6L526.8,79.6L543.6,81.8L531.8,85.1L554.8,99.3L545.8,106.3L554.9,113.8L539.1,120.2L555.2,149.7L552.2,163.2L528.7,182.0L523.6,173.9L525.4,172.3L524.7,166.6L520.7,171.1L521.0,168.0L517.1,163.8L519.5,164.0L513.0,161.6L516.5,163.8L512.3,164.2L509.8,166.6L516.9,165.0L527.2,186.2L509.6,184.2L507.0,175.5L492.0,177.0L502.6,187.2L485.2,210.3L459.0,193.3L438.4,193.3L455.9,197.5L466.3,210.3L490.3,215.4L476.9,242.0L454.0,242.3L457.5,247.1L452.3,245.5L455.8,250.5L452.9,255.6L412.4,240.7L413.9,248.7L431.5,253.4L426.4,257.1L427.3,257.8L435.2,253.0L439.6,258.9L446.5,261.1L448.3,269.6L427.5,275.6L433.9,280.6L425.6,280.6L423.2,287.2L427.3,292.2L424.2,288.7L418.4,286.8L423.9,290.5L414.2,297.0L418.2,302.0L410.0,308.8L410.0,317.3L400.8,331.4L402.4,357.2L398.5,364.0L407.6,369.5L405.8,382.2L407.9,370.1L419.1,370.5L427.8,400.7L422.6,409.9L443.7,402.6L468.2,411.1L482.5,428.7L510.9,441.9L507.9,446.6L507.6,448.9L511.7,443.0L542.7,445.6L543.1,488.2L552.4,500.7L548.5,501.5L547.8,502.7L562.5,511.6L564.4,518.1L557.7,523.9L567.7,519.1L576.9,529.5L572.7,517.3L577.0,512.4L580.5,516.1L581.2,520.6L582.4,521.6L584.2,515.7L580.2,510.6L587.4,501.7L580.8,487.1L578.9,474.1L581.8,472.0L577.3,466.7L580.1,465.0L571.9,455.6L594.5,443.4L601.9,435.7L607.1,427.9L608.9,419.8L608.7,405.8L604.0,390.7L598.1,382.4L585.6,373.5L585.6,366.1L595.7,356.3L593.0,355.9L594.6,349.4L596.9,349.7L598.4,352.3L599.9,352.6L597.2,348.6L601.3,341.4L596.2,341.3L598.8,339.7L595.0,333.0L598.7,330.2L594.0,327.9L597.6,323.4L589.8,324.5L598.0,306.9L592.2,302.7L590.3,288.6L598.1,281.3L631.2,293.2L629.0,290.6L641.3,284.0L653.2,293.0L651.3,299.8L660.4,303.6L659.4,305.3L657.6,305.0L656.9,306.2L665.1,305.1L661.6,309.5L665.2,316.0L681.4,317.6L684.1,324.1L687.8,317.6L690.3,321.6L685.1,330.7L687.7,338.7L685.5,343.0L671.3,341.3L688.1,345.9L685.9,358.2L691.9,359.9L688.3,361.5L689.4,367.5L684.7,363.9L685.4,369.0L680.2,370.2L685.2,374.1L697.1,366.9L703.7,375.2L701.9,384.3L694.9,387.8L690.3,391.9L701.1,386.2L705.8,374.4L707.5,380.3L704.4,385.2L707.5,381.9L708.9,376.8L709.2,388.5L724.3,368.4L729.3,373.5L728.1,379.8L730.6,374.4L728.9,367.0L736.4,364.2L731.9,361.7L736.0,358.9L733.7,354.3L740.2,356.7L734.4,347.5L740.2,348.1L737.4,345.2L741.6,334.5L747.1,337.2L742.0,343.0L747.1,339.8L745.5,345.0L749.4,342.0L748.4,348.1L749.8,350.0L752.3,350.6L751.1,350.8L750.1,353.7L754.5,353.6L750.7,356.6L758.5,359.0L757.8,362.5L751.7,363.5L751.0,364.8L761.3,363.8L759.1,368.3L764.6,372.1L756.1,380.4L767.9,376.7L763.9,382.4L767.0,383.0L761.9,383.6L759.0,387.3L768.9,383.1L770.7,386.3L768.1,386.9L766.5,388.4L772.6,387.5L772.9,391.3L775.5,394.7L768.1,397.7L781.5,406.3L775.3,412.5L777.8,416.1L768.5,412.6L773.2,411.5L767.5,412.4L777.5,417.0L772.5,419.5L778.7,423.0L773.3,422.7L781.7,424.2L779.9,428.6L788.7,432.3L786.2,434.3L790.1,432.4L789.2,437.6L793.2,433.2L791.5,441.9L793.2,439.0L794.8,440.3L789.2,449.0L799.5,442.3L797.4,446.5L803.5,446.1L800.0,449.5L797.9,454.0L806.5,444.1L804.0,449.3L808.1,445.7L809.3,451.9L827.1,457.0L801.8,467.5L815.5,464.0L795.5,472.7L795.4,477.5L787.2,471.7L786.5,474.0L796.3,477.9L792.3,480.8L795.5,482.4L810.2,469.5L822.1,467.1L815.7,464.4L825.8,464.6L830.3,471.9L824.9,476.4L826.8,479.4L837.1,472.5L834.2,474.5L842.8,477.1L839.5,477.1L845.4,484.8L840.6,487.1L844.8,490.6L840.7,491.0L845.3,494.7L836.8,495.2L845.5,497.1L840.3,498.0L846.9,502.2L831.5,516.8L823.3,515.8L812.1,519.9L808.3,528.9L807.4,526.6L795.4,538.7L777.4,540.7L766.1,536.9L723.3,537.7L713.0,554.1L700.8,556.5L686.8,574.6L678.9,570.8L671.9,569.2L670.9,569.6L686.1,575.1L674.6,592.5L672.2,593.7L667.8,598.3L661.7,599.1L649.0,607.1L637.8,618.7L633.3,617.7L638.0,621.1L635.8,621.6L629.5,626.8L623.1,629.0L605.7,648.3L583.5,648.8L578.7,651.2L580.4,661.5L541.4,678.9L533.3,673.1L540.5,664.3L544.8,649.4L540.4,622.0L527.9,614.2L529.8,610.4L524.1,609.5L522.5,601.9L517.3,602.9L513.7,595.7L473.9,572.0L462.7,577.5L445.5,573.2L437.5,576.3L421.5,566.6L403.1,564.7L399.3,554.0L394.0,560.1L78.7,560.1Z M6.8,65.9L0.0,73.1L0.0,66.1L6.8,65.9Z M381.2,119.8L346.1,101.6L359.7,92.6L358.1,83.6L364.1,88.5L360.1,83.0L365.2,73.4L384.6,92.4L389.1,106.4L396.1,107.1L381.2,119.8Z M316.2,72.6L311.1,77.6L312.3,84.8L301.8,80.1L307.2,87.0L305.2,98.6L315.6,86.3L321.6,97.4L307.8,108.8L283.2,105.7L285.6,100.1L268.6,96.5L266.6,86.3L258.1,101.7L238.8,111.1L190.8,119.6L193.1,118.3L185.9,108.3L187.4,96.4L159.7,92.9L143.0,70.3L176.4,59.4L198.3,63.3L210.8,58.8L182.3,45.7L141.3,49.5L131.8,36.2L170.1,17.3L134.8,22.5L140.1,12.1L123.7,8.3L129.4,0.0L246.2,0.0L247.7,10.1L253.4,13.9L259.0,3.6L256.5,0.0L287.9,0.0L291.9,15.4L289.3,33.3L300.9,49.5L329.9,63.7L330.4,81.1L316.2,72.6Z M378.4,2.9L380.4,6.6L367.9,13.9L361.0,3.6L358.6,10.1L363.9,17.0L356.0,26.3L334.4,0.0L380.7,0.0L378.4,2.9Z M557.6,492.3L545.8,487.2L556.5,483.8L560.3,492.8L557.6,492.3Z M534.4,291.3L527.1,292.3L524.4,285.5L531.7,272.9L547.3,274.9L534.4,291.3Z M557.7,259.8L542.4,254.5L534.2,240.7L507.2,268.1L504.2,251.5L487.0,254.4L498.8,243.0L496.2,230.0L499.2,208.5L506.8,193.9L513.1,213.3L517.4,206.0L545.4,227.6L551.2,240.8L546.6,245.7L559.2,242.5L567.3,251.5L557.7,259.8Z M526.2,197.0L532.7,200.0L525.6,201.5L518.3,187.9L526.2,197.0Z M494.2,141.7L489.7,131.0L493.4,124.0L496.1,131.0L494.2,141.7Z M409.2,0.6L396.1,0.2L396.2,0.0L409.4,0.0L409.2,0.6Z M577.7,414.8L581.5,420.4L582.0,422.1L578.3,431.6L580.8,423.4L580.9,420.8L580.1,421.4L580.0,424.7L577.4,431.5L578.9,424.0L571.2,430.8L577.7,414.8Z M572.0,305.9L566.0,297.5L571.2,285.8L577.1,293.6L572.0,305.9Z M592.7,269.0L585.8,259.8L595.7,260.1L596.1,267.6L592.7,269.0Z M625.3,147.6L616.1,155.7L603.6,156.1L599.8,142.3L611.4,123.3L625.4,132.5L625.3,147.6Z M658.2,155.2L649.0,126.3L643.3,125.1L646.5,121.9L641.9,125.9L638.2,120.8L640.4,112.3L635.1,117.7L626.4,108.4L629.8,106.3L625.7,105.4L628.4,99.8L607.7,112.5L607.5,102.0L619.4,95.2L607.6,84.9L612.7,80.9L601.1,81.6L605.8,79.1L599.9,75.2L603.7,71.9L596.2,75.8L596.4,78.5L595.7,75.8L595.4,63.2L579.5,53.0L582.5,48.5L573.9,56.1L581.5,59.8L582.9,74.0L549.2,65.9L560.5,77.2L558.4,79.4L551.4,71.0L534.6,59.5L549.8,72.1L503.4,70.1L494.7,62.1L494.2,57.7L497.6,53.9L496.7,52.2L479.9,62.0L467.9,51.6L460.5,32.6L489.5,36.0L457.1,23.9L454.9,14.7L457.7,8.6L454.1,2.6L455.9,0.0L496.5,0.0L514.2,25.8L510.1,25.3L491.6,36.2L512.7,29.0L510.7,32.9L514.6,38.4L516.6,12.2L509.4,12.1L506.0,3.6L500.7,0.6L500.5,0.0L559.9,0.0L558.1,4.1L562.7,0.0L578.3,0.0L578.0,0.9L586.3,4.6L584.7,0.0L587.6,0.0L594.9,9.1L588.3,0.0L612.8,0.0L610.1,5.1L614.6,0.0L619.5,0.0L613.7,11.1L616.3,10.7L622.7,0.0L634.9,0.0L635.1,6.0L621.5,17.3L630.2,11.7L629.2,15.2L626.0,16.6L624.5,19.3L629.6,21.9L625.7,29.3L630.4,22.1L631.6,12.3L641.9,8.3L634.0,21.2L637.2,20.2L634.8,28.7L642.5,16.1L644.7,22.2L638.7,33.8L643.9,23.6L648.4,26.4L645.8,28.0L643.8,34.8L644.7,36.5L654.1,12.2L670.4,26.4L666.4,33.6L659.8,32.9L651.5,42.2L658.5,41.4L653.9,49.3L676.0,33.4L674.0,45.4L665.2,49.3L660.7,55.8L669.8,51.9L665.6,69.2L671.9,48.6L684.1,40.1L685.7,40.9L678.0,48.5L677.5,53.7L689.1,43.1L701.8,50.2L700.7,57.4L685.3,64.4L677.7,75.1L698.6,65.1L685.5,75.5L683.2,80.6L683.3,82.6L708.1,61.1L716.0,78.9L705.7,77.4L682.9,85.2L719.7,91.6L720.2,98.1L709.6,96.8L703.6,92.5L694.4,91.0L691.5,93.6L705.0,95.5L694.9,95.3L700.1,96.0L693.7,98.8L694.3,103.5L701.6,96.7L709.3,101.7L700.3,105.6L708.5,109.3L699.3,107.2L698.8,109.2L691.1,106.2L690.0,106.9L705.4,112.3L704.7,114.1L698.6,113.0L695.6,114.9L706.4,121.3L721.1,120.0L712.7,121.4L708.2,123.2L707.3,124.9L725.1,129.6L720.2,137.2L724.2,140.1L729.5,128.5L728.5,144.5L730.8,134.3L734.9,133.6L733.1,139.9L735.9,145.6L735.3,136.1L742.9,133.5L739.3,135.5L737.8,144.3L745.7,139.4L751.0,147.5L746.4,149.1L752.5,154.3L742.3,152.9L751.9,155.2L744.5,159.2L743.5,163.0L757.7,156.6L754.1,162.5L753.7,163.5L754.0,164.4L761.0,153.4L763.1,156.8L760.1,164.0L756.6,166.0L755.8,168.2L753.5,168.6L757.9,171.7L764.4,164.2L763.9,173.7L773.2,161.5L782.5,173.9L780.6,176.3L774.2,172.0L772.1,173.9L779.2,182.1L764.0,182.3L774.7,191.2L770.6,192.3L763.7,187.6L762.1,188.3L770.9,196.7L764.3,194.4L767.7,198.4L764.6,198.2L767.4,200.8L766.7,203.2L757.0,193.6L758.9,200.9L754.6,200.7L759.5,207.5L755.4,206.6L759.3,213.6L756.7,222.0L753.6,214.2L748.3,216.4L748.7,207.5L745.1,216.7L741.0,209.9L746.2,207.8L746.8,206.2L738.1,206.0L740.9,204.9L743.4,201.3L736.2,203.4L742.4,199.4L734.3,198.6L747.4,181.9L729.8,193.1L729.1,190.3L732.8,186.9L734.6,180.7L728.5,188.5L722.7,185.7L723.6,180.1L716.6,173.5L708.8,175.7L715.6,183.3L712.7,183.5L710.1,179.2L706.0,177.4L715.2,194.1L706.8,194.5L706.2,189.5L700.0,183.3L696.2,186.4L705.6,189.7L701.9,190.7L708.0,196.9L705.5,206.0L714.2,201.7L712.1,205.6L716.6,207.7L712.5,209.7L718.0,212.7L716.0,217.6L720.4,214.2L720.6,225.4L720.9,218.0L726.2,227.5L731.9,223.4L732.0,232.8L739.2,233.9L732.6,237.8L743.9,244.8L740.1,250.1L745.5,254.2L745.3,264.8L743.3,264.1L740.7,255.1L736.6,250.5L744.3,273.4L737.0,271.0L740.9,280.1L738.1,281.9L736.3,273.2L724.1,271.2L721.3,261.7L722.4,271.3L706.8,251.7L709.3,261.9L694.6,251.9L706.1,269.3L710.3,268.7L708.2,270.8L708.5,272.2L728.8,289.9L727.9,298.8L669.9,271.3L673.8,267.9L672.6,266.8L667.2,269.8L658.7,259.9L664.7,260.4L669.2,255.9L652.8,249.4L653.6,245.0L652.8,243.5L644.6,238.3L647.1,230.2L645.5,228.2L638.5,229.7L640.1,233.1L636.7,237.1L637.0,226.6L633.1,230.5L630.2,221.8L626.3,224.5L632.2,230.9L629.8,235.8L616.9,229.3L617.8,235.9L606.7,237.7L607.0,240.7L588.6,227.1L599.9,213.8L599.0,206.4L617.1,213.0L617.8,214.9L621.2,217.5L618.6,220.7L621.9,226.7L619.7,222.3L623.2,220.4L623.9,216.4L615.4,210.5L643.6,206.8L632.2,187.6L658.2,155.2Z M583.8,91.7L589.6,92.8L582.4,105.4L576.3,106.9L583.8,91.7Z M604.6,99.1L599.0,93.9L602.1,88.1L607.1,92.5L604.6,99.1Z M708.1,615.2L708.0,592.6L692.0,586.3L673.0,623.0L629.5,626.8L643.1,619.9L647.2,609.7L658.2,601.9L661.9,599.5L663.6,600.1L668.3,598.2L669.9,596.7L672.0,596.3L677.0,593.8L696.5,570.9L733.6,555.4L745.1,558.3L749.3,568.2L736.8,576.9L729.9,573.3L719.0,577.2L730.7,578.7L732.8,583.6L742.3,580.4L735.9,592.5L742.3,592.6L745.1,606.9L765.7,616.9L775.2,612.4L782.9,618.6L780.3,621.0L785.6,621.4L786.0,622.4L755.3,631.3L756.9,634.5L755.6,635.7L752.7,631.6L748.0,633.7L748.4,638.5L734.6,651.1L730.2,645.8L727.3,646.8L726.5,640.1L730.5,633.6L726.6,635.8L746.0,621.3L749.7,627.0L758.7,620.9L744.9,620.1L740.9,621.5L748.4,614.4L742.9,609.1L742.7,616.8L731.5,622.8L728.6,619.3L723.6,625.5L714.0,624.0L708.1,615.2Z M702.2,338.3L700.9,336.9L704.4,329.1L707.9,332.1L702.2,338.3Z M740.9,310.2L734.5,304.9L744.0,305.3L741.7,311.8L740.9,310.2Z M629.0,131.6L633.7,128.0L644.9,138.4L629.0,131.6Z M782.4,617.9L779.3,610.2L790.1,593.4L793.5,596.8L792.1,605.9L783.9,615.3L788.6,615.7L793.0,605.4L799.1,607.7L793.3,615.7L782.4,617.9Z M765.7,611.3L763.2,605.3L756.0,607.0L746.7,599.3L751.5,592.9L752.2,602.7L774.5,603.1L765.7,611.3Z M875.9,599.6L870.4,600.3L870.3,590.6L863.1,596.9L867.5,586.9L864.4,579.3L862.3,578.8L860.7,586.4L855.8,587.0L851.0,595.4L845.5,596.4L842.7,594.5L857.3,582.7L840.7,585.8L846.7,582.6L843.5,582.9L845.5,578.5L845.0,577.9L833.5,585.1L816.8,581.4L806.7,584.6L803.7,578.9L816.7,568.3L805.4,569.1L811.0,563.8L808.8,566.6L811.6,567.4L815.2,557.6L815.7,558.9L817.3,558.7L819.0,560.3L821.1,560.5L817.1,553.5L823.2,551.9L820.4,547.7L829.4,531.3L826.6,529.8L832.0,526.1L830.1,524.2L848.1,513.6L847.1,519.0L841.5,517.8L845.6,523.1L840.7,526.8L832.8,550.4L841.2,539.7L840.3,543.8L848.6,543.1L841.0,552.5L850.3,554.5L850.3,550.7L851.6,551.2L851.5,550.7L852.1,550.4L852.4,550.6L849.5,559.2L853.0,553.7L856.0,555.2L859.9,550.5L859.8,555.3L864.8,551.6L871.1,555.0L863.0,563.9L869.8,565.6L863.4,570.5L876.9,567.7L866.1,573.1L866.0,574.1L866.4,575.7L869.1,576.1L866.3,576.8L869.7,576.2L866.1,579.7L870.4,585.0L877.6,574.2L873.7,584.6L875.2,587.0L878.1,584.1L879.3,580.5L880.5,586.9L875.9,599.6Z M761.4,546.3L778.1,557.4L761.8,555.9L746.1,545.1L761.4,546.3Z" fill="none" stroke="rgba(0,0,0,0.2)" stroke-width="0.5">
    <animate attributeName="fill" values="rgba(0,0,0,0);rgba(0,0,0,0);rgba(230,57,70,0.45);rgba(230,57,70,0.45);rgba(0,0,0,0);rgba(0,0,0,0)" keyTimes="0.0000;0.8000;0.8100;0.8800;0.9000;1.0000" dur="20s" repeatCount="indefinite"/>
    <animate attributeName="stroke" values="rgba(0,0,0,0.2);rgba(0,0,0,0.2);rgba(193,18,31,0.8);rgba(193,18,31,0.8);rgba(0,0,0,0.2);rgba(0,0,0,0.2)" keyTimes="0.0000;0.8000;0.8100;0.8800;0.9000;1.0000" dur="20s" repeatCount="indefinite"/>
    <animate attributeName="stroke-width" values="0.5;0.5;1.5;1.5;0.5;0.5" keyTimes="0.0000;0.8000;0.8100;0.8800;0.9000;1.0000" dur="20s" repeatCount="indefinite"/>
  </path>
  <path id="hl_ECU" d="M439.1,1212.7L443.0,1208.0L438.4,1200.2L446.4,1210.0L439.1,1212.7Z M598.9,1197.0L608.4,1198.9L611.4,1196.1L623.0,1202.6L618.9,1202.9L623.6,1212.4L613.8,1225.6L588.0,1240.0L579.9,1258.5L573.2,1252.0L563.7,1251.7L563.7,1247.1L567.4,1245.7L565.4,1239.7L572.4,1230.9L571.9,1224.2L566.4,1232.5L557.7,1226.1L560.9,1224.6L558.9,1213.3L565.9,1208.9L563.6,1205.7L568.7,1200.4L568.4,1192.1L580.8,1188.7L582.8,1186.9L582.6,1185.1L598.9,1197.0Z" fill="none" stroke="rgba(0,0,0,0.2)" stroke-width="0.5">
    <animate attributeName="fill" values="rgba(0,0,0,0);rgba(0,0,0,0);rgba(230,57,70,0.45);rgba(230,57,70,0.45);rgba(0,0,0,0)" keyTimes="0.0000;0.9000;0.9100;0.9800;1.0000" dur="20s" repeatCount="indefinite"/>
    <animate attributeName="stroke" values="rgba(0,0,0,0.2);rgba(0,0,0,0.2);rgba(193,18,31,0.8);rgba(193,18,31,0.8);rgba(0,0,0,0.2)" keyTimes="0.0000;0.9000;0.9100;0.9800;1.0000" dur="20s" repeatCount="indefinite"/>
    <animate attributeName="stroke-width" values="0.5;0.5;1.5;1.5;0.5" keyTimes="0.0000;0.9000;0.9100;0.9800;1.0000" dur="20s" repeatCount="indefinite"/>
  </path>
</svg>