<svg xmlns="http://www.w3.org/2000/svg" viewBox="0 0 800 600" width="800" height="600" style="background:#1a1a2e">
  <path d="M374.9,333.8L377.8,331.4L379.8,335.1L389.0,337.2L387.8,341.0L392.1,345.9L395.4,343.9L394.3,340.5L402.0,342.5L401.2,345.7L410.0,348.8L412.5,355.1L394.8,369.4L376.5,363.0L373.4,369.8L370.0,370.1L354.3,356.4L351.8,351.4L353.2,348.9L349.0,343.5L370.3,333.5L369.8,331.0L374.9,333.8Z" fill="#cccccc" stroke="#888888" stroke-width="0.3"/>
  <path d="M394.9,370.1L396.0,383.6L389.7,384.3L392.4,386.2L390.0,388.5L390.5,394.8L386.0,399.9L377.1,400.3L372.1,404.5L352.0,399.6L349.9,393.4L338.8,398.4L332.9,394.8L330.5,397.2L324.9,390.6L327.4,385.4L330.9,390.5L333.5,385.6L341.1,388.5L350.5,383.2L357.7,387.4L355.2,377.0L364.4,370.7L365.3,366.8L373.4,369.8L376.3,363.0L394.9,370.1Z" fill="#cccccc" stroke="#888888" stroke-width="0.3"/>
  <path d="M451.4,184.8L450.3,186.3L449.2,189.4L446.8,189.5L448.0,187.2L446.3,187.1L446.6,186.0L446.7,186.6L450.0,185.9L451.4,184.8Z M503.0,49.5L506.4,50.0L503.0,54.8L505.3,60.3L517.7,68.1L508.7,80.4L518.7,99.3L514.9,100.6L513.7,106.8L516.2,108.6L514.2,112.0L518.8,114.2L518.0,120.0L522.9,122.8L517.5,130.4L532.4,143.6L529.4,149.9L496.1,181.8L484.5,182.1L486.2,179.2L483.2,183.5L479.2,181.8L481.0,184.2L478.5,183.1L479.3,185.6L476.9,183.7L455.8,190.2L456.9,188.3L454.1,192.0L450.9,192.5L454.1,190.7L454.8,189.3L450.6,187.1L452.5,183.9L447.3,186.2L448.2,183.2L436.8,180.3L437.4,177.9L436.0,176.4L437.0,175.2L435.8,172.7L437.5,172.7L438.3,167.1L436.9,166.0L439.7,165.4L435.2,158.1L436.5,153.7L433.6,148.5L437.1,141.5L439.4,141.7L437.6,138.8L442.2,139.8L445.5,137.6L445.0,133.8L457.5,125.9L466.2,113.6L474.8,111.1L472.6,108.6L473.6,102.5L467.5,100.5L467.9,96.1L463.1,98.2L458.3,90.7L461.2,82.0L457.2,76.5L459.0,72.3L455.8,71.3L458.0,63.9L429.4,46.8L439.0,43.1L446.2,51.9L460.5,50.3L469.7,54.4L478.1,47.5L480.0,36.5L497.6,30.4L511.5,40.0L503.0,49.5Z" fill="#cccccc" stroke="#888888" stroke-width="0.3"/>
  <path d="M428.1,470.0L428.2,485.8L433.3,495.2L425.3,511.0L416.8,498.6L418.6,499.8L417.0,495.0L419.0,490.7L418.3,480.2L419.9,479.9L416.7,470.8L420.7,463.3L428.1,470.0Z" fill="#cccccc" stroke="#888888" stroke-width="0.3"/>
  <path d="M401.4,459.6L383.3,430.0L383.9,423.3L388.9,426.3L394.6,421.8L417.6,428.1L415.1,436.1L419.9,441.2L416.3,442.8L418.7,449.0L413.3,449.9L414.8,453.0L409.0,458.0L409.3,464.8L401.4,459.6Z" fill="#cccccc" stroke="#888888" stroke-width="0.3"/>
  <path d="M494.4,228.5L497.4,232.6L495.3,239.3L498.0,239.7L500.9,248.4L495.0,255.9L484.5,257.7L469.4,245.6L462.5,248.6L443.2,246.0L433.4,251.5L432.7,248.6L433.4,239.5L437.0,232.0L446.9,225.1L458.3,237.4L464.9,232.8L464.1,223.1L471.5,220.0L484.7,228.7L494.4,228.5Z" fill="#cccccc" stroke="#888888" stroke-width="0.3"/>
  <path d="M396.3,231.3L391.0,247.8L389.9,249.2L389.8,243.4L396.3,231.3Z M432.3,48.2L458.0,63.9L455.8,71.3L459.0,72.3L457.2,76.5L461.2,82.0L458.0,89.7L462.7,97.5L452.7,99.4L448.5,96.2L444.3,98.5L446.2,102.0L440.1,99.0L444.3,101.9L437.2,104.9L438.8,106.7L436.2,104.6L435.6,105.0L438.5,109.4L433.3,113.2L438.6,119.2L429.9,129.6L420.6,135.3L418.3,133.2L419.0,135.6L414.6,139.3L407.0,142.1L409.6,142.2L410.1,142.8L406.5,145.6L404.1,145.0L403.1,142.1L401.8,142.2L405.3,148.5L398.4,150.2L401.4,154.2L398.5,158.9L400.0,163.7L395.8,164.5L397.9,168.7L396.2,168.6L398.5,177.4L397.1,178.5L404.5,180.2L414.8,191.1L413.0,190.6L411.6,193.1L414.8,193.4L404.8,198.8L405.6,200.1L406.8,200.2L409.3,198.4L410.8,200.0L407.4,200.2L408.7,203.0L404.8,204.6L403.7,207.5L401.5,202.6L398.7,209.2L387.6,211.0L394.7,213.3L389.8,213.5L393.4,215.9L391.7,217.8L393.1,222.8L390.2,222.6L392.5,225.0L389.8,222.7L392.4,229.4L390.3,232.5L390.3,240.4L384.5,251.3L382.0,249.3L373.9,250.0L369.3,254.8L370.5,259.8L368.8,262.3L356.1,262.4L358.2,257.5L352.5,247.8L355.9,248.9L354.1,246.0L357.0,244.0L347.3,230.6L347.5,225.7L345.0,223.6L347.1,215.8L340.9,215.6L339.8,206.0L341.8,203.7L345.1,206.5L345.2,195.7L352.8,188.2L353.9,182.9L350.6,173.7L354.9,173.0L356.6,168.2L349.8,162.2L351.2,153.4L348.2,137.5L349.8,132.7L357.5,125.4L368.4,123.6L368.0,119.0L363.7,117.1L371.9,105.5L372.1,92.8L381.0,90.4L380.5,87.0L389.8,78.1L387.1,72.3L393.3,64.8L398.3,61.5L404.0,63.6L406.5,60.0L406.2,54.8L408.8,54.1L423.3,57.6L426.9,50.5L424.5,47.0L432.3,48.2Z M413.8,224.5L411.9,227.1L413.4,230.6L406.0,238.1L407.4,235.4L405.9,228.2L411.3,222.3L413.8,224.5Z" fill="#cccccc" stroke="#888888" stroke-width="0.3"/>
  <path d="M429.9,476.1L423.9,461.8L428.0,460.2L431.0,453.7L440.2,463.5L438.3,469.8L430.9,472.4L429.9,476.1Z" fill="#cccccc" stroke="#888888" stroke-width="0.3"/>
  <path d="M365.2,367.9L355.2,377.2L357.7,387.4L350.5,383.2L341.1,388.5L333.5,385.6L333.4,388.5L330.9,390.5L328.9,386.2L315.8,382.1L314.3,384.2L316.3,384.4L316.0,385.4L312.8,384.9L311.0,385.9L306.9,385.8L306.6,377.1L312.5,363.8L298.6,360.7L295.0,356.0L296.5,350.6L292.7,346.6L295.3,342.4L290.4,331.3L293.7,325.5L291.1,318.7L298.8,317.2L301.4,312.1L298.1,307.2L301.4,305.9L304.6,295.2L301.4,294.1L303.3,289.5L310.9,288.8L312.5,293.5L313.1,290.3L315.8,291.4L315.2,292.3L315.3,294.3L315.9,291.4L315.2,288.9L316.1,286.3L322.0,286.2L325.5,290.7L327.8,291.4L323.7,286.9L322.4,286.0L319.9,285.8L319.2,285.2L319.7,279.2L316.2,278.9L320.1,276.2L316.8,270.1L328.9,271.9L327.9,276.7L330.8,276.4L330.7,279.1L340.1,278.1L336.5,283.4L337.9,284.8L343.1,285.7L345.3,281.8L349.3,282.7L349.3,281.3L353.3,276.5L356.9,277.4L354.1,277.5L353.2,278.3L352.4,278.1L351.7,280.0L357.7,277.3L358.7,279.8L362.2,282.8L364.3,281.5L365.3,286.5L369.5,288.1L371.2,296.0L368.2,302.4L373.1,306.7L374.2,314.6L372.6,318.9L376.1,324.7L376.0,330.6L374.2,334.6L369.8,331.0L370.3,333.5L351.1,344.8L350.5,343.3L349.0,342.4L353.2,348.9L351.8,351.4L354.3,356.4L365.2,367.9Z M364.5,279.2L359.1,279.6L359.0,275.6L362.4,276.5L359.8,274.2L361.8,273.5L364.5,279.2Z" fill="#cccccc" stroke="#888888" stroke-width="0.3"/>
  <path d="M409.1,466.5L403.7,461.2L402.3,461.5L397.3,458.2L395.7,458.0L395.3,457.1L402.3,460.4L402.9,459.3L409.1,466.5Z M391.5,402.9L403.4,414.1L413.2,411.6L413.9,420.5L418.0,423.1L415.3,423.2L413.1,428.5L406.9,423.8L394.6,421.8L388.9,426.3L383.9,423.3L383.3,430.0L401.3,458.7L394.2,451.5L390.0,449.2L385.5,449.9L377.8,439.0L381.4,437.8L376.5,433.1L375.1,424.8L372.4,421.7L370.0,420.9L366.1,429.9L363.3,424.0L362.4,418.2L370.6,418.8L372.5,415.8L379.5,419.2L378.9,414.9L382.8,413.0L382.5,407.2L391.5,402.9Z" fill="#cccccc" stroke="#888888" stroke-width="0.3"/>
  <path d="M464.9,317.7L456.8,321.2L457.8,314.5L453.3,311.2L460.4,304.1L456.3,285.2L464.7,286.0L474.9,279.5L477.8,281.7L475.6,279.1L478.0,270.5L487.5,264.1L484.2,263.3L485.8,257.6L495.0,255.9L499.9,250.2L512.0,253.5L512.8,257.7L519.5,254.9L526.0,258.9L525.1,263.9L527.1,268.1L524.9,271.8L534.8,283.4L534.1,287.4L540.6,288.7L543.2,293.1L537.6,298.7L530.6,297.1L529.4,299.8L532.3,303.4L534.3,314.2L526.3,314.9L522.5,322.0L522.8,327.8L519.0,323.9L511.2,325.8L508.8,321.6L505.7,325.2L500.8,321.3L496.1,324.3L490.8,319.6L477.8,316.9L464.9,317.7Z" fill="#cccccc" stroke="#888888" stroke-width="0.3"/>
  <path d="M450.5,380.0L442.4,386.6L433.4,406.8L419.3,407.9L408.5,414.6L398.5,411.2L386.8,396.9L390.5,394.8L390.0,388.5L392.4,386.2L389.7,384.3L396.0,383.6L397.0,378.6L403.1,382.9L411.2,382.5L412.6,378.3L422.9,376.9L428.1,370.6L436.9,370.1L440.1,373.7L444.9,372.6L450.5,380.0Z" fill="#cccccc" stroke="#888888" stroke-width="0.3"/>
  <path d="M431.1,535.3L426.7,533.7L428.6,529.4L431.1,535.3Z M466.4,537.2L463.1,535.4L461.6,530.5L450.2,523.4L454.6,520.4L462.6,526.5L466.4,537.2Z M432.6,491.9L463.4,480.6L473.3,485.7L481.1,483.8L480.5,478.6L482.1,477.6L486.0,483.2L480.8,493.6L471.9,489.3L458.7,493.4L459.9,498.7L461.3,498.2L464.9,502.9L458.6,499.6L461.1,506.0L455.9,500.9L458.8,506.4L455.2,505.9L454.6,501.5L450.7,499.2L450.9,495.1L447.8,497.9L447.7,504.4L455.0,518.2L453.7,519.4L452.3,519.5L453.8,518.2L451.2,515.4L450.1,517.6L452.5,520.5L447.3,523.3L461.9,534.2L461.5,542.3L457.2,536.1L451.7,538.7L456.7,545.7L453.4,547.9L449.2,543.7L453.6,561.6L448.8,555.6L447.0,562.2L443.8,552.3L441.2,556.9L439.6,555.5L439.3,546.4L433.9,538.8L440.9,531.5L450.5,537.8L453.9,534.3L446.1,529.7L437.8,532.2L436.0,529.0L434.4,532.0L432.8,526.4L430.4,524.1L434.4,521.1L431.3,519.2L430.4,521.8L423.5,510.1L425.8,510.6L426.3,505.5L429.6,503.8L433.1,496.4L432.6,491.9Z M424.2,515.1L422.4,513.9L420.4,508.5L423.0,508.6L424.2,515.1Z M482.9,581.3L481.3,584.2L468.1,585.3L456.6,579.4L458.8,573.4L464.4,578.7L482.9,581.3Z M474.8,505.2L473.9,508.6L471.0,507.8L470.9,505.3L474.8,505.2Z M500.9,561.2L499.7,567.6L496.3,569.8L497.0,564.1L500.9,561.2Z M481.3,529.4L481.1,533.3L478.7,533.0L478.6,527.7L481.3,529.4Z M484.9,520.5L481.5,520.7L482.6,518.0L478.5,517.5L483.4,515.1L484.9,520.5Z" fill="#cccccc" stroke="#888888" stroke-width="0.3"/>
  <path d="M303.0,297.4L301.5,305.6L298.1,307.2L301.6,310.0L298.1,315.0L299.4,316.4L291.1,318.7L293.7,324.3L293.2,329.2L290.4,330.9L291.7,335.5L288.2,334.3L290.2,329.1L282.6,324.1L276.6,326.0L267.8,323.2L275.6,324.5L272.8,322.3L274.6,320.7L271.6,318.7L277.7,310.5L280.0,300.5L291.6,293.6L299.6,292.9L303.0,297.4Z" fill="#cccccc" stroke="#888888" stroke-width="0.3"/>
  <path d="M363.7,419.1L366.1,416.3L361.1,405.9L364.2,402.3L372.1,404.5L377.1,400.3L386.0,399.9L386.8,396.9L390.6,401.9L382.5,407.2L382.8,413.0L378.9,414.9L379.5,419.2L372.5,415.8L363.7,419.1Z" fill="#cccccc" stroke="#888888" stroke-width="0.3"/>
  <path d="M334.6,267.8L329.3,266.4L326.4,260.6L332.3,258.7L333.8,261.4L335.3,258.7L336.4,260.7L334.8,261.1L334.6,261.4L336.0,261.5L337.3,263.8L334.6,267.8Z M327.0,271.0L314.9,266.8L317.1,266.2L316.4,261.5L311.5,259.8L311.8,252.8L314.3,254.1L311.6,252.2L312.3,242.0L317.4,245.0L320.6,239.8L320.6,243.7L323.1,244.3L321.9,237.8L328.6,235.9L321.1,235.9L317.0,237.6L314.4,241.8L316.1,241.8L315.9,243.3L312.9,241.5L313.1,239.3L316.4,234.9L323.9,234.2L329.1,227.5L331.3,227.3L334.5,225.1L335.5,225.2L332.7,236.7L329.4,235.4L328.7,235.9L332.4,237.1L332.6,241.3L330.8,241.2L327.6,242.5L332.6,241.5L332.6,242.8L331.4,243.8L331.1,245.2L337.2,244.2L338.0,247.4L334.6,251.0L333.2,247.9L331.1,255.3L328.2,255.0L329.5,257.4L325.2,257.2L328.0,258.5L324.7,260.7L326.7,264.5L324.1,267.8L326.9,268.5L327.0,271.0Z M346.8,273.2L343.1,274.3L339.0,269.9L344.9,269.8L346.8,273.2Z M349.6,270.6L347.8,275.2L345.5,269.4L347.1,268.7L344.6,267.0L346.4,266.1L341.3,265.3L337.7,256.7L346.1,253.1L344.5,256.1L346.2,258.0L347.6,253.7L348.8,258.1L348.5,253.6L347.0,253.1L354.1,251.9L353.9,257.2L350.1,260.7L352.6,263.8L347.3,268.5L349.6,270.6Z" fill="#cccccc" stroke="#888888" stroke-width="0.3"/>
  <path d="M409.4,466.9L408.8,458.6L414.8,453.0L413.9,449.3L426.9,459.6L423.4,465.6L420.0,464.1L416.7,470.7L417.6,476.0L409.4,466.9Z" fill="#cccccc" stroke="#888888" stroke-width="0.3"/>
  <path d="M429.1,476.0L433.9,470.6L444.9,467.8L451.9,478.2L449.0,487.3L432.6,491.9L428.2,485.8L429.1,476.0Z" fill="#cccccc" stroke="#888888" stroke-width="0.3"/>
  <path d="M552.0,585.1L543.1,589.8L539.0,583.1L549.8,581.7L552.0,585.1Z" fill="#cccccc" stroke="#888888" stroke-width="0.3"/>
  <path d="M485.8,374.7L495.1,371.3L509.4,379.3L509.7,387.6L513.5,389.6L513.5,395.6L518.9,403.9L507.7,403.3L507.8,410.5L500.7,419.0L499.6,395.2L489.8,376.9L485.8,374.7Z" fill="#cccccc" stroke="#888888" stroke-width="0.3"/>
  <path d="M315.9,469.8L317.3,464.5L322.7,463.0L323.3,457.8L324.4,458.1L324.2,463.6L325.3,471.4L322.1,483.6L318.0,480.6L319.3,478.5L316.8,477.6L318.2,475.2L316.4,475.3L317.6,472.8L315.9,469.8Z M259.0,330.2L270.1,342.7L274.8,343.3L274.2,347.8L281.1,345.0L280.9,350.6L286.6,355.3L295.6,355.8L298.5,360.6L312.5,363.8L306.7,376.9L306.7,385.5L300.9,387.0L291.3,407.4L299.2,404.0L301.4,411.7L299.3,415.0L302.7,419.8L297.4,424.7L301.2,429.1L299.9,436.2L307.7,441.0L293.5,457.3L282.7,452.6L284.5,450.3L282.6,449.1L281.0,452.5L280.1,451.2L279.9,449.6L279.5,448.8L279.9,451.2L280.7,452.4L272.5,449.4L264.6,456.2L265.2,466.9L260.4,468.3L254.1,468.2L242.9,460.6L234.9,462.9L221.6,457.2L222.1,454.1L218.4,452.0L221.4,448.7L223.5,433.3L225.5,431.5L223.4,432.2L225.1,417.3L230.3,428.0L230.6,426.3L227.8,418.8L223.6,415.1L226.0,415.0L224.8,405.7L215.4,397.6L215.0,390.5L219.0,391.4L216.4,389.7L213.9,390.8L211.4,390.0L213.0,386.7L208.8,386.9L207.9,385.9L209.5,386.0L210.0,385.2L210.0,384.9L209.8,384.6L205.8,387.2L204.4,382.3L194.1,382.0L190.8,378.3L195.0,377.1L192.4,376.1L192.5,373.5L192.8,374.3L195.1,374.4L195.9,374.1L193.4,373.7L194.9,372.1L190.4,373.5L190.5,370.7L204.9,365.2L210.0,370.9L213.5,367.9L216.7,370.8L217.0,367.9L222.5,368.8L217.1,351.7L223.4,352.2L224.2,357.5L235.0,358.1L236.8,356.6L239.2,356.0L239.9,355.4L236.0,355.0L237.5,351.6L251.0,344.3L250.2,333.7L259.0,330.2Z M253.9,466.2L253.6,466.6L254.1,466.7L253.9,466.2Z" fill="#cccccc" stroke="#888888" stroke-width="0.3"/>
  <path d="M259.2,330.0L266.8,325.7L272.3,328.3L282.6,324.1L290.2,329.1L288.2,334.3L294.1,337.7L295.3,342.4L289.1,349.1L290.2,354.3L286.6,355.3L280.9,350.6L281.1,345.0L277.3,348.4L274.2,347.8L274.8,343.3L270.1,342.7L264.7,335.1L261.5,335.9L259.2,330.0Z" fill="#cccccc" stroke="#888888" stroke-width="0.3"/>
  <path d="M636.8,480.2L646.8,493.2L646.3,503.5L652.5,504.7L657.0,510.9L654.7,509.0L653.1,514.5L649.6,515.1L653.7,531.5L651.3,538.5L655.0,541.3L656.6,550.4L652.1,553.1L650.2,547.7L637.9,546.7L635.7,550.4L632.6,547.5L604.6,558.0L595.1,554.1L587.7,558.4L580.1,555.3L580.4,564.7L577.6,564.8L575.4,571.3L572.1,563.6L576.1,558.3L574.3,553.8L568.0,559.9L561.8,555.6L554.9,565.0L544.0,568.0L536.6,559.8L524.1,554.3L521.7,564.8L514.6,566.5L509.1,562.2L509.1,557.9L503.1,554.5L499.2,559.5L499.9,555.8L495.7,558.0L493.2,557.9L501.9,552.1L491.9,553.2L495.2,548.3L491.2,547.0L489.5,542.1L491.7,537.0L482.2,532.4L484.8,530.0L483.9,526.1L486.3,532.0L491.0,529.8L486.8,526.5L490.0,522.8L485.7,516.7L488.8,512.0L480.7,513.2L481.6,505.7L486.9,498.9L508.7,499.5L506.3,496.5L517.1,493.7L510.6,492.5L508.3,489.0L508.8,488.3L509.1,487.2L508.9,487.1L509.8,485.8L529.2,488.0L538.9,478.1L548.9,473.4L564.9,472.2L567.5,478.2L574.5,478.4L577.8,485.4L581.3,483.7L596.1,490.8L606.4,487.7L613.1,490.7L626.1,481.4L636.8,480.2Z M499.2,475.2L501.0,481.3L509.3,485.8L508.2,489.3L494.3,489.6L481.5,504.4L482.1,500.0L487.8,495.8L480.5,494.8L483.4,490.0L483.0,485.6L485.9,483.8L483.1,477.0L491.7,472.1L499.2,475.2Z" fill="#cccccc" stroke="#888888" stroke-width="0.3"/>
  <path d="M333.6,397.4L333.6,402.0L329.7,402.1L330.5,406.9L322.5,402.9L320.0,413.4L314.3,403.4L309.0,411.9L301.8,412.3L297.5,403.3L291.4,408.5L300.9,387.0L315.9,385.4L314.3,384.2L315.8,382.1L326.1,387.6L324.5,393.7L333.6,397.4Z" fill="#cccccc" stroke="#888888" stroke-width="0.3"/>
  <path d="M419.3,407.9L430.9,414.4L430.7,418.7L437.6,424.0L436.7,429.6L443.5,434.2L446.4,430.5L449.6,432.9L446.9,434.2L448.9,438.5L445.6,445.1L451.6,455.1L446.4,460.8L446.3,468.5L438.4,469.9L440.1,463.1L431.2,453.8L426.8,460.6L415.8,450.3L418.9,447.7L416.4,442.1L419.9,441.5L415.2,436.7L417.7,428.5L414.3,428.4L414.5,424.1L418.0,423.1L413.9,420.5L415.1,418.2L412.8,412.8L419.3,407.9Z" fill="#cccccc" stroke="#888888" stroke-width="0.3"/>
  <path d="M454.9,213.8L445.4,217.8L442.5,222.4L444.3,218.7L441.1,216.9L442.5,215.5L440.8,213.0L447.8,211.0L454.9,213.8Z M464.3,222.5L466.4,215.8L458.7,215.6L456.4,210.1L460.0,208.9L455.8,209.0L457.7,205.6L455.6,204.9L456.2,201.9L468.7,196.3L474.4,197.5L475.2,194.7L500.6,199.3L493.3,209.1L496.9,223.2L492.7,228.5L484.7,228.7L473.2,219.9L464.3,222.5Z M442.8,206.3L448.6,203.9L452.1,207.8L447.6,210.2L442.8,206.3Z" fill="#cccccc" stroke="#888888" stroke-width="0.3"/>
  <path d="M98.2,88.7L92.4,93.0L97.7,94.8L95.1,98.5L100.4,98.2L98.2,102.6L106.5,101.8L103.5,106.1L107.6,106.4L103.2,107.4L108.1,109.4L101.3,110.0L106.4,111.7L103.0,111.6L105.7,112.8L103.1,115.0L100.6,115.2L99.6,113.8L98.7,113.6L100.9,116.0L94.8,122.1L92.0,122.1L92.2,121.6L91.1,121.5L90.7,120.5L90.3,120.2L89.7,120.0L77.2,129.4L68.6,129.8L66.2,131.4L67.8,131.5L66.2,133.9L59.0,135.8L45.3,133.5L41.9,130.9L43.2,128.9L35.9,128.0L37.2,127.2L21.7,129.3L21.6,125.0L27.9,125.5L33.5,120.6L27.3,121.3L32.8,116.0L26.7,119.1L24.4,113.3L11.0,114.9L8.8,112.2L29.9,110.0L30.7,107.5L23.0,107.9L31.1,103.4L23.1,100.5L10.4,104.1L4.3,102.5L11.2,102.1L8.5,97.8L13.5,100.8L16.1,99.8L10.7,96.7L16.8,97.2L11.2,94.6L15.3,94.9L12.5,92.9L14.5,91.5L24.8,96.1L24.6,93.2L19.0,91.0L24.8,90.4L17.0,89.1L19.3,87.4L34.5,94.6L31.9,95.4L34.8,95.7L34.5,98.8L30.3,98.4L34.6,101.0L33.2,103.5L36.8,107.9L38.4,101.0L44.5,100.0L43.2,93.3L52.2,99.0L52.3,93.7L58.1,91.5L65.3,100.3L63.1,91.9L70.1,96.1L73.9,91.2L80.7,92.4L79.6,86.7L84.5,86.3L90.5,92.4L94.8,88.7L98.2,88.7Z" fill="#cccccc" stroke="#888888" stroke-width="0.3"/>
  <path d="M170.0,264.6L158.4,276.9L166.3,282.4L169.2,277.7L172.9,283.6L177.8,284.0L175.3,285.2L178.9,300.7L174.2,310.0L175.6,312.7L170.1,313.8L170.3,313.1L169.4,311.2L148.5,323.9L142.9,324.5L146.3,320.8L145.3,319.6L139.7,322.4L145.1,317.7L138.0,319.1L143.5,313.4L137.1,314.3L136.8,312.9L152.9,305.2L141.8,307.0L151.6,296.5L139.5,293.5L145.3,286.3L141.7,286.1L143.2,285.5L142.7,282.4L140.1,280.5L155.2,280.9L153.8,278.5L158.9,274.0L152.5,273.3L156.9,271.1L155.7,268.4L157.4,265.9L162.8,266.9L163.4,264.1L163.0,269.1L165.1,267.5L164.5,263.8L167.0,263.9L165.8,262.3L170.0,264.6Z" fill="#cccccc" stroke="#888888" stroke-width="0.3"/>
  <path d="M447.4,362.3L443.3,373.0L428.3,370.5L422.9,376.9L412.6,378.3L411.2,382.5L402.3,382.7L393.8,373.2L396.9,365.4L402.1,365.3L409.7,355.6L415.5,356.9L418.3,353.7L421.5,360.2L435.4,356.1L447.4,362.3Z" fill="#cccccc" stroke="#888888" stroke-width="0.3"/>
  <path d="M489.8,472.4L480.5,478.4L481.7,482.7L478.9,484.7L472.8,485.7L466.0,480.6L451.0,484.2L451.8,477.8L445.6,468.7L447.4,466.5L446.4,460.8L451.6,454.8L447.2,450.4L446.1,442.2L448.9,438.5L452.1,440.6L450.7,444.6L474.4,447.6L489.7,439.3L504.3,446.2L504.1,450.7L499.9,451.7L497.8,462.5L493.7,466.1L499.0,474.1L489.8,472.4Z" fill="#cccccc" stroke="#888888" stroke-width="0.3"/>
  <path d="M425.4,186.3L423.8,184.5L423.0,188.7L420.2,185.3L422.4,183.1L425.4,186.3Z" fill="#cccccc" stroke="#888888" stroke-width="0.3"/>
  <path d="M160.2,15.1L150.7,18.8L149.5,17.8L158.6,13.0L160.2,15.1Z M367.4,60.3L364.2,62.0L361.9,62.0L363.6,58.5L367.4,60.3Z M426.7,51.1L423.3,57.6L408.8,54.1L406.2,54.8L406.5,60.0L404.0,63.6L398.3,61.5L393.3,64.8L387.1,72.3L389.8,78.1L380.5,87.0L381.0,90.4L372.1,92.8L371.9,105.5L363.7,117.1L368.0,119.0L368.4,123.6L357.5,125.4L349.8,132.7L348.2,137.5L351.2,153.4L349.8,162.2L356.6,168.2L354.9,173.0L350.6,173.7L353.9,182.9L352.8,188.2L345.2,195.7L345.1,206.5L336.4,201.8L335.9,190.9L333.9,191.8L334.5,196.8L333.5,197.1L333.2,194.4L331.5,193.8L334.3,200.5L332.3,204.3L325.1,203.4L326.8,205.5L311.7,219.4L297.6,220.0L299.7,216.8L291.9,215.0L286.9,209.1L287.5,204.7L289.1,207.4L293.9,207.8L292.3,206.8L297.7,204.4L292.1,206.8L290.6,204.2L296.1,200.2L292.2,199.2L296.9,196.4L294.5,195.0L293.2,198.0L291.1,199.6L293.2,197.7L290.0,196.7L288.4,198.8L290.4,199.7L287.1,200.9L284.3,196.6L287.0,193.6L286.3,197.3L294.5,192.0L288.4,191.8L294.5,187.6L292.5,186.3L295.1,183.7L297.8,182.9L296.8,185.3L296.6,187.3L296.7,188.2L297.9,183.4L302.2,181.5L293.4,182.0L289.3,189.6L289.8,186.1L287.5,186.9L289.3,183.3L286.2,187.4L283.7,183.9L288.5,182.7L289.4,178.1L288.7,177.5L287.3,179.5L284.5,180.4L281.7,176.8L286.4,179.5L284.6,177.2L287.4,175.6L283.6,176.7L282.5,172.9L295.1,173.5L297.4,170.9L302.2,175.9L301.2,172.2L305.3,172.1L307.7,170.0L304.1,169.1L306.6,166.0L303.7,167.4L304.0,171.1L297.0,170.1L298.3,168.2L298.4,167.3L295.9,171.9L284.2,172.0L281.9,169.7L288.3,168.0L281.9,167.1L289.9,166.5L284.0,165.6L286.4,164.4L282.2,161.9L286.1,159.3L290.8,162.0L299.5,159.8L296.2,160.7L289.2,159.6L291.4,159.2L286.4,158.9L283.8,159.5L286.1,157.6L283.2,154.9L295.2,156.9L291.1,154.3L294.7,152.0L296.8,156.2L295.5,151.8L298.4,150.8L300.8,156.3L301.4,156.5L302.5,156.1L302.9,156.3L301.4,153.7L305.1,154.1L299.2,150.3L294.1,150.8L298.1,150.1L294.1,148.8L306.3,149.9L308.5,148.8L305.9,149.0L305.1,147.9L312.0,147.0L304.6,146.9L307.6,145.4L304.1,146.1L300.9,146.4L300.7,146.3L303.2,145.0L300.0,143.5L303.4,141.9L305.9,143.5L311.3,142.9L312.0,145.0L315.7,147.5L312.0,142.9L309.4,141.9L311.4,140.4L313.7,144.0L317.2,144.9L312.1,140.3L319.5,138.8L315.1,137.5L316.9,135.5L320.9,137.5L324.1,136.1L321.4,134.4L326.6,131.9L329.0,135.4L327.8,136.9L338.0,134.9L335.6,133.3L343.1,129.6L339.7,128.1L343.5,126.0L341.6,124.6L334.8,129.3L339.4,128.5L338.0,130.6L329.2,134.3L327.5,131.2L329.4,130.7L330.4,130.0L325.1,129.9L331.3,127.3L328.8,127.0L335.5,120.7L334.0,119.6L337.3,120.5L335.6,119.2L338.6,116.8L341.2,121.2L346.2,116.9L342.6,115.2L350.4,111.5L341.3,112.6L350.1,110.6L350.1,109.7L354.2,108.5L357.0,105.6L350.5,106.8L355.6,103.3L351.6,101.0L355.6,100.4L353.5,98.6L354.7,95.9L359.3,97.0L358.0,93.4L354.5,93.7L365.4,92.4L363.4,91.8L368.4,89.5L358.0,91.9L362.7,89.9L358.0,89.7L359.2,87.4L357.4,86.5L358.6,86.2L359.8,87.6L361.1,87.5L364.5,85.2L359.9,86.1L362.8,84.7L359.8,83.5L367.0,82.3L362.8,80.2L372.4,78.7L369.6,77.6L374.1,77.0L372.7,75.7L383.4,76.2L370.1,75.1L376.9,71.9L374.8,71.9L373.9,71.2L377.0,69.8L374.9,71.4L380.5,71.3L382.7,74.6L381.4,71.6L384.9,70.2L378.7,70.6L380.9,69.8L378.2,69.2L379.3,67.6L382.1,67.1L384.0,68.2L384.3,68.0L380.5,65.4L378.2,67.7L374.9,68.8L377.6,67.2L374.3,66.1L384.6,64.7L386.5,62.9L384.7,62.0L383.9,62.6L382.1,62.6L381.6,62.0L380.2,63.2L379.1,62.6L385.7,59.2L386.3,62.7L387.7,63.4L388.1,65.0L390.4,66.4L387.8,63.1L392.4,62.0L386.9,58.7L393.4,61.1L388.0,57.6L396.5,57.3L398.4,60.5L397.6,56.7L403.5,57.0L390.3,55.1L401.7,52.7L397.5,51.2L402.7,51.3L399.7,50.0L403.1,49.0L399.3,49.0L406.1,44.9L404.6,43.7L406.0,41.8L406.2,40.1L409.4,43.7L414.2,42.8L409.0,40.2L412.7,38.6L414.3,41.1L417.7,42.3L415.8,43.4L418.6,43.9L418.2,42.0L414.0,39.7L416.3,38.4L413.6,37.7L421.5,34.7L419.1,41.0L424.6,38.1L421.9,36.1L426.3,32.0L427.1,37.9L422.7,43.1L428.1,38.2L431.6,39.5L428.1,35.3L434.6,34.4L435.7,31.2L443.3,35.5L441.5,32.4L443.4,31.1L440.5,31.0L443.3,29.7L434.9,28.3L438.1,26.5L441.2,29.3L442.2,26.5L444.9,29.4L451.5,28.3L445.0,30.9L451.9,29.3L454.9,32.4L456.8,31.2L453.4,30.1L456.6,25.8L468.0,21.8L463.5,19.2L467.2,19.3L467.4,16.1L479.3,17.9L471.3,23.6L473.3,24.4L470.4,28.0L470.6,30.6L485.8,16.6L486.5,20.0L483.2,21.3L486.2,21.5L484.8,25.8L490.4,24.2L489.2,22.7L491.9,22.3L490.5,20.1L495.3,18.9L490.7,16.6L495.5,13.8L504.0,16.2L495.5,22.0L501.7,20.5L497.4,24.0L502.0,23.4L500.3,25.5L500.4,29.4L499.0,30.5L500.6,29.8L506.3,17.8L512.0,19.2L511.1,21.3L518.6,20.4L520.9,22.2L517.7,23.1L527.8,27.1L519.1,30.5L510.3,29.7L505.0,28.7L504.6,28.8L514.7,32.1L511.7,33.8L515.2,33.0L512.8,36.9L519.4,36.5L520.4,33.4L520.8,36.7L526.4,36.8L518.8,37.3L518.8,40.4L508.8,46.8L506.6,45.7L511.5,40.0L509.6,36.9L497.6,30.4L480.0,36.5L478.1,47.5L469.7,54.4L460.5,50.3L446.2,51.9L435.9,42.8L433.6,46.8L424.5,47.0L426.7,51.1Z M378.1,56.0L374.3,58.1L368.9,60.7L370.7,57.3L378.1,56.0Z M390.7,53.4L382.3,58.4L379.5,57.6L382.2,55.7L381.7,55.1L380.6,56.6L377.3,58.9L376.3,58.9L382.4,53.5L380.7,50.3L382.8,48.0L385.8,51.1L383.8,53.2L383.4,54.8L388.3,48.9L391.1,50.1L390.7,53.4Z M371.4,51.7L378.0,50.2L377.6,47.1L380.2,52.2L371.4,51.7Z M380.5,48.0L384.6,43.4L387.3,42.8L384.5,46.9L380.5,48.0Z M405.4,41.9L396.5,47.2L393.2,46.0L396.9,44.2L394.3,44.3L394.2,43.9L396.1,43.8L396.7,43.3L394.6,41.2L401.4,40.1L399.7,37.9L405.4,41.9Z M414.7,34.9L411.6,38.4L404.7,38.0L410.7,36.3L408.0,35.8L408.3,34.8L411.9,36.5L411.1,33.4L414.7,34.9Z M420.6,31.5L415.3,34.9L411.6,32.4L420.6,31.5Z M457.3,25.0L453.2,27.2L450.4,25.1L456.1,21.7L457.3,25.0Z M450.8,23.1L441.9,21.3L449.2,22.0L449.2,19.8L456.3,19.0L450.8,23.1Z M480.8,16.1L475.8,16.9L473.3,15.1L478.2,13.4L480.8,16.1Z" fill="#cccccc" stroke="#888888" stroke-width="0.3"/>
  <path d="M526.4,314.7L539.1,314.2L539.8,310.7L553.5,310.2L559.2,319.3L556.1,321.1L557.0,327.6L565.4,328.3L570.5,341.8L579.7,344.1L587.4,340.5L592.9,349.0L595.8,346.4L612.9,353.8L613.1,359.3L608.7,363.6L612.3,365.5L608.3,369.7L611.7,374.9L609.3,381.9L601.2,381.1L595.9,385.4L594.3,394.1L588.7,393.4L581.4,400.5L573.2,400.2L566.2,408.5L564.5,409.3L567.9,405.2L566.5,402.4L562.9,407.7L564.5,415.0L553.8,407.4L541.2,409.3L534.6,406.0L537.1,404.3L533.5,403.7L531.8,401.2L539.5,403.2L542.5,400.3L536.7,400.6L536.3,394.6L535.2,394.3L535.5,393.3L534.9,391.8L534.2,391.3L534.0,390.6L535.5,400.3L531.2,397.9L531.0,400.6L525.1,401.8L516.3,415.8L514.2,413.3L515.3,419.6L514.6,422.9L512.3,419.5L505.5,422.7L500.7,419.0L507.8,410.5L507.7,403.3L516.0,405.2L518.9,403.9L513.5,395.6L513.5,389.6L509.7,387.6L509.4,379.3L494.9,371.3L469.6,383.5L466.3,379.8L453.1,377.4L450.6,379.8L443.6,372.6L447.4,362.0L450.5,363.0L448.6,354.2L462.2,338.8L460.8,334.6L462.5,333.8L457.7,326.8L457.6,321.7L477.8,316.9L490.8,319.6L496.1,324.3L500.8,321.3L505.7,325.2L508.8,321.6L511.2,325.8L519.0,323.9L522.7,327.9L522.5,322.0L526.4,314.7Z" fill="#cccccc" stroke="#888888" stroke-width="0.3"/>
  <path d="M292.8,345.7L296.5,350.6L295.0,356.0L289.8,354.7L289.1,349.1L292.8,345.7Z" fill="#cccccc" stroke="#888888" stroke-width="0.3"/>
  <path d="M169.5,520.0L166.0,529.8L169.9,533.7L164.4,543.7L165.6,550.0L150.6,552.3L152.9,541.1L151.1,529.2L152.5,530.1L154.3,530.2L152.7,527.9L148.4,530.2L148.2,526.3L149.6,526.4L151.1,524.6L152.8,519.5L151.2,520.4L149.6,523.7L149.5,525.6L145.9,524.1L146.7,515.1L149.7,511.9L154.6,493.3L152.9,495.0L153.4,478.1L151.7,477.8L154.1,472.9L157.9,471.3L159.1,476.7L173.1,474.3L173.7,479.1L176.9,480.5L170.0,489.2L171.3,499.6L169.0,502.4L170.5,505.1L169.2,510.1L164.2,510.3L169.5,520.0Z" fill="#cccccc" stroke="#888888" stroke-width="0.3"/>
  <path d="M485.7,258.7L484.2,263.3L487.4,264.4L477.4,271.9L475.6,279.1L477.8,281.7L474.9,279.5L468.6,284.7L457.7,285.8L449.0,277.6L450.3,271.4L447.7,267.4L435.5,264.5L433.4,251.5L443.2,246.0L462.5,248.6L469.4,245.6L485.7,258.7Z" fill="#cccccc" stroke="#888888" stroke-width="0.3"/>
  <path d="M327.6,497.8L325.3,518.7L320.1,516.9L320.2,521.1L316.6,523.2L314.1,517.5L315.8,507.6L312.0,495.9L312.4,490.0L315.5,492.2L322.2,485.3L326.2,489.4L324.7,490.6L327.6,497.8Z M382.4,532.7L377.4,544.8L379.6,552.4L377.4,558.1L352.3,540.0L355.1,533.8L365.1,537.3L382.4,532.7Z M299.2,413.5L309.1,411.8L314.3,403.4L320.0,413.4L322.7,402.7L330.1,407.1L329.7,402.1L333.6,402.0L333.7,396.9L338.8,398.4L349.9,393.4L352.0,399.6L364.2,402.3L361.1,405.9L363.6,407.7L362.0,410.4L365.6,417.1L358.8,414.1L358.4,416.2L352.0,417.8L349.7,421.4L353.3,426.8L350.7,429.1L351.7,438.1L363.4,449.0L367.8,464.2L374.0,472.3L387.2,474.9L385.5,482.2L404.8,495.0L409.6,503.1L408.4,508.2L403.4,500.8L395.1,497.5L390.5,508.8L396.8,514.6L396.9,521.7L391.4,524.2L391.2,530.1L386.6,537.8L382.9,537.6L384.3,526.6L388.0,523.3L382.3,504.0L378.9,504.8L375.6,501.4L374.4,494.7L370.3,496.3L371.5,493.7L367.5,492.8L364.4,485.5L358.1,485.9L345.0,469.3L339.8,467.5L340.3,464.8L334.1,458.8L330.3,441.7L317.8,435.3L311.2,443.7L305.9,445.4L307.3,439.3L300.9,438.2L299.6,433.7L301.2,429.0L297.4,424.7L302.7,420.0L299.2,413.5Z M352.3,443.8L352.8,442.4L351.9,443.3L352.3,443.8Z M352.5,475.2L352.5,475.2L352.5,475.2L352.5,475.2Z" fill="#cccccc" stroke="#888888" stroke-width="0.3"/>
  <path d="M668.3,522.7L663.0,521.0L656.7,510.0L666.2,512.4L668.3,522.7Z M661.8,482.3L672.9,488.8L674.7,485.0L669.9,479.1L672.7,475.5L680.2,484.7L685.4,486.3L692.5,476.1L701.5,494.9L708.1,497.4L709.5,501.8L704.9,499.4L701.1,502.8L700.3,516.5L697.2,521.6L696.1,518.3L695.3,530.0L687.2,523.9L689.9,520.8L688.1,516.8L690.2,515.1L686.7,509.9L673.1,522.9L672.0,518.0L673.9,517.7L671.6,514.6L673.2,512.3L664.3,505.7L668.0,501.7L662.3,495.3L664.5,491.6L659.4,488.2L660.7,487.2L658.8,484.9L661.8,482.3Z M664.0,495.4L663.3,495.0L663.3,495.6L664.0,495.4Z" fill="#cccccc" stroke="#888888" stroke-width="0.3"/>
  <path id="country_ESP" d="M268.0,509.6L264.1,516.8L257.4,512.0L265.2,505.8L264.8,508.6L268.0,509.6Z M218.8,452.9L229.9,461.5L242.9,460.6L254.2,468.2L265.2,466.9L265.7,474.5L242.0,492.4L243.4,494.4L232.3,512.9L233.8,521.0L237.5,525.1L230.5,531.5L227.2,540.9L228.7,542.8L219.6,546.9L215.3,556.8L193.9,557.0L182.5,568.3L175.1,558.4L177.0,553.7L175.2,555.7L170.8,548.0L165.5,549.6L164.6,543.1L169.9,533.7L166.0,529.8L169.7,520.8L164.2,510.3L169.2,510.1L170.5,505.1L169.0,502.4L171.3,499.6L170.0,489.2L176.9,480.5L173.7,479.1L173.1,474.3L158.3,476.7L157.9,471.3L151.7,475.4L154.1,468.2L151.8,469.6L153.1,462.8L150.3,465.1L151.6,460.6L148.0,459.6L148.5,455.4L158.0,452.9L157.1,448.9L163.0,445.4L169.0,450.3L180.2,447.4L193.1,451.8L201.6,449.7L218.8,452.9Z" fill="#cccccc" stroke="#888888" stroke-width="0.3">
    <animate attributeName="fill" values="#cccccc;#e63946;#e63946;#cccccc;#cccccc" keyTimes="0.0000;0.0200;0.1600;0.2000;1.0000" dur="10s" repeatCount="indefinite" calcMode="linear"/>
    <animate attributeName="stroke" values="#888888;#c1121f;#c1121f;#888888;#888888" keyTimes="0.0000;0.0200;0.1600;0.2000;1.0000" dur="10s" repeatCount="indefinite" calcMode="linear"/>
  </path>
  <path id="country_POL" d="M415.2,357.0L410.0,348.8L401.2,345.7L402.0,342.5L394.3,340.5L395.4,343.9L392.1,345.9L387.8,341.0L389.0,337.2L379.8,335.1L377.8,331.4L374.7,333.8L376.7,327.3L372.6,318.9L374.2,314.6L373.1,306.7L368.2,302.4L371.2,296.0L369.5,288.9L372.6,290.6L373.0,286.6L368.7,285.7L406.1,271.0L407.9,271.1L411.8,273.3L408.6,272.4L413.0,278.7L450.2,277.9L456.0,281.8L460.4,304.1L453.3,311.2L457.8,314.5L456.9,322.2L462.5,333.8L460.8,334.6L462.2,338.8L448.6,354.2L450.4,363.3L438.6,356.4L426.5,357.0L424.0,360.4L421.3,360.1L418.4,353.7L415.2,357.0Z" fill="#cccccc" stroke="#888888" stroke-width="0.3">
    <animate attributeName="fill" values="#cccccc;#cccccc;#e63946;#e63946;#cccccc;#cccccc" keyTimes="0.0000;0.2000;0.2200;0.3600;0.4000;1.0000" dur="10s" repeatCount="indefinite" calcMode="linear"/>
    <animate attributeName="stroke" values="#888888;#888888;#c1121f;#c1121f;#888888;#888888" keyTimes="0.0000;0.2000;0.2200;0.3600;0.4000;1.0000" dur="10s" repeatCount="indefinite" calcMode="linear"/>
  </path>
  <path id="country_GBR" d="M168.8,267.7L177.9,265.1L181.7,271.7L179.7,274.6L182.8,273.5L184.2,276.9L181.6,275.1L183.0,279.5L178.1,283.7L172.9,283.6L169.2,277.7L166.8,282.2L163.7,282.0L158.4,276.9L168.8,267.7Z M178.4,257.8L176.1,259.3L176.5,256.2L174.1,257.0L177.5,253.6L178.4,257.8Z M168.3,223.8L171.0,222.6L168.4,221.2L170.0,220.2L168.9,217.4L170.7,219.4L177.2,214.3L175.4,217.3L177.3,217.6L173.0,219.7L175.2,219.6L174.2,222.0L172.3,220.1L171.8,223.7L168.3,223.8Z M197.2,295.2L193.8,297.9L192.3,293.8L197.2,295.2Z M181.5,246.2L180.3,247.7L176.3,248.5L175.4,247.5L176.5,247.7L178.6,246.6L176.9,246.6L178.7,244.7L175.6,243.9L177.4,242.3L181.5,246.2Z M171.5,230.0L172.8,227.3L175.9,229.5L175.9,225.7L177.4,232.0L179.8,233.0L182.1,232.7L178.8,236.4L180.3,233.9L171.5,230.0Z M209.2,206.6L205.2,206.6L203.8,203.7L206.3,203.2L209.2,206.6Z M212.9,319.4L202.0,325.3L199.1,321.8L194.9,322.8L197.0,320.9L194.2,319.1L188.8,322.2L187.1,320.9L189.7,320.3L189.9,319.0L186.5,320.7L185.3,317.9L198.1,307.1L196.5,306.3L196.9,301.2L190.5,303.3L196.0,296.6L206.2,296.3L206.5,293.1L208.2,295.4L209.9,294.4L206.1,291.2L209.0,280.3L205.7,283.2L201.1,276.1L206.9,268.8L197.5,272.1L193.9,269.9L194.0,273.5L189.6,270.5L189.6,274.2L186.8,270.3L191.8,260.6L189.3,253.9L193.1,253.8L189.6,252.8L190.5,249.4L188.4,254.7L185.1,252.7L189.0,248.2L184.1,252.2L185.2,256.1L183.3,262.8L180.9,263.5L184.0,255.1L181.6,253.5L182.8,247.5L188.3,241.3L181.9,244.8L178.7,242.5L183.1,241.7L177.3,241.9L176.6,241.1L184.5,235.2L181.8,234.3L184.1,231.8L181.4,232.1L183.5,231.0L184.0,230.2L180.6,231.2L180.3,227.7L182.2,228.8L183.4,228.3L180.6,223.7L187.6,223.7L184.0,219.7L186.0,218.7L184.5,216.9L188.9,217.5L186.6,215.5L188.3,211.1L193.0,214.0L206.9,210.9L197.6,223.1L194.0,222.5L197.3,223.9L199.7,223.3L197.8,225.9L194.9,226.1L193.6,227.7L197.6,226.0L195.3,229.0L203.2,225.4L218.1,227.2L211.6,243.3L204.0,246.9L211.0,248.2L199.2,251.0L215.2,254.0L219.9,259.2L224.0,274.3L234.6,282.4L233.2,283.9L236.6,289.9L236.7,290.4L236.5,290.9L232.8,288.4L229.3,288.4L228.5,288.9L237.4,293.4L238.7,297.7L235.4,301.8L247.3,301.1L251.7,305.9L250.2,314.5L246.2,315.3L247.3,318.2L238.9,324.4L244.5,326.1L248.9,325.5L244.5,332.9L227.9,335.8L226.5,334.1L221.5,332.9L222.9,334.7L212.2,339.0L202.7,336.7L200.8,343.9L195.8,340.1L186.4,348.0L181.6,346.5L189.7,339.3L195.5,328.5L206.9,328.5L212.9,319.4Z M224.7,183.4L223.3,191.8L223.4,185.6L219.4,185.0L223.4,183.9L220.1,181.8L223.0,179.3L222.4,183.1L224.7,183.4Z" fill="#cccccc" stroke="#888888" stroke-width="0.3">
    <animate attributeName="fill" values="#cccccc;#cccccc;#e63946;#e63946;#cccccc;#cccccc" keyTimes="0.0000;0.4000;0.4200;0.5600;0.6000;1.0000" dur="10s" repeatCount="indefinite" calcMode="linear"/>
    <animate attributeName="stroke" values="#888888;#888888;#c1121f;#c1121f;#888888;#888888" keyTimes="0.0000;0.4000;0.4200;0.5600;0.6000;1.0000" dur="10s" repeatCount="indefinite" calcMode="linear"/>
  </path>
  <path id="country_ROU" d="M450.8,379.7L466.3,379.8L469.6,383.5L481.6,379.1L482.9,375.6L488.8,375.7L501.0,400.1L499.4,416.9L505.5,422.7L513.6,420.1L514.1,428.5L508.2,431.2L509.3,426.8L507.0,427.2L506.2,431.9L507.3,430.8L507.9,431.0L508.1,431.4L506.0,432.2L506.0,434.8L507.5,432.3L504.8,437.1L504.3,446.2L489.7,439.3L474.4,447.6L450.7,444.6L452.1,440.6L446.8,434.8L449.6,432.9L446.4,430.5L443.5,434.2L436.7,429.6L437.6,424.0L430.7,418.7L430.9,414.4L425.8,408.8L434.3,406.0L442.4,386.6L450.8,379.7Z" fill="#cccccc" stroke="#888888" stroke-width="0.3">
    <animate attributeName="fill" values="#cccccc;#cccccc;#e63946;#e63946;#cccccc;#cccccc" keyTimes="0.0000;0.6000;0.6200;0.7600;0.8000;1.0000" dur="10s" repeatCount="indefinite" calcMode="linear"/>
    <animate attributeName="stroke" values="#888888;#888888;#c1121f;#c1121f;#888888;#888888" keyTimes="0.0000;0.6000;0.6200;0.7600;0.8000;1.0000" dur="10s" repeatCount="indefinite" calcMode="linear"/>
  </path>
  <path id="country_RUS" d="M552.1,407.2L562.2,411.3L569.2,421.6L572.5,418.9L580.1,420.8L578.3,425.3L569.5,424.5L552.7,435.8L549.4,433.0L551.3,432.3L550.9,424.5L541.0,419.9L552.4,412.7L552.1,407.2Z M448.9,278.8L419.9,277.0L423.3,269.0L428.1,268.8L432.2,264.0L428.6,269.1L435.1,269.4L436.5,263.8L447.4,267.2L450.3,271.4L448.9,278.8Z M707.0,46.8L708.0,44.9L694.6,51.6L689.1,47.3L691.1,41.6L697.3,39.2L708.9,45.0L707.0,46.8Z M735.6,14.1L734.2,16.3L726.7,10.5L731.4,9.4L733.0,9.8L735.6,14.1Z M799.8,36.1L790.7,33.8L785.1,27.5L788.9,28.2L785.8,26.3L790.8,24.0L800.0,30.0L799.8,36.1Z M756.4,0.0L755.1,1.1L763.3,11.7L777.8,20.1L769.3,20.5L774.5,22.7L764.2,20.4L768.5,22.3L767.2,23.0L756.8,19.7L754.5,22.8L748.4,18.5L750.8,21.3L739.2,18.9L736.9,17.9L740.8,18.2L738.8,14.3L745.8,13.8L738.4,11.6L743.1,8.5L738.0,10.9L736.5,8.6L738.3,7.2L733.0,9.6L729.9,5.8L723.2,8.6L719.1,2.0L756.4,0.0Z M800.0,52.1L800.0,334.0L795.5,339.9L784.1,329.2L776.2,333.8L773.2,330.0L766.9,330.4L759.2,339.0L749.5,331.1L749.9,337.9L748.0,339.1L748.0,333.9L738.0,323.9L729.8,324.3L727.6,319.3L718.2,324.1L718.8,321.6L713.1,319.6L708.9,326.8L692.4,337.3L694.4,348.4L689.3,349.5L683.3,340.2L680.5,342.7L675.5,357.9L677.8,361.6L672.7,372.5L678.6,374.8L678.8,382.0L681.0,383.9L681.5,381.5L688.7,383.5L696.5,398.4L691.3,400.1L692.1,401.6L695.7,403.0L699.4,406.4L693.0,409.1L694.1,411.1L693.8,413.5L692.3,411.0L685.3,416.7L682.9,414.1L683.8,417.5L682.4,415.0L681.3,414.5L683.0,417.4L681.1,423.4L674.6,433.8L680.0,438.8L682.4,445.6L681.5,449.8L682.8,444.2L684.2,444.1L682.0,457.6L692.5,476.1L685.8,486.2L680.2,484.7L675.2,476.0L667.6,473.2L664.8,470.5L665.4,465.7L660.3,462.7L648.8,465.0L638.4,455.2L614.0,448.8L611.4,451.7L600.1,437.8L588.0,431.4L579.6,423.3L583.2,421.8L580.4,421.2L582.0,419.3L584.3,422.5L590.4,421.6L589.1,416.3L592.4,410.2L593.9,409.6L593.3,413.4L594.5,408.6L598.2,410.0L590.4,399.9L598.4,400.2L596.8,397.4L606.0,392.9L603.2,390.2L597.4,392.5L598.2,391.3L600.2,390.9L600.6,390.2L598.1,391.1L597.0,392.6L595.0,393.1L594.7,389.7L600.8,381.3L609.5,381.6L611.7,374.6L608.3,369.7L612.3,365.2L608.8,362.8L613.1,359.3L613.0,354.0L595.8,346.4L592.9,349.0L587.4,340.5L579.7,344.1L570.5,341.8L565.4,328.3L557.0,327.6L556.1,321.1L559.2,319.3L553.5,310.2L534.3,314.2L532.3,303.4L529.4,299.8L531.0,296.8L538.4,298.5L543.1,292.7L540.6,288.7L534.1,287.4L534.8,283.4L524.9,271.8L527.1,268.1L525.1,263.9L526.0,258.9L519.5,254.9L512.8,257.7L511.8,253.4L500.4,250.7L500.0,244.0L495.3,239.3L497.3,232.3L492.5,227.8L496.9,223.2L493.3,209.1L500.5,199.6L498.9,193.3L520.0,189.9L504.6,183.4L503.0,180.6L505.4,182.2L505.3,177.8L497.0,180.7L526.4,153.1L532.4,143.6L517.5,130.4L522.9,122.8L518.0,120.0L518.8,114.2L514.2,112.0L516.2,108.6L513.7,106.8L514.9,100.6L518.7,99.3L508.7,80.4L517.7,68.1L505.3,60.3L503.0,54.8L506.4,50.0L502.7,49.0L517.3,41.5L518.8,37.3L534.7,36.5L533.8,34.3L537.4,34.9L537.0,32.2L547.1,35.9L544.7,38.2L537.5,35.5L536.6,38.5L541.2,39.2L538.3,40.5L550.8,40.6L548.1,43.1L551.0,44.1L546.5,46.1L546.1,48.1L546.5,46.5L549.9,45.7L552.7,42.1L572.9,44.3L621.6,68.2L622.2,74.9L624.9,77.0L622.9,82.0L612.6,90.2L598.2,93.9L559.8,86.2L556.6,82.5L546.8,81.2L544.0,78.8L545.2,77.4L540.1,76.4L535.1,76.5L548.9,84.5L545.0,85.7L548.3,85.0L550.9,86.3L547.7,85.6L545.3,86.4L552.8,88.0L548.8,89.7L563.3,96.3L564.4,99.0L561.8,97.7L561.7,103.4L558.1,104.4L564.8,114.6L562.3,117.5L587.6,129.6L593.6,126.0L593.1,121.4L584.7,120.1L578.3,111.8L583.6,107.8L596.6,113.0L593.4,116.1L597.2,113.4L616.6,117.8L616.6,114.1L609.4,101.8L632.5,86.3L642.8,88.0L646.5,91.0L642.7,93.3L643.3,94.1L647.9,91.8L651.1,96.9L650.3,90.6L654.7,84.2L652.8,82.4L654.3,80.2L647.2,74.6L650.8,68.2L650.7,63.2L653.3,62.2L642.6,52.8L664.3,55.0L673.3,61.1L674.8,66.1L662.1,67.4L658.0,73.1L668.5,81.6L673.9,81.2L672.1,83.0L683.1,81.0L685.6,69.5L697.5,68.9L692.6,64.2L697.7,65.3L726.4,54.0L725.2,55.4L728.1,55.7L726.0,57.2L728.5,57.8L731.6,55.7L727.4,53.4L738.2,48.7L748.8,47.4L739.7,48.8L743.8,49.8L740.9,52.8L743.0,56.7L736.1,58.9L750.5,60.5L756.6,54.2L774.9,54.2L789.4,47.3L794.6,51.2L791.1,53.4L791.6,56.8L798.7,57.1L797.9,52.6L800.0,52.1Z" fill="#cccccc" stroke="#888888" stroke-width="0.3">
    <animate attributeName="fill" values="#cccccc;#cccccc;#e63946;#e63946;#cccccc" keyTimes="0.0000;0.8000;0.8200;0.9600;1.0000" dur="10s" repeatCount="indefinite" calcMode="linear"/>
    <animate attributeName="stroke" values="#888888;#888888;#c1121f;#c1121f;#888888" keyTimes="0.0000;0.8000;0.8200;0.9600;1.0000" dur="10s" repeatCount="indefinite" calcMode="linear"/>
  </path>
</svg>