<svg xmlns="http://www.w3.org/2000/svg" viewBox="0 0 910 1699" preserveAspectRatio="xMidYMid slice">
  <path d="M307.5,494.3L303.4,496.3L307.7,499.6L305.0,507.1L295.0,509.8L298.1,516.3L294.1,523.9L295.7,529.2L291.5,527.7L293.8,521.8L284.7,516.0L277.5,518.3L266.8,515.0L276.2,516.5L272.9,513.9L275.0,512.1L271.4,509.8L281.5,488.3L295.5,479.9L309.3,484.2L307.5,494.3Z" fill="none" stroke="rgba(0,0,0,0.2)" stroke-width="0.5"/>
  <path d="M521.9,684.5L506.3,680.6L488.2,684.1L489.2,677.9L481.7,669.1L482.6,661.4L488.9,655.4L483.7,651.1L482.3,642.9L485.6,639.2L489.5,641.3L487.9,645.3L516.5,648.3L534.9,640.0L552.6,646.9L539.8,666.6L546.2,674.4L535.2,672.7L521.9,684.5Z" fill="none" stroke="rgba(0,0,0,0.2)" stroke-width="0.5"/>
  <path d="M746.2,691.2L743.6,694.0L745.4,697.5L750.5,700.8L746.0,704.5L756.7,710.7L756.6,720.6L752.3,720.8L748.1,710.6L724.2,702.5L721.6,687.5L739.8,685.6L746.2,691.2Z M739.0,688.5L739.6,688.8L739.6,688.0L739.0,688.5Z M741.6,689.2L741.4,689.2L741.5,689.6L741.6,689.2Z" fill="none" stroke="rgba(0,0,0,0.2)" stroke-width="0.5"/>
  <path d="M893.6,617.8L864.2,626.9L864.3,684.3L858.2,684.9L843.1,668.7L824.0,677.8L827.4,663.1L810.8,656.1L805.9,639.8L798.8,633.8L814.0,634.7L807.2,629.0L812.4,620.6L833.3,621.3L827.3,617.9L831.7,608.7L831.1,595.9L810.0,592.1L788.3,600.9L787.5,605.2L778.7,599.7L784.9,597.9L775.5,582.1L766.2,582.6L763.3,572.7L756.2,570.2L762.4,558.4L759.6,554.3L765.6,537.3L768.9,534.5L776.2,544.9L782.4,543.7L780.0,531.2L800.0,519.1L805.0,510.8L811.1,516.1L822.5,510.5L825.2,516.3L835.0,515.8L847.2,527.3L847.4,533.2L849.0,524.1L860.6,533.1L869.9,523.3L881.2,527.2L890.8,521.9L904.6,534.1L910.0,527.6L910.0,628.9L893.6,617.8Z M909.8,507.2L910.0,507.1L910.0,507.3L909.8,507.2Z" fill="none" stroke="rgba(0,0,0,0.2)" stroke-width="0.5"/>
  <path d="M437.2,659.2L444.4,653.7L443.4,650.0L459.0,660.2L454.8,666.1L450.7,664.6L447.8,676.2L437.9,667.5L437.2,659.2Z" fill="none" stroke="rgba(0,0,0,0.2)" stroke-width="0.5"/>
  <path d="M421.7,582.2L414.1,583.0L417.3,585.1L415.0,594.1L392.9,604.4L368.6,599.2L366.1,592.7L342.5,596.6L335.8,589.7L338.8,584.2L343.1,589.5L346.1,584.4L355.3,587.5L366.8,581.8L375.4,586.3L372.5,575.2L384.7,564.1L394.4,567.4L397.9,559.9L420.2,566.9L421.7,582.2Z" fill="none" stroke="rgba(0,0,0,0.2)" stroke-width="0.5"/>
  <path d="M460.7,685.6L466.8,694.5L457.1,709.5L446.9,697.8L450.6,680.0L446.7,671.2L451.6,663.9L460.5,670.4L460.7,685.6Z" fill="none" stroke="rgba(0,0,0,0.2)" stroke-width="0.5"/>
  <path d="M555.1,107.7L551.1,117.3L553.9,127.9L568.9,143.0L558.0,166.0L570.0,199.8L565.4,202.1L564.6,221.8L575.1,240.0L568.5,252.4L586.6,273.6L582.9,283.6L542.6,331.7L528.7,332.1L530.7,327.8L527.1,334.2L522.3,331.7L522.5,337.2L519.5,334.5L494.0,343.8L495.3,341.1L492.0,346.4L488.0,347.1L491.9,344.6L492.8,342.6L487.7,339.4L490.0,334.7L483.7,338.2L484.9,333.7L471.0,329.5L471.7,326.0L470.1,323.8L471.2,322.0L469.8,318.3L471.9,318.3L472.9,309.9L471.2,308.2L474.5,307.2L467.1,281.3L474.2,270.5L472.0,266.0L477.6,267.6L481.5,264.1L481.0,257.9L496.0,245.0L506.6,224.5L516.9,220.2L515.6,205.5L508.2,201.9L508.6,194.3L502.8,198.0L497.0,184.6L500.5,168.9L495.7,158.8L497.8,150.9L494.0,149.0L496.7,135.0L462.1,101.3L473.6,93.8L482.4,111.5L510.8,116.4L520.9,102.7L523.3,80.2L544.5,67.5L561.3,87.6L550.9,106.6L555.1,107.7Z" fill="none" stroke="rgba(0,0,0,0.2)" stroke-width="0.5"/>
  <path d="M878.0,920.9L895.9,925.8L907.9,941.9L893.1,964.1L889.6,961.7L885.6,966.0L885.2,981.3L873.7,984.3L868.6,994.0L858.2,995.1L853.4,1005.0L831.4,1009.4L818.8,981.3L852.9,969.2L860.4,945.0L855.3,936.1L858.3,920.5L864.5,919.0L861.7,917.2L862.9,908.2L869.8,910.4L878.0,920.9Z M870.2,890.4L867.7,899.7L866.2,899.1L865.5,893.6L870.2,890.4Z" fill="none" stroke="rgba(0,0,0,0.2)" stroke-width="0.5"/>
  <path d="M237.8,1075.7L236.2,1082.7L242.8,1087.6L245.9,1130.7L241.0,1132.0L233.4,1123.6L235.6,1106.8L231.7,1101.3L233.5,1094.1L230.1,1093.7L232.0,1083.9L226.5,1079.8L225.6,1074.0L237.8,1075.7Z" fill="none" stroke="rgba(0,0,0,0.2)" stroke-width="0.5"/>
  <path d="M868.9,907.8L865.6,910.9L862.2,909.0L864.5,919.0L858.3,920.5L854.5,937.1L825.4,933.2L814.2,918.8L814.4,915.3L818.2,920.5L825.8,917.4L840.4,919.3L846.6,916.4L865.4,894.2L868.4,899.9L868.9,907.8Z M867.2,904.9L868.5,903.9L867.5,903.4L867.2,904.9Z" fill="none" stroke="rgba(0,0,0,0.2)" stroke-width="0.5"/>
  <path d="M226.5,1079.8L232.0,1083.9L230.1,1093.7L233.5,1094.1L231.7,1101.3L235.6,1106.8L233.4,1123.5L241.0,1132.0L205.0,1147.4L192.0,1143.5L196.4,1140.3L190.6,1123.9L199.0,1107.8L195.2,1075.6L220.3,1076.7L225.6,1074.0L226.5,1079.8Z" fill="none" stroke="rgba(0,0,0,0.2)" stroke-width="0.5"/>
  <path d="M74.1,1092.1L71.4,1092.8L71.8,1087.8L60.8,1081.6L62.6,1076.8L60.3,1079.7L60.5,1074.8L56.0,1077.2L60.2,1069.8L71.3,1067.3L68.6,1062.2L71.3,1056.1L86.9,1060.4L96.9,1059.0L98.6,1063.7L102.9,1061.4L105.7,1065.2L110.7,1061.4L116.9,1063.7L122.1,1058.2L132.2,1071.3L128.5,1075.8L132.8,1075.3L136.8,1083.9L134.7,1092.6L138.0,1094.0L136.9,1100.9L140.3,1105.9L133.7,1105.0L136.9,1110.0L134.2,1115.1L128.7,1113.7L123.7,1119.5L119.5,1117.4L121.1,1113.2L116.3,1103.7L105.4,1106.9L108.3,1102.5L100.1,1087.4L85.6,1088.5L76.2,1098.2L74.1,1092.1Z" fill="none" stroke="rgba(0,0,0,0.2)" stroke-width="0.5"/>
  <path d="M622.6,611.4L631.1,622.0L635.1,619.2L644.3,621.2L642.0,625.8L631.4,625.0L611.1,636.5L607.1,633.6L609.0,625.0L597.0,620.2L610.7,612.9L612.5,607.4L622.6,611.4Z M450.6,459.6L454.7,449.6L465.5,443.3L461.1,449.7L469.0,450.1L470.6,443.2L487.4,452.3L486.5,461.6L450.6,459.6Z M782.6,111.0L775.9,102.4L785.8,85.9L798.1,94.1L797.8,101.9L782.6,111.0Z M830.5,37.0L821.5,24.1L827.1,21.5L829.1,22.5L830.5,37.0Z M905.0,79.4L891.9,61.3L898.9,53.8L910.0,70.3L910.0,78.6L905.0,79.4Z M816.7,0.0L856.7,0.0L855.7,2.6L865.7,26.8L883.1,45.3L855.0,51.3L835.6,42.0L838.8,37.7L836.1,32.6L844.5,31.6L836.2,28.0L841.2,19.5L835.1,24.9L834.5,15.7L813.7,15.8L812.2,4.8L816.7,0.0Z M909.8,507.2L910.0,507.3L910.0,527.6L904.6,534.1L890.8,521.9L881.2,527.2L869.9,523.3L860.6,533.1L849.0,524.1L847.4,533.2L847.2,527.3L835.0,515.8L825.2,516.3L822.5,510.5L811.1,516.1L805.0,510.8L800.0,519.1L780.0,531.2L782.4,543.7L776.2,544.9L767.5,535.2L761.0,545.7L759.6,554.3L762.6,557.4L756.2,570.2L763.3,572.7L766.2,582.6L775.5,582.1L784.9,597.9L778.7,599.7L779.6,601.3L783.9,602.8L788.4,606.3L780.6,609.2L782.1,611.2L781.6,613.7L768.5,614.3L769.6,617.8L767.9,615.2L766.5,614.7L766.3,623.9L758.5,634.4L764.9,639.4L766.7,650.5L768.3,644.9L770.1,644.8L767.4,658.2L780.1,676.3L772.0,686.0L765.2,684.6L740.8,663.1L727.3,665.4L714.7,655.9L685.2,649.5L682.1,652.4L668.4,638.5L643.6,623.7L647.9,622.3L644.6,621.6L646.5,619.7L656.7,622.0L655.1,616.6L659.1,610.3L660.2,613.6L661.7,608.6L666.1,610.1L656.7,599.6L666.3,599.8L664.5,596.9L675.5,592.2L662.2,592.4L661.9,588.8L669.2,579.8L679.8,580.1L682.4,572.6L678.3,567.2L683.1,562.3L678.9,559.7L684.1,555.8L684.0,549.9L663.2,541.5L659.8,544.3L653.1,534.9L632.6,536.3L626.5,520.9L616.4,520.1L615.3,512.5L618.9,510.5L612.0,499.8L588.8,504.5L582.9,487.4L599.7,479.3L588.6,472.5L589.5,467.5L577.5,453.2L579.1,437.5L549.3,427.9L545.0,412.0L541.8,411.5L544.2,402.1L538.4,395.9L543.7,390.0L539.3,370.7L548.1,357.3L546.1,348.3L571.5,343.4L553.0,334.1L551.0,330.0L554.0,332.3L553.9,325.8L543.7,330.6L586.6,273.6L568.5,252.4L575.1,240.0L564.6,221.8L565.4,202.1L570.0,199.8L558.0,166.0L568.9,143.0L553.9,127.9L551.1,117.3L555.1,107.7L550.7,105.7L570.1,82.0L589.3,80.3L592.1,71.2L604.4,78.9L592.8,78.1L591.7,84.3L597.2,85.9L593.7,88.5L608.8,88.7L605.5,93.8L609.1,95.8L603.6,99.8L603.1,103.9L603.6,100.6L607.7,99.1L611.1,91.7L635.6,96.3L694.3,143.3L698.3,159.6L695.9,168.8L666.1,190.3L619.7,176.6L602.1,160.4L595.9,158.6L589.8,158.8L611.2,179.8L606.4,182.9L623.9,194.6L622.0,207.0L617.6,208.8L625.7,226.2L622.7,231.1L654.5,250.9L660.6,245.3L660.0,237.7L649.8,235.4L642.0,221.5L648.5,214.6L664.1,223.4L660.3,228.7L688.4,231.5L688.4,225.3L679.6,204.2L707.5,176.8L720.1,179.8L724.5,185.2L719.9,189.3L720.6,190.7L726.1,186.6L730.0,195.6L729.1,184.5L733.9,165.6L725.3,155.1L732.7,131.6L720.2,113.0L746.0,117.7L756.8,129.5L758.7,139.1L743.4,141.7L738.4,152.4L757.6,167.4L755.4,170.6L768.7,167.1L771.7,145.6L786.1,144.4L780.2,135.5L821.0,115.6L823.6,123.2L827.3,119.0L822.7,114.0L840.4,103.3L848.1,102.5L837.1,105.4L842.0,107.4L838.6,113.3L841.1,121.1L832.8,125.3L851.2,128.2L857.6,116.2L879.6,116.2L897.2,102.4L903.4,110.2L899.6,120.8L906.3,123.2L909.6,119.2L907.9,112.3L910.0,111.2L910.0,507.1L909.8,507.2Z" fill="none" stroke="rgba(0,0,0,0.2)" stroke-width="0.5"/>
  <path d="M496.5,1088.7L494.9,1102.0L503.0,1102.3L502.2,1106.6L514.3,1111.8L514.0,1115.9L527.5,1125.7L528.1,1132.3L536.0,1135.8L539.6,1143.8L518.1,1140.3L515.4,1144.2L505.0,1143.2L493.8,1149.2L488.0,1146.6L481.2,1154.5L461.6,1151.3L448.3,1143.1L438.4,1152.2L439.4,1162.0L426.1,1159.3L416.8,1161.4L411.5,1176.0L410.1,1168.1L399.1,1157.3L392.7,1141.3L391.2,1132.7L400.7,1118.8L415.7,1111.7L418.4,1115.5L439.0,1109.7L445.0,1102.4L443.9,1098.9L460.0,1097.1L474.6,1083.7L474.6,1079.8L487.5,1076.5L496.5,1088.7Z" fill="none" stroke="rgba(0,0,0,0.2)" stroke-width="0.5"/>
  <path d="M97.0,1122.6L80.3,1111.5L76.4,1104.5L79.2,1105.9L81.0,1102.3L77.8,1104.3L76.9,1100.7L79.8,1100.3L76.2,1098.2L85.6,1088.5L99.6,1087.2L107.0,1098.1L105.4,1106.9L110.5,1105.2L97.0,1122.6Z" fill="none" stroke="rgba(0,0,0,0.2)" stroke-width="0.5"/>
  <path d="M893.9,661.7L888.6,664.3L892.8,669.4L887.4,666.2L875.6,675.5L876.2,685.2L864.3,684.3L864.2,626.9L893.6,617.8L910.0,628.9L910.0,670.7L893.9,661.7Z" fill="none" stroke="rgba(0,0,0,0.2)" stroke-width="0.5"/>
  <path d="M591.1,1524.9L581.7,1523.4L577.7,1517.3L581.5,1507.0L590.9,1507.6L591.1,1524.9Z" fill="none" stroke="rgba(0,0,0,0.2)" stroke-width="0.5"/>
  <path d="M528.4,442.4L532.4,443.5L520.8,451.5L517.9,462.3L520.6,465.5L496.3,470.5L485.8,460.4L487.4,452.6L484.2,447.6L469.4,444.0L467.0,427.4L478.8,420.3L510.4,419.8L530.1,436.1L528.4,442.4Z" fill="none" stroke="rgba(0,0,0,0.2)" stroke-width="0.5"/>
  <path d="M268.9,1057.9L274.4,1046.8L290.3,1042.0L299.9,1045.0L306.4,1052.4L316.5,1048.3L336.6,1054.6L348.9,1047.9L369.4,1051.6L382.3,1044.1L388.9,1059.7L394.4,1062.0L393.6,1069.6L384.0,1075.4L356.8,1127.9L347.8,1120.2L346.9,1123.1L342.9,1121.6L328.2,1134.9L324.5,1147.9L320.6,1144.7L321.8,1149.7L310.3,1150.2L307.9,1147.3L306.8,1151.7L303.9,1146.5L305.7,1151.9L304.1,1149.1L303.6,1152.1L298.4,1150.3L297.0,1152.9L289.8,1146.3L288.2,1140.6L290.9,1140.2L291.7,1138.4L286.6,1138.8L290.2,1137.8L285.8,1137.4L287.7,1134.2L284.9,1135.8L277.6,1129.0L266.7,1128.4L266.0,1128.1L271.2,1126.1L258.3,1128.9L259.0,1098.0L262.5,1097.6L270.7,1082.0L267.0,1070.7L268.9,1057.9Z" fill="none" stroke="rgba(0,0,0,0.2)" stroke-width="0.5"/>
  <path d="M142.2,1081.9L147.7,1085.5L156.3,1078.8L156.5,1084.2L169.1,1083.6L174.3,1090.8L190.9,1088.1L196.9,1093.1L199.0,1107.8L190.4,1126.1L196.0,1142.7L167.0,1141.9L170.6,1143.1L141.3,1151.7L142.8,1134.9L129.5,1127.5L133.2,1121.8L131.0,1115.3L136.9,1110.0L133.6,1105.1L140.3,1105.9L136.9,1100.9L138.0,1094.0L134.7,1092.6L136.8,1085.4L142.2,1081.9Z" fill="none" stroke="rgba(0,0,0,0.2)" stroke-width="0.5"/>
  <path d="M50.3,872.8L47.5,870.4L48.8,867.2L52.7,869.5L50.3,872.8Z M35.1,864.8L44.2,862.0L41.5,864.5L39.3,869.1L35.1,864.8Z M69.0,866.2L62.5,868.5L68.4,860.0L69.0,866.2Z M262.3,714.9L254.2,710.4L263.7,704.6L267.0,708.1L262.3,714.9Z M221.0,662.0L236.7,661.1L250.4,668.6L263.7,667.3L264.3,674.8L235.6,691.9L223.8,711.3L230.2,722.6L221.7,728.5L217.8,737.1L219.5,738.9L208.5,742.5L203.3,751.5L177.4,751.7L163.7,761.8L154.8,752.9L157.0,748.7L154.8,750.5L149.6,743.5L143.2,745.0L142.0,739.1L148.5,730.5L143.8,726.9L148.2,718.6L141.5,708.8L147.6,708.6L148.5,688.9L156.9,680.5L152.3,674.5L134.5,676.8L134.0,671.6L126.5,675.6L129.4,668.6L126.6,670.0L128.2,663.3L124.8,665.6L126.4,661.1L122.0,660.2L122.6,656.1L134.1,653.6L132.9,649.6L140.1,646.1L147.4,651.0L160.9,648.1L207.4,653.3L221.0,662.0Z" fill="none" stroke="rgba(0,0,0,0.2)" stroke-width="0.5"/>
  <path d="M358.8,811.0L344.3,821.1L344.1,832.3L335.8,840.4L330.4,815.9L322.3,809.7L312.6,791.7L321.2,780.8L323.4,772.5L320.4,754.5L325.4,748.6L338.3,742.8L344.3,745.2L345.3,751.6L353.2,746.6L346.6,760.3L354.4,772.8L341.3,787.3L358.1,802.8L358.8,811.0Z" fill="none" stroke="rgba(0,0,0,0.2)" stroke-width="0.5"/>
  <path d="M843.3,1059.9L838.7,1060.5L833.9,1057.6L847.7,1057.5L843.3,1059.9Z M831.4,1009.4L822.3,1013.9L821.6,1021.6L789.1,1033.0L781.4,1040.1L746.9,1048.3L740.0,1055.1L721.9,1056.0L715.9,1029.5L712.2,1026.0L720.1,999.7L758.8,1001.9L764.0,1005.8L775.3,991.5L785.3,986.3L818.8,981.3L831.4,1009.4Z" fill="none" stroke="rgba(0,0,0,0.2)" stroke-width="0.5"/>
  <path d="M477.9,388.9L480.1,383.9L475.8,376.0L492.7,376.8L477.9,388.9Z M506.8,379.8L497.6,379.6L494.8,371.9L499.1,370.3L494.0,370.4L494.5,360.6L517.4,350.3L548.1,356.9L539.3,370.7L543.7,390.0L538.6,397.1L528.9,397.4L515.1,385.5L504.2,389.2L506.8,379.8Z M485.3,363.4L489.6,368.8L484.1,372.1L478.5,366.9L485.3,363.4Z" fill="none" stroke="rgba(0,0,0,0.2)" stroke-width="0.5"/>
  <path d="M773.3,1110.2L784.2,1093.5L784.2,1072.7L803.5,1064.5L811.0,1065.9L807.7,1082.1L809.6,1080.7L812.1,1082.6L806.8,1083.4L805.7,1093.9L772.9,1150.8L751.3,1173.6L724.1,1192.4L704.7,1211.7L700.0,1220.9L693.6,1211.5L693.6,1169.2L706.0,1154.0L727.2,1145.2L738.7,1145.6L773.3,1110.2Z" fill="none" stroke="rgba(0,0,0,0.2)" stroke-width="0.5"/>
  <path d="M172.7,907.6L152.5,907.6L163.5,1010.8L166.6,1013.4L164.8,1023.0L121.2,1023.0L121.1,1020.6L120.3,1023.7L105.5,1023.7L103.3,1027.6L96.4,1021.3L90.2,1032.0L63.6,1009.2L42.4,1010.8L39.3,1019.3L45.1,991.6L39.4,976.7L41.4,976.2L42.3,974.9L40.2,976.3L42.8,971.7L43.2,966.3L40.9,961.0L35.1,955.1L33.5,959.9L34.5,953.1L79.5,953.0L77.9,934.7L90.8,926.8L90.8,895.0L128.5,895.0L128.7,878.6L172.7,907.6Z" fill="none" stroke="rgba(0,0,0,0.2)" stroke-width="0.5"/>
  <path d="M413.3,531.1L411.8,535.3L417.0,540.9L421.0,538.7L419.7,534.8L428.9,537.0L428.1,540.6L438.6,544.2L441.7,551.2L420.2,566.9L398.2,559.9L390.3,567.7L371.3,552.6L364.9,538.2L390.0,524.0L413.3,531.1Z" fill="none" stroke="rgba(0,0,0,0.2)" stroke-width="0.5"/>
  <path d="M377.1,1187.2L388.4,1185.7L392.1,1191.2L384.8,1203.9L392.3,1208.4L391.4,1223.1L387.8,1230.0L383.8,1225.4L380.6,1229.3L375.0,1228.6L371.2,1222.3L369.2,1228.1L359.1,1228.1L362.9,1243.0L358.1,1241.5L353.9,1246.4L337.9,1229.4L341.0,1231.5L343.0,1230.8L342.8,1230.3L336.7,1228.3L333.0,1222.9L335.8,1223.5L332.8,1222.4L332.4,1219.5L330.1,1216.5L329.7,1215.6L330.1,1216.4L331.7,1218.3L332.9,1219.0L333.1,1220.6L336.2,1219.8L330.2,1216.3L326.4,1208.2L330.0,1211.5L333.8,1197.5L335.4,1200.4L341.5,1199.4L333.4,1195.4L336.8,1196.2L336.6,1190.0L356.5,1190.2L356.6,1175.4L378.7,1177.6L377.1,1187.2Z" fill="none" stroke="rgba(0,0,0,0.2)" stroke-width="0.5"/>
  <path d="M380.5,1035.5L403.4,1006.4L409.2,965.1L400.2,951.0L397.9,932.5L409.3,927.0L500.3,975.3L500.3,1020.3L488.1,1022.5L488.6,1026.5L481.9,1034.2L484.0,1039.0L478.6,1043.2L480.8,1048.4L475.6,1054.7L482.8,1056.9L483.9,1068.2L488.2,1074.6L474.6,1079.8L474.6,1083.7L460.0,1097.1L443.9,1098.9L445.0,1102.4L439.0,1109.7L418.7,1115.4L415.7,1111.7L403.6,1115.7L400.2,1104.7L386.2,1091.3L388.8,1087.4L405.9,1087.3L399.6,1080.9L396.2,1056.8L387.5,1051.4L380.5,1035.5Z" fill="none" stroke="rgba(0,0,0,0.2)" stroke-width="0.5"/>
  <path d="M568.1,1218.3L563.9,1217.3L568.2,1192.2L583.2,1177.6L576.8,1173.7L579.5,1159.6L589.0,1158.1L593.4,1161.6L602.8,1157.3L608.5,1158.8L614.3,1153.6L625.7,1179.7L613.0,1200.3L613.2,1213.0L574.1,1213.7L568.1,1218.3Z" fill="none" stroke="rgba(0,0,0,0.2)" stroke-width="0.5"/>
  <path d="M617.4,1080.6L620.8,1076.9L623.8,1078.7L626.5,1066.1L633.4,1056.3L638.3,1055.8L643.0,1037.5L651.7,1035.2L654.7,1039.4L658.5,1030.3L664.6,1035.7L671.2,1033.0L692.0,1039.4L709.6,1058.5L702.9,1067.4L702.5,1075.6L715.8,1075.6L712.6,1079.8L714.8,1084.8L727.8,1098.6L761.9,1110.2L773.3,1110.2L738.7,1145.6L722.6,1146.4L703.4,1156.6L695.7,1156.6L691.2,1152.7L676.9,1162.8L660.9,1160.4L648.6,1151.8L636.3,1150.2L634.8,1140.9L628.9,1140.3L622.3,1125.3L611.0,1114.1L602.8,1111.2L605.5,1105.0L615.3,1103.8L617.4,1080.6Z" fill="none" stroke="rgba(0,0,0,0.2)" stroke-width="0.5"/>
  <path d="M346.3,601.8L341.6,601.8L342.6,606.8L332.9,602.6L329.9,613.5L323.0,603.2L316.6,612.0L307.9,612.4L302.7,603.1L295.3,608.5L306.8,585.9L324.9,584.2L324.8,580.6L337.3,586.5L335.3,593.0L346.4,596.3L346.3,601.8Z" fill="none" stroke="rgba(0,0,0,0.2)" stroke-width="0.5"/>
  <path d="M158.1,444.7L162.8,453.0L160.3,456.7L164.1,455.3L165.7,459.6L162.6,457.3L164.3,462.7L158.3,467.9L147.7,460.5L140.9,465.8L134.5,459.5L158.1,444.7Z M149.8,389.1L147.3,382.0L149.5,384.7L156.9,376.6L157.4,382.4L152.2,385.2L155.2,386.2L146.6,391.0L149.8,389.1Z M155.7,393.4L157.5,401.8L160.4,403.1L163.3,402.7L159.2,407.6L161.0,404.3L150.9,399.5L155.7,393.4Z M187.2,517.4L167.1,508.9L182.6,496.1L181.1,489.0L173.3,491.6L180.0,483.5L192.7,479.4L194.7,482.2L196.8,481.0L192.2,477.0L195.7,463.7L191.7,467.3L186.2,458.5L193.1,449.4L177.4,450.8L177.7,455.3L172.2,451.6L172.2,456.2L168.8,451.3L175.0,439.0L171.9,430.5L176.5,430.3L172.3,429.1L173.4,424.6L170.8,431.5L166.8,428.9L171.5,423.2L165.6,428.3L167.0,433.2L161.7,442.7L165.4,432.0L162.6,430.0L164.1,422.1L170.7,414.1L163.0,418.7L159.2,415.7L164.4,414.6L157.4,414.9L156.6,413.9L166.1,406.0L162.9,404.9L165.6,401.5L162.3,402.0L164.9,400.4L165.5,399.4L161.4,400.8L161.1,396.0L163.3,397.5L164.8,396.8L161.4,390.6L169.8,390.6L165.5,385.2L171.4,382.2L168.7,379.4L170.8,373.4L193.2,373.2L181.9,389.9L177.5,389.0L181.5,390.9L184.5,390.1L179.2,397.8L206.7,395.3L198.9,416.7L189.7,421.4L198.2,423.2L183.8,426.7L203.2,430.6L208.9,437.2L213.8,456.3L226.6,466.4L225.0,468.1L229.0,475.4L229.2,476.1L229.0,476.7L224.5,473.6L220.3,473.7L219.2,474.3L230.0,479.7L231.6,484.9L227.6,489.8L242.0,489.0L247.4,494.7L245.5,504.9L231.9,516.4L238.6,518.3L244.0,517.7L238.6,526.1L210.8,526.1L199.6,533.1L188.1,530.4L185.9,538.6L179.7,534.4L168.5,543.3L162.6,541.6L179.4,521.2L193.1,521.2L200.4,510.5L187.2,517.4Z M213.0,346.1L213.1,337.2L208.3,336.3L213.2,334.7L209.2,331.7L212.7,328.0L214.8,333.9L213.0,346.1Z" fill="none" stroke="rgba(0,0,0,0.2)" stroke-width="0.5"/>
  <path d="M612.0,499.8L618.9,510.5L615.3,512.5L616.4,520.1L626.5,520.9L632.6,536.3L653.1,534.9L659.8,544.3L663.2,541.5L683.8,549.8L684.1,555.8L678.8,560.6L683.1,562.7L678.3,567.2L682.4,572.9L679.5,580.4L663.4,584.2L661.4,593.5L635.9,599.9L627.5,608.5L625.4,609.3L629.5,605.1L627.8,602.2L623.5,607.7L625.3,615.2L612.5,607.4L589.2,605.9L592.2,604.1L587.9,603.5L585.9,600.9L595.1,603.0L598.8,599.9L591.8,600.2L591.2,593.9L590.0,593.6L590.3,592.5L589.6,591.0L588.7,590.5L588.6,589.7L590.4,599.9L585.1,597.4L567.2,616.0L564.6,613.5L566.0,619.9L565.0,623.4L548.3,619.4L556.9,610.6L556.8,603.1L566.8,605.0L570.2,603.7L563.7,595.0L563.7,588.7L559.1,586.5L558.8,577.6L541.3,568.9L510.7,582.2L487.7,578.1L479.3,570.3L483.9,558.8L487.6,559.9L485.3,550.2L501.7,532.9L496.1,513.3L520.6,507.7L574.9,520.4L579.4,505.1L612.0,499.8Z" fill="none" stroke="rgba(0,0,0,0.2)" stroke-width="0.5"/>
  <path d="M356.3,1176.9L356.5,1190.2L334.4,1188.9L339.1,1175.3L356.3,1176.9Z M326.3,1165.1L323.6,1164.3L326.5,1158.7L329.4,1159.4L326.3,1165.1Z" fill="none" stroke="rgba(0,0,0,0.2)" stroke-width="0.5"/>
  <path d="M301.5,546.1L299.7,552.1L293.4,550.7L292.6,544.5L297.1,540.4L301.5,546.1Z" fill="none" stroke="rgba(0,0,0,0.2)" stroke-width="0.5"/>
  <path d="M628.4,1144.8L618.6,1148.9L608.5,1158.8L602.8,1157.3L593.4,1161.6L589.0,1158.1L575.0,1160.5L563.5,1148.4L559.9,1152.1L554.6,1149.7L550.1,1152.8L543.4,1149.2L536.0,1135.8L528.1,1132.3L527.5,1125.7L514.0,1115.9L514.3,1111.8L502.2,1106.6L502.5,1102.0L506.9,1100.0L512.8,1083.8L521.3,1082.3L530.4,1093.2L544.8,1091.8L546.5,1094.9L555.6,1095.0L568.9,1084.0L582.0,1089.9L596.4,1074.6L592.4,1064.0L605.3,1061.5L604.5,1078.6L613.3,1085.1L615.5,1103.0L605.5,1105.0L602.8,1111.2L611.0,1114.1L622.3,1125.3L628.9,1140.3L634.8,1140.9L636.1,1148.9L628.4,1144.8Z" fill="none" stroke="rgba(0,0,0,0.2)" stroke-width="0.5"/>
  <path d="M742.8,1344.6L744.0,1352.3L738.4,1353.1L736.5,1346.8L742.8,1344.6Z" fill="none" stroke="rgba(0,0,0,0.2)" stroke-width="0.5"/>
  <path d="M510.7,582.2L533.9,573.7L548.7,599.7L546.7,617.2L554.1,623.2L563.9,620.5L564.4,629.1L557.4,631.8L558.6,627.3L555.9,627.8L552.6,646.9L534.9,640.0L516.5,648.3L487.9,645.3L489.5,641.3L483.2,635.4L486.5,633.5L470.9,630.2L472.0,624.5L457.8,608.8L468.0,606.0L477.8,585.4L487.7,578.1L510.7,582.2Z" fill="none" stroke="rgba(0,0,0,0.2)" stroke-width="0.5"/>
  <path d="M480.8,668.2L489.2,678.3L485.8,687.0L466.0,691.4L460.7,685.6L461.5,675.9L480.8,668.2Z" fill="none" stroke="rgba(0,0,0,0.2)" stroke-width="0.5"/>
  <path d="M433.1,1177.0L429.4,1207.5L411.7,1226.4L412.1,1239.3L408.5,1246.2L394.4,1257.4L391.3,1257.2L391.2,1250.3L383.5,1252.3L379.8,1257.2L372.7,1251.6L364.1,1258.7L353.9,1246.4L358.1,1241.5L362.9,1243.0L359.1,1228.1L369.2,1228.1L371.2,1222.3L375.0,1228.6L380.6,1229.3L383.8,1225.4L387.8,1230.0L391.9,1220.7L392.3,1208.4L384.8,1203.9L392.1,1191.2L388.4,1185.7L384.4,1185.2L381.6,1186.9L377.1,1187.2L378.7,1176.9L393.1,1176.4L410.3,1182.7L416.3,1161.7L426.1,1159.3L439.4,1162.0L433.1,1177.0Z" fill="none" stroke="rgba(0,0,0,0.2)" stroke-width="0.5"/>
  <path d="M495.2,512.6L496.4,504.8L491.0,501.0L499.6,492.5L494.6,469.7L520.6,465.5L517.9,462.3L520.8,451.5L532.4,443.5L528.4,442.4L530.3,435.2L547.3,425.6L578.8,436.9L577.5,453.2L589.5,467.5L588.6,472.5L599.7,479.3L592.8,486.1L584.4,484.2L588.8,504.5L579.2,505.3L575.0,520.3L520.6,507.7L504.9,508.6L495.2,512.6Z" fill="none" stroke="rgba(0,0,0,0.2)" stroke-width="0.5"/>
  <path d="M579.7,1299.2L563.4,1273.1L562.0,1252.2L568.8,1250.2L578.2,1237.7L573.5,1234.0L578.8,1225.3L574.2,1213.6L614.3,1213.0L655.7,1236.2L655.2,1241.6L673.6,1255.0L668.6,1270.6L677.4,1281.4L674.0,1290.9L679.0,1316.4L687.5,1321.4L674.1,1329.4L659.0,1330.8L653.7,1335.9L639.3,1335.6L635.0,1332.3L625.2,1334.2L617.9,1312.7L579.7,1299.2Z" fill="none" stroke="rgba(0,0,0,0.2)" stroke-width="0.5"/>
  <path d="M610.5,1322.6L605.5,1326.2L605.7,1340.7L608.9,1343.3L603.2,1346.3L599.0,1357.8L605.2,1362.6L571.2,1374.0L573.4,1381.7L556.6,1385.6L554.7,1392.4L543.9,1397.4L531.2,1410.7L508.3,1403.8L493.5,1405.6L479.0,1392.5L477.5,1350.8L500.5,1350.8L500.1,1326.0L505.6,1332.9L515.4,1329.8L515.8,1335.0L523.0,1338.0L531.4,1339.3L536.7,1334.1L541.9,1342.5L550.8,1345.2L557.3,1355.4L563.9,1353.4L566.1,1356.1L566.5,1340.9L563.1,1344.4L557.8,1343.5L550.0,1333.5L553.9,1313.5L550.0,1307.5L556.1,1298.4L577.3,1295.1L580.5,1299.8L602.0,1309.1L610.5,1322.6Z" fill="none" stroke="rgba(0,0,0,0.2)" stroke-width="0.5"/>
  <path d="M683.2,650.1L714.7,655.9L727.3,665.4L741.1,663.3L755.4,675.2L752.9,679.9L758.7,685.1L756.2,688.5L742.6,682.3L721.7,687.5L714.4,680.4L703.1,682.7L699.8,681.3L702.7,676.7L700.1,667.7L683.2,650.1Z" fill="none" stroke="rgba(0,0,0,0.2)" stroke-width="0.5"/>
  <path d="M591.3,1488.3L583.3,1463.4L596.6,1449.9L597.0,1441.2L603.0,1434.3L599.2,1421.3L603.4,1414.1L602.5,1394.1L573.3,1386.1L571.2,1374.0L605.2,1362.6L610.2,1369.5L618.2,1367.0L620.7,1377.4L616.9,1384.7L628.9,1399.5L627.1,1392.4L634.6,1386.5L635.9,1372.9L620.5,1354.6L618.3,1341.4L621.3,1334.2L635.0,1332.3L639.3,1335.6L653.7,1335.9L659.0,1330.8L665.3,1332.3L688.3,1321.5L686.5,1331.2L689.9,1348.0L687.2,1350.1L692.1,1370.8L689.1,1380.0L672.2,1397.7L646.5,1408.4L648.1,1410.4L641.6,1419.3L627.1,1430.4L624.3,1432.3L621.4,1429.0L620.5,1428.9L630.1,1464.3L631.9,1460.5L631.3,1484.3L626.8,1490.5L601.1,1502.7L596.9,1508.0L601.1,1511.8L602.4,1509.1L601.7,1518.9L592.8,1518.8L591.3,1488.3Z M622.1,1340.6L622.9,1339.6L622.1,1339.1L622.1,1340.6Z M621.0,1340.0L621.5,1339.3L621.1,1338.8L621.0,1340.0Z" fill="none" stroke="rgba(0,0,0,0.2)" stroke-width="0.5"/>
  <path d="M134.5,459.5L158.0,468.3L154.9,469.8L159.3,488.5L153.6,499.6L155.3,502.7L147.9,501.0L122.6,515.8L115.8,516.5L119.9,512.2L118.8,510.8L112.0,514.0L118.5,508.6L109.9,510.3L116.5,503.5L108.8,504.6L108.5,503.0L128.0,493.8L114.5,496.0L126.3,483.5L111.7,479.8L118.8,471.1L114.4,470.9L116.2,470.2L115.6,466.4L112.4,464.0L130.7,464.5L128.9,461.5L135.1,455.9L127.4,455.0L132.8,452.3L133.3,445.7L140.6,443.5L140.1,449.8L143.5,441.2L148.6,444.2L134.5,459.5Z" fill="none" stroke="rgba(0,0,0,0.2)" stroke-width="0.5"/>
  <path d="M259.9,1059.3L254.5,1061.2L254.7,1065.2L251.5,1055.8L245.3,1056.6L238.7,1051.9L238.7,1048.0L241.9,1048.3L234.3,1044.3L229.2,1034.2L230.0,1028.9L267.4,1024.7L271.2,1020.8L275.1,1012.1L275.6,979.5L293.4,975.8L312.6,958.6L363.6,926.1L380.9,930.2L389.2,937.2L397.9,932.5L400.2,951.0L409.2,965.1L403.5,1006.2L380.5,1035.5L382.3,1044.1L369.4,1051.6L348.9,1047.9L336.6,1054.6L316.5,1048.3L306.4,1052.4L299.2,1044.6L282.4,1043.3L274.4,1046.8L268.4,1067.5L259.9,1059.3Z" fill="none" stroke="rgba(0,0,0,0.2)" stroke-width="0.5"/>
  <path d="M902.2,740.1L879.9,733.9L878.0,729.4L858.2,732.2L849.2,741.5L840.8,742.8L841.6,720.1L836.8,713.7L832.2,716.2L831.3,713.0L833.5,709.1L832.8,711.1L836.8,712.0L838.7,711.1L835.1,709.3L836.9,704.6L829.4,703.8L830.5,707.6L827.4,696.9L829.4,687.8L838.6,694.8L846.3,694.0L844.6,690.8L850.5,688.6L842.6,681.7L839.7,672.0L829.9,674.2L829.0,688.4L824.0,677.8L830.1,672.0L843.1,668.7L858.6,685.1L876.0,685.3L875.6,675.5L887.4,666.2L892.8,669.4L888.6,664.3L893.9,661.7L910.0,670.7L910.0,748.7L902.2,740.1Z" fill="none" stroke="rgba(0,0,0,0.2)" stroke-width="0.5"/>
  <path d="M385.6,616.6L379.5,605.8L383.3,602.1L392.9,604.4L410.6,596.4L415.2,601.6L405.4,607.2L401.8,619.5L393.4,616.0L382.7,619.4L385.6,616.6Z" fill="none" stroke="rgba(0,0,0,0.2)" stroke-width="0.5"/>
  <path d="M128.7,873.8L128.7,894.9L90.8,895.0L90.8,926.8L77.9,934.7L79.5,953.0L34.6,953.0L33.5,959.9L34.0,951.9L59.7,950.9L69.5,923.9L86.1,909.7L90.3,895.1L94.2,893.6L97.9,883.7L127.5,880.7L128.7,873.8Z" fill="none" stroke="rgba(0,0,0,0.2)" stroke-width="0.5"/>
  <path d="M648.6,1151.8L660.9,1160.4L676.9,1162.8L691.2,1152.7L695.7,1156.6L703.9,1156.2L693.5,1169.5L693.6,1211.5L700.0,1220.9L685.1,1231.9L675.6,1254.3L655.2,1241.6L655.7,1236.2L613.2,1213.0L613.0,1200.3L625.7,1179.7L614.0,1153.5L630.3,1144.2L633.7,1148.9L648.6,1151.8Z" fill="none" stroke="rgba(0,0,0,0.2)" stroke-width="0.5"/>
  <path d="M773.5,845.6L775.5,849.4L770.1,851.7L774.6,851.9L778.4,862.4L769.7,862.5L767.1,856.5L756.8,855.2L763.8,843.3L773.5,845.6Z" fill="none" stroke="rgba(0,0,0,0.2)" stroke-width="0.5"/>
  <path d="M430.6,614.3L442.5,611.7L443.4,620.9L448.3,623.6L442.4,629.1L435.0,624.3L407.1,623.8L406.4,630.6L428.1,659.3L419.5,652.2L414.4,649.9L409.0,650.6L399.8,639.7L404.1,638.5L393.2,622.1L390.3,621.3L385.6,630.5L382.2,624.5L381.1,618.6L401.8,619.5L405.4,607.2L416.2,602.7L430.6,614.3Z" fill="none" stroke="rgba(0,0,0,0.2)" stroke-width="0.5"/>
  <path d="M715.2,1075.8L702.5,1075.6L702.9,1067.4L710.2,1057.9L713.0,1059.8L718.0,1055.7L720.4,1058.3L720.9,1063.9L711.1,1068.9L719.4,1069.9L715.2,1075.8Z" fill="none" stroke="rgba(0,0,0,0.2)" stroke-width="0.5"/>
  <path d="M744.4,718.8L736.8,708.5L748.3,710.8L751.5,720.7L744.4,718.8Z M756.4,688.5L758.6,684.8L752.8,679.2L756.2,675.7L771.6,686.1L780.1,676.3L791.0,694.3L799.0,696.7L800.7,700.8L790.5,701.8L789.5,714.6L785.8,719.4L784.4,716.3L783.4,727.1L773.6,721.5L777.4,713.3L773.0,708.4L756.6,720.6L756.7,710.7L746.0,704.5L750.5,700.9L743.6,694.7L746.2,691.2L740.0,687.9L742.6,682.3L756.4,688.5Z M744.8,694.4L744.8,695.0L745.6,694.8L744.8,694.4Z" fill="none" stroke="rgba(0,0,0,0.2)" stroke-width="0.5"/>
  <path d="M618.3,1341.4L620.5,1354.6L635.9,1372.9L634.6,1386.5L627.1,1392.4L628.9,1399.5L616.9,1384.7L620.7,1377.7L620.0,1369.2L610.2,1369.5L599.0,1357.8L603.2,1346.3L608.9,1343.3L605.7,1340.7L605.5,1326.2L610.5,1322.6L602.1,1308.9L617.9,1312.7L625.2,1333.3L618.3,1341.4Z" fill="none" stroke="rgba(0,0,0,0.2)" stroke-width="0.5"/>
  <path d="M636.4,793.7L643.9,786.9L642.0,781.0L636.7,780.7L633.9,767.8L644.6,758.7L644.3,750.2L673.9,752.5L709.2,744.3L697.0,756.9L693.5,784.1L646.3,812.6L634.2,806.8L636.4,793.7Z" fill="none" stroke="rgba(0,0,0,0.2)" stroke-width="0.5"/>
  <path d="M478.8,570.8L460.8,568.1L440.1,581.0L429.3,581.2L419.1,571.0L422.8,562.5L448.7,549.6L452.6,556.8L469.3,552.2L483.9,558.8L478.8,570.8Z" fill="none" stroke="rgba(0,0,0,0.2)" stroke-width="0.5"/>
  <path d="M284.7,516.0L293.8,521.8L291.5,527.7L300.0,536.9L292.6,544.5L293.9,550.3L289.6,551.4L282.7,546.2L282.8,539.9L278.3,543.7L274.5,543.0L275.2,537.9L259.2,529.6L256.2,523.1L284.7,516.0Z" fill="none" stroke="rgba(0,0,0,0.2)" stroke-width="0.5"/>
  <path d="M143.8,726.9L148.5,730.5L141.8,739.6L143.2,745.4L125.1,747.4L127.9,737.3L125.8,726.4L127.4,727.2L129.6,727.3L127.7,725.2L122.5,727.3L122.3,723.7L123.9,723.8L125.8,722.1L127.8,717.4L125.9,718.2L124.0,721.3L123.8,723.0L119.5,721.6L130.0,692.8L128.0,694.3L126.5,678.0L129.4,673.1L134.0,671.6L135.4,676.9L152.3,674.5L156.9,680.5L148.5,688.9L147.6,708.6L141.5,708.8L148.0,717.9L143.8,726.9Z" fill="none" stroke="rgba(0,0,0,0.2)" stroke-width="0.5"/>
  <path d="M534.9,1409.4L543.9,1397.4L555.2,1391.8L556.6,1385.6L573.3,1381.7L573.3,1386.1L602.5,1394.1L603.4,1414.1L599.2,1421.3L603.0,1434.3L597.0,1441.2L596.6,1449.9L583.4,1463.2L561.4,1460.6L557.8,1455.8L545.9,1452.8L542.6,1440.1L537.7,1439.9L536.9,1435.0L525.0,1428.3L514.8,1407.4L534.9,1409.4Z" fill="none" stroke="rgba(0,0,0,0.2)" stroke-width="0.5"/>
  <path d="M110.5,1104.6L116.3,1103.7L121.1,1113.2L119.5,1117.4L126.1,1118.8L130.0,1113.8L133.3,1121.5L129.5,1127.5L142.8,1134.9L141.7,1152.0L123.9,1144.2L97.0,1122.6L110.5,1104.6Z" fill="none" stroke="rgba(0,0,0,0.2)" stroke-width="0.5"/>
  <path d="M336.3,716.7L330.0,715.0L325.8,720.8L320.7,689.7L324.4,691.7L332.5,685.2L339.1,696.8L336.3,716.7Z M399.2,740.7L401.9,747.6L399.2,752.6L368.9,736.3L372.3,730.6L384.4,733.8L405.4,729.6L399.2,740.7Z M316.7,611.9L323.0,603.2L329.9,613.5L333.1,602.4L342.1,607.0L346.4,596.3L366.1,592.7L368.6,599.2L383.3,602.1L379.5,605.8L385.0,617.4L376.7,614.3L376.3,616.5L368.5,618.1L365.8,621.8L370.1,627.3L367.0,629.6L368.2,638.8L382.4,649.7L387.6,664.7L395.2,672.6L411.1,675.2L409.1,682.2L432.3,694.4L438.1,702.0L436.7,706.8L420.6,696.7L415.1,707.4L422.7,712.9L422.8,719.4L416.2,721.8L410.4,734.3L405.9,734.1L407.6,724.0L412.0,720.9L405.2,702.9L401.1,703.7L395.6,694.1L390.6,695.6L392.1,693.2L383.6,685.3L375.9,685.7L353.8,667.9L346.9,659.4L342.3,642.4L327.2,635.9L312.8,646.1L314.6,640.0L306.8,638.9L307.2,629.6L302.6,625.2L308.4,622.7L304.7,614.0L316.7,611.9Z M369.5,643.1L368.4,644.0L368.9,644.5L369.5,643.1Z M369.2,675.4L369.2,675.4L369.2,675.4L369.2,675.4Z" fill="none" stroke="rgba(0,0,0,0.2)" stroke-width="0.5"/>
  <path d="M438.6,544.2L428.1,540.6L428.9,537.0L419.7,534.8L421.0,538.7L417.0,540.9L411.8,535.3L413.3,531.1L396.0,527.2L398.3,519.7L393.4,510.0L394.1,495.6L388.2,490.5L391.8,482.9L389.8,474.3L393.5,476.3L393.9,471.4L388.7,470.3L434.0,452.1L436.1,452.2L440.8,455.1L436.9,453.9L442.3,461.7L487.3,460.7L494.2,465.5L499.6,492.5L491.0,501.0L496.4,504.8L495.3,513.9L501.7,532.9L485.3,550.2L487.5,560.2L473.2,552.6L455.6,557.0L448.8,549.6L441.7,551.2L438.6,544.2Z" fill="none" stroke="rgba(0,0,0,0.2)" stroke-width="0.5"/>
  <path d="M238.5,1075.9L195.2,1075.6L196.1,1094.2L190.9,1088.1L174.3,1090.8L164.7,1082.2L168.1,1070.7L165.9,1066.0L177.4,1060.4L178.3,1050.3L182.3,1046.5L188.3,1050.3L190.1,1044.2L194.6,1044.7L198.0,1038.0L204.3,1038.5L204.8,1035.1L219.3,1027.9L230.0,1029.9L234.3,1044.3L241.9,1048.3L238.7,1048.0L238.7,1051.9L245.3,1056.6L251.5,1055.8L254.7,1065.2L238.5,1075.9Z" fill="none" stroke="rgba(0,0,0,0.2)" stroke-width="0.5"/>
  <path d="M406.4,630.6L407.1,623.8L447.8,628.7L444.8,636.7L450.6,641.9L446.2,643.5L449.2,649.7L442.6,650.6L444.4,653.7L437.4,658.6L437.8,665.2L428.3,660.2L406.4,630.6Z" fill="none" stroke="rgba(0,0,0,0.2)" stroke-width="0.5"/>
  <path d="M500.5,1350.8L477.5,1350.8L477.6,1388.0L493.5,1405.6L464.2,1410.2L442.4,1407.4L437.4,1402.6L386.5,1403.0L377.3,1397.3L361.2,1400.6L361.0,1384.4L369.9,1355.8L382.7,1342.0L385.0,1328.8L375.3,1305.5L379.7,1296.9L367.3,1271.1L415.4,1268.7L427.7,1294.0L447.7,1292.9L449.6,1281.4L462.0,1280.4L460.9,1284.7L475.3,1284.7L475.4,1309.1L481.3,1320.2L480.5,1330.4L500.3,1326.8L500.5,1350.8Z M369.1,1259.2L369.8,1266.8L366.4,1267.2L366.1,1255.9L372.7,1251.6L375.7,1254.8L369.1,1259.2Z" fill="none" stroke="rgba(0,0,0,0.2)" stroke-width="0.5"/>
  <path d="M339.1,1175.8L340.4,1164.3L336.1,1158.0L338.5,1154.4L333.8,1156.9L329.5,1154.8L329.1,1149.7L328.1,1148.7L324.3,1150.0L328.1,1135.1L342.9,1121.6L346.9,1123.1L347.8,1120.2L355.5,1128.2L362.5,1120.8L366.6,1105.8L373.0,1101.1L384.0,1075.4L393.8,1069.3L394.4,1061.9L388.9,1059.7L387.5,1051.4L391.5,1051.4L398.7,1063.0L399.7,1081.1L405.9,1087.3L388.8,1087.4L386.1,1091.2L404.5,1112.6L391.2,1132.7L399.1,1157.3L410.6,1168.9L411.3,1182.0L393.1,1176.4L339.1,1175.8Z" fill="none" stroke="rgba(0,0,0,0.2)" stroke-width="0.5"/>
  <path d="M573.5,1234.0L578.0,1238.5L568.8,1250.2L562.0,1252.2L557.7,1231.4L565.6,1233.5L568.0,1227.9L575.1,1228.9L573.5,1234.0Z" fill="none" stroke="rgba(0,0,0,0.2)" stroke-width="0.5"/>
  <path d="M743.0,762.0L754.5,764.6L750.8,766.5L752.5,774.3L745.1,781.5L743.7,790.0L752.5,799.8L751.9,803.9L766.8,811.5L771.6,819.4L769.8,830.2L773.6,830.3L773.7,837.3L779.9,844.1L764.4,842.9L756.8,855.2L735.9,853.8L706.1,829.1L687.3,817.9L672.8,815.2L668.6,798.3L693.5,784.1L697.0,756.9L713.4,742.7L729.0,743.3L731.2,748.2L736.7,745.7L743.0,762.0Z" fill="none" stroke="rgba(0,0,0,0.2)" stroke-width="0.5"/>
  <path d="M555.8,1229.1L561.3,1218.8L574.1,1213.7L578.3,1219.9L578.2,1228.2L568.0,1227.9L565.6,1233.5L557.5,1232.5L555.8,1229.1Z" fill="none" stroke="rgba(0,0,0,0.2)" stroke-width="0.5"/>
  <path d="M602.4,781.1L594.6,774.9L607.6,773.6L610.6,776.3L602.4,781.1Z" fill="none" stroke="rgba(0,0,0,0.2)" stroke-width="0.5"/>
  <path d="M472.0,624.5L470.9,630.2L486.5,633.5L483.3,634.9L485.6,639.2L481.7,645.8L488.9,655.8L482.6,661.4L482.6,668.9L472.9,670.2L475.1,663.6L464.3,654.5L458.9,661.2L445.6,651.0L449.4,648.4L446.4,642.8L450.7,642.2L445.0,637.4L447.9,629.1L443.8,629.0L444.1,624.6L448.3,623.6L443.4,620.9L442.0,612.9L457.8,608.8L472.0,624.5Z" fill="none" stroke="rgba(0,0,0,0.2)" stroke-width="0.5"/>
  <path d="M54.8,188.7L61.2,191.9L58.1,198.5L64.5,197.9L61.9,205.6L71.8,204.2L68.2,211.6L73.2,212.2L67.9,213.9L73.8,217.4L65.6,218.3L71.7,221.3L62.4,224.6L65.1,228.6L57.7,238.8L54.3,238.7L54.5,237.8L53.2,237.8L52.7,236.1L52.2,235.6L51.5,235.3L36.4,250.8L26.0,251.4L14.4,261.2L0.0,253.5L0.0,193.6L6.2,199.4L6.4,190.0L13.3,186.1L22.0,201.7L19.4,186.8L27.9,194.3L32.5,185.6L40.7,187.8L39.3,177.5L52.5,187.6L57.7,181.0L61.8,181.0L54.8,188.7Z" fill="none" stroke="rgba(0,0,0,0.2)" stroke-width="0.5"/>
  <path d="M626.8,802.1L635.0,797.8L632.0,811.6L627.8,809.5L625.2,814.1L628.6,820.2L624.2,825.3L630.8,823.6L624.6,850.1L617.1,827.4L626.8,802.1Z" fill="none" stroke="rgba(0,0,0,0.2)" stroke-width="0.5"/>
  <path d="M525.0,1428.3L536.9,1435.0L537.7,1439.9L542.6,1440.1L545.9,1452.8L557.8,1455.8L561.4,1460.6L536.1,1477.1L532.8,1486.3L521.8,1492.4L517.1,1504.5L508.1,1505.9L489.5,1499.3L478.4,1516.0L462.9,1519.5L462.5,1501.4L454.8,1492.4L454.8,1458.3L466.2,1457.9L466.1,1413.7L492.5,1409.8L496.1,1415.6L514.8,1407.4L525.0,1428.3Z" fill="none" stroke="rgba(0,0,0,0.2)" stroke-width="0.5"/>
  <path d="M482.8,1056.9L475.6,1054.7L480.8,1048.4L478.6,1043.2L484.0,1039.0L481.9,1034.2L488.6,1026.5L488.1,1022.5L500.3,1020.3L500.3,969.2L511.7,969.1L511.7,944.8L583.0,944.9L584.9,942.0L585.1,944.8L604.9,944.8L609.3,948.4L615.2,944.8L647.1,944.8L651.9,956.3L649.6,954.5L653.3,982.9L666.6,993.1L653.0,1004.8L648.1,1004.4L638.4,1055.6L633.4,1056.3L626.5,1066.1L623.8,1078.7L620.8,1076.9L617.4,1080.6L615.1,1093.5L613.3,1085.1L604.5,1078.6L605.3,1061.5L592.4,1064.0L596.4,1074.6L582.0,1089.9L568.9,1084.0L555.6,1095.0L546.5,1094.9L544.8,1091.8L530.4,1093.2L521.3,1082.3L512.8,1083.8L506.9,1100.0L501.8,1102.4L494.7,1101.8L496.5,1088.7L488.0,1074.9L482.8,1056.9Z" fill="none" stroke="rgba(0,0,0,0.2)" stroke-width="0.5"/>
  <path d="M733.5,1427.7L727.1,1404.4L733.1,1388.4L752.4,1382.5L756.1,1385.5L754.5,1381.7L761.6,1376.6L761.7,1380.7L764.8,1379.3L762.8,1376.5L767.2,1370.4L767.0,1375.5L771.2,1369.1L773.5,1371.4L770.1,1367.7L772.6,1363.5L773.9,1365.6L772.4,1357.8L776.9,1360.1L779.0,1355.0L782.4,1355.3L784.4,1348.6L781.8,1344.2L788.0,1338.5L795.6,1351.2L801.7,1379.5L798.2,1385.9L795.1,1379.2L792.1,1380.7L794.4,1395.9L789.8,1401.3L789.0,1414.9L761.7,1496.4L741.2,1503.1L728.3,1495.5L719.2,1461.4L733.5,1427.7Z" fill="none" stroke="rgba(0,0,0,0.2)" stroke-width="0.5"/>
  <path d="M341.1,446.4L337.6,439.0L348.4,436.7L350.7,443.2L341.1,446.4Z M325.5,440.2L319.6,438.0L320.0,429.1L323.0,430.7L319.7,428.3L320.5,415.0L326.8,418.9L330.6,412.1L330.6,417.2L333.6,418.0L332.2,409.5L340.3,407.0L331.2,407.0L326.2,409.2L323.1,414.7L325.2,414.7L324.9,416.7L321.3,414.4L321.3,412.1L325.5,405.6L334.6,404.8L340.9,395.8L343.5,395.6L347.4,392.5L348.6,392.7L345.2,408.0L341.2,406.3L340.4,407.0L345.1,414.1L342.9,414.0L339.0,415.7L345.1,414.4L345.1,416.1L343.7,417.4L343.3,419.2L351.6,422.0L336.2,434.7L339.6,436.4L335.5,439.2L338.0,444.0L334.8,448.2L338.2,449.0L338.4,452.2L326.1,449.5L325.5,440.2Z M357.8,456.3L352.8,450.8L360.0,450.6L361.8,454.7L357.8,456.3Z M363.4,457.4L361.8,446.0L355.6,444.9L351.2,434.1L361.4,429.4L359.5,433.2L363.3,430.2L364.7,435.8L364.3,430.0L362.5,429.4L371.1,427.9L366.3,439.2L369.3,443.2L362.8,449.0L365.3,451.1L363.4,457.4Z" fill="none" stroke="rgba(0,0,0,0.2)" stroke-width="0.5"/>
  <path d="M401.5,1525.0L392.0,1484.3L392.5,1465.0L364.4,1415.9L361.2,1401.1L377.3,1397.3L386.5,1403.0L437.4,1402.6L442.4,1407.4L464.2,1410.2L512.3,1404.8L514.8,1407.4L496.1,1415.6L492.5,1409.8L466.1,1413.7L466.2,1457.9L454.8,1458.3L454.8,1539.1L445.0,1546.1L434.1,1545.4L425.5,1542.8L421.7,1534.0L415.0,1541.1L401.5,1525.0Z" fill="none" stroke="rgba(0,0,0,0.2)" stroke-width="0.5"/>
  <path d="M125.3,42.5L123.8,40.2L132.8,30.7L136.6,33.7L125.3,42.5Z M454.7,122.8L437.2,115.9L431.4,134.4L418.4,136.7L410.9,150.9L414.2,161.7L403.0,177.9L403.6,184.1L392.9,188.3L392.6,210.7L382.7,230.4L388.4,241.3L375.2,244.2L365.9,256.1L365.8,302.5L374.1,311.5L366.9,319.7L370.9,333.2L360.3,351.7L360.2,367.0L349.6,360.4L349.1,344.8L347.4,353.3L346.2,353.7L345.8,349.9L343.8,349.1L347.1,358.5L344.7,363.9L336.0,362.6L338.1,365.6L319.9,384.8L302.8,385.6L305.4,381.2L289.8,370.7L290.6,364.4L292.5,368.2L298.4,368.8L302.9,364.1L294.3,363.8L301.9,352.8L290.1,359.1L286.7,353.1L289.9,348.8L289.1,354.0L299.1,346.5L291.7,346.1L308.3,331.2L297.8,332.0L292.8,343.0L292.8,333.9L289.0,339.8L286.0,334.8L291.8,333.0L292.9,326.3L292.1,325.4L290.4,328.4L286.9,329.6L283.5,324.4L289.3,328.4L287.1,325.0L290.5,322.6L284.6,318.6L299.8,319.5L302.6,315.6L308.3,323.0L307.1,317.5L312.1,317.3L315.0,314.2L310.7,312.9L313.6,308.2L310.1,310.4L310.6,315.9L302.1,314.4L303.7,311.6L303.7,310.2L300.7,317.0L286.6,317.2L283.9,313.8L291.6,311.2L283.8,309.9L293.5,308.9L284.2,302.0L288.9,298.0L294.6,302.2L305.1,298.9L301.2,300.1L292.7,298.5L295.3,297.9L289.2,297.4L286.1,298.4L288.9,295.4L285.3,291.2L299.9,294.4L294.9,290.4L299.3,286.8L301.8,293.2L300.3,286.4L303.8,284.8L306.6,293.4L307.4,293.7L308.7,293.0L309.3,293.4L307.4,289.4L311.8,290.0L304.7,284.2L298.5,284.8L303.4,283.8L298.6,281.8L320.2,278.9L311.2,278.7L314.9,276.3L310.7,277.6L306.8,278.1L306.5,277.9L309.8,270.8L324.7,279.8L317.1,271.0L326.5,275.7L320.4,268.3L329.2,265.9L323.9,263.8L326.1,260.6L330.9,263.8L334.8,261.6L331.6,258.9L337.8,254.9L339.4,262.9L351.6,259.7L348.7,257.2L358.3,245.2L341.0,258.7L339.0,253.7L341.2,252.8L342.4,251.7L336.1,251.5L343.5,247.3L340.5,246.8L346.7,234.6L352.3,229.9L355.4,237.2L361.5,230.0L357.1,227.1L366.6,220.9L355.7,222.8L366.2,219.4L366.2,217.9L371.2,215.7L374.6,210.8L366.8,212.9L372.9,206.8L368.0,202.8L373.0,201.9L371.8,193.9L377.4,195.8L375.8,189.5L371.6,190.1L384.7,187.7L382.3,186.6L388.4,182.4L375.8,186.8L381.5,183.1L375.1,177.1L376.5,176.5L377.9,179.0L379.5,179.0L383.6,174.7L377.9,171.6L386.7,169.4L381.6,165.5L406.5,158.2L390.5,156.2L398.7,150.1L396.1,150.1L395.0,148.9L398.8,146.3L396.2,149.3L403.0,149.1L405.6,155.2L404.1,149.5L408.3,146.9L395.5,139.1L407.9,136.6L410.2,133.0L408.1,131.4L407.1,132.5L405.0,132.4L404.3,131.3L402.7,133.7L401.3,132.4L409.3,125.9L410.0,132.6L411.7,134.1L412.2,137.1L415.0,139.6L411.9,133.5L417.3,131.4L410.7,124.9L430.8,121.5L414.8,117.9L428.6,113.2L423.5,110.2L429.8,110.4L425.7,105.7L434.0,97.6L434.1,87.7L443.8,93.3L437.4,87.9L441.9,84.7L443.8,89.8L447.9,92.2L445.6,94.4L449.1,95.4L448.5,91.5L443.5,87.0L446.2,84.2L443.0,82.7L452.5,76.5L449.7,89.6L456.3,83.6L453.0,79.5L458.3,70.9L459.4,83.2L454.1,93.9L464.7,86.5L460.5,77.8L468.4,76.0L469.7,69.3L478.9,78.2L479.0,69.0L475.5,68.7L478.9,66.0L468.8,63.0L472.7,59.2L476.3,65.1L488.8,63.0L481.0,68.5L492.9,71.7L495.0,57.7L508.7,49.0L503.3,43.4L508.1,36.7L522.4,40.6L512.7,53.0L515.1,54.6L511.6,62.3L511.9,67.8L530.2,37.7L531.1,45.0L527.1,48.1L530.7,48.3L529.0,57.8L535.8,54.2L535.9,45.3L541.8,42.7L536.1,37.6L542.0,31.4L552.2,36.8L542.0,49.5L549.4,46.2L544.3,53.7L549.8,52.5L547.8,57.1L547.9,65.5L546.2,67.6L548.1,66.1L555.0,40.3L581.0,60.5L553.0,64.1L565.2,71.0L561.5,74.6L565.8,73.0L562.9,81.2L570.9,80.3L572.0,73.7L579.3,80.8L570.1,82.0L558.1,101.4L555.4,99.1L561.3,87.6L559.0,81.1L544.5,67.5L523.3,80.2L520.9,102.7L510.8,116.4L482.4,111.5L469.9,93.2L456.2,101.8L459.0,109.3L454.7,122.8Z M408.0,118.3L405.2,124.3L401.8,122.8L405.1,119.0L404.4,117.8L403.1,120.7L399.1,125.2L398.0,125.3L405.3,114.7L403.3,108.4L405.8,103.7L409.4,109.9L406.9,114.0L406.5,117.2L412.4,105.5L415.5,114.4L408.0,118.3Z M422.3,102.1L418.3,99.7L422.8,96.1L420.0,89.9L428.2,87.7L426.2,83.2L433.2,91.2L422.3,102.1Z M490.9,60.7L487.5,56.3L494.4,48.9L496.3,55.3L490.9,60.7Z M477.2,48.1L486.0,49.6L486.0,44.6L494.6,42.9L488.0,51.8L477.2,48.1Z" fill="none" stroke="rgba(0,0,0,0.2)" stroke-width="0.5"/>
  <path d="M805.2,899.9L810.5,892.9L814.2,896.5L814.6,907.3L811.5,912.9L805.4,910.7L805.2,899.9Z" fill="none" stroke="rgba(0,0,0,0.2)" stroke-width="0.5"/>
  <path d="M626.4,810.6L632.0,811.6L630.8,823.6L624.2,825.3L628.6,820.2L626.4,810.6Z" fill="none" stroke="rgba(0,0,0,0.2)" stroke-width="0.5"/>
  <path d="M860.5,1445.1L862.3,1450.2L858.0,1450.0L855.6,1446.5L860.5,1445.1Z" fill="none" stroke="rgba(0,0,0,0.2)" stroke-width="0.5"/>
  <path d="M624.3,850.1L617.2,872.9L605.5,862.0L598.1,843.2L595.3,848.7L609.2,870.7L613.6,886.6L627.3,913.8L634.6,921.3L631.1,921.1L633.5,933.3L647.1,944.8L585.1,944.8L584.9,942.0L583.0,944.9L511.7,944.8L511.7,854.1L508.3,841.0L512.9,822.0L538.3,825.1L557.7,832.5L581.2,822.1L586.5,824.3L590.1,823.0L590.5,823.0L590.9,823.2L593.8,826.2L590.2,823.1L588.8,826.4L592.7,829.5L593.9,826.2L602.0,828.1L599.1,829.5L599.8,829.7L610.2,828.6L616.5,826.0L624.3,850.1Z M628.0,935.1L632.7,930.7L630.5,932.7L628.0,935.1Z M623.7,937.3L624.1,936.4L623.1,938.6L623.7,937.3Z M617.9,942.0L622.0,941.1L619.1,941.7L617.9,942.0Z" fill="none" stroke="rgba(0,0,0,0.2)" stroke-width="0.5"/>
  <path d="M633.2,785.4L642.0,781.0L643.9,786.9L641.2,791.9L626.8,802.1L633.2,785.4Z" fill="none" stroke="rgba(0,0,0,0.2)" stroke-width="0.5"/>
  <path d="M93.0,1030.0L96.4,1021.3L103.3,1027.6L105.5,1023.7L120.3,1023.7L121.1,1020.6L121.2,1023.0L164.8,1023.0L166.6,1013.4L163.5,1010.8L152.5,907.6L172.7,907.6L240.5,955.8L240.6,960.2L247.7,965.5L263.9,971.3L264.9,981.3L275.6,979.5L275.1,1012.1L267.4,1024.7L242.6,1025.5L235.1,1029.6L219.3,1027.9L204.8,1035.1L204.3,1038.5L198.0,1038.0L194.6,1044.7L190.1,1044.2L188.3,1050.3L182.2,1046.5L178.0,1050.9L177.4,1060.4L165.9,1066.0L168.1,1070.7L165.1,1081.0L159.1,1085.0L156.3,1078.8L147.7,1085.5L142.2,1081.9L136.6,1085.3L132.8,1075.3L128.6,1076.0L132.2,1071.3L126.9,1068.0L123.4,1058.6L116.9,1063.7L98.6,1063.7L98.0,1052.7L89.9,1044.1L88.0,1031.5L93.0,1030.0Z" fill="none" stroke="rgba(0,0,0,0.2)" stroke-width="0.5"/>
  <path d="M89.9,1044.1L97.9,1052.5L98.0,1059.3L54.7,1056.1L49.2,1058.9L37.2,1060.1L38.9,1056.6L39.4,1057.4L49.5,1057.7L51.1,1056.6L50.8,1054.8L52.2,1054.7L52.4,1054.2L50.6,1054.7L49.6,1057.5L38.7,1054.7L36.9,1057.3L37.4,1050.5L47.4,1050.5L55.3,1045.4L64.1,1049.6L70.3,1047.3L56.0,1042.7L39.1,1045.5L40.0,1040.6L37.5,1043.3L37.0,1041.2L38.9,1040.7L41.4,1038.6L37.2,1039.9L36.7,1042.5L34.6,1036.0L28.0,1031.7L35.5,1026.1L42.1,1011.0L57.2,1008.8L74.1,1015.2L88.0,1031.5L89.9,1044.1Z" fill="none" stroke="rgba(0,0,0,0.2)" stroke-width="0.5"/>
  <path d="M464.0,654.4L475.2,664.0L462.8,676.3L455.7,665.5L464.0,654.4Z" fill="none" stroke="rgba(0,0,0,0.2)" stroke-width="0.5"/>
  <path d="M491.4,721.3L487.3,721.0L492.5,718.2L502.3,723.9L506.9,733.6L491.4,721.3Z M503.2,680.6L515.1,685.5L524.6,683.7L525.8,677.8L530.5,683.1L524.2,693.1L513.4,689.0L497.4,692.9L505.0,701.8L497.4,698.7L500.4,704.8L494.1,699.9L497.6,705.1L493.2,704.7L488.1,694.5L484.3,697.1L484.2,703.3L493.0,716.2L488.4,713.5L490.0,718.3L483.7,720.9L501.4,731.0L500.9,738.4L495.7,732.7L489.1,735.1L495.1,741.5L486.0,739.6L491.4,755.8L485.5,750.4L483.3,756.4L479.5,747.4L474.4,750.3L474.1,742.1L467.6,735.1L476.0,728.4L487.6,734.3L491.7,731.1L482.3,726.8L468.1,729.0L466.2,723.8L463.3,721.6L468.2,718.9L463.4,719.6L455.0,708.6L462.4,702.7L466.0,691.4L503.2,680.6Z M524.8,775.9L508.9,776.8L495.0,771.6L497.6,766.3L504.4,771.0L526.9,773.1L524.8,775.9Z M547.0,761.1L543.0,763.1L543.8,758.0L548.2,757.5L547.0,761.1Z M525.0,718.5L526.4,716.0L521.5,715.5L527.4,713.3L529.3,718.4L525.0,718.5Z" fill="none" stroke="rgba(0,0,0,0.2)" stroke-width="0.5"/>
  <path d="M68.6,1062.2L71.3,1067.3L60.2,1069.8L55.9,1076.4L56.9,1073.1L54.3,1075.6L53.8,1070.6L51.1,1071.4L56.8,1068.5L50.6,1067.1L57.6,1066.8L56.8,1064.2L46.0,1067.1L48.8,1063.8L41.5,1063.0L44.8,1059.9L37.2,1060.1L54.7,1056.1L72.0,1058.2L68.6,1062.2Z" fill="none" stroke="rgba(0,0,0,0.2)" stroke-width="0.5"/>
  <path d="M36.1,1048.4L37.8,1046.5L40.7,1049.9L43.7,1047.3L53.0,1047.2L53.4,1047.0L53.5,1046.5L43.9,1047.0L41.1,1048.4L39.1,1045.5L55.8,1042.7L70.3,1047.3L64.1,1049.6L55.3,1045.4L53.7,1047.9L47.6,1048.4L47.4,1050.5L36.9,1051.6L36.1,1048.4Z" fill="none" stroke="rgba(0,0,0,0.2)" stroke-width="0.5"/>
  <path d="M271.2,1080.2L262.5,1097.6L259.0,1098.0L258.3,1128.9L245.9,1130.7L245.7,1098.1L236.4,1079.1L243.9,1070.1L253.4,1068.0L255.9,1060.7L259.9,1059.3L268.4,1067.5L271.2,1080.2Z" fill="none" stroke="rgba(0,0,0,0.2)" stroke-width="0.5"/>
  <path d="M544.2,402.1L541.8,411.5L548.5,423.3L541.4,433.0L528.7,435.4L510.4,419.8L466.1,424.1L471.3,401.8L483.3,392.5L497.0,408.9L505.1,402.8L504.0,389.9L512.9,385.6L528.9,397.4L544.2,402.1Z" fill="none" stroke="rgba(0,0,0,0.2)" stroke-width="0.5"/>
  <path d="M709.6,1058.5L684.7,1035.4L671.2,1033.0L664.6,1035.7L658.5,1030.3L654.7,1039.4L651.7,1035.2L643.0,1037.5L641.8,1027.3L648.1,1004.4L653.0,1004.8L666.6,993.2L679.3,1027.7L681.1,1022.9L684.3,1029.1L695.8,1033.1L717.6,1054.4L709.6,1058.5Z" fill="none" stroke="rgba(0,0,0,0.2)" stroke-width="0.5"/>
  <path d="M532.7,570.6L541.5,569.0L558.8,577.6L559.1,586.5L563.7,588.7L563.7,595.0L570.2,603.7L556.8,603.1L556.9,610.6L548.3,619.4L546.9,594.6L530.3,572.8L532.7,570.6Z" fill="none" stroke="rgba(0,0,0,0.2)" stroke-width="0.5"/>
  <path d="M562.3,1551.1L559.0,1558.7L550.4,1561.6L546.9,1568.4L538.8,1563.8L534.6,1555.3L543.1,1545.5L553.2,1541.1L562.3,1551.1Z" fill="none" stroke="rgba(0,0,0,0.2)" stroke-width="0.5"/>
  <path d="M127.5,880.7L97.9,883.7L86.1,909.7L69.5,923.9L59.7,950.9L34.0,951.9L35.0,945.6L40.2,940.2L43.1,931.3L48.1,922.7L48.1,921.2L46.2,922.9L58.1,911.2L62.9,892.5L73.2,885.4L80.2,870.3L96.9,865.2L110.9,852.5L117.7,841.7L115.5,824.8L122.2,809.1L130.5,799.7L149.9,789.1L160.1,765.0L166.1,762.9L169.9,770.1L177.7,773.8L193.7,769.6L195.0,774.0L207.4,779.5L208.5,800.1L215.8,810.2L213.7,815.6L194.7,815.8L195.3,819.6L185.9,821.5L186.0,834.0L177.8,836.7L164.5,849.6L140.4,851.5L128.9,860.2L127.5,880.7Z" fill="none" stroke="rgba(0,0,0,0.2)" stroke-width="0.5"/>
  <path d="M646.2,812.6L668.6,798.3L671.5,812.4L674.4,813.5L647.9,823.6L659.5,836.8L637.2,854.0L625.0,851.9L632.6,807.6L646.2,812.6Z" fill="none" stroke="rgba(0,0,0,0.2)" stroke-width="0.5"/>
  <path d="M477.8,585.4L467.0,606.7L449.9,607.9L436.8,614.8L424.8,611.3L410.6,596.4L415.0,594.1L417.3,585.1L414.1,583.0L421.7,582.2L423.0,576.9L440.1,581.0L460.5,568.2L471.2,567.6L487.7,578.1L477.8,585.4Z" fill="none" stroke="rgba(0,0,0,0.2)" stroke-width="0.5"/>
  <path id="hl_TUR" d="M724.8,692.7L724.2,702.5L731.7,703.6L737.2,709.4L728.2,713.4L733.2,728.5L730.3,734.9L734.8,737.5L736.7,745.7L731.2,748.2L729.0,743.3L714.1,742.4L673.9,752.5L644.3,750.2L644.6,758.5L638.6,764.4L634.6,757.6L639.4,752.8L637.2,748.8L629.6,754.2L622.1,750.4L613.8,758.9L600.6,761.5L576.6,749.3L573.6,758.7L565.0,760.2L551.1,749.4L546.4,753.9L547.3,750.6L542.3,752.6L539.2,752.5L549.7,747.2L537.6,748.3L541.6,743.8L534.8,738.2L537.3,733.6L525.9,729.3L528.0,723.5L530.9,728.9L536.5,726.9L531.4,723.9L535.3,720.5L530.2,714.8L533.9,710.4L524.0,711.5L525.2,704.5L531.6,698.1L558.0,698.6L555.0,695.8L568.1,693.1L560.3,692.0L559.3,685.6L582.8,687.7L606.6,673.6L625.9,672.5L641.5,685.3L663.5,690.4L684.1,690.3L699.8,681.3L712.8,680.2L724.8,692.7Z M548.6,681.3L558.6,685.6L557.3,689.0L540.6,689.3L525.0,703.3L532.7,695.1L523.9,694.2L530.4,683.7L527.1,677.1L537.3,672.4L546.4,675.3L548.6,681.3Z" fill="none" stroke="rgba(0,0,0,0.2)" stroke-width="0.5">
    <animate attributeName="fill" values="rgba(0,0,0,0);rgba(230,57,70,0.45);rgba(230,57,70,0.45);rgba(0,0,0,0);rgba(0,0,0,0)" keyTimes="0.0000;0.0100;0.0800;0.1000;1.0000" dur="20s" repeatCount="indefinite"/>
    <animate attributeName="stroke" values="rgba(0,0,0,0.2);rgba(193,18,31,0.8);rgba(193,18,31,0.8);rgba(0,0,0,0.2);rgba(0,0,0,0.2)" keyTimes="0.0000;0.0100;0.0800;0.1000;1.0000" dur="20s" repeatCount="indefinite"/>
    <animate attributeName="stroke-width" values="0.5;1.5;1.5;0.5;0.5" keyTimes="0.0000;0.0100;0.0800;0.1000;1.0000" dur="20s" repeatCount="indefinite"/>
  </path>
  <path id="hl_DEU" d="M372.4,575.3L375.4,586.3L366.8,581.8L355.3,587.5L346.1,584.4L346.1,587.4L343.1,589.5L324.8,580.6L325.0,584.1L321.1,583.6L319.0,584.7L314.1,584.6L313.7,575.3L320.8,560.8L299.7,552.1L301.5,546.1L296.8,541.7L300.0,536.9L294.1,524.3L298.1,517.6L295.0,509.8L304.2,508.1L307.4,502.1L303.4,496.3L311.3,481.9L307.4,480.5L309.7,475.0L318.9,474.2L324.2,480.9L325.2,471.0L332.3,471.0L336.5,476.4L339.3,477.3L334.4,471.8L332.8,470.7L329.7,470.5L328.9,469.7L329.5,462.4L325.3,462.0L330.0,458.7L326.0,451.0L340.7,453.3L339.4,459.3L342.9,462.2L354.2,461.0L351.5,469.3L357.8,470.3L365.3,466.6L365.2,465.0L370.1,459.0L374.5,460.1L371.1,460.3L370.0,461.3L369.0,461.0L368.2,463.3L375.5,460.0L376.7,463.1L380.9,466.8L383.5,465.2L384.7,471.4L389.8,473.3L391.8,482.9L388.2,490.5L394.1,495.6L393.4,510.0L397.6,523.5L367.4,539.7L366.7,538.0L364.9,536.9L371.3,552.6L384.5,565.2L372.4,575.3Z M377.1,462.9L377.0,457.9L381.1,459.0L377.9,456.1L380.4,455.3L383.8,462.1L377.1,462.9Z" fill="none" stroke="rgba(0,0,0,0.2)" stroke-width="0.5">
    <animate attributeName="fill" values="rgba(0,0,0,0);rgba(0,0,0,0);rgba(230,57,70,0.45);rgba(230,57,70,0.45);rgba(0,0,0,0);rgba(0,0,0,0)" keyTimes="0.0000;0.1000;0.1100;0.1800;0.2000;1.0000" dur="20s" repeatCount="indefinite"/>
    <animate attributeName="stroke" values="rgba(0,0,0,0.2);rgba(0,0,0,0.2);rgba(193,18,31,0.8);rgba(193,18,31,0.8);rgba(0,0,0,0.2);rgba(0,0,0,0.2)" keyTimes="0.0000;0.1000;0.1100;0.1800;0.2000;1.0000" dur="20s" repeatCount="indefinite"/>
    <animate attributeName="stroke-width" values="0.5;0.5;1.5;1.5;0.5;0.5" keyTimes="0.0000;0.1000;0.1100;0.1800;0.2000;1.0000" dur="20s" repeatCount="indefinite"/>
  </path>
  <path id="hl_COD" d="M438.6,1151.9L448.5,1143.0L461.6,1151.3L481.2,1154.5L488.0,1146.6L493.8,1149.2L505.0,1143.2L515.4,1144.2L518.5,1140.3L538.1,1143.1L550.3,1152.8L564.4,1148.7L578.9,1161.5L576.8,1173.7L583.2,1177.6L568.2,1192.2L563.9,1217.3L555.8,1230.2L560.0,1236.2L563.5,1273.5L577.3,1295.1L556.1,1298.4L550.0,1307.5L553.9,1313.5L550.1,1333.7L557.8,1343.5L563.1,1344.4L566.5,1340.9L566.3,1356.1L563.9,1353.4L557.3,1355.4L550.8,1345.2L541.9,1342.5L536.7,1334.1L531.4,1339.3L523.0,1338.0L515.8,1335.0L515.4,1329.8L503.8,1332.1L504.7,1328.7L500.5,1326.0L480.5,1330.4L481.3,1320.2L475.4,1309.1L475.3,1284.7L460.9,1284.7L462.0,1280.4L449.6,1281.4L447.7,1292.9L427.7,1294.0L420.3,1283.8L415.8,1268.8L374.2,1267.8L369.1,1270.5L366.8,1268.0L369.8,1266.8L369.1,1259.2L376.4,1253.7L379.8,1257.2L383.5,1252.3L391.2,1250.3L391.3,1257.2L394.4,1257.4L408.5,1246.2L412.1,1239.3L411.7,1226.4L429.4,1207.5L433.1,1177.0L439.3,1165.7L438.6,1151.9Z" fill="none" stroke="rgba(0,0,0,0.2)" stroke-width="0.5">
    <animate attributeName="fill" values="rgba(0,0,0,0);rgba(0,0,0,0);rgba(230,57,70,0.45);rgba(230,57,70,0.45);rgba(0,0,0,0);rgba(0,0,0,0)" keyTimes="0.0000;0.2000;0.2100;0.2800;0.3000;1.0000" dur="20s" repeatCount="indefinite"/>
    <animate attributeName="stroke" values="rgba(0,0,0,0.2);rgba(0,0,0,0.2);rgba(193,18,31,0.8);rgba(193,18,31,0.8);rgba(0,0,0,0.2);rgba(0,0,0,0.2)" keyTimes="0.0000;0.2000;0.2100;0.2800;0.3000;1.0000" dur="20s" repeatCount="indefinite"/>
    <animate attributeName="stroke-width" values="0.5;0.5;1.5;1.5;0.5;0.5" keyTimes="0.0000;0.2000;0.2100;0.2800;0.3000;1.0000" dur="20s" repeatCount="indefinite"/>
  </path>
  <path id="hl_IRN" d="M744.4,718.8L752.2,720.9L773.2,708.5L777.4,713.3L773.4,721.0L783.4,727.1L786.4,738.8L818.0,753.7L841.9,750.3L840.8,742.8L849.2,741.5L854.6,734.1L877.9,729.4L879.9,733.9L902.2,740.1L910.0,748.7L910.0,901.6L888.1,900.5L879.4,897.7L873.7,880.4L865.9,880.2L850.7,888.7L838.5,885.9L824.2,874.1L812.2,870.3L797.1,840.8L790.9,843.1L784.7,836.6L783.9,842.8L778.8,843.5L773.7,837.3L773.6,830.3L769.8,830.2L771.6,819.4L766.8,811.5L751.9,803.9L752.5,799.8L743.7,790.0L745.1,781.5L752.5,774.3L750.8,766.5L754.5,764.6L743.0,762.0L734.8,737.5L730.3,734.9L733.2,728.5L728.2,713.4L734.4,707.6L744.4,718.8Z M863.9,886.1L856.4,887.8L861.7,882.8L867.6,882.5L863.9,886.1Z" fill="none" stroke="rgba(0,0,0,0.2)" stroke-width="0.5">
    <animate attributeName="fill" values="rgba(0,0,0,0);rgba(0,0,0,0);rgba(230,57,70,0.45);rgba(230,57,70,0.45);rgba(0,0,0,0);rgba(0,0,0,0)" keyTimes="0.0000;0.3000;0.3100;0.3800;0.4000;1.0000" dur="20s" repeatCount="indefinite"/>
    <animate attributeName="stroke" values="rgba(0,0,0,0.2);rgba(0,0,0,0.2);rgba(193,18,31,0.8);rgba(193,18,31,0.8);rgba(0,0,0,0.2);rgba(0,0,0,0.2)" keyTimes="0.0000;0.3000;0.3100;0.3800;0.4000;1.0000" dur="20s" repeatCount="indefinite"/>
    <animate attributeName="stroke-width" values="0.5;0.5;1.5;1.5;0.5;0.5" keyTimes="0.0000;0.3000;0.3100;0.3800;0.4000;1.0000" dur="20s" repeatCount="indefinite"/>
  </path>
  <path id="hl_DZA" d="M128.7,878.6L128.8,860.4L140.8,851.4L164.5,849.6L177.8,836.7L186.0,834.0L185.9,821.5L195.3,819.6L194.7,815.8L213.7,815.6L215.8,810.2L208.5,800.1L207.4,779.5L202.2,774.6L242.8,754.2L271.6,748.9L287.8,752.8L300.5,746.4L325.4,748.6L320.4,754.5L323.4,772.5L321.2,780.8L312.6,791.1L315.4,800.2L330.4,815.9L335.8,840.4L333.1,841.8L339.3,854.8L340.1,886.7L334.2,892.8L344.0,912.6L358.8,916.4L363.6,926.1L312.6,958.6L293.4,975.8L265.4,981.5L262.8,979.6L263.9,971.3L247.7,965.5L240.6,960.2L240.5,955.8L128.7,878.6Z" fill="none" stroke="rgba(0,0,0,0.2)" stroke-width="0.5">
    <animate attributeName="fill" values="rgba(0,0,0,0);rgba(0,0,0,0);rgba(230,57,70,0.45);rgba(230,57,70,0.45);rgba(0,0,0,0);rgba(0,0,0,0)" keyTimes="0.0000;0.4000;0.4100;0.4800;0.5000;1.0000" dur="20s" repeatCount="indefinite"/>
    <animate attributeName="stroke" values="rgba(0,0,0,0.2);rgba(0,0,0,0.2);rgba(193,18,31,0.8);rgba(193,18,31,0.8);rgba(0,0,0,0.2);rgba(0,0,0,0.2)" keyTimes="0.0000;0.4000;0.4100;0.4800;0.5000;1.0000" dur="20s" repeatCount="indefinite"/>
    <animate attributeName="stroke-width" values="0.5;0.5;1.5;1.5;0.5;0.5" keyTimes="0.0000;0.4000;0.4100;0.4800;0.5000;1.0000" dur="20s" repeatCount="indefinite"/>
  </path>
  <path id="hl_SAU" d="M813.3,912.8L810.8,916.2L825.4,933.2L855.3,936.1L860.4,945.0L852.9,969.2L818.8,981.3L785.3,986.3L775.3,991.5L764.0,1005.8L758.8,1001.9L721.3,999.0L718.7,1009.2L714.2,1012.7L691.0,971.9L673.1,955.7L670.3,944.7L672.7,939.8L664.9,922.8L653.3,915.5L651.1,905.4L628.1,868.7L620.8,867.9L625.0,851.9L637.8,853.8L659.5,836.8L647.9,823.6L672.9,815.2L686.7,817.6L735.9,853.8L767.1,856.5L769.7,862.5L779.1,862.9L783.0,874.4L798.1,886.5L796.1,894.9L807.4,913.0L813.3,912.8Z" fill="none" stroke="rgba(0,0,0,0.2)" stroke-width="0.5">
    <animate attributeName="fill" values="rgba(0,0,0,0);rgba(0,0,0,0);rgba(230,57,70,0.45);rgba(230,57,70,0.45);rgba(0,0,0,0);rgba(0,0,0,0)" keyTimes="0.0000;0.5000;0.5100;0.5800;0.6000;1.0000" dur="20s" repeatCount="indefinite"/>
    <animate attributeName="stroke" values="rgba(0,0,0,0.2);rgba(0,0,0,0.2);rgba(193,18,31,0.8);rgba(193,18,31,0.8);rgba(0,0,0,0.2);rgba(0,0,0,0.2)" keyTimes="0.0000;0.5000;0.5100;0.5800;0.6000;1.0000" dur="20s" repeatCount="indefinite"/>
    <animate attributeName="stroke-width" values="0.5;0.5;1.5;1.5;0.5;0.5" keyTimes="0.0000;0.5000;0.5100;0.5800;0.6000;1.0000" dur="20s" repeatCount="indefinite"/>
  </path>
  <path id="hl_ZAF" d="M462.5,1501.4L462.9,1519.5L473.9,1519.1L484.0,1510.8L489.5,1499.3L508.1,1505.9L517.1,1504.5L521.8,1492.4L527.8,1490.9L536.1,1477.1L557.8,1461.1L581.9,1462.2L591.3,1488.3L591.5,1503.6L590.3,1507.9L584.7,1504.8L581.5,1507.0L577.9,1518.4L586.1,1524.8L591.1,1524.9L591.4,1518.4L601.3,1521.1L596.0,1540.6L584.3,1551.0L569.5,1576.1L535.8,1606.9L510.0,1616.2L484.4,1613.3L451.1,1624.1L445.2,1617.5L441.6,1618.6L441.4,1614.6L437.6,1618.2L435.8,1615.6L437.8,1611.3L430.5,1597.4L435.6,1594.5L435.4,1584.8L414.8,1541.7L421.7,1534.0L425.5,1542.8L434.1,1545.4L445.0,1546.1L454.8,1539.1L454.9,1492.7L462.5,1501.4Z M547.8,1542.8L534.9,1554.7L538.8,1563.8L546.9,1568.4L550.4,1561.6L559.0,1558.7L562.3,1551.1L556.1,1544.0L547.8,1542.8Z" fill="none" stroke="rgba(0,0,0,0.2)" stroke-width="0.5">
    <animate attributeName="fill" values="rgba(0,0,0,0);rgba(0,0,0,0);rgba(230,57,70,0.45);rgba(230,57,70,0.45);rgba(0,0,0,0);rgba(0,0,0,0)" keyTimes="0.0000;0.6000;0.6100;0.6800;0.7000;1.0000" dur="20s" repeatCount="indefinite"/>
    <animate attributeName="stroke" values="rgba(0,0,0,0.2);rgba(0,0,0,0.2);rgba(193,18,31,0.8);rgba(193,18,31,0.8);rgba(0,0,0,0.2);rgba(0,0,0,0.2)" keyTimes="0.0000;0.6000;0.6100;0.6800;0.7000;1.0000" dur="20s" repeatCount="indefinite"/>
    <animate attributeName="stroke-width" values="0.5;0.5;1.5;1.5;0.5;0.5" keyTimes="0.0000;0.6000;0.6100;0.6800;0.7000;1.0000" dur="20s" repeatCount="indefinite"/>
  </path>
  <path id="hl_LBY" d="M400.2,811.5L406.8,825.0L430.5,831.2L444.3,839.9L456.1,831.0L455.8,814.4L473.5,804.2L490.3,808.2L492.7,814.6L512.1,817.5L508.3,841.5L511.7,854.1L511.6,969.2L500.3,969.2L500.3,975.3L409.3,927.0L389.2,937.2L380.9,930.2L363.6,926.1L358.4,916.1L344.2,912.9L334.2,892.8L339.6,888.3L340.5,871.1L339.3,854.8L333.1,841.8L343.4,833.7L344.3,821.1L358.8,811.0L358.4,800.9L400.2,811.5Z" fill="none" stroke="rgba(0,0,0,0.2)" stroke-width="0.5">
    <animate attributeName="fill" values="rgba(0,0,0,0);rgba(0,0,0,0);rgba(230,57,70,0.45);rgba(230,57,70,0.45);rgba(0,0,0,0);rgba(0,0,0,0)" keyTimes="0.0000;0.7000;0.7100;0.7800;0.8000;1.0000" dur="20s" repeatCount="indefinite"/>
    <animate attributeName="stroke" values="rgba(0,0,0,0.2);rgba(0,0,0,0.2);rgba(193,18,31,0.8);rgba(193,18,31,0.8);rgba(0,0,0,0.2);rgba(0,0,0,0.2)" keyTimes="0.0000;0.7000;0.7100;0.7800;0.8000;1.0000" dur="20s" repeatCount="indefinite"/>
    <animate attributeName="stroke-width" values="0.5;0.5;1.5;1.5;0.5;0.5" keyTimes="0.0000;0.7000;0.7100;0.7800;0.8000;1.0000" dur="20s" repeatCount="indefinite"/>
  </path>
  <path id="hl_FRA" d="M859.7,1450.6L855.7,1446.4L859.7,1444.5L862.8,1448.0L859.7,1450.6Z M326.6,665.0L335.2,658.7L334.9,664.1L336.2,671.7L332.4,683.5L327.5,680.6L326.6,665.0Z M275.2,537.9L274.5,543.0L282.8,539.9L282.7,546.2L289.6,551.4L320.8,560.8L313.8,575.0L313.8,584.3L306.8,585.9L295.2,607.3L304.7,603.8L307.4,611.8L304.8,615.2L309.0,620.2L302.6,625.2L307.2,629.7L305.6,636.9L315.0,641.7L297.8,657.9L284.8,653.3L286.9,651.0L284.7,649.8L282.7,653.2L272.5,650.1L262.9,656.8L263.7,667.3L257.8,668.7L250.2,668.6L236.7,661.1L227.1,663.4L210.9,657.8L207.1,652.7L215.6,632.2L213.2,632.8L215.2,617.6L221.4,628.5L221.9,626.9L218.5,619.1L213.3,615.4L216.3,615.2L214.9,605.6L203.4,597.1L202.9,589.5L207.9,590.6L204.6,588.7L201.6,590.0L198.6,589.1L200.6,585.6L195.5,585.7L194.4,584.7L196.3,584.8L196.9,583.9L197.0,583.6L196.7,583.3L191.9,586.1L190.2,580.8L177.8,580.5L173.7,576.5L179.9,572.0L173.3,568.3L190.8,562.3L197.0,568.5L212.1,566.2L205.5,547.4L213.1,547.9L214.1,553.9L227.1,554.5L229.3,552.8L232.2,552.2L233.1,551.5L228.4,551.1L230.2,547.3L246.5,539.1L245.5,527.0L257.2,525.3L275.2,537.9Z M249.8,666.5L249.7,667.0L250.2,667.1L249.8,666.5Z" fill="none" stroke="rgba(0,0,0,0.2)" stroke-width="0.5">
    <animate attributeName="fill" values="rgba(0,0,0,0);rgba(0,0,0,0);rgba(230,57,70,0.45);rgba(230,57,70,0.45);rgba(0,0,0,0);rgba(0,0,0,0)" keyTimes="0.0000;0.8000;0.8100;0.8800;0.9000;1.0000" dur="20s" repeatCount="indefinite"/>
    <animate attributeName="stroke" values="rgba(0,0,0,0.2);rgba(0,0,0,0.2);rgba(193,18,31,0.8);rgba(193,18,31,0.8);rgba(0,0,0,0.2);rgba(0,0,0,0.2)" keyTimes="0.0000;0.8000;0.8100;0.8800;0.9000;1.0000" dur="20s" repeatCount="indefinite"/>
    <animate attributeName="stroke-width" values="0.5;0.5;1.5;1.5;0.5;0.5" keyTimes="0.0000;0.8000;0.8100;0.8800;0.9000;1.0000" dur="20s" repeatCount="indefinite"/>
  </path>
  <path id="hl_SWE" d="M415.7,422.6L414.4,424.4L414.3,416.8L421.6,403.5L415.7,422.6Z M496.7,135.0L494.0,149.0L497.8,150.9L495.7,158.8L500.5,168.9L496.7,182.9L502.4,196.8L485.2,194.4L480.1,198.5L482.4,204.5L475.1,199.4L480.1,204.3L469.5,209.8L473.0,217.4L466.8,223.8L473.3,233.9L462.7,251.2L448.7,257.0L434.5,276.8L431.5,275.8L430.3,271.2L428.8,271.4L433.0,281.3L424.6,283.9L428.3,290.2L424.8,297.4L426.5,304.7L421.5,305.9L423.0,326.9L432.0,329.3L444.4,345.2L442.3,344.4L440.6,348.1L444.5,348.5L432.4,356.2L433.3,358.0L434.8,358.2L437.8,355.6L439.6,357.9L435.6,358.1L437.1,362.1L432.4,364.3L431.0,368.3L428.4,361.5L424.9,370.7L411.5,373.3L420.2,376.4L414.2,376.7L418.6,380.1L418.2,389.4L414.7,389.1L417.5,392.4L414.3,389.3L417.3,398.3L407.8,427.1L404.8,424.6L395.0,425.4L389.4,431.6L388.8,441.1L373.5,441.3L376.0,435.0L369.1,422.6L373.3,424.0L371.1,420.3L374.6,417.6L362.9,399.9L360.1,390.5L362.7,379.9L355.1,379.6L353.9,366.3L360.2,367.0L360.3,351.7L370.9,333.2L366.9,319.7L374.1,311.5L365.8,302.5L365.9,256.1L375.2,244.2L388.4,241.3L382.7,230.4L392.6,210.7L392.9,188.3L403.6,184.1L403.0,177.9L414.2,161.7L410.9,150.9L418.4,136.7L431.4,134.4L437.2,115.9L454.7,122.8L459.1,108.7L456.2,101.8L496.7,135.0Z M442.8,400.0L433.8,409.8L433.7,396.7L440.2,388.7L442.8,400.0Z" fill="none" stroke="rgba(0,0,0,0.2)" stroke-width="0.5">
    <animate attributeName="fill" values="rgba(0,0,0,0);rgba(0,0,0,0);rgba(230,57,70,0.45);rgba(230,57,70,0.45);rgba(0,0,0,0)" keyTimes="0.0000;0.9000;0.9100;0.9800;1.0000" dur="20s" repeatCount="indefinite"/>
    <animate attributeName="stroke" values="rgba(0,0,0,0.2);rgba(0,0,0,0.2);rgba(193,18,31,0.8);rgba(193,18,31,0.8);rgba(0,0,0,0.2)" keyTimes="0.0000;0.9000;0.9100;0.9800;1.0000" dur="20s" repeatCount="indefinite"/>
    <animate attributeName="stroke-width" values="0.5;0.5;1.5;1.5;0.5" keyTimes="0.0000;0.9000;0.9100;0.9800;1.0000" dur="20s" repeatCount="indefinite"/>
  </path>
</svg>