<svg xmlns="http://www.w3.org/2000/svg" viewBox="0 0 64 64" width="64" height="64">
  <defs>
    <linearGradient id="g1" x1="0%" y1="0%" x2="100%" y2="100%">
      <stop offset="0%" style="stop-color:#1a73e8"/>
      <stop offset="100%" style="stop-color:#0d47a1"/>
    </linearGradient>
    <linearGradient id="g2" x1="0%" y1="0%" x2="100%" y2="100%">
      <stop offset="0%" style="stop-color:#4caf50"/>
      <stop offset="100%" style="stop-color:#2e7d32"/>
    </linearGradient>
    <clipPath id="fc">
      <circle cx="32" cy="32" r="30" />
    </clipPath>
  </defs>
  <circle cx="32" cy="32" r="30" fill="url(#g1)"/>
  <g clip-path="url(#fc)">
    <!-- G-shaped continent with irregular coastline -->
    <path d="
      M 45,17
      C 42,12 37,9 31,8
      C 26,8 22,10 18,14
      C 14,18 11,24 10,30
      C 9,36 9,42 11,48
      C 13,53 17,57 22,59
      C 27,61 32,60 37,58
      C 40,56 43,52 46,48
      C 47,45 48,42 47,38
      L 47,34
      L 36,34
      C 34,34 33,33 33,31
      C 33,29 34,28 36,28
      L 52,27
      C 54,27 55,28 55,30
      L 55,40
      C 55,44 53,50 49,54
      C 44,59 38,62 30,62
      C 22,61 16,58 11,52
      C 6,46 3,38 3,30
      C 3,22 6,14 12,9
      C 18,4 26,2 34,4
      C 40,5 44,9 48,14
      C 49,16 48,18 46,18
      C 45,19 45,18 45,17
      Z
    " fill="url(#g2)" opacity="0.92"/>
    <path d="M16,13 C14,12 12,14 13,16 C14,17 16,15 16,13Z" fill="url(#g2)" opacity="0.8"/>
    <path d="M9,32 C7,31 6,34 7,36 C8,37 10,35 9,32Z" fill="url(#g2)" opacity="0.7"/>
    <circle cx="16" cy="16" r="2" fill="url(#g2)" opacity="0.5"/>
    <ellipse cx="50" cy="22" rx="2.5" ry="1.5" transform="rotate(-25 50 22)" fill="url(#g2)" opacity="0.5"/>
    <circle cx="22" cy="60" r="1.5" fill="url(#g2)" opacity="0.45"/>
  </g>
  <circle cx="22" cy="20" r="7" fill="rgba(255,255,255,0.08)"/>
  <circle cx="32" cy="32" r="30" fill="none" stroke="rgba(255,255,255,0.12)" stroke-width="1"/>
</svg>
