<svg xmlns="http://www.w3.org/2000/svg" viewBox="0 0 64 64" width="64" height="64">
  <defs>
    <linearGradient id="g1" x1="0%" y1="0%" x2="100%" y2="100%">
      <stop offset="0%" style="stop-color:#1a73e8"/>
      <stop offset="100%" style="stop-color:#0d47a1"/>
    </linearGradient>
    <linearGradient id="g2" x1="0%" y1="0%" x2="100%" y2="100%">
      <stop offset="0%" style="stop-color:#4caf50"/>
      <stop offset="100%" style="stop-color:#2e7d32"/>
    </linearGradient>
  </defs>
  <circle cx="32" cy="32" r="30" fill="url(#g1)"/>
  <path d="M20,14 Q18,22 16,28 Q15,34 18,40 Q16,46 14,50 Q18,52 20,48 Q24,42 26,36 Q28,28 24,20Z" fill="url(#g2)" opacity="0.9"/>
  <path d="M34,12 Q38,14 42,18 Q44,24 42,30 Q40,34 36,30 Q34,24 34,18Z" fill="url(#g2)" opacity="0.9"/>
  <path d="M44,14 Q50,16 52,22 Q52,28 48,32 Q44,28 42,22Z" fill="url(#g2)" opacity="0.9"/>
  <path d="M46,38 Q50,36 52,40 Q52,46 48,48 Q44,46 44,42Z" fill="url(#g2)" opacity="0.9"/>
  <circle cx="22" cy="20" r="6" fill="rgba(255,255,255,0.1)"/>
</svg>
