<svg version="1.1" xmlns="http://www.w3.org/2000/svg" style="display: block;" viewBox="410 410 1228 1228" width="1024" height="1024" preserveAspectRatio="none">
<defs>
  <!-- Sphere gradient -->
  <radialGradient id="sphereGrad" cx="45%" cy="40%" r="55%" fx="40%" fy="35%">
    <stop offset="0%" stop-color="#8ed4f4"/>
    <stop offset="35%" stop-color="#62bfed"/>
    <stop offset="65%" stop-color="#489bd9"/>
    <stop offset="85%" stop-color="#4490c8"/>
    <stop offset="100%" stop-color="#3d6da0"/>
  </radialGradient>
  <!-- Sphere shadow overlay for 3D depth -->
  <radialGradient id="sphereShadow" cx="50%" cy="50%" r="50%">
    <stop offset="0%" stop-color="black" stop-opacity="0"/>
    <stop offset="70%" stop-color="black" stop-opacity="0"/>
    <stop offset="92%" stop-color="black" stop-opacity="0.18"/>
    <stop offset="100%" stop-color="black" stop-opacity="0.35"/>
  </radialGradient>
  <!-- Continent gradient from original -->
  <linearGradient id="Gradient1" gradientUnits="userSpaceOnUse" x1="609.004" y1="871.685" x2="593.996" y2="872.315">
		<stop class="stop0" offset="0" stop-opacity="1" stop-color="rgb(26,50,23)"/>
		<stop class="stop1" offset="1" stop-opacity="1" stop-color="rgb(10,67,35)"/>
	</linearGradient>
  <!-- Clip to sphere -->
  <clipPath id="sphereClip">
    <circle cx="1024" cy="1024" r="614"/>
  </clipPath>
</defs>

<!-- === LAYER 1: Blue Sphere === -->
<circle cx="1024" cy="1024" r="614" fill="url(#sphereGrad)"/>

<!-- === LAYER 2: Grid lines (meridians + parallels) === -->
<g clip-path="url(#sphereClip)" fill="none" stroke="white" stroke-width="1.5" stroke-opacity="0.2">
  <!-- Equator -->
  <ellipse cx="1024" cy="1024" rx="614" ry="80"/>
  <!-- Parallels -->
  <ellipse cx="1024" cy="1024" rx="590" ry="230" transform="rotate(0,1024,1024)"/>
  <ellipse cx="1024" cy="1024" rx="520" ry="380" transform="rotate(0,1024,1024)"/>
  <ellipse cx="1024" cy="1024" rx="390" ry="510" transform="rotate(0,1024,1024)"/>
  <!-- Meridians -->
  <ellipse cx="1024" cy="1024" rx="80" ry="614"/>
  <ellipse cx="1024" cy="1024" rx="230" ry="614"/>
  <ellipse cx="1024" cy="1024" rx="380" ry="614"/>
  <ellipse cx="1024" cy="1024" rx="510" ry="614"/>
</g>

<!-- === LAYER 3: Continents === -->
<g clip-path="url(#sphereClip)">
<path transform="translate(0,0)" fill="rgb(87,131,48)" d="M 805.131 647.001 C 807.065 648.141 809.016 649.2 810.906 650.212 C 815.631 652.744 821.376 651.185 826.004 649.485 C 846.265 642.043 838.362 633.132 845.006 617.461 C 846.064 614.964 850.092 611.958 853.276 611.244 C 858.088 610.166 866.153 610.453 871 611.829 C 872.912 612.372 877.476 618.104 879.63 618.252 C 890.938 619.025 901.933 615.782 912.444 621.952 C 913.966 622.846 913.536 622.96 913.935 625.063 C 915.054 624.186 916.39 623.6 917.687 622.915 C 922.173 627.984 922.108 628.75 922.386 635.681 L 924.429 637.369 C 933.812 645.587 935.298 653.127 935.124 665.264 L 935.588 666.374 C 953.196 680.255 938.418 699.866 924.571 694.31 C 922.759 706.666 923.077 711.989 910.714 717.558 L 910.431 718.281 L 911.4 719.217 C 920.593 724.745 922.36 741.774 924.513 751.934 L 927.457 755.285 C 933.918 760.929 941.429 766.97 942.402 776.177 C 943.063 782.434 941.037 794.531 942.838 799.94 C 948.701 806.778 955.417 821.058 947.369 828.393 C 936.231 832.899 919.969 818.25 912.256 821.245 C 912.859 823.726 914.472 828.075 912.67 830.322 C 906.974 837.422 896.317 841.755 887.591 843.301 C 880.195 844.611 878.119 842.974 873.19 837.922 L 862.729 842.564 C 860.885 848.79 859.674 854.62 853.126 857.369 C 838.74 863.409 836.102 871.63 826.297 880.808 C 824.937 914.76 792.79 901.705 789.033 931.775 C 787.438 944.546 795.014 975.325 774.603 976.235 C 761.509 976.346 760.896 948.546 760.899 939.697 C 756.207 935.922 752.198 931.692 746.236 931.592 C 740.415 934.551 735.396 941.141 727.868 939.334 C 716.687 936.651 708.111 930.584 697.574 939.86 C 679.853 955.462 670.292 988.769 676.564 1010.74 L 679.011 1012.83 C 699.037 1018.27 696.772 982.153 727.533 991.809 C 738.529 1004.35 722.145 1022.48 717.409 1038.14 C 725.608 1040.32 728.983 1038.64 736.518 1043.69 C 748.522 1058.9 734.324 1077.12 735.38 1095.89 C 741.463 1097.42 741.942 1097.47 747.165 1094.24 C 757.472 1087.85 763.206 1083.84 774.798 1079.63 C 780.018 1083.99 781.475 1085.22 785.466 1091 C 788.579 1092.25 802.993 1097.87 805.328 1099.39 C 821.369 1110.42 812.735 1135.29 827.937 1147.07 C 838.955 1155.8 849.155 1177.16 845.378 1191.07 C 848.039 1191.9 849.329 1191.77 852.061 1191.68 C 862.616 1196.68 866.245 1204.57 874.69 1210.91 C 881.145 1215.75 897.791 1221.16 903.451 1226.44 C 927.441 1241.47 906.967 1260.27 902.176 1275.56 C 893.199 1304.21 903.747 1308.28 870.468 1322.78 L 869.921 1323.87 C 865.441 1332.98 862.235 1344.57 856.859 1352.32 C 850.733 1361.15 844.071 1360.93 840.545 1372.74 L 839.952 1374.69 L 839.546 1376.11 C 836.388 1378.87 829.698 1380.61 825.446 1382.09 C 823.905 1394.22 818.94 1424.12 828.988 1432.19 C 835.754 1436.51 843.883 1440.62 844.655 1449.46 C 840.729 1458 830.046 1455.53 823.027 1452.48 C 793.808 1439.25 783.931 1421.72 776.029 1392.27 C 768.98 1365.99 768.342 1342.71 767.151 1315.56 C 765.573 1279.58 770.619 1275.3 740.051 1252.65 C 737.698 1250.91 712.141 1201.77 709.541 1195.88 C 713.696 1174.73 706.527 1169.1 720.756 1152.41 C 721.308 1151.41 724.773 1146.97 725.65 1145.81 C 728.758 1136.89 728.891 1131.64 729.088 1122.44 C 722.037 1116.44 713.066 1109.22 709.853 1100.53 C 707.11 1093.12 706.319 1086.22 701.172 1079.6 C 695.683 1072.53 686.926 1067.59 680.436 1061.51 C 677.763 1059.01 672.967 1051.97 670.701 1048.73 L 656.418 1049.01 C 642.638 1041.39 612.919 1016.12 615.306 1000.34 C 618.621 978.421 622.431 982.828 615.756 958.375 C 615.126 965.222 614.998 978.043 607.07 979.644 C 591.368 982.027 595.449 951.628 592.961 944.439 C 588.862 932.597 583.692 933.704 595.04 921.401 C 593.065 908.725 596.507 900.383 595.676 890.718 C 592.348 851.989 597.774 833.311 620.718 800.124 C 626.474 789.543 640.1 780.22 647.495 769.646 C 648.903 765.019 649.852 758.155 650.866 753.143 C 653.803 738.618 660.504 729.978 668.755 718.129 C 683.279 690.326 717.134 662.095 743.204 645.353 C 752.349 639.48 770.182 625.709 781.049 632.363 C 782.85 634.132 784.88 636.428 786.953 637.669 C 786.11 642.011 786.697 644.918 787.154 649.269 C 794.399 649.59 798.332 649.45 805.131 647.001 z"/>
<path transform="translate(0,0)" fill="rgb(18,73,42)" d="M 942.838 799.94 C 948.701 806.778 955.417 821.058 947.369 828.393 C 936.231 832.899 919.969 818.25 912.256 821.245 C 912.859 823.726 914.472 828.075 912.67 830.322 C 906.974 837.422 896.317 841.755 887.591 843.301 C 880.195 844.611 878.119 842.974 873.19 837.922 L 862.729 842.564 C 860.885 848.79 859.674 854.62 853.126 857.369 C 838.74 863.409 836.102 871.63 826.297 880.808 C 824.937 914.76 792.79 901.705 789.033 931.775 C 787.438 944.546 795.014 975.325 774.603 976.235 C 761.509 976.346 760.896 948.546 760.899 939.697 C 756.207 935.922 752.198 931.692 746.236 931.592 C 740.415 934.551 735.396 941.141 727.868 939.334 C 716.687 936.651 708.111 930.584 697.574 939.86 C 679.853 955.462 670.292 988.769 676.564 1010.74 L 675.614 1011.3 L 672.879 1010.25 C 661.949 999.489 668.198 970.995 674.199 958.604 C 680.845 944.878 684.465 931.2 700.596 925.176 C 712.304 920.803 718.973 924.196 729.275 928.669 C 745.469 915.336 746.643 919.517 765.321 926.385 C 766.233 936.811 765.742 957.828 774.375 964.271 C 787.763 963.283 777.617 919.115 787.685 909.148 C 797.043 899.883 811.983 892.707 819.529 882.536 C 819.408 881.112 818.821 874.565 819.283 873.756 C 828.149 858.23 837.737 851.361 852.449 845.444 C 856.005 835.97 865.686 821.985 877.362 825.616 C 878.607 828.356 878.888 829.617 881.295 831.449 C 890.076 832.001 903.279 824.994 908.045 817.457 C 909.483 816.139 909.413 810.043 909.519 807.927 L 911.999 808.411 L 916.007 809.006 C 924.984 810.251 935.988 818.941 943.617 814.91 C 945.845 810.186 943.654 805.916 941.909 801.043 L 942.838 799.94 z"/>
<path transform="translate(0,0)" fill="rgb(18,73,42)" d="M 596.148 923.051 C 594.519 927.469 601.039 959.629 604.274 965.477 L 605.505 965.804 C 613.292 953.175 604.447 903.859 612.731 896.945 L 615.516 897.5 C 617.88 902.337 615.622 917.656 616.115 924.374 C 617.564 944.109 628.659 967.503 622.023 986.728 C 621.058 989.493 620.05 992.243 618.998 994.977 C 626.924 1012.32 641.25 1028.04 657.461 1037.99 L 671.874 1036.81 C 677.178 1042.81 682.724 1050.2 688.24 1055.58 C 691.446 1058.7 701.368 1062.59 704.098 1066.85 C 717.9 1088.37 708.323 1095.17 733.911 1111.03 C 734.539 1119.4 735.89 1142.53 726.355 1146.06 L 725.65 1145.81 C 728.758 1136.89 728.891 1131.64 729.088 1122.44 C 722.037 1116.44 713.066 1109.22 709.853 1100.53 C 707.11 1093.12 706.319 1086.22 701.172 1079.6 C 695.683 1072.53 686.926 1067.59 680.436 1061.51 C 677.763 1059.01 672.967 1051.97 670.701 1048.73 L 656.418 1049.01 C 642.638 1041.39 612.919 1016.12 615.306 1000.34 C 618.621 978.421 622.431 982.828 615.756 958.375 C 615.126 965.222 614.998 978.043 607.07 979.644 C 591.368 982.027 595.449 951.628 592.961 944.439 C 588.862 932.597 583.692 933.704 595.04 921.401 L 596.148 923.051 z"/>
<path transform="translate(0,0)" fill="rgb(18,73,42)" d="M 720.756 1152.41 C 715.891 1168.05 712.213 1185.96 721.624 1200.47 C 730.007 1214.07 734.427 1230.19 743.915 1242.93 C 748.896 1249.62 767.783 1259.49 769.16 1267.74 C 778.026 1320.83 764.248 1382.43 802.725 1426.88 C 808.94 1434.05 827.977 1446.33 836.956 1442.76 C 836.295 1438.48 833.203 1436.72 829.79 1434.23 L 828.792 1433.51 L 828.988 1432.19 C 835.754 1436.51 843.883 1440.62 844.655 1449.46 C 840.729 1458 830.046 1455.53 823.027 1452.48 C 793.808 1439.25 783.931 1421.72 776.029 1392.27 C 768.98 1365.99 768.342 1342.71 767.151 1315.56 C 765.573 1279.58 770.619 1275.3 740.051 1252.65 C 737.698 1250.91 712.141 1201.77 709.541 1195.88 C 713.696 1174.73 706.527 1169.1 720.756 1152.41 z"/>
<path transform="translate(0,0)" fill="rgb(18,73,42)" d="M 903.451 1226.44 C 927.441 1241.47 906.967 1260.27 902.176 1275.56 C 893.199 1304.21 903.747 1308.28 870.468 1322.78 L 869.921 1323.87 C 865.441 1332.98 862.235 1344.57 856.859 1352.32 C 850.733 1361.15 844.071 1360.93 840.545 1372.74 L 839.952 1374.69 L 839.546 1376.11 C 836.388 1378.87 829.698 1380.61 825.446 1382.09 C 823.905 1394.22 818.94 1424.12 828.988 1432.19 L 828.792 1433.51 C 822.191 1429.23 819.691 1427.15 815.703 1420.41 C 817.217 1413.62 818.948 1410.26 815.85 1403.99 C 807.794 1387.68 819.516 1395.24 816.24 1379.79 L 815.99 1378.65 C 817.608 1376 819.266 1373.37 820.963 1370.76 C 826.693 1368.86 831.05 1368.1 834.991 1363.77 C 836.249 1359.23 834.926 1360.45 833.84 1354.91 L 835.221 1353.13 C 837.13 1352.93 841.942 1352.47 843.375 1351.52 C 854.652 1344.04 859.177 1326.49 862.915 1314.93 C 868.854 1310.65 877.648 1307.12 884.75 1302.71 C 892.594 1288.73 893.086 1284.29 893.569 1268.67 C 902.821 1253.55 914.425 1246.16 903.451 1226.44 z"/>
<path transform="translate(0,0)" fill="rgb(18,73,42)" d="M 874.021 642.271 C 881.727 644.314 892.966 646.2 897.504 653.523 C 900.896 658.996 898.898 665.608 893.014 668.286 L 892.457 667.775 C 891.287 668.729 889.314 670.59 888.462 671.267 C 881.052 677.152 874.017 674.983 868.801 683.538 C 867.641 688.897 866.942 692.19 869.02 697.433 C 866.081 698.029 863.461 699.568 861.602 699.924 C 859.895 703.706 857.797 710.282 854.395 711.745 C 855.732 707.434 856.422 707.9 854.976 704.941 C 847.558 700.738 841.949 699.099 834.616 694.192 C 823.066 700.023 804.735 708.04 798.951 720.53 C 797.587 723.475 799.245 726.207 800.338 728.966 C 797.521 728.048 796.846 728.108 794.759 726.007 C 793.432 720.556 792.702 719.101 789.6 714.418 C 799.648 698.245 819.781 687.636 837.08 681.07 C 840.989 685.106 849.753 693.775 855.398 689.605 C 857.495 683.134 854.038 677.719 851.332 671.261 L 859.222 668.618 C 870.244 665.044 883.834 655.866 873.353 643.571 L 874.021 642.271 z"/>
<path transform="translate(0,0)" fill="rgb(18,73,42)" d="M 935.588 666.374 C 953.196 680.255 938.418 699.866 924.571 694.31 C 922.759 706.666 923.077 711.989 910.714 717.558 L 910.431 718.281 C 902.059 719.473 900.48 725.226 896.101 726.922 C 894.816 727.888 894.106 727.953 892.521 728.539 C 887.391 725.737 890.701 715.646 888.939 709.579 C 885.494 697.712 879.098 697.946 869.02 697.433 C 866.942 692.19 867.641 688.897 868.801 683.538 C 875.035 687.006 879.257 686.771 886.625 691.289 C 894.762 696.278 897.129 704.369 903.759 705.53 C 909.592 703.695 914.283 699.355 919.342 695.563 C 917.396 691.042 913.003 681.849 915.678 677.26 C 921.577 676.203 924.857 681.84 932.35 681.977 C 938.147 678.48 937.225 672.134 935.588 666.374 z"/>
<path transform="translate(0,0)" fill="rgb(18,73,42)" d="M 887.659 787.238 C 892.568 787.673 897.006 788.772 902.24 788.801 C 907.026 788.827 922.152 785.613 925.344 786.719 C 920.809 793.665 915.007 800.804 911.999 808.411 L 909.519 807.927 C 909.413 810.043 909.483 816.139 908.045 817.457 C 903.776 815.731 901.624 814.594 897.044 814.086 L 896.162 814.521 C 892.374 814.059 893.991 814.77 891.096 812.4 C 887.926 806.044 889.602 801.215 891.454 794.745 C 883.317 795.38 877.836 796.284 869.763 797.756 C 877.505 792.082 879.178 790.839 887.659 787.238 z"/>
<path transform="translate(0,0)" fill="url(#Gradient1)" d="M 620.718 800.124 C 620.595 804.903 604.976 828.721 602.33 839.591 C 597.194 860.689 603.028 874.62 599.818 895.118 C 598.366 904.389 603.141 917.349 596.148 923.051 L 595.04 921.401 C 593.065 908.725 596.507 900.383 595.676 890.718 C 592.348 851.989 597.774 833.311 620.718 800.124 z"/>
<path transform="translate(0,0)" fill="rgb(18,73,42)" d="M 727.533 991.809 C 738.529 1004.35 722.145 1022.48 717.409 1038.14 L 715.494 1039.31 C 711.885 1039.5 711.846 1039.66 708.255 1038.52 C 706.198 1033.07 723.985 1000.75 727.533 991.809 z"/>
<path transform="translate(0,0)" fill="rgb(26,82,42)" d="M 877.573 618.537 L 873.686 622.688 C 869.346 627.26 863.714 633.62 866.604 640.275 C 870.08 642.943 868.788 642.14 874.021 642.271 L 873.353 643.571 C 869.497 645.414 868.617 647.087 864.62 649.256 L 863.078 648.245 L 862.305 643.574 C 862.315 646.695 862.8 649.708 861.14 652.132 L 858.973 652.813 L 855.803 654.247 L 854.104 653.497 C 851.455 645.594 852.73 636.304 857.333 629.284 C 862.876 620.83 868.399 620.359 877.573 618.537 z"/>
<path transform="translate(0,0)" fill="rgb(18,73,42)" d="M 735.38 1095.89 C 720.575 1092.06 734.739 1056.73 736.29 1045.42 L 736.518 1043.69 C 748.522 1058.9 734.324 1077.12 735.38 1095.89 z"/>
<path transform="translate(0,0)" fill="rgb(18,73,42)" d="M 827.937 1147.07 C 838.955 1155.8 849.155 1177.16 845.378 1191.07 C 842.17 1191.11 841.322 1191.02 838.261 1190.61 C 838.467 1188.65 839.286 1180.77 839.158 1179.19 C 838.499 1171.02 833.314 1153.24 827.42 1147.86 L 827.937 1147.07 z"/>
<path transform="translate(0,0)" fill="rgb(18,73,42)" d="M 822.64 743.314 C 832.3 752.409 827.604 762.216 827.175 774.102 C 829.454 767.981 832.967 753.079 836.701 750.196 C 836.206 756.827 832.576 769.735 827.119 773.521 C 818.229 773.256 822.546 750.629 822.633 744.287 L 822.64 743.314 z"/>
<path transform="translate(0,0)" fill="rgb(18,73,42)" d="M 927.457 755.285 C 933.918 760.929 941.429 766.97 942.402 776.177 C 943.063 782.434 941.037 794.531 942.838 799.94 L 941.909 801.043 C 939.615 798.269 937.034 794.25 934.949 791.205 C 935.731 784.349 938.777 771.531 934.572 765.617 C 932.017 762.024 929.034 759.589 927.457 755.285 z"/>
<path transform="translate(0,0)" fill="rgb(18,73,42)" d="M 805.328 1099.39 C 821.369 1110.42 812.735 1135.29 827.937 1147.07 L 827.42 1147.86 C 812.114 1139.97 810.539 1114.31 805.328 1099.39 z"/>
<path transform="translate(0,0)" fill="rgb(18,73,42)" d="M 911.4 719.217 C 920.593 724.745 922.36 741.774 924.513 751.934 L 923.059 752.297 C 914.643 747.383 915.167 730.605 911.602 722.358 C 910.725 720.327 910.809 721.796 911.4 719.217 z"/>
<path transform="translate(0,0)" fill="rgb(10,46,18)" d="M 668.755 718.129 C 668.577 723.757 661.124 732.063 658.218 737.256 C 654.047 744.707 656.881 766.579 647.495 769.646 C 648.903 765.019 649.852 758.155 650.866 753.143 C 653.803 738.618 660.504 729.978 668.755 718.129 z"/>
<path transform="translate(0,0)" fill="rgb(18,73,42)" d="M 924.429 637.369 C 933.812 645.587 935.298 653.127 935.124 665.264 L 933.429 665.913 C 923.399 661.772 931.634 651.343 924.429 637.369 z"/>
<path transform="translate(0,0)" fill="rgb(18,73,42)" d="M 852.535 715.954 C 851.608 723.294 852.879 740.077 846.176 743.581 C 848.668 730 842.891 732.691 852.535 715.954 z"/>
<path transform="translate(0,0)" fill="rgb(26,82,42)" d="M 787.154 649.269 C 785.027 648.351 785.038 648.287 783.081 647.036 C 781.117 642.861 779.599 636.795 781.049 632.363 C 782.85 634.132 784.88 636.428 786.953 637.669 C 786.11 642.011 786.697 644.918 787.154 649.269 z"/>
<path transform="translate(0,0)" fill="rgb(18,73,42)" d="M 913.935 625.063 C 915.054 624.186 916.39 623.6 917.687 622.915 C 922.173 627.984 922.108 628.75 922.386 635.681 L 919.631 634.75 C 916.091 631.404 915.835 629.741 913.935 625.063 z"/>
<path transform="translate(0,0)" fill="rgb(87,131,48)" d="M 1040.77 970.058 C 1048.32 962.398 1073.99 958.376 1085 955.507 C 1092.62 953.522 1108.1 963.157 1116.53 962.026 C 1141.48 958.679 1168.68 946.105 1194.09 950.643 C 1199.5 951.758 1203.29 962.076 1205.23 967.195 C 1213.95 969.75 1222.1 971.567 1231.19 974.404 C 1243.9 955.205 1256.91 966.953 1275.83 968.556 C 1282.14 969.091 1287.34 969.157 1293.67 968.991 C 1297.22 964.707 1301.35 958.973 1306.66 956.973 C 1331.22 947.736 1393.75 950.395 1414.3 966.108 C 1421.7 974.416 1427.54 991.867 1420.24 1002.17 C 1417.27 1006.36 1409.52 1004 1405.6 1006.56 C 1423.94 1029.67 1374.54 1052.89 1359.05 1059.81 C 1362.91 1059.77 1366.76 1059.75 1370.62 1059.76 C 1385.21 1075.07 1363.93 1097.69 1353.83 1110.21 C 1346.49 1119.31 1333.63 1125.95 1328.44 1137.39 C 1322.03 1151.49 1328.54 1162.84 1327.68 1177.04 C 1326.51 1190.71 1314.48 1199.67 1304.57 1207.33 C 1302.64 1233.84 1276.39 1266.35 1249.13 1269.93 C 1246.5 1270.28 1233.52 1271.37 1231.94 1267.66 C 1223.25 1247.33 1218.54 1216.64 1214.72 1194.38 C 1229.24 1164.1 1218.17 1158.02 1214.64 1128.88 C 1205.79 1129.01 1196.44 1129.56 1187.62 1129.17 C 1171.4 1128.45 1170.69 1114.44 1169.28 1101.71 C 1164.37 1099.91 1148.8 1096.93 1145.84 1094.71 C 1141.1 1091.16 1135.06 1080.93 1128.71 1075.61 C 1120.75 1068.95 1115.66 1067.13 1107.62 1062.22 C 1102.18 1058.9 1098.59 1037.61 1097.46 1031 C 1079.59 1014.1 1061.79 1026.14 1044.33 1014.78 C 1030.28 1005.64 1030.73 982.652 1040.77 970.058 z"/>
<path transform="translate(0,0)" fill="rgb(18,73,42)" d="M 1040.77 970.058 C 1039.7 980.038 1035.03 988.199 1041.22 998.238 C 1044.84 1004.11 1048.26 1006.92 1055.4 1008.18 C 1069.79 1009.71 1090.33 1007.64 1100.86 1020.63 C 1105.54 1026.41 1105.89 1044.95 1112.49 1052.29 C 1118.45 1058.92 1125.9 1059.43 1131.72 1064.1 C 1137.62 1068.83 1141.84 1079.6 1148.93 1083.84 C 1155.02 1087.48 1169.85 1087.39 1173.92 1092.16 C 1180.3 1099.62 1169.89 1113.43 1185.5 1116.61 C 1195.68 1118.69 1211.53 1113.31 1219.73 1119.4 C 1221.47 1122.39 1221.37 1129.81 1221.61 1133.5 C 1222.23 1142.91 1227.77 1151.33 1228.59 1160.65 C 1229.46 1170.51 1220.93 1179.35 1220.25 1189.03 C 1222.14 1209.85 1230.36 1237.73 1235.06 1258.27 C 1251.53 1257.85 1263.98 1256.62 1276.01 1243.26 C 1281 1237.71 1293.45 1221.39 1297.05 1215.17 L 1297.17 1199.23 C 1308.27 1188.21 1322.8 1184.46 1321.75 1165.5 C 1320.67 1146.05 1315.39 1131.3 1332.03 1116.19 C 1351.07 1098.81 1365.42 1087.5 1370.62 1059.76 C 1385.21 1075.07 1363.93 1097.69 1353.83 1110.21 C 1346.49 1119.31 1333.63 1125.95 1328.44 1137.39 C 1322.03 1151.49 1328.54 1162.84 1327.68 1177.04 C 1326.51 1190.71 1314.48 1199.67 1304.57 1207.33 C 1302.64 1233.84 1276.39 1266.35 1249.13 1269.93 C 1246.5 1270.28 1233.52 1271.37 1231.94 1267.66 C 1223.25 1247.33 1218.54 1216.64 1214.72 1194.38 C 1229.24 1164.1 1218.17 1158.02 1214.64 1128.88 C 1205.79 1129.01 1196.44 1129.56 1187.62 1129.17 C 1171.4 1128.45 1170.69 1114.44 1169.28 1101.71 C 1164.37 1099.91 1148.8 1096.93 1145.84 1094.71 C 1141.1 1091.16 1135.06 1080.93 1128.71 1075.61 C 1120.75 1068.95 1115.66 1067.13 1107.62 1062.22 C 1102.18 1058.9 1098.59 1037.61 1097.46 1031 C 1079.59 1014.1 1061.79 1026.14 1044.33 1014.78 C 1030.28 1005.64 1030.73 982.652 1040.77 970.058 z"/>
<path transform="translate(0,0)" fill="rgb(18,73,42)" d="M 1414.3 966.108 C 1421.7 974.416 1427.54 991.867 1420.24 1002.17 C 1417.27 1006.36 1409.52 1004 1405.6 1006.56 C 1423.94 1029.67 1374.54 1052.89 1359.05 1059.81 C 1351.5 1062.66 1346.7 1062.97 1338.91 1063.34 C 1334.73 1057.68 1330.87 1051.86 1326.93 1046.03 L 1327.38 1044.75 C 1326.01 1043.86 1323.66 1041.88 1322.29 1040.8 C 1316.18 1037.08 1303.93 1001.27 1297.61 994.324 C 1295.92 992.462 1296.31 986.908 1298.75 984.567 C 1307.81 985.83 1330.22 1031 1334.6 1040.74 C 1336.38 1044.71 1337.65 1048.22 1340.27 1052.27 C 1353.28 1054.29 1390.93 1031.88 1399.2 1020.63 C 1408.79 1007.59 1395.04 1000.21 1386.64 994.551 L 1377.78 998.488 C 1372.32 994.146 1354.77 984.402 1358.75 976.935 C 1366.25 975.354 1404.85 1003.4 1416.97 990.829 C 1419.31 984.24 1415.34 975.213 1414.5 967.942 L 1414.3 966.108 z"/>
<path transform="translate(0,0)" fill="rgb(87,131,48)" d="M 907.51 578.009 C 928.322 554.055 971.436 551.509 1001.12 550.565 C 1004.14 552.015 1006.86 553.958 1009.66 555.81 L 1012.18 559.731 C 1017.79 559.618 1031.01 559.871 1035.74 558.322 C 1058.35 550.918 1093.27 542.99 1109.96 567.956 C 1117.09 568.289 1120.51 568.384 1127.47 569.78 L 1128.77 570.034 L 1129.55 570.198 C 1147.27 585.25 1126.61 592.481 1116.85 599.874 C 1118.9 614.737 1121.85 636.291 1108.86 646.91 C 1109.28 656.33 1110.36 662.377 1103.25 669.927 C 1094.57 679.14 1078.52 682.829 1066.3 683.509 C 1050.54 695.388 1048.68 698.149 1028.85 703.749 L 1028.01 704.782 C 1019.01 716.102 1013.97 742.409 998.635 739.702 C 971.33 734.884 958.809 696.657 969.38 673.613 C 970.195 671.988 972.927 668.671 974.158 667.066 C 973.28 666.161 970.585 662.888 970.624 661.823 C 970.662 652.643 974.854 639.611 974.922 630.925 C 975.129 604.19 945.48 633.434 947.239 599.306 C 935.627 613.378 932.447 607.236 922.553 618.095 C 920.407 620.451 922.124 620.231 917.687 622.915 C 916.39 623.6 915.054 624.186 913.935 625.063 C 913.536 622.96 913.966 622.846 912.444 621.952 C 901.933 615.782 890.938 619.025 879.63 618.252 C 877.476 618.104 872.912 612.372 871 611.829 C 866.153 610.453 858.088 610.166 853.276 611.244 C 850.092 611.958 846.064 614.964 845.006 617.461 C 838.362 633.132 846.265 642.043 826.004 649.485 C 821.376 651.185 815.631 652.744 810.906 650.212 C 809.016 649.2 807.065 648.141 805.131 647.001 C 798.332 649.45 794.399 649.59 787.154 649.269 C 786.697 644.918 786.11 642.011 786.953 637.669 L 789.31 634.218 C 786.299 626.989 786.165 625.988 789.602 618.981 C 796.582 609.134 817.865 596.486 830.352 599.978 L 833.31 603.745 L 835.021 603.101 C 836.34 597.404 836.298 595.953 839.76 591.228 C 851.19 581.209 866.677 580.444 881.401 579.662 C 884.673 583.134 884.931 583.37 887.021 587.581 L 888.268 588.525 C 892.522 587.336 896.049 585.622 899.632 587.267 L 900.585 590.313 L 903.03 591.222 L 904.509 591.002 C 904.972 585.006 904.934 583.604 907.51 578.009 z"/>
<path transform="translate(0,0)" fill="rgb(18,73,42)" d="M 907.51 578.009 C 928.322 554.055 971.436 551.509 1001.12 550.565 C 1004.14 552.015 1006.86 553.958 1009.66 555.81 L 1012.18 559.731 C 998.15 565.326 986.376 568.862 977.752 581.469 C 969.516 584.003 957.01 584.638 953.279 592.05 C 951.703 595.255 951.59 598.984 952.97 602.277 C 953.631 603.877 954.168 604.348 955.321 605.513 C 965.053 608.545 974.337 604.669 978.692 613.187 C 982.89 621.396 977.059 631.081 978.257 638.881 C 978.435 640.039 984.778 640.738 985.864 643.896 C 982.591 646.434 977.039 649.103 975.567 651.618 C 976.418 655.221 982.709 656.35 986.193 657.476 C 982.286 661.528 979.493 664.944 974.158 667.066 C 973.28 666.161 970.585 662.888 970.624 661.823 C 970.662 652.643 974.854 639.611 974.922 630.925 C 975.129 604.19 945.48 633.434 947.239 599.306 C 935.627 613.378 932.447 607.236 922.553 618.095 C 920.407 620.451 922.124 620.231 917.687 622.915 C 916.39 623.6 915.054 624.186 913.935 625.063 C 913.536 622.96 913.966 622.846 912.444 621.952 C 901.933 615.782 890.938 619.025 879.63 618.252 C 877.476 618.104 872.912 612.372 871 611.829 C 866.153 610.453 858.088 610.166 853.276 611.244 C 850.092 611.958 846.064 614.964 845.006 617.461 C 838.362 633.132 846.265 642.043 826.004 649.485 C 821.376 651.185 815.631 652.744 810.906 650.212 C 809.016 649.2 807.065 648.141 805.131 647.001 C 798.332 649.45 794.399 649.59 787.154 649.269 C 786.697 644.918 786.11 642.011 786.953 637.669 L 789.31 634.218 C 786.299 626.989 786.165 625.988 789.602 618.981 C 796.582 609.134 817.865 596.486 830.352 599.978 L 833.31 603.745 L 835.021 603.101 C 836.34 597.404 836.298 595.953 839.76 591.228 C 851.19 581.209 866.677 580.444 881.401 579.662 C 884.673 583.134 884.931 583.37 887.021 587.581 L 888.268 588.525 C 892.522 587.336 896.049 585.622 899.632 587.267 L 900.585 590.313 L 903.03 591.222 L 904.509 591.002 C 904.972 585.006 904.934 583.604 907.51 578.009 z"/>
<path transform="translate(0,0)" fill="rgb(87,131,48)" d="M 907.51 578.009 C 928.322 554.055 971.436 551.509 1001.12 550.565 C 1004.14 552.015 1006.86 553.958 1009.66 555.81 C 1002.97 562.54 960.261 577.923 949.14 584.855 C 942.204 589.179 936.543 594.951 930.264 599.43 C 919.686 599.596 908.581 601.918 903.03 591.222 L 904.509 591.002 C 904.972 585.006 904.934 583.604 907.51 578.009 z"/>
<path transform="translate(0,0)" fill="rgb(18,73,42)" d="M 907.51 578.009 C 910.436 582.292 912.076 585.66 909.303 590.624 C 907.435 591.446 906.673 592.016 904.509 591.002 C 904.972 585.006 904.934 583.604 907.51 578.009 z"/>
<path transform="translate(0,0)" fill="rgb(87,131,48)" d="M 789.602 618.981 C 796.582 609.134 817.865 596.486 830.352 599.978 L 833.31 603.745 L 834.257 613.895 L 838.012 616.021 C 824.972 627.12 835.334 645.412 804.485 642.239 C 795.868 641.353 794.942 644.334 786.953 637.669 L 789.31 634.218 C 786.299 626.989 786.165 625.988 789.602 618.981 z"/>
<path transform="translate(0,0)" fill="rgb(18,73,42)" d="M 789.602 618.981 C 793.932 622.483 796.076 623.269 797.081 628.493 C 795.901 632.006 793.096 633.904 789.31 634.218 C 786.299 626.989 786.165 625.988 789.602 618.981 z"/>
<path transform="translate(0,0)" fill="rgb(18,73,42)" d="M 830.352 599.978 L 833.31 603.745 L 834.257 613.895 C 830.775 613.917 829.102 613.857 827.002 611.222 C 826.666 607.292 828.748 603.701 830.352 599.978 z"/>
<path transform="translate(0,0)" fill="rgb(87,131,48)" d="M 839.76 591.228 C 851.19 581.209 866.677 580.444 881.401 579.662 C 884.673 583.134 884.931 583.37 887.021 587.581 L 888.268 588.525 C 892.522 587.336 896.049 585.622 899.632 587.267 L 900.585 590.313 C 898.771 594.8 898.836 592.678 899.486 596.839 C 905.108 603.992 916.998 599.374 918.417 606.669 C 916.992 609.881 917.258 609.894 914.371 611.775 C 889.698 616.066 883.16 598.482 857.781 602.614 C 837.406 605.931 843.773 599.866 839.76 591.228 z"/>
<path transform="translate(0,0)" fill="rgb(18,73,42)" d="M 881.401 579.662 C 884.673 583.134 884.931 583.37 887.021 587.581 C 884.01 589.862 879.18 592.916 875.257 591.784 C 875.137 588.277 879.162 583.349 881.401 579.662 z"/>
<path transform="translate(0,0)" fill="rgb(18,73,42)" d="M 1129.55 570.198 C 1147.27 585.25 1126.61 592.481 1116.85 599.874 C 1118.9 614.737 1121.85 636.291 1108.86 646.91 C 1109.28 656.33 1110.36 662.377 1103.25 669.927 C 1094.57 679.14 1078.52 682.829 1066.3 683.509 C 1050.54 695.388 1048.68 698.149 1028.85 703.749 L 1028.01 704.782 C 1019.01 716.102 1013.97 742.409 998.635 739.702 C 971.33 734.884 958.809 696.657 969.38 673.613 C 971.235 688.236 969.165 706.744 981.768 717.18 C 986.267 720.906 995.489 727.918 1001.39 727.621 C 1007.09 725.231 1018.18 700.195 1023.76 691.585 C 1042.52 687.274 1046.36 683.161 1062.11 673.399 C 1071.78 667.407 1094.21 669.198 1100.8 656.089 C 1104.21 649.318 1101.72 644.496 1099.64 637.925 C 1118.51 625.879 1109.24 615.185 1110.65 597.108 C 1112.06 579.139 1128.71 588.809 1129.55 570.198 z"/>
<path transform="translate(0,0)" fill="rgb(87,131,48)" d="M 1338.42 1251.6 C 1344.02 1250.95 1351.32 1249.28 1356.76 1249.41 C 1367.75 1249.68 1376.2 1252.36 1387.37 1250.71 C 1397.46 1249.22 1400.42 1244.68 1409.44 1241.92 C 1412.79 1240.89 1414.55 1241.87 1417.3 1243.43 C 1433.13 1257.6 1418.76 1285.74 1417.54 1302.9 C 1416.61 1316.14 1421.41 1326.77 1417.68 1340.49 C 1408.15 1375.62 1378.03 1376.13 1353.46 1391.32 C 1336.45 1427.19 1335.07 1418.88 1300.84 1432.86 C 1284.03 1439.72 1258.52 1466.26 1234.96 1456.07 C 1220.69 1449.64 1222.97 1432.52 1231.77 1422.34 C 1234.29 1418.95 1235.45 1417.99 1238.61 1415.09 C 1240.52 1403.72 1221.42 1395.1 1237.69 1374.06 C 1249.9 1360.19 1268.24 1360 1283.71 1348.55 C 1273.84 1330.08 1272.75 1319.8 1287.78 1303.42 C 1291.12 1298.36 1300.84 1294.52 1306.39 1292.02 C 1300.39 1291.96 1296.88 1291.84 1290.85 1291.15 C 1276.47 1290.89 1269.77 1283.15 1278.44 1270.11 C 1282.8 1263.42 1299.81 1247.13 1307.93 1244.63 C 1319.96 1240.92 1328.13 1246.5 1338.42 1251.6 z"/>
<path transform="translate(0,0)" fill="rgb(18,73,42)" d="M 1231.77 1422.34 C 1231.32 1426.32 1228.38 1431.19 1229.26 1435.42 C 1231.1 1444.27 1240.45 1447.73 1248.36 1446.47 C 1268.07 1443.35 1282.39 1430.03 1299.37 1421.26 C 1310.14 1415.7 1325.43 1414.71 1334.67 1405.74 C 1342.33 1398.22 1344.61 1384.1 1353.2 1378.66 C 1371.58 1367.2 1391.99 1366.45 1405.33 1347.21 C 1419.69 1326.51 1410.41 1315.74 1411.42 1294.25 C 1412.09 1279.78 1421.42 1263.46 1417.26 1247.79 C 1416.77 1245.97 1416.66 1245.23 1417.3 1243.43 C 1433.13 1257.6 1418.76 1285.74 1417.54 1302.9 C 1416.61 1316.14 1421.41 1326.77 1417.68 1340.49 C 1408.15 1375.62 1378.03 1376.13 1353.46 1391.32 C 1336.45 1427.19 1335.07 1418.88 1300.84 1432.86 C 1284.03 1439.72 1258.52 1466.26 1234.96 1456.07 C 1220.69 1449.64 1222.97 1432.52 1231.77 1422.34 z"/>
<path transform="translate(0,0)" fill="rgb(18,73,42)" d="M 1278.44 1270.11 C 1280.23 1273.51 1281.54 1276.82 1284.57 1279.1 C 1294.71 1280.98 1305.65 1277.9 1314.39 1282.45 C 1316.99 1286.28 1314.95 1287.33 1311.99 1290.45 C 1307.71 1292.06 1296.79 1290.82 1290.85 1291.15 C 1276.47 1290.89 1269.77 1283.15 1278.44 1270.11 z"/>
<path transform="translate(0,0)" fill="rgb(18,73,42)" d="M 1237.69 1374.06 C 1236.64 1385.73 1237.16 1388.55 1242.54 1399.3 L 1245.32 1404.94 C 1243.53 1408.99 1242.66 1411.87 1239.45 1414.93 L 1238.61 1415.09 C 1240.52 1403.72 1221.42 1395.1 1237.69 1374.06 z"/>
<path transform="translate(0,0)" fill="rgb(18,73,42)" d="M 1287.78 1303.42 C 1286.42 1309.49 1281.95 1314.89 1281.66 1321.17 C 1281.49 1324.98 1293.09 1348.04 1283.71 1348.55 C 1273.84 1330.08 1272.75 1319.8 1287.78 1303.42 z"/>
<path transform="translate(0,0)" fill="rgb(87,131,48)" d="M 917.393 1293.35 C 927.031 1284.09 942.44 1282.26 955.299 1282.1 C 975.354 1281.86 977.157 1295.6 994.554 1300.28 C 1007.7 1303.81 1023.74 1294.52 1034.46 1305.23 C 1042.61 1313.37 1040.7 1322.48 1054.7 1324.3 C 1065.21 1325.67 1082.6 1319.7 1089.27 1325.23 C 1102.24 1339.17 1094.25 1347.96 1085.13 1361.23 C 1086.76 1385.32 1086.33 1411.85 1053.97 1413.65 C 1044.43 1414.19 1033.18 1409.79 1024 1406.83 C 1010.5 1410.45 1003.77 1418.6 992.35 1425.87 C 952.752 1451.08 906.442 1452.74 878.997 1409.55 C 870.358 1395.95 857.118 1382.37 870.651 1365.92 C 880.408 1352.22 893.82 1352.72 906.503 1339.75 C 918.64 1320.61 902.459 1311.35 917.393 1293.35 z"/>
<path transform="translate(0,0)" fill="rgb(18,73,42)" d="M 1089.27 1325.23 C 1102.24 1339.17 1094.25 1347.96 1085.13 1361.23 C 1086.76 1385.32 1086.33 1411.85 1053.97 1413.65 C 1044.43 1414.19 1033.18 1409.79 1024 1406.83 C 1010.5 1410.45 1003.77 1418.6 992.35 1425.87 C 952.752 1451.08 906.442 1452.74 878.997 1409.55 C 870.358 1395.95 857.118 1382.37 870.651 1365.92 C 869.393 1388.89 878.295 1387.94 888.29 1406.9 C 896.296 1422.76 914.64 1428.78 931.078 1431.86 C 967.863 1438.76 994.03 1403.98 1022.33 1395.54 C 1037.93 1398.59 1059.37 1410.11 1072.7 1394.61 C 1083.06 1383.13 1076.69 1366.05 1079.73 1354.18 C 1083.63 1338.93 1090.68 1343.58 1089.27 1325.23 z"/>
<path transform="translate(0,0)" fill="rgb(18,73,42)" d="M 917.393 1293.35 C 916.9 1305.05 920.185 1335.06 906.503 1339.75 C 918.64 1320.61 902.459 1311.35 917.393 1293.35 z"/>
<path transform="translate(0,0)" fill="rgb(87,131,48)" d="M 1328.47 658.817 C 1335.14 656.313 1337.68 655.675 1344.64 654.253 C 1349.29 657.029 1352.16 658.6 1356.31 662.218 C 1360.32 665.925 1364.02 669.259 1367.73 673.289 C 1388 698.736 1384.89 713.803 1359 732.277 C 1352.4 736.99 1344.92 741.119 1339.06 746.629 C 1331.73 753.942 1335.15 767.46 1328.94 775.547 C 1323.3 783.311 1305.85 786.185 1300.6 792.831 C 1290.23 806.439 1286.36 838.485 1262.98 834.836 C 1248.03 832.504 1231.63 813.473 1222.47 801.753 C 1218.03 796.069 1218.24 788.361 1223.18 783.076 L 1225.81 782.037 C 1228.57 771.819 1231.7 768.996 1238.28 760.728 C 1231.25 754.038 1225.59 747.905 1223.64 737.972 C 1223.13 735.384 1223.22 735.158 1222.09 732.943 L 1220.59 734.019 C 1217.49 741.679 1222.67 747.063 1225.44 755.367 C 1223.91 759.816 1222.32 764.246 1220.67 768.653 C 1217.05 778.229 1209.56 793.095 1196 786.915 C 1188.18 783.354 1185.23 773.497 1182.47 765.88 C 1179.35 767.472 1176.63 768.929 1173.14 769.474 C 1168 770.226 1162.79 768.788 1158.77 765.51 C 1146.38 755.371 1149.66 737.671 1158.7 726.385 C 1162.74 720.131 1176.27 715.799 1181.63 710.097 C 1187.93 703.394 1190.57 690.256 1195.52 683.139 C 1203.64 672.519 1220.31 663.377 1233.19 660.977 C 1243.18 659.116 1254.5 669.477 1262.83 673.612 C 1272.44 678.383 1283.7 682.125 1292.36 688.476 C 1296.67 691.561 1297.08 692.205 1299.96 696.695 C 1300.68 694.525 1300.76 694.548 1302.1 692.66 C 1305.37 691.452 1309 692.793 1312.55 693.615 C 1314.9 690.321 1317.5 686.951 1319.93 683.69 C 1323.69 682.479 1325.68 682.282 1329.63 681.718 L 1324.78 670.712 C 1324.25 664.497 1324.13 663.315 1328.47 658.817 z"/>
<path transform="translate(0,0)" fill="rgb(18,73,42)" d="M 1366.78 675.376 L 1367.73 673.289 C 1388 698.736 1384.89 713.803 1359 732.277 C 1352.4 736.99 1344.92 741.119 1339.06 746.629 C 1331.73 753.942 1335.15 767.46 1328.94 775.547 C 1323.3 783.311 1305.85 786.185 1300.6 792.831 C 1290.23 806.439 1286.36 838.485 1262.98 834.836 C 1248.03 832.504 1231.63 813.473 1222.47 801.753 C 1218.03 796.069 1218.24 788.361 1223.18 783.076 C 1223.3 789.455 1228.91 794.769 1232.52 798.952 C 1249.05 818.086 1272.37 838.316 1284.93 802.763 C 1286.89 797.229 1293.43 784.771 1297.43 780.628 C 1303.67 774.16 1317.38 773.035 1323.32 765.46 C 1328.98 757.796 1326.78 744.002 1334.28 736.689 C 1351.69 721.915 1393.5 703.889 1366.78 675.376 z"/>
<path transform="translate(0,0)" fill="rgb(18,73,42)" d="M 1158.7 726.385 C 1157.18 733.124 1153.93 754.523 1164.38 757.103 C 1171.47 758.855 1177.93 748.828 1185.18 752.642 C 1189.96 759.357 1191.74 775.428 1199.11 776.034 C 1212.91 775.69 1215.67 762.565 1216.49 751.629 C 1216.92 745.988 1212.61 734.547 1212.82 733.415 C 1214.05 726.821 1230.19 698.028 1239.55 703.994 C 1241.4 713.628 1214.14 726.2 1234.36 741.696 C 1246.22 750.782 1258.96 739.526 1264.12 747.399 C 1263.03 753.629 1250.97 752.565 1246.69 754.31 C 1241.69 756.345 1228.38 780.549 1226.06 782.097 L 1225.81 782.037 C 1228.57 771.819 1231.7 768.996 1238.28 760.728 C 1231.25 754.038 1225.59 747.905 1223.64 737.972 C 1223.13 735.384 1223.22 735.158 1222.09 732.943 L 1220.59 734.019 C 1217.49 741.679 1222.67 747.063 1225.44 755.367 C 1223.91 759.816 1222.32 764.246 1220.67 768.653 C 1217.05 778.229 1209.56 793.095 1196 786.915 C 1188.18 783.354 1185.23 773.497 1182.47 765.88 C 1179.35 767.472 1176.63 768.929 1173.14 769.474 C 1168 770.226 1162.79 768.788 1158.77 765.51 C 1146.38 755.371 1149.66 737.671 1158.7 726.385 z"/>
<path transform="translate(0,0)" fill="rgb(18,73,42)" d="M 1292.36 688.476 C 1296.67 691.561 1297.08 692.205 1299.96 696.695 C 1300.21 698.736 1298.47 705.044 1297.42 706.868 C 1291.18 717.741 1273.66 707.24 1271.5 698.479 C 1273.93 697.381 1304.36 709.338 1292.36 688.476 z"/>
<path transform="translate(0,0)" fill="rgb(18,73,42)" d="M 1328.47 658.817 L 1329.24 660.625 L 1330.73 664.082 C 1333.88 671.428 1340.77 673.874 1344.12 683.259 L 1343.09 684.803 C 1339.35 685.514 1333.02 683.283 1329.63 681.718 L 1324.78 670.712 C 1324.25 664.497 1324.13 663.315 1328.47 658.817 z"/>
<path transform="translate(0,0)" fill="rgb(79,114,46)" d="M 1356.31 662.218 C 1360.32 665.925 1364.02 669.259 1367.73 673.289 L 1366.78 675.376 C 1362.99 673.687 1356.64 666.705 1356.31 662.218 z"/>
<path transform="translate(0,0)" fill="rgb(87,131,48)" d="M 1055.46 1430.91 C 1063.17 1429.17 1071.49 1424.48 1079.64 1422.02 C 1099.5 1416.03 1111.16 1433.79 1126.7 1439.04 C 1148.69 1446.47 1173.44 1434.72 1196.14 1447.2 C 1204.77 1456.33 1203.08 1467.1 1194.3 1476.33 C 1188.64 1482.29 1175.29 1484.58 1167.45 1485.5 C 1159.5 1486.34 1148.4 1484.48 1141.3 1487.42 C 1131.69 1491.4 1125.06 1500.41 1113.36 1498.61 C 1106.53 1497.54 1095.35 1492.75 1090.01 1493.24 C 1077.07 1494.54 1066.38 1501.52 1053.08 1502.47 C 1037.4 1503.58 1023.7 1499.03 1007.97 1497.25 C 988.8 1495.09 942.57 1503.2 945.102 1471.7 C 945.422 1467.71 948.487 1462.95 951.68 1460.51 C 960.696 1453.4 973.054 1455.62 985.855 1448.35 C 998.361 1441.24 1004.29 1429.43 1014.14 1424.83 C 1026.29 1419.15 1043.9 1426.57 1055.46 1430.91 z"/>
<path transform="translate(0,0)" fill="rgb(18,73,42)" d="M 1196.14 1447.2 C 1204.77 1456.33 1203.08 1467.1 1194.3 1476.33 C 1188.64 1482.29 1175.29 1484.58 1167.45 1485.5 C 1159.5 1486.34 1148.4 1484.48 1141.3 1487.42 C 1131.69 1491.4 1125.06 1500.41 1113.36 1498.61 C 1106.53 1497.54 1095.35 1492.75 1090.01 1493.24 C 1077.07 1494.54 1066.38 1501.52 1053.08 1502.47 C 1037.4 1503.58 1023.7 1499.03 1007.97 1497.25 C 988.8 1495.09 942.57 1503.2 945.102 1471.7 C 945.422 1467.71 948.487 1462.95 951.68 1460.51 C 951.334 1461.57 950.359 1464.61 950.383 1465.57 C 951.012 1490.84 986.23 1483.71 1002.41 1485.13 C 1019.27 1486.76 1035.39 1492.05 1052.48 1490.9 C 1065.26 1490.04 1076.93 1482.38 1089.5 1481.82 C 1097.81 1481.45 1106.75 1486.34 1115.51 1486.91 C 1126.4 1487.61 1130.07 1479.47 1139.38 1475.72 C 1156.1 1471.26 1175.67 1478.28 1190.67 1464.9 C 1196.15 1460.01 1196.01 1454.11 1196.14 1447.2 z"/>
<path transform="translate(0,0)" fill="rgb(87,131,48)" d="M 615.582 1201.02 C 623.174 1190.21 635.262 1192.13 644.198 1200.15 C 650.869 1205.7 653.121 1210.66 658.752 1216.57 C 672.229 1221.53 696.25 1219.72 704.346 1230.18 C 712.663 1238.53 714.919 1246.53 721.114 1254.02 C 725.536 1256.94 728.339 1258.66 732.322 1262.23 C 751.696 1280.83 736.2 1296.92 746.774 1311.87 C 747.072 1312.26 747.36 1312.66 747.636 1313.07 C 753.79 1322.02 750.428 1331.7 748.436 1342.11 C 755.822 1356.99 763.604 1372.32 759.881 1389.46 C 757.504 1400.4 748.878 1398.66 740.973 1395.11 C 733.02 1391.54 729.801 1383.44 723.37 1378.03 C 719.282 1374.6 713.27 1372.47 708.593 1369.86 C 691.154 1361.24 692.935 1351.2 687.407 1335.31 C 682.878 1330.81 675.778 1326.98 670.243 1323.62 C 651.854 1313.78 655.847 1286.54 647.447 1273.04 C 633.558 1250.73 592.54 1234.7 615.582 1201.02 z"/>
<path transform="translate(0,0)" fill="rgb(18,73,42)" d="M 615.582 1201.02 C 613.792 1215.64 611.563 1218.31 621.912 1231.68 C 629.866 1241.96 642.576 1250.08 649.812 1261.04 C 658.567 1274.3 658.97 1292.62 666.457 1306.39 C 670.779 1314.34 683.64 1316.64 689.678 1323.29 C 696.759 1331.08 695.617 1342.91 700.981 1351.08 C 706.991 1359.9 718.652 1361.77 727.043 1367.54 C 734.605 1372.73 737.754 1384.43 747.65 1385.79 C 753.321 1386.58 755.784 1379.14 755.566 1374.61 C 754.846 1359.65 745.775 1347.45 741.976 1333.55 C 741.42 1331.48 744.946 1321.59 745.889 1318.76 L 746.774 1311.87 C 747.072 1312.26 747.36 1312.66 747.636 1313.07 C 753.79 1322.02 750.428 1331.7 748.436 1342.11 C 755.822 1356.99 763.604 1372.32 759.881 1389.46 C 757.504 1400.4 748.878 1398.66 740.973 1395.11 C 733.02 1391.54 729.801 1383.44 723.37 1378.03 C 719.282 1374.6 713.27 1372.47 708.593 1369.86 C 691.154 1361.24 692.935 1351.2 687.407 1335.31 C 682.878 1330.81 675.778 1326.98 670.243 1323.62 C 651.854 1313.78 655.847 1286.54 647.447 1273.04 C 633.558 1250.73 592.54 1234.7 615.582 1201.02 z"/>
<path transform="translate(0,0)" fill="rgb(18,73,42)" d="M 732.322 1262.23 C 751.696 1280.83 736.2 1296.92 746.774 1311.87 L 745.889 1318.76 C 744.964 1309.99 738.834 1309.72 736.919 1300.2 C 734.775 1289.55 739.538 1277.43 734.362 1268.12 C 733.177 1265.99 732.645 1264.67 732.322 1262.23 z"/>
<path transform="translate(0,0)" fill="rgb(10,26,10)" d="M 704.346 1230.18 C 712.663 1238.53 714.919 1246.53 721.114 1254.02 L 719.971 1253.94 C 714.782 1250.12 705.295 1235.79 704.346 1230.18 z"/>
<path transform="translate(0,0)" fill="rgb(10,46,18)" d="M 644.198 1200.15 C 650.869 1205.7 653.121 1210.66 658.752 1216.57 C 654.211 1216.36 644.833 1204.57 644.198 1200.15 z"/>
<path transform="translate(0,0)" fill="rgb(87,131,48)" d="M 1191.6 1270.08 C 1198.39 1263.09 1207.89 1258.08 1216.48 1265.32 C 1223 1270.69 1224.54 1275.62 1226 1284.01 C 1231.24 1286.36 1243.36 1292.74 1247.43 1296.45 C 1260.2 1306.44 1262.96 1320.32 1251.84 1332.97 C 1246.05 1339.56 1239.29 1341.86 1232.81 1346.9 C 1233.82 1384.29 1227.76 1371.12 1206.53 1391.86 C 1204.3 1403.27 1201.77 1416.27 1191.39 1423.56 C 1186.52 1427.01 1180.42 1428.23 1174.59 1426.92 C 1172.06 1426.35 1169.07 1425.22 1166.6 1424.3 C 1137.2 1441.84 1090.7 1418.26 1113.6 1395.84 C 1122.32 1391.33 1121.28 1382.27 1128.99 1374.85 C 1135.34 1368.59 1144.81 1365.13 1150.26 1358.01 C 1156.17 1350.29 1156.09 1337.85 1163.36 1331.1 C 1166.74 1327.95 1173.95 1324.94 1177.97 1323.11 C 1179.25 1306.3 1179.43 1282.62 1191.6 1270.08 z"/>
<path transform="translate(0,0)" fill="rgb(18,73,42)" d="M 1247.43 1296.45 C 1260.2 1306.44 1262.96 1320.32 1251.84 1332.97 C 1246.05 1339.56 1239.29 1341.86 1232.81 1346.9 C 1233.82 1384.29 1227.76 1371.12 1206.53 1391.86 C 1204.3 1403.27 1201.77 1416.27 1191.39 1423.56 C 1186.52 1427.01 1180.42 1428.23 1174.59 1426.92 C 1172.06 1426.35 1169.07 1425.22 1166.6 1424.3 C 1137.2 1441.84 1090.7 1418.26 1113.6 1395.84 C 1112.79 1417.1 1131.05 1420.69 1148.92 1418.55 C 1155.09 1417.81 1160.31 1415.09 1165.92 1412.5 C 1171.97 1415.15 1177.79 1418.15 1184.32 1415.56 C 1195.95 1410.94 1196.22 1392.77 1202.16 1382.93 C 1207.51 1374.07 1219.6 1371.94 1224.89 1364.19 C 1229.2 1358.25 1223.11 1340.4 1228.97 1336.03 C 1246.15 1323.19 1259.87 1324.4 1247.43 1296.45 z"/>
<path transform="translate(0,0)" fill="rgb(18,73,42)" d="M 1191.6 1270.08 C 1188.82 1282.41 1183.46 1290.89 1184.07 1305.13 C 1184.3 1310.63 1183.94 1321.74 1177.97 1323.11 C 1179.25 1306.3 1179.43 1282.62 1191.6 1270.08 z"/>
<path transform="translate(0,0)" fill="rgb(10,46,18)" d="M 1216.48 1265.32 C 1223 1270.69 1224.54 1275.62 1226 1284.01 C 1221.19 1282.22 1220.24 1273.11 1217.02 1266.42 L 1216.48 1265.32 z"/>
<path transform="translate(0,0)" fill="rgb(87,131,48)" d="M 578.367 983.949 C 584.235 979.624 587.749 981.116 593.255 985.049 C 609.148 999.725 604.074 1015.52 613.889 1026.69 C 615.792 1027.53 615.472 1026.98 616.415 1028.32 C 630.785 1040.03 625.996 1046.33 633.826 1055.84 C 635.185 1056.31 635.673 1056.2 636.407 1057.03 C 643.461 1063.52 645.523 1071.64 648.869 1080.19 C 661.221 1111.75 655.838 1112.67 634.731 1132.98 C 639.951 1153.16 644.568 1166.51 626.862 1183.01 C 615.36 1193.72 599.615 1188.09 595.324 1173.78 C 593.702 1168.19 594.21 1151.72 591.214 1147.21 C 574.451 1121.99 569.762 1135.18 574.281 1101.6 C 570.49 1094.38 563.642 1082.59 563.753 1073.97 C 564.091 1047.76 570.698 1020.83 572.714 994.465 C 572.985 990.915 576.091 986.475 578.367 983.949 z"/>
<path transform="translate(0,0)" fill="rgb(18,73,42)" d="M 574.281 1101.6 C 570.49 1094.38 563.642 1082.59 563.753 1073.97 C 564.091 1047.76 570.698 1020.83 572.714 994.465 C 572.985 990.915 576.091 986.475 578.367 983.949 C 575.439 994.111 575.451 1007.14 574.3 1018.15 C 572.653 1033.9 566.881 1054.28 569.384 1069.76 C 571.553 1079.19 577.781 1087.41 579.342 1097 C 580.371 1103.33 576.259 1113.78 579.624 1119.11 C 585.276 1128.06 596.174 1130.73 598.44 1142.52 C 600.192 1151.63 600.193 1160.79 601.487 1170.04 C 608.837 1176.82 614.696 1180.14 623.247 1171.48 C 627.477 1167.19 632.445 1158.79 634.653 1153.12 C 633.924 1150.02 631.694 1139.58 630.451 1137.24 C 619.637 1116.87 653.837 1112.69 648.814 1095.49 C 645.603 1084.49 640.449 1067.67 636.407 1057.03 C 643.461 1063.52 645.523 1071.64 648.869 1080.19 C 661.221 1111.75 655.838 1112.67 634.731 1132.98 C 639.951 1153.16 644.568 1166.51 626.862 1183.01 C 615.36 1193.72 599.615 1188.09 595.324 1173.78 C 593.702 1168.19 594.21 1151.72 591.214 1147.21 C 574.451 1121.99 569.762 1135.18 574.281 1101.6 z"/>
<path transform="translate(0,0)" fill="rgb(18,73,42)" d="M 605.331 1020.42 C 603.31 1012.1 593.691 989.41 593.255 985.049 C 609.148 999.725 604.074 1015.52 613.889 1026.69 C 609.948 1024.82 608.662 1023.35 605.331 1020.42 z"/>
<path transform="translate(0,0)" fill="rgb(18,73,42)" d="M 616.415 1028.32 C 630.785 1040.03 625.996 1046.33 633.826 1055.84 C 622.465 1050.72 621.883 1039.2 616.415 1028.32 z"/>
<path transform="translate(0,0)" fill="rgb(87,131,48)" d="M 1399.84 1048.31 C 1403.53 1042.41 1408.88 1038.44 1415.51 1041.94 C 1431.1 1054.61 1422.57 1082.04 1417.66 1098.09 C 1427.59 1129.31 1422.28 1132.74 1417.54 1163 C 1416.09 1172.27 1432.26 1192.85 1422.27 1205.59 C 1416 1213.59 1399.32 1243.2 1389.37 1244.02 C 1341.11 1248.01 1378.84 1198.28 1375.88 1176.3 C 1371.7 1161.67 1334.47 1155.98 1355.15 1125.56 C 1355.94 1124.41 1356.77 1123.28 1357.63 1122.18 C 1359.51 1119.21 1363.94 1114.77 1366.33 1110.94 C 1372.23 1101.47 1376.43 1088.35 1384.37 1080.67 C 1394.19 1068.93 1391.04 1059.8 1399.84 1048.31 z"/>
<path transform="translate(0,0)" fill="rgb(18,73,42)" d="M 1415.51 1041.94 C 1431.1 1054.61 1422.57 1082.04 1417.66 1098.09 C 1427.59 1129.31 1422.28 1132.74 1417.54 1163 C 1416.09 1172.27 1432.26 1192.85 1422.27 1205.59 C 1416 1213.59 1399.32 1243.2 1389.37 1244.02 C 1341.11 1248.01 1378.84 1198.28 1375.88 1176.3 C 1371.7 1161.67 1334.47 1155.98 1355.15 1125.56 C 1355.94 1124.41 1356.77 1123.28 1357.63 1122.18 C 1357.27 1129.85 1353.99 1136.07 1358.21 1144.5 C 1361.97 1152 1368.67 1154.09 1375.84 1156.89 C 1391.99 1181.54 1371.28 1194.32 1369.49 1218.35 C 1368.83 1227.19 1377.31 1235.03 1385.64 1233.11 C 1389.48 1232.23 1394.4 1228.38 1396.55 1225.29 C 1403.98 1214.6 1414.04 1203.72 1418.79 1191.67 C 1421.27 1182.57 1410.88 1168.19 1411.02 1157.93 C 1411.18 1145.78 1416.39 1136.79 1417.29 1124.88 C 1418.18 1113.1 1412.63 1102.8 1412.3 1091.5 C 1412.09 1084.37 1417.03 1075 1417.94 1067.43 C 1418.95 1058.93 1416.38 1052.1 1415.67 1043.84 L 1415.51 1041.94 z"/>
<path transform="translate(0,0)" fill="rgb(10,46,18)" d="M 1399.84 1048.31 C 1397.24 1059.82 1395.28 1072.11 1386.24 1080.14 L 1384.37 1080.67 C 1394.19 1068.93 1391.04 1059.8 1399.84 1048.31 z"/>
<path transform="translate(0,0)" fill="rgb(87,131,48)" d="M 1044.66 1032.27 C 1056.53 1019.32 1067.14 1022.63 1077.47 1035.13 C 1079.93 1038.11 1084.97 1042.45 1086.55 1044.6 C 1102.89 1057.37 1098.33 1064.41 1107.1 1077 C 1110.83 1079.62 1126.44 1090.65 1128.41 1093.34 C 1136.22 1099.33 1140.86 1108.53 1140.39 1118.32 C 1139.48 1137.54 1116.9 1129.83 1105.82 1127.94 C 1098.05 1131.72 1090.87 1135.98 1082 1136.13 C 1062.38 1136.53 1032.29 1127.92 1031.74 1104.16 C 1031.58 1096.89 1036.14 1081.53 1041.33 1076.33 C 1032.19 1059.99 1031.41 1047.06 1044.66 1032.27 z"/>
<path transform="translate(0,0)" fill="rgb(18,73,42)" d="M 1041.33 1076.33 L 1043.62 1075.68 C 1033.83 1093.32 1033.28 1108.82 1053.75 1119.25 C 1063.86 1124.39 1077.63 1126.82 1088.48 1123.4 C 1094.42 1121.12 1099.44 1117.61 1106.13 1115.59 C 1114.19 1117.2 1124.76 1121.37 1130.69 1117.94 C 1134.81 1112.87 1133.91 1107.99 1133.83 1101.37 C 1132.26 1099.27 1129.17 1095.55 1128.41 1093.34 C 1136.22 1099.33 1140.86 1108.53 1140.39 1118.32 C 1139.48 1137.54 1116.9 1129.83 1105.82 1127.94 C 1098.05 1131.72 1090.87 1135.98 1082 1136.13 C 1062.38 1136.53 1032.29 1127.92 1031.74 1104.16 C 1031.58 1096.89 1036.14 1081.53 1041.33 1076.33 z"/>
<path transform="translate(0,0)" fill="rgb(18,73,42)" d="M 1044.66 1032.27 C 1043.91 1038.9 1039.48 1043.53 1039.75 1050.59 C 1040.11 1059.6 1048.49 1067.05 1043.62 1075.68 L 1041.33 1076.33 C 1032.19 1059.99 1031.41 1047.06 1044.66 1032.27 z"/>
<path transform="translate(0,0)" fill="rgb(10,46,18)" d="M 1086.55 1044.6 C 1102.89 1057.37 1098.33 1064.41 1107.1 1077 C 1101.57 1076.9 1095.19 1056.42 1091.95 1052 C 1090.14 1049.53 1087.95 1047.25 1086.55 1044.6 z"/>
<path transform="translate(0,0)" fill="rgb(87,131,48)" d="M 1464.48 1052.31 C 1467.85 1049.6 1470.27 1049.18 1474.37 1050.45 C 1485.45 1058.75 1484.98 1078.24 1484.76 1091.06 C 1484.61 1099.43 1481.25 1109.09 1481.13 1117.48 C 1480.97 1129.04 1484.79 1141.04 1485.06 1152.65 C 1485.37 1170.58 1475.89 1186.87 1468.9 1203.22 C 1464.79 1212.82 1453.13 1242.65 1437.47 1229.69 C 1428.39 1222.18 1437.93 1203.28 1437.42 1193.71 C 1437.03 1186.14 1432.18 1179.93 1433.11 1172.33 C 1434.33 1164.01 1440.63 1156.31 1440.55 1147.89 C 1440.44 1136.13 1427.54 1129.27 1428.7 1117.96 C 1429.7 1108.36 1435.86 1101.13 1441.78 1094.19 C 1442.03 1093.74 1444.18 1090.99 1444.38 1090.73 C 1455.16 1075.81 1453.92 1061.05 1464.48 1052.31 z"/>
<path transform="translate(0,0)" fill="rgb(18,73,42)" d="M 1474.37 1050.45 C 1485.45 1058.75 1484.98 1078.24 1484.76 1091.06 C 1484.61 1099.43 1481.25 1109.09 1481.13 1117.48 C 1480.97 1129.04 1484.79 1141.04 1485.06 1152.65 C 1485.37 1170.58 1475.89 1186.87 1468.9 1203.22 C 1464.79 1212.82 1453.13 1242.65 1437.47 1229.69 C 1428.39 1222.18 1437.93 1203.28 1437.42 1193.71 C 1437.03 1186.14 1432.18 1179.93 1433.11 1172.33 C 1434.33 1164.01 1440.63 1156.31 1440.55 1147.89 C 1440.44 1136.13 1427.54 1129.27 1428.7 1117.96 C 1429.7 1108.36 1435.86 1101.13 1441.78 1094.19 C 1441.34 1098.4 1437.86 1101.72 1436.45 1105.94 C 1429.69 1126.24 1452.95 1130.13 1444.92 1149.87 C 1442.88 1154.89 1440.54 1160.17 1438.41 1165.17 C 1439.86 1171.63 1443.07 1182.65 1443.02 1189.06 C 1442.96 1197.52 1435.83 1212.46 1441.87 1220.04 C 1444.68 1221.4 1444.57 1221.16 1447.7 1220.57 C 1454.29 1216.32 1455.8 1210.15 1458.84 1203.43 C 1468.88 1181.05 1484.18 1159.4 1477.89 1133.54 C 1470.78 1104.28 1486.39 1079.53 1474.37 1050.45 z"/>
<path transform="translate(0,0)" fill="rgb(10,46,18)" d="M 1464.48 1052.31 C 1461.38 1060.19 1451.84 1088.97 1444.38 1090.73 C 1455.16 1075.81 1453.92 1061.05 1464.48 1052.31 z"/>
<path transform="translate(0,0)" fill="rgb(87,131,48)" d="M 1239.86 596.882 C 1252.8 593.909 1286.8 608.571 1294.49 618.387 C 1310.89 632.285 1296.97 644.266 1313.24 659.749 C 1316.79 663.194 1320.56 666.659 1323.72 670.439 L 1324.78 670.712 L 1329.63 681.718 C 1325.68 682.282 1323.69 682.479 1319.93 683.69 L 1318.68 682.77 C 1288.65 684.599 1284.21 661.568 1277.98 638.5 C 1265.49 633.833 1242.04 621.213 1236.57 607.858 C 1235.18 604.447 1238.11 599.787 1239.86 596.882 z"/>
<path transform="translate(0,0)" fill="rgb(18,73,42)" d="M 1239.86 596.882 C 1248.93 611.138 1261.46 620.057 1277.71 624.285 C 1280.48 625.007 1285.41 625.912 1287.16 627.549 C 1275.22 650.318 1311.44 680.266 1317.76 667.989 C 1316.86 664.323 1314.61 662.989 1311.72 660.424 L 1313.24 659.749 C 1316.79 663.194 1320.56 666.659 1323.72 670.439 L 1324.78 670.712 L 1329.63 681.718 C 1325.68 682.282 1323.69 682.479 1319.93 683.69 L 1318.68 682.77 C 1288.65 684.599 1284.21 661.568 1277.98 638.5 C 1265.49 633.833 1242.04 621.213 1236.57 607.858 C 1235.18 604.447 1238.11 599.787 1239.86 596.882 z"/>
<path transform="translate(0,0)" fill="rgb(18,73,42)" d="M 1294.49 618.387 C 1310.89 632.285 1296.97 644.266 1313.24 659.749 L 1311.72 660.424 C 1292.55 642.662 1302.31 636.325 1294.49 618.387 z"/>
<path transform="translate(0,0)" fill="rgb(87,131,48)" d="M 1094.88 1313.14 C 1111.39 1296.92 1117.27 1301.97 1137.21 1297.2 C 1141.12 1296.27 1150.24 1289.55 1154.97 1288.25 C 1160.34 1286.77 1163.95 1287.7 1168.69 1290.25 C 1182.28 1302.63 1166.38 1312.2 1158.15 1322.13 C 1147.11 1335.45 1130.88 1361.08 1112.69 1341.42 C 1104.37 1332.42 1088.85 1326.71 1094.88 1313.14 z"/>
<path transform="translate(0,0)" fill="rgb(18,73,42)" d="M 1168.69 1290.25 C 1182.28 1302.63 1166.38 1312.2 1158.15 1322.13 C 1147.11 1335.45 1130.88 1361.08 1112.69 1341.42 C 1104.37 1332.42 1088.85 1326.71 1094.88 1313.14 C 1104.68 1318.58 1116.27 1334.86 1126.12 1336.7 C 1140.52 1333.8 1154.62 1309.09 1166.11 1299.23 C 1168.88 1296.85 1168.96 1293.65 1168.69 1290.25 z"/>
<path transform="translate(0,0)" fill="rgb(87,131,48)" d="M 657.684 1122.07 C 664.249 1114.53 672.556 1110.68 681.242 1117.21 C 685.87 1121.25 688.04 1125.16 690.801 1130.66 C 693.548 1134.88 700.591 1147.22 698.707 1151.96 C 693.307 1165.55 693.482 1181.89 689.152 1195.12 C 686.085 1204.49 674.494 1201.67 668.252 1197.37 C 658.432 1190.6 662.401 1178.38 660.123 1168.46 C 655.386 1151.52 646.382 1138.68 657.684 1122.07 z"/>
<path transform="translate(0,0)" fill="rgb(18,73,42)" d="M 657.684 1122.07 C 658.114 1140.56 660.504 1146.13 666.555 1163.35 C 669.478 1171.66 663.415 1186.91 678.985 1189.25 C 680.552 1188.78 683.532 1187.99 683.985 1185.85 C 686.98 1171.68 685.921 1159.4 692.2 1145.46 C 693.205 1143.23 690.408 1134.76 689.545 1132.66 L 690.801 1130.66 C 693.548 1134.88 700.591 1147.22 698.707 1151.96 C 693.307 1165.55 693.482 1181.89 689.152 1195.12 C 686.085 1204.49 674.494 1201.67 668.252 1197.37 C 658.432 1190.6 662.401 1178.38 660.123 1168.46 C 655.386 1151.52 646.382 1138.68 657.684 1122.07 z"/>
<path transform="translate(0,0)" fill="rgb(26,82,42)" d="M 681.242 1117.21 C 685.87 1121.25 688.04 1125.16 690.801 1130.66 L 689.545 1132.66 C 687.002 1130.25 682.138 1120.62 681.242 1117.21 z"/>
<path transform="translate(0,0)" fill="rgb(87,131,48)" d="M 1333.3 1188.96 C 1340.63 1182.74 1348.56 1177.69 1355.12 1169.74 C 1356.66 1167.88 1359.3 1168.8 1361.3 1169.28 C 1372.93 1181.01 1362.99 1198.41 1358.46 1211.43 C 1355.5 1219.89 1351.2 1230.92 1344.92 1236.92 C 1331.8 1249.43 1317.3 1236.37 1321.67 1220.78 C 1324.02 1212.37 1328.26 1194.92 1333.3 1188.96 z"/>
<path transform="translate(0,0)" fill="rgb(18,73,42)" d="M 1361.3 1169.28 C 1372.93 1181.01 1362.99 1198.41 1358.46 1211.43 C 1355.5 1219.89 1351.2 1230.92 1344.92 1236.92 C 1331.8 1249.43 1317.3 1236.37 1321.67 1220.78 C 1324.02 1212.37 1328.26 1194.92 1333.3 1188.96 C 1332.72 1198.65 1318.76 1228.68 1332.44 1231.16 C 1342.66 1227.2 1347.98 1213.51 1352.25 1204.07 C 1356.27 1195.2 1361.25 1184.87 1360.74 1175.04 C 1360.6 1172.43 1360.42 1171.86 1361.3 1169.28 z"/>
<path transform="translate(0,0)" fill="rgb(87,131,48)" d="M 1087.78 686.246 C 1093.05 684.043 1128.26 683.048 1133.6 686.023 C 1140.82 691.983 1145.77 702.545 1139.11 710.041 C 1123.45 727.661 1082.85 726.928 1082.79 696.767 C 1082.78 691.895 1084.77 689.509 1087.78 686.246 z"/>
<path transform="translate(0,0)" fill="rgb(18,73,42)" d="M 1133.6 686.023 C 1140.82 691.983 1145.77 702.545 1139.11 710.041 C 1123.45 727.661 1082.85 726.928 1082.79 696.767 C 1082.78 691.895 1084.77 689.509 1087.78 686.246 C 1090.17 692.714 1087.35 699.55 1093.64 704.621 C 1099.46 709.314 1108.5 710.133 1115.66 709.056 C 1129.19 707.02 1140.96 701.25 1133.6 686.023 z"/>
<path transform="translate(0,0)" fill="rgb(87,131,48)" d="M 1165.63 583.257 C 1177.94 580.456 1198.16 578.432 1209.3 585.26 C 1217.51 596.827 1211.98 596.531 1206.25 604.309 C 1204.19 607.954 1204.89 615.816 1203.72 619.1 C 1193.65 647.288 1164.42 604.897 1160.19 592.833 C 1162.17 588.28 1162.7 587.242 1165.63 583.257 z"/>
<path transform="translate(0,0)" fill="rgb(18,73,42)" d="M 1165.63 583.257 C 1168.32 591.676 1184.58 619.989 1194.44 614.947 C 1197.37 610.722 1197.67 609.558 1199.56 604.65 C 1197.75 600.093 1196.94 600.21 1197.64 596.157 C 1202.45 591.173 1204.74 591.624 1209.3 585.26 C 1217.51 596.827 1211.98 596.531 1206.25 604.309 C 1204.19 607.954 1204.89 615.816 1203.72 619.1 C 1193.65 647.288 1164.42 604.897 1160.19 592.833 C 1162.17 588.28 1162.7 587.242 1165.63 583.257 z"/>
<path transform="translate(0,0)" fill="rgb(18,73,42)" d="M 743.774 982.585 C 762.572 972.665 783.275 982.805 797.357 996.362 C 803.543 1001.02 807.703 1003.83 811.465 1010.83 C 810.749 1015.57 811.433 1016.08 808.931 1019.37 C 807.427 1019.87 801.965 1021.2 801.258 1021.7 C 774.92 1023.36 782.591 1014.3 765.475 1002.14 C 759.139 997.64 746.582 1004.34 739.89 994.071 C 739.078 988.979 740.932 986.617 743.774 982.585 z"/>
<path transform="translate(0,0)" fill="rgb(87,131,48)" d="M 743.774 982.585 C 762.572 972.665 783.275 982.805 797.357 996.362 C 798.669 1000.84 802.56 1001.51 803.877 1006.99 C 788.496 1021.4 769.876 984.219 750.854 987.399 C 749.199 987.675 747.042 987.277 745.407 986.631 L 743.774 982.585 z"/>
<path transform="translate(0,0)" fill="rgb(87,131,48)" d="M 885.321 1450.86 C 894.973 1444.42 915.305 1446.09 923.418 1453.41 C 930.209 1457.76 937.308 1468.08 931.689 1475.23 C 919.18 1491.13 869.37 1476.47 885.321 1450.86 z"/>
<path transform="translate(0,0)" fill="rgb(18,73,42)" d="M 885.321 1450.86 C 889.188 1471.15 930.357 1480.03 927.578 1459.99 C 925.675 1457.4 924.846 1456.38 923.418 1453.41 C 930.209 1457.76 937.308 1468.08 931.689 1475.23 C 919.18 1491.13 869.37 1476.47 885.321 1450.86 z"/>
<path transform="translate(0,0)" fill="rgb(18,73,42)" d="M 811.465 1010.83 C 818.521 1011.56 835.866 1013.61 840.415 1019.21 C 845.916 1023.18 848.834 1029.6 851.131 1030.54 C 854.539 1028.82 852.936 1028.85 856.033 1029.66 C 859.824 1033.26 862.354 1036.73 858.682 1041.52 C 851.56 1044.37 845.075 1039.89 837.951 1039.94 C 827.26 1040.01 805.647 1042.79 797.147 1034.06 C 795.475 1028.77 796.905 1026.56 800.63 1022.7 L 802.663 1022.59 L 801.258 1021.7 C 801.965 1021.2 807.427 1019.87 808.931 1019.37 C 811.433 1016.08 810.749 1015.57 811.465 1010.83 z"/>
<path transform="translate(0,0)" fill="rgb(87,131,48)" d="M 811.465 1010.83 C 818.521 1011.56 835.866 1013.61 840.415 1019.21 C 841.406 1021.45 842.512 1023.58 843.7 1025.72 L 843.077 1027.2 C 834.599 1030.03 805.734 1031.26 800.63 1022.7 L 802.663 1022.59 L 801.258 1021.7 C 801.965 1021.2 807.427 1019.87 808.931 1019.37 C 811.433 1016.08 810.749 1015.57 811.465 1010.83 z"/>
</g>

<!-- === LAYER 4: Shadow overlay for 3D depth === -->
<circle cx="1024" cy="1024" r="614" fill="url(#sphereShadow)"/>

<!-- === LAYER 5: Sphere outline === -->
<circle cx="1024" cy="1024" r="614" fill="none" stroke="#002850" stroke-opacity="0.2" stroke-width="3"/>
</svg>