<svg xmlns="http://www.w3.org/2000/svg" viewBox="0 0 900 450" width="900" height="450">
  <path d="M431.8,92.9L429.6,94.8L434.7,96.2L434.1,101.8L426.9,104.0L426.1,103.2L424.6,103.7L426.0,102.8L423.8,101.9L428.1,100.3L425.2,100.7L427.8,98.6L424.6,98.0L426.1,96.6L424.7,95.5L431.8,92.9Z" fill="#cccccc" stroke="#999999" stroke-width="0.3"/>
  <path d="M264.7,201.0L255.7,202.3L257.0,199.7L245.3,193.4L243.1,193.3L239.9,195.8L237.6,195.9L241.9,192.4L244.5,191.8L247.1,192.3L248.5,191.9L248.9,192.6L250.5,192.7L251.6,194.2L256.6,196.6L256.1,195.7L257.8,197.7L260.7,198.3L260.7,199.6L264.7,201.0Z" fill="#cccccc" stroke="#999999" stroke-width="0.3"/>
  <path d="M293.4,332.8L295.6,324.8L302.3,323.7L304.6,325.3L305.0,332.3L310.3,333.0L311.4,338.1L314.4,338.4L313.0,346.5L309.0,349.4L303.5,348.6L305.6,341.9L293.4,332.8Z" fill="#cccccc" stroke="#999999" stroke-width="0.3"/>
  <path d="M419.3,217.9L421.5,225.3L408.2,225.5L408.6,224.6L408.7,224.8L410.9,224.9L411.2,224.6L411.2,224.1L411.5,224.1L411.5,224.0L411.1,224.1L410.9,224.8L408.5,224.1L408.1,224.8L408.2,223.0L415.5,222.1L408.6,221.6L409.1,219.8L406.2,218.0L409.3,212.6L412.6,212.0L419.3,217.9Z" fill="#cccccc" stroke="#999999" stroke-width="0.3"/>
  <path d="M270.7,202.7L275.1,202.7L279.2,206.1L273.2,206.6L271.5,209.2L270.7,202.7Z" fill="#cccccc" stroke="#999999" stroke-width="0.3"/>
  <path d="M513.1,319.0L520.0,330.7L523.4,332.6L517.8,336.8L513.6,343.6L507.6,342.3L505.1,346.4L501.7,347.3L499.9,332.1L502.5,332.0L502.4,320.6L513.1,319.0Z" fill="#cccccc" stroke="#999999" stroke-width="0.3"/>
  <path d="M459.0,227.5L456.8,244.0L454.0,244.5L454.0,235.7L452.0,230.6L456.2,225.7L459.0,227.5Z" fill="#cccccc" stroke="#999999" stroke-width="0.3"/>
  <path d="M495.0,32.6L497.8,31.9L500.0,32.7L497.6,33.7L495.0,32.6Z M510.1,26.5L512.8,25.2L515.9,25.7L513.2,27.1L510.1,26.5Z M473.6,18.9L474.3,15.8L499.8,12.4L523.6,15.3L506.5,19.2L514.8,22.7L504.9,25.8L496.7,23.8L492.0,27.2L473.6,18.9Z M513.3,19.2L520.6,18.1L528.7,18.6L517.2,20.4L513.3,19.2Z M525.7,15.2L531.6,13.9L536.7,14.8L529.6,16.0L525.7,15.2Z" fill="#cccccc" stroke="#999999" stroke-width="0.3"/>
  <path d="M507.2,229.9L508.8,236.8L513.0,239.4L518.6,248.1L513.9,247.1L505.8,251.0L498.5,247.9L496.6,253.0L491.6,252.8L490.4,256.8L486.3,247.4L488.1,241.3L496.5,238.8L497.6,235.9L507.2,229.9Z" fill="#cccccc" stroke="#999999" stroke-width="0.3"/>
  <path d="M867.5,332.8L862.4,330.1L860.0,326.1L863.0,328.2L867.5,332.8Z" fill="#cccccc" stroke="#999999" stroke-width="0.3"/>
  <path d="M503.2,137.0L510.6,134.8L516.6,135.3L515.2,137.4L512.8,136.5L509.3,137.3L510.0,139.8L506.4,138.2L508.4,142.2L506.3,143.2L510.2,145.3L510.1,146.9L508.9,145.7L507.5,146.2L508.8,147.6L506.8,147.2L508.0,150.7L504.3,149.5L502.8,146.2L508.1,145.4L502.9,144.9L502.9,142.8L500.0,140.6L503.2,137.0Z" fill="#cccccc" stroke="#999999" stroke-width="0.3"/>
  <path d="M539.3,249.5L548.8,253.2L551.9,250.5L554.7,251.4L552.4,255.1L553.8,269.1L550.6,272.1L548.5,278.2L534.8,266.9L537.5,257.8L534.9,250.7L539.3,249.5Z" fill="#cccccc" stroke="#999999" stroke-width="0.3"/>
  <path d="M429.6,94.8L434.7,92.4L436.4,94.8L429.6,94.8Z M444.0,103.1L436.7,102.8L440.1,100.7L438.1,100.0L439.6,98.6L442.4,98.0L442.8,98.4L443.3,98.2L440.9,94.6L442.4,93.2L437.1,93.5L438.1,89.4L436.4,89.9L436.7,90.7L435.5,92.1L436.1,89.0L437.5,87.8L435.8,88.5L434.4,87.7L436.5,86.6L435.5,84.3L437.3,84.3L437.5,81.8L442.5,81.8L439.4,85.4L445.4,85.0L441.7,88.9L443.6,89.1L440.4,89.7L444.7,90.3L449.8,95.9L449.5,96.1L450.3,97.3L450.4,97.4L450.3,97.5L449.3,97.0L448.4,97.0L448.2,97.1L450.5,98.0L450.0,99.7L454.4,100.5L451.0,104.1L452.4,104.4L453.6,104.3L452.4,105.8L446.3,105.8L443.9,107.0L441.3,106.5L435.7,108.5L439.4,104.9L442.4,104.9L444.0,103.1Z" fill="#cccccc" stroke="#999999" stroke-width="0.3"/>
  <path d="M496.2,131.7L489.3,124.9L489.5,123.5L498.4,124.5L498.7,128.6L496.2,131.7Z" fill="#cccccc" stroke="#999999" stroke-width="0.3"/>
  <path d="M314.5,257.1L313.8,248.6L315.2,246.0L320.9,250.9L318.2,256.5L314.5,257.1Z M473.1,135.4L471.8,131.7L473.7,130.4L473.1,135.4Z M456.5,105.6L470.5,111.9L464.9,120.4L467.0,119.7L467.2,126.1L469.2,127.0L465.5,130.2L459.9,128.7L456.7,132.4L455.0,132.4L452.0,130.9L446.4,130.2L447.3,122.4L448.7,124.5L448.8,124.1L447.2,120.1L444.7,118.5L445.7,117.3L438.1,113.2L446.6,112.8L445.2,109.5L449.9,110.7L456.5,105.6Z M455.0,132.1L454.9,132.0L454.9,132.0L455.0,132.1Z" fill="#cccccc" stroke="#999999" stroke-width="0.3"/>
  <path d="M456.3,105.2L462.6,104.0L465.9,107.6L463.6,110.2L456.3,105.2Z" fill="#cccccc" stroke="#999999" stroke-width="0.3"/>
  <path d="M235.6,229.3L230.8,223.5L237.7,217.8L242.2,217.3L240.6,224.9L240.3,228.8L240.8,230.3L235.6,229.3Z" fill="#cccccc" stroke="#999999" stroke-width="0.3"/>
  <path d="M881.9,398.5L882.7,399.9L878.4,401.2L874.1,408.3L866.2,406.5L877.1,396.8L880.3,390.7L881.5,389.6L882.1,389.5L882.8,392.0L885.0,390.7L884.4,391.9L885.0,390.9L884.8,391.9L885.5,391.9L885.8,391.7L881.9,398.5Z M896.4,380.7L889.9,391.8L886.5,391.9L888.0,388.3L884.4,385.8L886.5,384.3L887.4,378.9L886.3,378.7L881.8,370.6L885.9,373.0L886.7,378.3L889.0,379.4L888.4,377.0L888.8,377.1L892.8,381.8L896.4,380.7Z" fill="#cccccc" stroke="#999999" stroke-width="0.3"/>
  <path d="M456.0,226.9L452.4,229.7L442.9,229.7L443.1,234.6L436.2,231.4L439.2,222.9L448.2,217.0L450.5,217.5L456.0,226.9Z" fill="#cccccc" stroke="#999999" stroke-width="0.3"/>
  <path d="M501.4,133.8L505.7,132.3L507.5,134.3L502.4,137.0L501.4,133.8Z" fill="#cccccc" stroke="#999999" stroke-width="0.3"/>
  <path d="M430.9,172.6L428.0,179.6L421.5,180.4L413.1,197.1L407.5,197.3L413.8,182.5L424.4,172.9L426.9,162.7L432.9,158.2L435.2,152.7L445.6,156.0L447.0,164.2L440.9,165.6L440.9,168.5L436.2,172.2L430.9,172.6Z" fill="#cccccc" stroke="#999999" stroke-width="0.3"/>
  <path d="M500.2,131.8L502.0,129.5L504.4,131.4L501.7,133.9L500.2,131.8Z" fill="#cccccc" stroke="#999999" stroke-width="0.3"/>
  <path d="M491.2,352.5L488.2,348.6L486.3,333.8L479.4,317.4L502.0,319.8L512.6,318.4L509.0,321.1L502.4,320.6L502.5,332.0L499.9,332.1L500.0,352.0L495.4,353.5L492.7,350.8L491.2,352.5Z" fill="#cccccc" stroke="#999999" stroke-width="0.3"/>
  <path d="M500.6,120.7L503.5,124.8L506.9,125.4L506.1,132.4L497.9,128.9L499.0,127.1L497.1,121.5L500.6,120.7Z" fill="#cccccc" stroke="#999999" stroke-width="0.3"/>
  <path d="M508.7,236.7L504.5,224.1L507.3,215.6L510.0,215.0L510.0,201.7L512.5,201.7L512.5,195.5L542.2,195.5L543.6,205.3L546.5,207.9L542.4,210.8L540.3,224.3L535.2,234.5L532.9,230.5L533.0,225.9L530.2,226.6L531.1,229.4L527.9,233.5L525.0,231.9L522.1,234.9L516.6,234.4L514.6,231.5L510.3,236.9L508.7,236.7Z" fill="#cccccc" stroke="#999999" stroke-width="0.3"/>
  <path d="M670.3,177.3L670.1,181.8L666.8,181.8L650.1,174.1L654.0,169.4L664.9,177.2L670.3,177.3Z" fill="#cccccc" stroke="#999999" stroke-width="0.3"/>
  <path d="M500.0,340.7L501.7,347.3L504.2,347.2L507.6,342.3L513.6,343.6L522.6,332.8L527.9,333.1L530.0,343.4L527.0,347.0L532.2,347.6L525.2,360.7L517.8,367.8L499.1,371.7L495.8,369.8L495.7,362.8L491.2,352.6L492.7,350.8L495.4,353.5L500.0,352.0L500.0,340.7Z M522.2,353.2L517.6,355.7L518.4,357.9L522.9,356.6L522.2,353.2Z" fill="#cccccc" stroke="#999999" stroke-width="0.3"/>
  <path d="M476.1,118.4L472.5,121.6L471.0,119.6L464.9,120.6L467.4,116.4L471.4,115.4L476.1,118.4Z" fill="#cccccc" stroke="#999999" stroke-width="0.3"/>
  <path d="M718.8,225.5L718.6,213.9L709.6,203.9L712.4,201.7L711.5,199.7L707.8,199.0L706.1,193.1L709.9,193.9L713.3,191.3L720.0,197.1L716.6,198.6L714.0,204.9L722.4,216.5L723.7,223.7L723.0,224.5L722.5,228.6L716.9,230.7L715.7,231.9L716.7,233.1L716.7,233.2L716.5,233.3L715.4,232.0L715.3,232.0L716.4,234.0L714.5,232.7L715.5,234.7L712.8,237.0L711.8,237.1L712.8,232.9L711.1,231.5L715.4,230.4L714.5,227.7L718.8,225.5Z" fill="#cccccc" stroke="#999999" stroke-width="0.3"/>
  <path d="M313.5,256.5L317.7,257.0L321.2,249.3L315.3,245.2L313.5,256.5Z" fill="#cccccc" stroke="#999999" stroke-width="0.3"/>
  <path d="M636.7,148.8L642.5,155.2L634.4,157.0L635.0,160.8L638.4,163.7L636.6,167.3L629.7,177.0L625.9,176.9L623.8,179.6L627.7,188.1L619.1,189.9L618.1,187.0L615.9,184.3L604.3,186.1L604.6,182.4L608.3,179.6L602.1,171.1L615.5,171.2L616.7,167.0L623.2,164.7L625.7,160.4L624.7,158.2L627.7,158.1L629.0,150.6L636.7,148.8Z" fill="#cccccc" stroke="#999999" stroke-width="0.3"/>
  <path d="M705.3,194.3L707.8,199.1L711.5,199.7L712.4,201.7L709.6,203.9L718.6,213.9L718.5,218.7L713.1,219.8L714.1,215.1L709.9,206.9L702.2,209.3L703.1,203.1L700.2,200.6L702.9,196.9L704.4,198.2L703.8,194.8L705.3,194.3Z" fill="#cccccc" stroke="#999999" stroke-width="0.3"/>
  <path d="M526.3,104.8L534.5,101.3L539.0,107.5L550.3,109.9L550.0,114.0L545.4,117.8L538.0,119.4L537.4,121.9L529.5,120.1L531.6,119.0L529.4,117.1L529.7,119.0L524.1,121.6L524.4,122.8L524.2,123.5L520.5,122.7L522.4,119.6L524.6,120.0L525.3,119.7L522.8,114.9L519.0,113.3L512.2,115.7L505.3,113.6L510.3,106.9L509.0,103.6L526.3,104.8Z" fill="#cccccc" stroke="#999999" stroke-width="0.3"/>
  <path d="M580.2,205.7L582.7,212.1L580.6,215.3L558.7,224.4L556.5,216.5L558.3,209.6L567.9,211.2L572.6,206.1L580.2,205.7Z" fill="#cccccc" stroke="#999999" stroke-width="0.3"/>
  <path d="M513.1,319.0L517.6,319.5L522.3,313.3L526.0,312.3L532.4,315.6L532.5,326.0L528.2,333.3L523.4,332.7L520.0,330.7L513.1,319.0Z" fill="#cccccc" stroke="#999999" stroke-width="0.3"/>
  <path d="M507.2,115.0L517.3,114.2L520.6,119.0L520.2,122.3L524.0,124.6L522.2,124.3L521.4,128.0L507.2,127.7L500.6,120.7L507.2,115.0Z" fill="#cccccc" stroke="#999999" stroke-width="0.3"/>
  <path d="M539.8,249.5L538.1,248.3L530.4,252.9L526.4,252.6L523.8,249.3L520.9,250.5L510.4,236.8L514.6,231.5L516.6,234.4L522.1,234.9L525.0,231.9L527.9,233.5L531.1,229.4L530.2,226.6L533.0,225.9L535.3,237.0L532.5,239.2L539.8,249.5Z" fill="#cccccc" stroke="#999999" stroke-width="0.3"/>
  <path d="M569.9,170.8L571.1,175.2L566.3,173.5L567.9,170.7L569.9,170.8Z" fill="#cccccc" stroke="#999999" stroke-width="0.3"/>
  <path d="M563.2,135.1L566.2,136.4L566.2,133.8L569.6,135.9L571.4,133.9L573.8,137.6L575.6,138.1L576.0,139.0L573.7,139.2L572.2,144.5L569.9,140.6L566.3,143.1L563.9,139.7L563.2,135.1Z M563.9,137.7L563.7,137.6L563.7,137.8L563.9,137.7Z" fill="#cccccc" stroke="#999999" stroke-width="0.3"/>
  <path d="M240.8,229.9L243.6,234.2L242.8,238.9L238.2,232.9L236.8,231.9L237.2,234.1L235.4,232.0L236.0,229.0L240.8,229.9Z" fill="#cccccc" stroke="#999999" stroke-width="0.3"/>
  <path d="M502.3,49.8L509.2,52.9L510.4,59.5L506.6,59.2L506.0,60.4L504.4,59.8L501.7,65.8L494.2,68.3L493.0,75.4L494.9,75.8L496.8,78.3L497.7,78.4L495.0,79.4L495.2,79.7L495.6,79.7L496.2,79.3L496.6,79.7L495.7,79.7L494.7,81.1L494.1,80.2L490.4,81.8L492.4,82.3L491.0,82.3L489.6,89.7L489.0,89.4L486.8,89.5L485.5,91.9L482.1,91.9L482.3,88.3L479.8,85.7L479.7,82.8L477.8,80.8L482.2,73.4L480.4,72.2L480.4,66.4L485.4,64.6L484.1,63.4L486.4,58.6L492.0,53.1L502.3,49.8Z" fill="#cccccc" stroke="#999999" stroke-width="0.3"/>
  <path d="M264.1,397.8L264.8,393.5L266.2,393.6L265.4,395.7L265.5,396.0L266.3,396.7L265.7,396.8L266.2,397.6L264.1,397.8Z M278.4,427.2L278.2,434.2L273.1,434.0L270.0,432.9L277.5,432.8L274.6,430.9L276.6,429.4L273.8,429.2L276.5,426.6L278.4,427.2Z M276.7,319.4L280.3,334.6L282.5,335.2L278.6,340.7L279.2,347.7L275.9,351.9L273.6,360.6L275.4,370.0L272.0,378.1L272.9,383.5L270.7,386.7L269.6,396.0L270.3,401.5L272.2,402.0L269.8,402.8L271.7,404.3L270.8,408.7L266.0,417.5L270.1,425.1L275.1,425.2L278.9,426.1L278.9,426.2L276.9,425.8L272.8,427.4L271.8,431.0L268.9,429.5L270.5,429.9L272.2,428.0L271.5,427.4L268.6,428.5L269.5,428.8L268.4,429.3L269.1,429.9L266.7,428.8L268.2,429.2L267.6,427.7L268.9,427.8L271.1,426.9L265.8,427.4L265.7,425.3L268.7,426.6L268.8,424.5L265.3,424.0L265.8,422.5L264.4,421.9L265.5,421.9L266.1,420.2L264.9,421.5L265.0,420.1L263.3,419.5L265.4,419.9L264.1,418.8L265.4,416.0L263.8,416.0L265.3,414.0L263.4,412.9L266.9,412.8L265.7,411.3L265.2,412.3L263.2,411.9L264.9,411.5L263.7,411.0L265.1,410.4L265.1,409.7L264.7,409.1L262.7,407.9L260.7,408.6L264.1,405.9L265.6,408.2L268.5,401.9L266.8,400.8L267.9,399.7L267.9,395.0L269.0,395.5L268.8,394.1L267.8,393.9L269.2,393.0L269.2,392.2L266.2,393.5L265.1,391.2L266.9,386.1L265.8,379.7L267.0,379.1L270.9,367.9L274.9,330.3L274.0,320.7L276.7,319.4Z" fill="#cccccc" stroke="#999999" stroke-width="0.3"/>
  <path d="M302.0,423.4L298.5,425.9L297.4,425.3L299.8,424.2L298.4,423.2L299.6,423.6L300.0,423.2L301.3,423.5L301.5,423.1L302.0,423.4Z M305.7,424.2L302.6,424.5L301.7,426.2L300.7,425.5L302.6,422.8L305.7,424.2Z" fill="#cccccc" stroke="#999999" stroke-width="0.3"/>
  <path d="M535.2,237.2L541.3,219.5L543.9,220.0L544.7,217.6L552.1,220.0L555.9,225.1L554.4,229.7L557.3,229.7L560.0,235.8L569.9,239.0L562.4,248.6L551.9,250.5L548.8,253.2L539.9,249.8L532.5,239.2L535.2,237.2Z" fill="#cccccc" stroke="#999999" stroke-width="0.3"/>
  <path d="M490.4,258.5L474.5,256.8L474.4,251.0L471.3,249.7L472.1,245.7L475.4,242.0L478.1,243.8L479.7,241.8L486.5,228.0L486.0,223.2L489.2,232.8L484.9,233.8L488.9,239.6L486.0,245.1L490.4,258.5Z" fill="#cccccc" stroke="#999999" stroke-width="0.3"/>
  <path d="M224.7,220.9L226.5,219.0L230.7,222.0L228.8,222.9L224.7,220.9Z" fill="#cccccc" stroke="#999999" stroke-width="0.3"/>
  <path d="M636.4,148.9L628.1,151.7L627.7,158.1L624.7,158.2L625.7,160.4L623.2,164.7L616.7,167.0L615.5,171.2L602.1,171.1L604.6,167.5L602.1,166.1L601.4,161.2L603.2,153.3L606.7,154.4L614.4,147.2L623.3,148.6L627.4,144.4L629.1,149.9L633.2,147.5L636.4,148.9Z" fill="#cccccc" stroke="#999999" stroke-width="0.3"/>
  <path d="M566.2,243.5L572.3,234.5L572.3,228.9L578.2,227.1L578.5,231.5L569.9,250.0L553.8,269.1L552.4,255.0L566.2,243.5Z" fill="#cccccc" stroke="#999999" stroke-width="0.3"/>
  <path d="M762.7,293.2L763.5,290.4L768.3,289.9L762.7,293.2Z" fill="#cccccc" stroke="#999999" stroke-width="0.3"/>
  <path d="M471.7,93.2L470.4,87.9L471.8,88.5L472.7,87.5L472.7,88.2L473.3,88.4L474.8,86.7L472.8,86.7L471.7,87.0L471.0,87.9L471.5,87.9L471.4,88.2L470.6,87.8L470.6,87.5L471.5,86.5L473.5,86.4L474.9,85.1L475.5,85.0L476.3,84.6L476.6,84.6L474.5,88.0L477.3,89.0L473.9,90.9L474.6,91.2L473.7,91.6L473.6,93.0L474.3,93.1L474.4,93.6L471.7,93.2Z M479.7,93.1L479.9,94.4L479.5,92.6L477.2,90.8L481.6,89.9L479.7,93.1Z" fill="#cccccc" stroke="#999999" stroke-width="0.3"/>
  <path d="M306.5,357.0L315.4,348.1L315.8,345.3L313.5,343.2L314.4,338.4L311.4,338.1L310.3,333.0L305.0,332.3L306.3,320.3L304.2,314.3L299.6,314.3L298.8,306.6L287.5,301.0L286.5,293.9L278.5,298.3L273.4,298.0L273.7,293.1L269.5,294.8L265.0,287.2L267.7,279.7L275.1,277.1L276.5,267.5L274.9,262.0L277.2,261.8L275.4,258.5L281.4,257.2L282.3,260.1L286.3,261.7L291.6,256.8L288.0,250.5L292.8,252.7L299.5,247.4L301.2,251.6L300.6,258.0L302.9,260.1L310.1,258.0L310.1,255.9L317.6,257.0L321.2,250.0L323.1,257.4L325.3,260.1L321.7,264.0L320.2,268.0L318.2,268.8L319.5,269.0L322.9,266.6L322.9,269.9L326.4,269.3L326.4,269.5L326.4,269.6L326.5,270.0L325.8,272.1L328.9,269.0L329.9,265.8L330.1,266.2L330.5,265.9L330.5,265.5L330.7,266.1L331.0,265.9L331.0,265.6L331.3,266.2L331.5,266.3L331.8,265.6L332.6,266.6L333.0,266.0L338.5,269.2L338.0,274.0L341.4,271.0L344.4,272.6L346.9,273.2L350.0,272.6L357.0,279.0L361.2,279.8L363.0,286.1L361.7,292.3L354.2,303.9L352.7,303.3L353.2,303.7L352.4,305.2L352.2,306.0L352.6,306.7L352.3,306.3L352.1,306.4L352.2,318.7L347.5,332.1L345.0,335.1L339.0,335.0L334.0,337.9L329.9,341.5L330.3,341.6L329.5,342.8L329.7,342.2L329.2,342.1L328.1,342.5L328.1,352.3L323.2,360.1L319.8,363.6L323.6,358.3L321.8,356.9L316.6,368.5L315.6,363.3L306.5,357.0Z M328.8,265.9L325.5,269.4L323.0,268.2L324.1,264.1L328.8,265.9Z" fill="#cccccc" stroke="#999999" stroke-width="0.3"/>
  <path d="M227.6,214.5L227.2,208.0L229.8,206.8L227.6,214.5Z" fill="#cccccc" stroke="#999999" stroke-width="0.3"/>
  <path d="M535.5,166.6L535.6,177.7L531.4,170.7L530.8,172.0L537.9,187.8L539.5,189.6L539.2,192.6L542.2,195.5L512.5,195.5L512.7,165.7L522.6,168.1L527.7,165.7L530.3,167.4L530.5,166.7L531.8,167.5L534.1,167.2L535.5,166.6Z M538.6,192.5L538.0,193.1L539.1,192.0L538.6,192.5Z M536.9,194.0L537.1,193.6L537.2,193.4L536.9,194.0Z M536.1,194.7L535.8,194.8L536.7,194.6L536.1,194.7Z" fill="#cccccc" stroke="#999999" stroke-width="0.3"/>
  <path d="M458.0,202.3L428.3,179.1L428.3,174.7L436.2,172.2L442.8,164.2L447.0,164.2L444.4,154.9L453.4,150.4L471.5,149.2L468.7,158.6L472.6,164.3L474.6,173.4L473.4,182.6L479.9,190.8L464.5,203.4L458.3,204.9L458.0,202.3Z" fill="#cccccc" stroke="#999999" stroke-width="0.3"/>
  <path d="M521.1,50.1L525.0,53.7L522.6,56.1L526.4,64.5L525.0,66.0L528.9,68.6L528.1,69.8L519.3,76.1L516.6,75.6L507.3,78.2L507.7,76.5L503.5,75.8L504.3,72.8L502.7,69.5L503.7,67.6L505.0,67.8L505.8,67.4L513.6,62.2L509.2,58.2L509.2,52.9L501.6,49.5L512.3,51.0L515.0,47.5L519.7,46.3L523.4,48.2L521.1,50.1Z" fill="#cccccc" stroke="#999999" stroke-width="0.3"/>
  <path d="M252.9,259.2L253.6,256.2L255.6,255.8L257.4,251.6L255.3,241.3L256.4,237.0L258.1,239.2L261.8,230.3L271.8,225.5L266.5,235.3L270.0,242.0L281.4,244.6L280.4,255.1L282.0,256.4L282.8,259.6L281.4,257.2L275.4,258.5L277.2,261.8L274.9,262.0L276.5,267.5L275.1,276.9L273.2,275.5L274.7,271.9L267.7,271.3L262.9,264.3L252.9,259.2Z" fill="#cccccc" stroke="#999999" stroke-width="0.3"/>
  <path d="M408.1,223.2L407.9,222.4L408.3,221.9L409.0,222.8L409.6,222.1L411.6,222.1L411.7,222.0L411.8,221.9L408.6,221.6L412.3,220.9L415.5,222.1L408.1,223.2Z" fill="#cccccc" stroke="#999999" stroke-width="0.3"/>
  <path d="M416.7,235.7L412.3,230.1L415.7,227.5L415.7,224.5L423.2,226.9L426.8,225.0L430.8,237.8L427.2,241.5L425.6,237.2L423.2,238.1L422.0,232.8L416.7,235.7Z" fill="#cccccc" stroke="#999999" stroke-width="0.3"/>
  <path d="M316.0,48.9L312.9,45.9L320.4,47.7L319.6,48.2L316.0,48.9Z M347.3,61.7L347.1,62.2L349.1,64.1L346.1,64.3L348.7,66.1L346.3,65.6L348.1,66.7L346.0,66.7L346.6,67.0L347.2,67.3L346.2,66.9L345.7,66.6L345.2,66.8L345.6,68.8L344.2,68.4L342.1,69.0L344.6,70.2L342.6,69.8L344.7,71.4L341.9,73.4L343.4,74.2L341.0,74.1L343.1,75.4L339.5,75.6L342.3,77.3L339.7,76.4L339.8,76.7L339.3,76.5L338.5,77.6L337.1,77.3L338.1,77.0L338.8,75.8L335.3,76.0L336.9,74.8L334.5,75.3L336.2,74.5L337.0,73.9L336.2,73.7L336.0,74.4L335.5,74.6L334.9,74.8L334.8,74.7L336.0,74.0L335.7,73.5L329.4,75.0L330.8,74.5L329.0,74.5L330.4,74.4L330.2,73.5L326.4,71.9L327.9,71.1L324.2,69.8L325.7,68.1L324.0,68.9L324.9,67.6L322.2,67.3L324.3,67.0L321.9,66.9L323.7,66.2L320.9,65.1L324.9,64.6L324.1,64.1L321.4,64.9L320.6,64.6L322.6,64.5L324.6,63.8L323.8,63.0L324.6,63.7L326.0,64.1L325.0,62.5L322.6,61.4L323.4,62.8L321.9,62.8L319.6,64.4L321.9,62.0L318.6,61.1L323.6,59.9L316.3,59.0L325.0,55.9L316.4,58.6L319.4,56.3L315.1,55.6L325.2,53.7L315.7,54.2L319.9,52.8L316.7,52.2L323.6,53.0L324.6,52.9L316.5,51.7L322.8,50.8L322.3,49.2L324.4,49.8L322.2,49.0L324.4,46.4L313.4,44.5L323.7,45.4L321.4,44.3L322.9,43.8L320.1,43.4L322.0,43.6L322.7,43.4L319.4,43.1L320.9,42.3L318.6,42.9L321.6,41.9L317.5,42.1L320.5,41.6L320.8,41.2L315.3,39.2L315.2,42.1L311.2,42.1L310.2,41.3L312.9,40.6L313.6,40.2L314.0,39.7L311.8,40.6L313.3,39.2L310.9,38.9L314.3,38.8L313.0,37.2L310.8,37.0L312.3,36.1L309.7,33.3L306.7,33.8L309.6,32.6L304.0,28.8L278.9,27.7L275.9,26.7L280.0,25.8L271.5,24.8L284.9,23.3L267.4,21.2L285.5,18.2L290.6,15.0L281.3,14.5L297.3,12.0L296.4,10.1L298.7,9.6L308.6,11.4L301.3,9.3L313.9,8.2L316.1,8.9L315.5,10.6L315.8,10.8L316.3,10.8L326.4,9.5L322.2,7.7L338.3,10.1L338.6,8.4L344.2,8.6L335.6,6.9L350.6,8.1L332.8,6.3L341.6,6.5L336.2,5.8L336.5,5.7L353.5,7.0L352.1,6.3L357.8,5.7L352.8,4.9L373.4,4.3L385.9,5.3L366.4,5.7L368.8,6.1L360.9,6.5L396.7,7.4L368.0,9.9L397.4,9.6L390.3,13.7L400.7,10.3L402.5,10.5L401.3,11.3L421.6,10.9L397.9,13.8L410.6,14.2L408.9,14.8L401.3,14.7L399.6,15.2L402.8,17.9L397.6,19.3L395.1,22.7L396.1,23.1L397.7,21.8L402.2,22.7L397.7,23.2L403.7,24.0L403.7,25.6L398.7,25.0L393.1,25.8L401.6,28.8L401.0,30.6L394.3,29.0L398.7,30.6L394.0,30.6L398.3,30.8L397.2,32.1L402.6,32.6L394.8,32.3L393.8,33.2L395.4,35.2L399.3,34.5L398.6,35.8L385.8,34.3L388.3,35.6L380.7,36.8L387.4,37.0L381.5,37.7L395.3,41.1L393.7,41.7L393.8,42.6L395.6,41.9L394.2,43.3L396.3,44.9L391.6,45.2L388.4,42.3L378.4,39.9L381.7,41.2L378.8,41.7L386.5,42.6L380.2,43.0L376.9,45.2L394.6,46.3L390.2,47.3L384.2,50.7L376.6,52.1L368.8,50.8L369.9,53.0L367.0,53.7L363.2,57.9L360.4,57.6L357.0,59.7L355.4,57.6L354.4,60.1L347.3,61.7Z" fill="#cccccc" stroke="#999999" stroke-width="0.3"/>
  <path d="M494.4,265.4L498.6,247.9L505.8,251.0L514.0,247.1L521.0,250.5L524.0,249.4L527.2,252.9L528.2,257.3L524.9,261.2L522.1,271.6L523.8,283.4L526.9,289.2L520.9,292.6L520.9,299.6L522.6,302.2L524.5,301.5L524.5,305.6L518.0,299.7L505.6,298.7L504.5,286.4L498.8,285.5L498.4,288.6L494.0,288.9L491.4,282.1L480.6,281.9L482.7,278.0L486.0,277.1L486.7,279.0L489.8,276.0L490.5,270.6L494.4,265.4Z" fill="#cccccc" stroke="#999999" stroke-width="0.3"/>
  <path d="M654.7,241.9L650.2,244.8L649.7,242.7L649.2,238.3L649.5,239.0L650.1,234.0L651.5,234.5L649.9,233.3L650.6,233.3L652.1,235.0L654.7,241.9Z" fill="#cccccc" stroke="#999999" stroke-width="0.3"/>
  <path d="M474.5,256.6L478.3,257.1L478.3,260.7L473.5,260.3L474.5,256.6Z" fill="#cccccc" stroke="#999999" stroke-width="0.3"/>
  <path d="M491.5,119.5L498.5,123.5L489.5,123.5L494.1,130.5L492.2,129.1L491.1,128.6L489.9,128.8L486.4,123.2L484.0,123.7L491.5,119.5Z" fill="#cccccc" stroke="#999999" stroke-width="0.3"/>
  <path d="M503.3,48.8L492.0,53.1L486.4,58.6L484.1,63.4L485.4,64.6L480.4,66.4L480.4,72.2L482.2,73.4L479.2,80.9L476.7,77.9L470.3,83.5L463.7,81.5L466.4,79.0L463.8,79.8L463.0,79.0L467.8,76.0L464.3,77.6L464.3,76.4L462.9,76.5L464.1,76.2L464.4,75.4L462.5,74.3L467.8,74.9L469.2,73.8L463.0,74.2L464.5,73.1L462.5,72.2L463.5,71.7L464.7,72.2L467.0,71.8L466.2,71.9L464.9,71.6L463.6,71.6L462.9,71.7L463.5,71.3L462.7,70.8L465.9,71.2L466.8,70.0L467.4,71.1L467.6,71.1L467.8,71.0L468.0,71.1L468.5,70.6L467.0,69.9L465.6,70.0L465.6,69.6L471.4,69.3L469.7,68.2L471.8,68.8L470.4,67.9L472.4,67.6L471.7,67.0L472.7,67.4L473.6,67.1L474.2,66.3L474.6,67.3L477.3,66.9L478.7,65.1L473.9,65.9L475.5,65.4L476.2,63.9L478.1,64.2L480.6,62.3L478.2,62.5L480.5,62.1L480.5,61.9L481.6,61.7L482.3,61.1L480.6,61.3L482.9,59.4L482.6,58.7L481.7,58.8L484.6,58.5L485.4,57.9L482.6,58.4L483.9,56.1L489.4,55.3L485.8,55.1L489.7,54.1L486.9,53.3L491.2,53.4L490.3,51.9L494.7,51.5L491.2,51.2L494.2,50.7L493.1,50.4L494.5,50.4L495.4,48.2L505.2,47.3L503.9,45.6L504.7,46.1L507.4,45.9L505.7,46.4L508.3,46.7L511.7,43.5L514.8,43.9L512.7,45.0L513.2,45.1L512.4,45.8L512.5,46.4L519.1,43.1L521.4,43.5L519.1,44.7L520.8,44.4L520.0,46.3L522.0,43.8L527.7,45.7L521.5,46.0L523.7,47.6L527.3,47.6L522.7,49.5L522.9,47.6L519.7,46.3L515.0,47.5L512.3,51.0L503.3,48.8Z M499.4,19.8L490.9,26.2L484.8,23.2L490.6,23.5L486.9,22.8L492.8,22.4L492.5,21.9L484.9,22.6L484.0,21.6L485.8,21.8L493.2,20.4L488.5,19.1L482.5,21.1L478.3,18.7L481.3,18.9L480.3,17.7L476.7,16.9L484.5,15.9L481.1,16.9L485.1,17.8L486.4,16.1L491.1,18.9L489.1,16.2L490.7,15.3L495.2,16.4L494.1,17.5L503.9,19.3L499.4,19.8Z M510.2,22.9L506.8,24.1L502.1,23.1L504.2,22.0L502.3,21.4L507.4,20.9L510.2,22.9Z M517.9,15.4L510.1,18.0L494.5,15.1L507.0,13.9L517.9,15.4Z" fill="#cccccc" stroke="#999999" stroke-width="0.3"/>
  <path d="M779.2,159.3L778.3,166.4L776.6,167.6L776.9,165.4L776.5,167.1L775.3,166.3L776.5,162.0L774.4,162.7L774.0,160.2L779.2,159.3Z M786.7,158.9L782.5,162.3L780.0,160.3L784.8,157.1L786.7,158.9Z M786.2,155.8L780.9,157.2L780.6,157.5L780.4,158.8L780.1,159.0L777.2,158.5L782.7,153.3L790.2,153.1L792.0,147.8L793.4,147.4L793.1,148.1L792.4,148.2L792.2,148.7L793.2,149.7L796.4,147.8L800.0,141.7L799.7,137.8L803.7,135.2L805.1,141.3L802.4,145.3L800.9,154.6L799.8,155.5L799.4,155.3L800.3,153.4L799.4,153.1L797.1,156.4L797.0,154.8L795.6,156.4L792.1,154.9L789.4,160.0L787.6,158.6L788.5,156.1L786.2,155.8Z M814.4,129.2L808.1,133.7L801.3,131.7L803.0,134.1L800.5,135.3L799.4,132.5L800.9,129.3L803.6,129.4L804.9,122.5L809.3,126.9L810.6,126.9L810.9,127.4L811.1,127.4L811.4,127.5L811.9,127.5L813.4,126.2L812.7,127.9L813.1,129.3L814.4,129.2Z" fill="#cccccc" stroke="#999999" stroke-width="0.3"/>
  <path d="M603.1,153.1L602.9,150.1L593.0,145.0L584.8,147.9L585.0,143.0L582.9,142.2L584.3,141.1L581.8,138.2L582.3,136.3L586.9,136.4L584.5,133.1L582.4,133.5L582.2,136.4L581.1,134.2L582.4,133.1L585.3,132.4L588.7,135.7L592.5,135.8L596.5,131.0L616.6,146.0L606.7,154.4L603.1,153.1Z" fill="#cccccc" stroke="#999999" stroke-width="0.3"/>
  <path d="M229.4,215.0L224.8,221.2L219.4,218.6L220.7,213.9L223.9,213.8L221.4,210.3L222.5,208.5L227.1,208.5L226.9,214.5L229.4,215.0Z" fill="#cccccc" stroke="#999999" stroke-width="0.3"/>
  <path d="M252.9,259.3L261.8,264.1L261.9,266.8L254.1,274.3L252.3,279.3L248.8,277.5L250.7,271.8L250.6,270.0L249.4,272.3L247.5,270.5L249.8,261.3L252.5,260.3L253.0,259.8L252.9,259.3Z" fill="#cccccc" stroke="#999999" stroke-width="0.3"/>
  <path d="M507.1,111.7L487.0,106.0L485.4,96.5L495.4,93.6L508.6,95.7L509.8,100.1L507.9,101.5L510.3,106.9L506.7,110.0L507.1,111.7Z" fill="#cccccc" stroke="#999999" stroke-width="0.3"/>
  <path d="M459.0,227.5L452.5,223.3L450.4,218.6L459.6,215.1L460.6,204.4L464.5,203.4L479.9,190.8L485.5,193.6L487.4,192.4L489.9,200.7L488.7,211.3L483.6,219.0L484.0,221.3L474.0,224.1L462.1,221.1L459.0,227.5Z" fill="#cccccc" stroke="#999999" stroke-width="0.3"/>
  <path d="M478.7,161.3L473.8,170.0L468.7,158.7L471.5,149.2L477.6,148.7L476.2,151.7L477.9,154.5L475.0,157.7L478.7,161.3Z" fill="#cccccc" stroke="#999999" stroke-width="0.3"/>
  <path d="M419.3,217.9L421.2,215.2L422.7,216.9L436.2,215.7L433.5,186.2L437.9,186.2L458.0,202.3L458.2,204.8L460.6,204.4L458.8,216.1L448.2,217.0L441.4,222.9L440.0,221.9L435.0,232.2L434.4,230.5L430.0,232.3L427.1,225.1L421.7,226.5L419.3,217.9Z" fill="#cccccc" stroke="#999999" stroke-width="0.3"/>
  <path d="M277.9,314.5L274.0,320.7L260.2,309.3L252.5,289.3L247.1,282.3L248.0,275.4L249.3,274.4L248.8,277.6L252.3,279.3L254.1,274.3L261.1,268.6L260.9,264.1L267.7,271.3L274.9,272.2L273.2,275.5L275.0,277.2L267.7,279.7L265.0,287.2L269.5,294.8L273.7,293.1L273.4,298.0L276.1,297.8L278.3,302.6L276.4,312.3L277.9,314.5Z" fill="#cccccc" stroke="#999999" stroke-width="0.3"/>
  <path d="M754.5,186.7L753.5,192.0L751.8,195.7L750.5,190.0L752.6,186.1L754.5,186.7Z" fill="#cccccc" stroke="#999999" stroke-width="0.3"/>
  <path d="M770.7,144.1L763.4,146.9L763.8,146.2L762.4,146.1L763.2,145.6L761.7,145.5L764.1,143.9L763.6,141.0L760.9,139.4L766.7,134.3L770.4,135.4L770.1,133.5L775.3,130.4L776.7,132.5L774.3,137.1L768.8,140.5L770.7,144.1Z" fill="#cccccc" stroke="#999999" stroke-width="0.3"/>
  <path d="M770.9,143.9L773.6,153.6L772.5,155.0L771.5,154.5L769.3,155.2L768.4,156.9L768.1,155.9L766.9,156.5L766.3,157.4L767.2,151.9L766.2,149.8L765.3,149.7L766.3,148.8L767.1,149.7L767.6,149.0L766.3,146.6L770.9,143.9Z" fill="#cccccc" stroke="#999999" stroke-width="0.3"/>
  <path d="M449.6,229.2L452.3,229.7L453.4,232.9L454.0,244.5L451.3,242.6L449.6,229.2Z" fill="#cccccc" stroke="#999999" stroke-width="0.3"/>
  <path d="M718.8,218.5L718.8,225.4L714.5,227.7L715.4,230.4L707.8,230.0L707.7,227.4L705.8,222.6L707.3,219.7L715.2,220.6L718.8,218.5Z" fill="#cccccc" stroke="#999999" stroke-width="0.3"/>
  <path d="M562.6,135.8L564.0,137.0L563.4,137.6L563.8,138.3L564.9,139.0L563.9,139.7L566.3,141.0L566.3,143.1L559.2,139.3L558.6,136.2L562.6,135.8Z M562.5,136.3L562.4,136.4L562.5,136.5L562.5,136.3Z M563.0,136.6L563.0,136.6L562.9,136.6L563.0,136.6Z" fill="#cccccc" stroke="#999999" stroke-width="0.3"/>
  <path d="M478.8,160.8L488.0,163.3L489.4,166.4L497.6,169.9L500.2,167.8L500.2,163.9L504.1,161.6L512.5,164.6L512.4,201.7L510.0,203.3L490.0,191.0L485.5,193.6L475.7,187.5L473.4,182.6L474.8,177.3L473.2,170.3L478.8,160.8Z" fill="#cccccc" stroke="#999999" stroke-width="0.3"/>
  <path d="M539.4,162.2L541.5,157.7L539.3,153.4L541.6,149.5L555.9,148.2L553.2,151.0L552.4,157.0L542.0,163.5L539.4,162.2Z" fill="#cccccc" stroke="#999999" stroke-width="0.3"/>
  <path d="M259.3,207.9L257.1,208.8L254.1,207.1L256.8,206.5L259.3,207.9Z" fill="#cccccc" stroke="#999999" stroke-width="0.3"/>
  <path d="M577.0,187.0L577.0,184.3L578.1,182.6L579.0,186.1L577.0,187.0Z" fill="#cccccc" stroke="#999999" stroke-width="0.3"/>
  <path d="M421.3,242.3L425.6,237.2L426.3,240.9L428.6,239.9L428.5,243.6L431.4,245.7L431.1,250.3L421.3,242.3Z" fill="#cccccc" stroke="#999999" stroke-width="0.3"/>
  <path d="M487.0,106.0L494.3,107.7L497.1,110.1L485.8,113.1L480.2,107.9L487.0,106.0Z" fill="#cccccc" stroke="#999999" stroke-width="0.3"/>
  <path d="M560.6,326.9L561.1,314.1L566.2,313.3L570.0,309.6L569.8,306.0L572.0,305.3L573.2,300.9L576.2,311.7L574.1,312.0L574.6,316.0L567.4,341.6L562.9,343.2L560.1,341.4L558.1,332.9L560.6,326.9Z" fill="#cccccc" stroke="#999999" stroke-width="0.3"/>
  <path d="M507.2,115.0L502.6,120.3L496.0,121.8L490.2,118.4L493.0,114.8L503.6,113.1L507.2,115.0Z" fill="#cccccc" stroke="#999999" stroke-width="0.3"/>
  <path d="M535.8,294.0L527.4,290.3L523.8,283.3L523.5,277.6L527.1,273.6L526.2,267.1L535.0,266.9L544.1,273.2L548.0,278.3L546.9,282.6L548.9,285.5L548.1,288.1L549.2,295.0L551.1,296.3L543.7,300.2L537.4,299.7L535.8,294.0Z" fill="#cccccc" stroke="#999999" stroke-width="0.3"/>
  <path d="M896.7,319.8L894.7,320.5L893.1,319.5L895.5,317.5L896.7,319.8Z" fill="#cccccc" stroke="#999999" stroke-width="0.3"/>
  <path d="M526.4,271.2L527.0,273.9L523.5,277.6L522.6,271.9L526.4,271.2Z" fill="#cccccc" stroke="#999999" stroke-width="0.3"/>
  <path d="M428.0,179.6L428.3,177.9L428.3,183.1L420.0,183.1L420.0,191.0L417.1,193.0L417.5,197.6L407.6,197.6L407.4,199.3L407.5,197.3L413.1,197.1L415.3,190.3L421.5,180.4L428.0,179.6Z" fill="#cccccc" stroke="#999999" stroke-width="0.3"/>
  <path d="M557.3,224.6L550.5,219.0L544.7,217.6L543.9,220.0L541.3,219.5L542.4,210.8L546.5,207.9L549.3,216.9L552.9,218.4L557.3,224.6Z" fill="#cccccc" stroke="#999999" stroke-width="0.3"/>
  <path d="M535.6,166.9L537.7,161.1L539.6,160.1L537.4,163.9L537.2,166.5L538.6,166.1L537.3,172.3L535.6,166.9Z" fill="#cccccc" stroke="#999999" stroke-width="0.3"/>
  <path d="M415.8,225.0L412.3,229.9L411.1,227.4L412.5,226.6L408.2,225.5L415.8,225.0Z" fill="#cccccc" stroke="#999999" stroke-width="0.3"/>
  <path d="M473.1,135.7L473.9,142.3L471.6,143.2L470.5,136.7L473.1,135.7Z M489.1,145.0L487.7,150.0L481.1,146.5L481.8,145.3L489.1,145.0Z M468.0,121.4L480.5,117.7L484.3,119.4L484.6,122.3L482.8,121.7L482.7,122.1L481.0,122.5L480.4,123.2L480.9,126.5L486.9,133.2L495.0,137.6L496.0,140.2L492.4,138.1L491.2,140.4L492.9,142.9L489.2,146.0L490.6,143.2L489.1,139.4L477.8,132.2L475.2,127.2L471.9,125.9L468.8,127.9L466.5,123.8L468.0,121.4Z M481.1,127.6L481.2,127.3L481.0,127.5L481.1,127.6Z M481.1,133.7L481.1,133.8L481.1,133.7L481.1,133.7Z" fill="#cccccc" stroke="#999999" stroke-width="0.3"/>
  <path d="M693.8,247.5L702.6,256.7L703.6,258.5L705.3,259.5L705.5,260.6L706.1,261.3L707.6,262.1L706.4,263.3L709.4,262.9L708.2,264.6L708.4,266.0L710.9,267.0L711.3,272.4L712.2,270.9L715.1,273.1L714.3,282.1L713.2,280.7L711.4,280.9L711.4,282.2L705.8,276.2L696.9,258.4L688.0,246.5L693.8,247.5Z M733.1,289.5L713.0,284.8L715.1,282.0L722.4,285.0L727.5,283.7L732.8,287.8L736.0,287.9L735.9,290.2L736.6,290.9L733.1,289.5Z M714.8,268.4L716.3,273.4L712.8,269.9L714.8,268.4Z M739.6,250.2L744.6,252.3L743.7,252.0L743.8,252.6L742.7,252.5L742.6,252.6L744.4,257.4L747.5,260.8L744.7,260.3L739.9,275.0L736.7,276.8L735.9,273.8L725.7,273.1L725.2,268.0L722.3,262.7L723.4,257.8L726.4,261.2L736.4,259.3L739.6,250.2Z M751.8,295.4L750.4,295.5L747.4,293.4L749.9,292.6L751.8,295.4Z M747.9,290.7L742.7,292.0L741.8,291.6L745.7,290.6L744.8,288.9L747.9,290.7Z M757.2,288.8L757.0,290.5L754.1,291.4L749.5,290.9L751.1,289.3L755.7,290.6L757.2,288.8Z M746.9,272.4L749.1,263.8L749.6,264.1L750.1,261.5L751.4,261.4L752.1,259.7L759.8,261.2L762.9,258.6L760.8,262.6L750.4,263.1L751.7,268.1L754.1,266.3L758.6,266.1L753.2,269.4L756.2,273.6L755.5,274.9L757.3,277.4L753.9,278.5L751.5,272.1L751.2,281.2L749.3,281.5L746.9,272.4Z M761.7,292.0L762.4,293.8L758.7,296.0L759.2,293.6L761.7,292.0Z M777.1,275.2L770.4,273.3L769.8,274.8L769.6,273.6L770.4,272.7L773.9,272.4L777.1,275.2Z M771.1,266.6L768.5,260.0L769.1,258.1L770.1,257.0L769.1,260.9L771.8,258.9L770.5,261.4L772.3,263.1L769.8,262.4L771.1,266.6Z M797.5,287.8L796.0,289.9L794.1,289.9L795.6,286.9L797.5,287.8Z M802.4,271.9L802.4,292.1L800.4,288.3L797.3,289.5L797.7,287.3L796.7,286.1L797.9,286.3L798.1,286.0L796.4,285.3L798.0,285.4L795.2,280.6L784.9,275.7L784.7,272.9L782.3,276.5L782.0,274.0L779.9,272.4L784.2,272.2L784.9,270.3L780.8,270.8L777.4,268.2L781.0,264.9L784.9,266.0L785.5,271.2L788.4,274.3L794.7,268.4L802.4,271.9Z" fill="#cccccc" stroke="#999999" stroke-width="0.3"/>
  <path d="M522.5,353.5L522.9,356.6L518.4,357.9L517.5,355.9L519.4,353.5L522.5,353.5Z" fill="#cccccc" stroke="#999999" stroke-width="0.3"/>
  <path d="M484.1,122.7L484.3,119.4L490.2,118.4L491.3,119.3L488.3,122.7L484.1,122.7Z" fill="#cccccc" stroke="#999999" stroke-width="0.3"/>
  <path d="M802.9,271.9L811.3,275.6L814.4,280.8L818.8,282.4L818.0,287.0L826.7,296.6L819.3,295.1L815.2,288.9L811.3,287.1L805.4,289.3L808.5,291.0L806.6,292.7L802.4,292.1L802.9,271.9Z M831.0,278.1L826.1,283.3L820.8,281.4L825.3,279.3L827.3,280.8L829.2,279.0L828.9,276.8L831.0,278.1Z" fill="#cccccc" stroke="#999999" stroke-width="0.3"/>
  <path d="M508.3,82.3L505.0,84.1L504.6,82.2L506.5,81.8L508.3,82.3Z M510.8,84.1L508.7,80.0L520.5,79.5L518.4,85.3L510.8,84.1Z" fill="#cccccc" stroke="#999999" stroke-width="0.3"/>
  <path d="M428.3,179.1L437.9,186.2L433.5,186.2L436.2,215.7L422.7,216.9L421.2,215.2L419.8,218.1L414.0,212.1L409.3,212.5L408.6,214.7L409.9,207.5L409.5,201.0L409.0,199.6L407.7,198.1L407.4,199.3L407.6,197.6L417.5,197.6L417.1,193.0L420.0,191.0L420.0,183.1L428.2,183.1L428.3,179.1Z" fill="#cccccc" stroke="#999999" stroke-width="0.3"/>
  <path d="M306.0,357.5L317.2,365.3L315.6,370.5L309.6,372.2L304.5,369.8L306.0,357.5Z" fill="#cccccc" stroke="#999999" stroke-width="0.3"/>
  <path d="M489.2,232.8L483.6,219.0L488.7,211.4L489.9,200.7L487.4,192.4L490.0,191.0L510.0,203.3L510.0,215.0L507.3,215.6L504.5,224.1L507.3,229.4L501.1,235.4L488.7,240.4L484.9,233.9L489.2,232.8Z" fill="#cccccc" stroke="#999999" stroke-width="0.3"/>
  <path d="M558.1,228.1L557.2,229.7L554.4,229.7L556.1,224.9L558.3,225.0L556.3,227.9L558.1,228.1Z" fill="#cccccc" stroke="#999999" stroke-width="0.3"/>
  <path d="M537.8,161.1L539.2,157.3L541.1,156.3L540.9,158.8L537.8,161.1Z" fill="#cccccc" stroke="#999999" stroke-width="0.3"/>
  <path d="M520.2,118.0L517.1,113.6L519.0,113.3L522.8,114.9L525.3,119.7L522.4,119.6L520.5,122.7L520.2,118.0Z" fill="#cccccc" stroke="#999999" stroke-width="0.3"/>
  <path d="M554.5,135.2L550.1,128.7L562.9,131.3L566.7,135.7L554.5,135.2Z" fill="#cccccc" stroke="#999999" stroke-width="0.3"/>
  <path d="M667.8,111.3L664.3,113.7L663.7,117.8L657.6,117.3L656.3,123.8L649.6,124.4L652.0,129.9L650.6,132.8L635.4,129.5L633.8,132.2L628.1,131.1L621.2,137.8L616.8,136.1L615.3,130.4L612.3,128.1L605.1,128.9L596.4,122.4L589.9,124.2L589.9,135.6L585.3,132.4L581.1,134.2L581.8,131.3L578.2,129.9L575.6,125.5L578.9,125.7L577.4,124.6L578.5,122.9L583.2,123.1L582.7,118.3L573.1,120.0L566.2,113.6L568.3,107.7L572.0,108.8L571.4,106.6L576.9,103.2L583.5,104.0L586.2,107.0L603.4,106.2L603.7,104.2L600.0,102.6L605.2,99.3L602.5,96.4L622.4,91.8L627.1,92.2L627.9,95.9L634.4,96.0L633.5,98.0L642.2,94.8L641.2,96.2L650.1,106.2L658.6,105.5L667.8,111.3Z M607.3,121.8L609.7,120.4L607.3,120.4L607.3,121.8Z" fill="#cccccc" stroke="#999999" stroke-width="0.3"/>
  <path d="M627.4,139.0L623.2,141.1L634.0,141.3L637.9,147.7L629.1,149.9L627.4,144.4L623.3,148.6L619.5,148.7L620.9,145.2L618.7,141.1L626.0,136.4L627.4,139.0Z" fill="#cccccc" stroke="#999999" stroke-width="0.3"/>
  <path d="M499.2,131.4L502.6,137.7L500.5,140.8L498.2,138.4L498.2,132.9L499.2,131.4Z" fill="#cccccc" stroke="#999999" stroke-width="0.3"/>
  <path d="M526.9,289.2L534.2,296.6L531.7,306.0L533.0,307.3L525.5,310.3L526.0,312.3L522.3,313.3L516.8,319.9L508.5,318.5L505.3,315.1L504.9,304.1L510.0,304.1L509.9,297.5L515.0,300.7L518.0,299.7L524.4,305.6L524.5,301.5L522.6,302.2L520.9,299.5L522.2,290.1L526.9,289.2Z" fill="#cccccc" stroke="#999999" stroke-width="0.3"/>
  <path d="M468.0,98.7L467.0,102.5L464.8,103.0L465.0,106.3L462.6,104.0L461.0,104.4L458.6,103.9L460.7,104.1L460.4,103.4L459.7,103.0L461.9,99.4L468.0,98.7Z" fill="#cccccc" stroke="#999999" stroke-width="0.3"/>
  <path d="M627.1,138.9L626.1,136.5L623.4,137.2L621.3,141.1L618.6,141.3L620.9,145.2L619.5,148.4L616.3,147.8L616.6,145.9L596.5,131.0L592.6,135.7L589.9,135.6L589.9,124.2L596.4,122.4L605.1,128.9L612.3,128.1L615.3,130.4L616.8,136.1L621.2,137.8L627.6,132.5L625.4,134.9L632.9,137.1L627.1,138.9Z M626.5,136.6L626.6,136.7L626.6,136.8L626.5,136.6Z" fill="#cccccc" stroke="#999999" stroke-width="0.3"/>
  <path d="M498.4,133.9L496.1,130.5L497.4,128.6L500.9,130.7L498.4,133.9Z" fill="#cccccc" stroke="#999999" stroke-width="0.3"/>
  <path d="M424.3,237.6L421.3,242.3L416.7,235.7L421.9,232.8L424.3,237.6Z" fill="#cccccc" stroke="#999999" stroke-width="0.3"/>
  <path d="M509.0,103.9L507.9,101.5L509.8,100.1L508.7,96.4L514.4,95.7L516.5,91.0L520.3,89.5L527.2,91.2L526.9,93.8L531.8,97.9L528.4,98.7L529.4,102.1L526.4,104.8L509.0,103.9Z" fill="#cccccc" stroke="#999999" stroke-width="0.3"/>
  <path d="M492.4,113.0L491.2,117.9L486.4,119.9L473.8,117.1L482.5,116.5L481.9,114.5L487.5,111.7L492.4,113.0Z" fill="#cccccc" stroke="#999999" stroke-width="0.3"/>
  <path d="M510.0,297.7L510.0,304.1L504.9,304.1L505.0,314.0L508.5,318.5L479.4,317.3L481.3,305.5L484.6,298.3L480.7,282.7L491.3,282.1L494.0,288.9L498.4,288.6L498.8,285.5L504.5,286.4L505.6,298.7L510.0,297.7Z" fill="#cccccc" stroke="#999999" stroke-width="0.3"/>
  <path d="M749.2,231.3L746.9,233.0L743.0,237.9L748.8,228.3L749.2,231.3Z M753.0,222.1L752.8,225.8L750.8,221.9L753.0,222.1Z M757.5,229.9L757.9,233.2L758.3,235.1L757.6,235.8L756.0,233.2L757.5,229.9Z M757.9,228.5L756.9,230.3L755.6,230.8L754.9,231.4L754.7,226.9L757.9,228.5Z M755.7,207.4L756.3,210.8L753.5,216.1L754.3,219.8L755.6,220.6L756.7,219.3L759.8,221.0L758.8,221.6L759.4,223.2L760.5,223.3L760.1,224.9L756.3,220.5L756.5,222.9L754.3,220.4L751.7,221.0L752.3,218.3L750.2,217.8L749.4,213.5L749.7,212.9L749.8,213.4L750.3,214.0L750.9,213.9L751.4,206.4L755.7,207.4Z M766.4,241.4L765.5,244.3L764.6,241.0L764.2,241.3L763.4,246.5L760.5,244.5L759.3,239.6L754.7,241.9L758.5,236.7L759.2,239.1L763.8,235.8L763.6,233.3L766.4,241.4Z M763.2,231.7L762.0,232.3L760.8,228.0L761.6,228.7L762.5,228.5L762.5,230.4L763.2,231.7Z M764.3,229.5L762.5,228.8L762.6,227.3L760.7,224.8L763.2,225.0L764.3,229.5Z" fill="#cccccc" stroke="#999999" stroke-width="0.3"/>
  <path d="M300.5,238.1L297.0,243.3L297.6,249.7L292.8,252.7L288.0,250.5L291.6,256.8L286.1,261.8L280.4,255.1L281.4,244.6L270.0,242.0L266.5,235.3L268.8,229.3L270.1,227.6L271.6,227.0L269.7,233.3L271.9,235.4L271.0,230.2L275.5,228.3L275.0,225.9L279.7,231.2L287.3,232.6L290.9,231.2L289.4,231.2L289.3,230.7L295.4,230.5L292.7,231.1L292.5,232.4L293.6,232.1L294.5,233.9L298.0,234.7L295.9,237.1L296.8,237.7L299.5,237.0L300.5,238.1Z" fill="#cccccc" stroke="#999999" stroke-width="0.3"/>
  <path d="M673.9,176.5L679.1,177.1L680.2,180.3L672.1,180.2L673.9,176.5Z" fill="#cccccc" stroke="#999999" stroke-width="0.3"/>
  <path d="M590.9,184.3L591.0,186.3L587.8,193.6L581.4,192.6L578.9,189.0L584.7,189.1L586.1,188.4L590.2,182.9L590.9,184.3Z M590.7,185.2L590.6,185.6L590.9,185.3L590.7,185.2Z" fill="#cccccc" stroke="#999999" stroke-width="0.3"/>
  <path d="M314.9,245.7L313.7,256.5L308.3,257.5L305.2,248.8L307.6,245.1L314.9,245.7Z" fill="#cccccc" stroke="#999999" stroke-width="0.3"/>
  <path d="M242.6,234.4L244.4,235.8L246.7,236.5L252.6,234.1L257.1,239.2L255.2,241.3L253.9,238.8L255.7,238.6L252.4,235.5L251.1,236.0L248.8,238.3L250.0,240.7L247.8,241.4L247.4,239.2L244.5,237.9L243.0,238.0L242.8,238.9L242.6,234.4Z" fill="#cccccc" stroke="#999999" stroke-width="0.3"/>
  <path d="M530.3,346.0L528.2,333.4L532.5,326.0L532.4,315.6L526.0,313.5L525.5,310.3L533.0,307.3L535.9,308.4L535.6,313.1L538.2,317.0L539.8,310.0L536.4,305.1L535.9,301.7L536.5,299.7L543.7,300.2L551.3,296.3L551.5,311.9L536.4,324.6L538.7,338.6L532.1,343.2L532.2,347.1L530.3,346.0Z M536.7,301.0L536.7,301.4L536.9,301.2L536.7,301.0Z M536.5,300.9L536.5,301.3L536.6,301.1L536.5,300.9Z" fill="#cccccc" stroke="#999999" stroke-width="0.3"/>
  <path d="M270.6,202.8L270.6,207.8L263.8,206.6L269.1,206.3L266.5,202.2L270.6,202.8Z" fill="#cccccc" stroke="#999999" stroke-width="0.3"/>
  <path d="M276.2,318.1L278.3,302.6L276.1,297.8L286.5,293.8L287.5,301.0L298.8,306.6L299.6,314.3L304.1,314.3L306.3,320.4L304.6,326.4L302.3,323.6L295.6,324.8L293.4,332.8L290.2,332.1L289.2,334.8L284.4,331.4L280.6,334.8L276.2,318.1Z" fill="#cccccc" stroke="#999999" stroke-width="0.3"/>
  <path d="M516.5,91.1L514.4,95.7L509.1,96.5L502.6,89.8L512.2,88.6L516.5,91.1Z" fill="#cccccc" stroke="#999999" stroke-width="0.3"/>
  <path d="M741.7,109.2L738.9,115.1L746.2,114.9L749.7,118.9L743.5,119.3L734.0,124.9L729.9,123.9L728.5,126.0L729.8,128.2L726.0,131.1L712.4,134.7L690.9,131.2L688.5,126.4L677.2,123.6L675.9,115.9L669.3,112.1L680.9,105.9L693.4,109.4L697.2,102.0L705.2,104.4L708.2,108.0L716.6,107.6L721.3,110.7L726.8,111.3L735.7,107.8L741.7,109.2Z" fill="#cccccc" stroke="#999999" stroke-width="0.3"/>
  <path d="M449.6,229.2L453.0,244.9L445.0,249.0L442.2,248.0L442.9,229.7L449.6,229.2Z" fill="#cccccc" stroke="#999999" stroke-width="0.3"/>
  <path d="M537.2,166.5L537.7,163.0L538.9,163.3L538.6,166.1L537.2,166.5Z" fill="#cccccc" stroke="#999999" stroke-width="0.3"/>
  <path d="M413.0,57.9L416.2,61.9L412.7,64.4L411.9,64.3L412.0,64.2L411.7,64.2L411.6,64.0L411.5,64.0L411.3,63.9L408.0,65.8L405.7,65.9L403.2,67.0L393.3,65.8L396.2,63.2L389.8,62.4L395.8,60.7L388.7,60.5L394.1,59.2L392.6,57.5L396.7,58.9L395.6,59.7L397.3,61.6L399.0,58.7L404.8,60.1L404.3,58.4L413.0,57.9Z" fill="#cccccc" stroke="#999999" stroke-width="0.3"/>
  <path d="M644.9,153.7L649.0,162.1L646.0,162.8L646.9,166.6L652.5,170.0L650.1,174.3L656.9,178.5L669.9,182.0L671.5,176.6L672.7,180.6L679.7,180.6L678.9,177.4L690.2,172.6L693.4,176.9L692.8,179.7L687.8,181.2L685.3,189.8L683.3,189.1L682.2,195.7L680.6,190.2L679.0,192.6L677.8,190.5L681.2,186.4L674.5,185.3L674.1,182.4L670.9,181.2L670.2,183.6L672.5,185.3L670.1,187.3L671.8,188.4L672.7,196.7L671.7,194.9L670.6,196.9L670.5,195.0L669.8,194.2L666.1,201.7L650.7,215.1L649.6,231.8L647.3,234.4L648.4,234.9L648.6,235.4L643.8,238.7L633.6,213.9L632.3,194.7L626.9,199.5L622.4,194.6L625.4,193.8L626.3,192.1L624.0,193.2L621.1,191.0L622.1,189.7L620.8,190.6L620.4,190.5L621.9,188.3L627.7,188.0L623.8,179.6L625.9,176.9L629.7,177.0L638.4,163.7L635.0,160.8L634.8,156.3L639.4,156.7L644.9,153.7Z" fill="#cccccc" stroke="#999999" stroke-width="0.3"/>
  <path d="M535.8,294.0L535.9,301.7L536.4,305.1L539.8,310.0L538.2,317.0L535.6,313.1L536.3,309.0L531.7,306.0L534.2,296.6L532.3,292.9L535.8,294.0Z" fill="#cccccc" stroke="#999999" stroke-width="0.3"/>
  <path d="M496.6,253.0L494.4,265.4L490.5,270.6L489.8,276.0L486.7,279.0L486.0,277.1L480.0,279.4L477.8,276.0L479.8,275.1L478.9,271.0L481.6,269.5L485.2,271.5L486.1,269.0L484.6,264.4L486.2,261.0L482.9,259.9L483.2,257.1L490.2,258.7L491.5,252.9L496.6,253.0Z" fill="#cccccc" stroke="#999999" stroke-width="0.3"/>
  <path d="M529.9,344.4L529.9,348.6L527.9,348.2L527.8,344.2L529.9,344.4Z" fill="#cccccc" stroke="#999999" stroke-width="0.3"/>
  <path d="M650.5,132.9L640.8,138.6L637.1,138.1L634.6,141.3L623.1,140.4L632.9,137.1L625.4,134.9L628.5,131.0L633.8,132.2L635.4,129.5L650.5,132.9Z M629.4,140.0L629.2,139.8L629.2,139.8L629.4,140.0Z M627.6,140.0L627.5,139.2L627.4,139.4L627.6,140.0Z M626.7,140.1L626.5,140.4L626.8,140.2L626.7,140.1Z" fill="#cccccc" stroke="#999999" stroke-width="0.3"/>
  <path d="M483.2,257.3L482.9,259.9L486.2,261.0L484.6,264.4L486.0,269.7L485.2,271.5L481.6,269.5L478.9,271.0L479.8,275.1L477.8,276.0L474.0,271.1L471.7,265.6L472.5,266.5L473.4,262.7L473.7,263.5L475.1,263.2L474.0,260.6L478.3,260.7L478.4,256.7L483.2,257.3Z" fill="#cccccc" stroke="#999999" stroke-width="0.3"/>
  <path d="M456.8,244.0L460.3,222.0L463.8,220.7L474.0,224.1L484.0,221.3L486.7,226.0L478.4,243.8L475.4,242.0L471.3,249.2L466.8,248.8L465.3,250.5L463.2,245.5L456.8,244.0Z" fill="#cccccc" stroke="#999999" stroke-width="0.3"/>
  <path d="M445.6,129.3L458.1,133.6L451.8,137.1L449.2,141.2L450.6,143.6L444.7,149.8L436.0,152.0L431.5,148.4L432.6,142.7L431.1,140.6L434.5,134.8L427.8,133.8L427.0,129.9L430.8,127.9L445.6,129.3Z" fill="#cccccc" stroke="#999999" stroke-width="0.3"/>
  <path d="M518.4,85.3L520.5,89.2L519.0,90.6L502.4,89.3L506.2,84.6L509.2,87.0L512.7,83.6L518.4,85.3Z" fill="#cccccc" stroke="#999999" stroke-width="0.3"/>
  <path d="M430.1,232.3L434.4,230.5L443.3,234.3L441.8,243.3L443.1,247.8L436.7,247.6L431.1,250.2L431.4,245.7L428.5,243.6L429.4,237.6L430.8,237.8L430.1,232.3Z" fill="#cccccc" stroke="#999999" stroke-width="0.3"/>
  <path d="M680.9,199.5L687.8,181.2L692.8,179.7L694.7,175.8L696.7,178.2L696.7,183.5L693.8,189.5L697.2,188.9L697.9,195.0L702.9,196.7L700.2,200.7L695.1,202.3L693.4,206.2L697.3,213.0L695.4,216.9L699.1,227.1L696.4,232.8L697.2,227.5L694.4,212.4L692.2,209.6L688.5,215.0L687.5,213.4L686.4,214.3L686.7,213.8L686.8,212.5L685.6,214.2L686.2,207.7L683.7,203.8L684.6,204.1L684.8,203.9L685.0,203.6L684.4,202.0L680.9,199.5Z" fill="#cccccc" stroke="#999999" stroke-width="0.3"/>
  <path d="M226.6,218.9L231.0,214.3L237.5,214.2L242.2,217.3L237.7,217.8L232.4,223.5L230.5,220.6L226.6,218.9Z" fill="#cccccc" stroke="#999999" stroke-width="0.3"/>
  <path d="M527.1,271.1L522.1,271.3L523.4,268.5L526.2,267.1L527.1,271.1Z" fill="#cccccc" stroke="#999999" stroke-width="0.3"/>
  <path d="M738.4,250.4L741.9,242.0L742.0,243.3L744.3,243.8L743.7,245.6L748.2,247.2L745.3,248.6L746.4,250.3L739.6,250.2L736.4,259.3L726.4,261.2L724.1,258.8L724.1,257.3L724.8,258.5L725.8,258.2L726.7,259.3L727.0,258.9L727.9,259.5L728.1,259.5L728.4,259.7L728.5,259.6L728.6,255.4L732.5,254.0L734.9,249.5L736.6,251.3L737.5,248.5L738.4,250.4Z M705.5,244.5L708.6,248.9L710.7,259.5L704.7,256.4L701.8,251.7L700.4,243.0L702.8,246.3L705.5,244.5Z" fill="#cccccc" stroke="#999999" stroke-width="0.3"/>
  <path d="M506.3,111.5L505.2,113.7L496.7,115.5L492.1,113.7L498.6,109.9L506.3,111.5Z" fill="#cccccc" stroke="#999999" stroke-width="0.3"/>
  <path d="M707.1,227.0L704.5,224.4L702.1,224.5L702.5,221.9L699.9,222.5L700.1,226.0L697.9,233.4L701.1,241.5L705.2,244.4L702.8,246.3L702.7,244.4L695.5,237.3L699.1,227.1L695.4,216.9L697.3,213.0L693.4,206.2L695.1,202.3L700.9,200.5L701.2,203.2L703.1,203.1L702.3,209.3L708.5,206.6L712.0,209.7L713.8,218.6L707.3,219.8L705.8,221.8L707.1,227.0Z" fill="#cccccc" stroke="#999999" stroke-width="0.3"/>
  <path d="M534.8,266.9L523.9,268.1L524.9,261.2L528.2,257.3L527.4,252.4L535.0,250.7L537.5,257.8L534.8,266.9Z" fill="#cccccc" stroke="#999999" stroke-width="0.3"/>
  <path d="M539.0,162.4L542.0,163.5L546.9,160.2L548.2,163.7L542.4,166.1L545.0,169.1L540.0,173.2L537.4,172.7L539.0,162.4Z" fill="#cccccc" stroke="#999999" stroke-width="0.3"/>
  <path d="M680.6,190.2L680.8,199.4L679.8,194.2L678.7,192.7L677.4,193.7L676.5,190.5L675.6,191.0L676.4,194.9L673.0,196.6L671.8,188.4L670.1,187.3L672.5,185.3L670.2,183.6L671.0,181.2L674.1,182.4L674.5,185.3L681.2,186.4L677.8,190.2L679.0,192.6L680.6,190.2Z" fill="#cccccc" stroke="#999999" stroke-width="0.3"/>
  <path d="M431.1,140.6L431.5,148.5L427.5,148.9L428.1,142.5L426.3,143.3L428.4,133.3L434.5,134.8L431.1,140.6Z" fill="#cccccc" stroke="#999999" stroke-width="0.3"/>
  <path d="M308.7,257.8L302.9,260.1L300.6,258.0L300.8,250.2L296.5,245.3L299.9,237.2L303.8,240.9L303.3,244.0L304.2,242.4L307.1,244.9L304.8,250.9L308.7,257.8Z" fill="#cccccc" stroke="#999999" stroke-width="0.3"/>
  <path d="M520.0,133.5L507.3,135.5L506.0,127.3L521.4,128.0L518.6,132.0L520.0,133.5Z" fill="#cccccc" stroke="#999999" stroke-width="0.3"/>
  <path d="M556.7,134.7L562.0,140.8L560.0,141.6L561.9,148.5L541.6,149.5L540.3,152.6L540.1,149.2L532.0,152.0L526.7,149.3L524.2,151.7L518.5,150.0L520.8,148.9L518.2,149.1L518.1,145.9L515.6,145.0L517.9,144.5L517.3,141.0L515.2,141.2L516.8,138.4L522.6,138.5L524.8,137.4L522.9,135.8L528.1,136.3L533.3,133.4L545.8,136.8L556.7,134.7Z M520.1,133.7L522.5,136.5L518.8,136.6L515.4,139.5L517.1,137.8L515.1,137.6L515.8,134.1L520.1,133.7Z" fill="#cccccc" stroke="#999999" stroke-width="0.3"/>
  <path d="M561.9,148.5L563.3,152.1L565.8,152.7L563.5,158.4L568.5,163.3L571.4,170.9L568.0,170.6L566.3,173.5L561.7,173.2L547.9,164.1L546.9,160.2L552.4,157.0L553.2,151.0L556.8,147.9L561.9,148.5Z" fill="#cccccc" stroke="#999999" stroke-width="0.3"/>
  <path d="M589.7,186.4L599.5,194.8L594.6,200.9L594.5,204.9L587.6,211.0L582.7,212.1L579.9,204.8L587.4,201.7L588.6,189.4L589.7,186.4Z" fill="#cccccc" stroke="#999999" stroke-width="0.3"/>
  <path id="country_USA" d="M28.3,67.3L25.8,68.4L25.5,67.9L23.9,67.2L22.9,66.8L22.3,66.9L21.4,67.3L20.4,66.7L20.8,65.8L21.1,66.4L22.7,66.5L24.2,66.1L24.8,66.8L27.0,67.3L28.3,67.3Z M69.2,85.4L67.6,85.3L65.0,87.7L63.0,85.8L65.9,86.1L65.2,84.4L67.1,84.7L67.4,84.3L66.8,83.8L69.2,85.4Z M97.5,47.6L97.5,76.6L102.3,76.5L106.3,81.0L109.1,78.9L111.9,78.5L116.5,82.5L120.4,88.2L124.8,89.7L124.1,93.4L122.7,93.6L123.8,92.1L122.4,92.7L123.5,92.2L122.5,89.7L120.2,90.4L120.1,91.5L119.6,91.3L120.1,89.5L121.1,89.4L121.3,89.3L118.0,86.6L116.1,86.3L117.2,84.2L114.9,83.6L115.6,82.2L113.1,82.6L111.6,79.2L112.3,83.1L107.4,80.5L109.9,82.6L108.3,83.1L100.4,79.0L102.8,78.2L101.2,77.4L89.4,77.5L88.4,75.4L80.7,73.6L78.2,75.1L80.2,76.2L79.0,76.7L78.9,77.7L70.1,79.8L72.5,78.3L70.3,78.4L71.5,75.3L77.4,74.9L74.8,74.0L76.4,72.9L67.3,76.7L68.6,77.4L64.3,80.2L66.8,81.1L53.9,88.6L53.9,90.0L53.8,89.4L53.4,89.4L46.8,92.0L45.9,91.2L41.6,93.7L45.5,90.3L49.4,90.7L56.5,85.4L58.0,80.2L54.5,81.9L55.0,81.0L53.6,80.1L52.8,82.6L49.1,80.5L45.7,82.1L44.6,81.8L46.1,80.3L43.9,76.7L45.3,75.4L39.8,78.1L36.4,75.9L41.1,74.8L34.5,72.6L38.5,70.1L38.9,67.6L47.4,66.5L46.2,63.9L48.0,62.9L34.5,63.4L32.6,61.5L34.9,61.3L31.5,60.8L29.7,60.0L39.3,57.1L40.8,58.7L47.5,58.4L45.3,58.1L43.8,56.0L45.9,57.5L49.4,57.7L32.9,51.7L58.8,42.2L61.1,43.0L59.5,43.7L60.1,44.2L92.8,46.3L96.5,47.6L97.5,47.6Z M143.0,111.9L212.1,110.6L221.1,114.7L229.1,113.9L243.6,123.1L244.6,128.6L242.1,133.3L243.3,134.5L252.5,131.0L253.1,128.4L257.9,128.4L262.7,124.1L272.8,123.4L276.9,116.5L280.5,117.7L280.5,121.9L282.6,124.7L278.0,125.5L274.3,128.3L272.4,132.5L275.2,134.5L271.5,134.0L265.3,137.2L265.3,136.1L265.1,135.6L264.3,138.1L265.1,138.3L264.8,140.3L264.9,139.5L264.8,139.5L264.0,141.0L263.8,141.5L264.0,141.7L262.6,143.0L261.1,140.9L261.5,140.3L262.1,140.0L262.4,139.6L261.5,140.2L261.0,140.7L262.4,144.5L262.1,144.6L262.2,144.9L260.5,147.6L260.5,147.7L260.3,147.9L260.1,148.6L260.2,147.2L260.9,146.0L259.1,143.3L260.4,140.9L258.4,142.0L259.2,145.7L257.4,144.4L256.9,144.6L257.5,143.7L257.5,143.2L257.3,143.1L256.6,144.8L259.4,146.2L258.7,146.9L257.7,145.6L257.3,145.3L257.2,145.3L259.3,148.8L257.8,148.0L256.8,148.0L260.0,149.2L261.2,152.7L260.1,149.8L260.5,151.8L258.2,151.1L260.7,152.6L257.4,153.5L259.1,155.5L256.4,155.9L247.9,162.8L246.3,166.4L246.8,166.8L246.2,168.0L246.8,171.0L248.7,175.4L248.9,177.3L248.5,175.0L247.9,174.4L248.2,175.7L249.0,177.9L249.1,178.4L249.5,179.4L249.5,179.4L249.5,179.4L249.2,179.2L249.9,180.6L249.0,185.6L247.2,185.8L247.7,185.4L246.6,183.7L245.9,183.3L245.7,183.4L243.9,177.2L242.9,177.4L243.4,174.1L240.8,170.9L239.5,170.4L236.6,171.7L236.0,169.7L232.4,168.8L231.7,169.7L231.2,169.8L231.6,169.4L231.4,169.2L231.0,169.8L230.9,169.9L229.9,170.0L230.6,169.8L229.9,168.4L224.0,170.0L226.6,170.5L225.6,171.8L227.5,173.3L226.5,174.0L225.5,172.3L224.5,172.0L224.4,173.5L223.9,172.7L222.8,173.4L220.4,171.2L212.4,171.5L205.6,178.5L206.6,183.6L202.2,181.8L196.5,171.4L191.5,173.7L184.0,165.3L172.3,166.6L163.2,162.3L157.2,162.8L156.2,160.3L153.7,158.2L148.4,156.5L143.7,147.3L146.4,145.8L142.4,145.9L140.7,143.0L138.6,130.9L139.9,120.3L140.5,120.7L140.3,120.5L141.2,120.3L141.5,120.6L141.9,120.6L142.0,120.5L141.8,120.6L141.4,120.2L140.8,120.1L139.8,120.2L139.8,119.0L140.0,119.8L140.1,119.9L140.6,118.9L139.8,118.7L139.7,118.2L140.5,118.1L138.2,113.6L143.1,114.4L142.1,116.8L143.5,115.0L143.8,115.6L143.3,115.7L143.5,116.1L143.3,116.0L143.6,117.1L143.0,116.7L142.3,117.5L142.8,117.8L142.9,117.4L143.2,117.7L144.2,116.8L144.5,114.7L143.7,114.4L143.9,113.0L143.0,111.9Z" fill="#cccccc" stroke="#999999" stroke-width="0.3">
    <animate attributeName="fill" values="#cccccc;#e63946;#e63946;#cccccc;#cccccc" keyTimes="0.0000;0.0100;0.0800;0.1000;1.0000" dur="20s" repeatCount="indefinite" calcMode="linear"/>
    <animate attributeName="stroke" values="#999999;#c1121f;#c1121f;#999999;#999999" keyTimes="0.0000;0.0100;0.0800;0.1000;1.0000" dur="20s" repeatCount="indefinite" calcMode="linear"/>
  </path>
  <path id="country_CHN" d="M727.4,202.8L724.3,207.3L721.7,206.3L723.1,202.0L727.4,202.8Z M649.1,162.2L645.1,153.6L636.0,148.6L637.9,147.7L637.1,144.4L634.5,144.0L634.1,141.4L637.1,138.1L640.8,138.6L650.6,133.3L652.0,129.9L649.6,124.4L656.3,123.8L657.6,117.3L663.7,117.8L664.3,113.7L667.1,111.4L675.9,115.9L677.2,123.6L688.5,126.4L690.9,131.2L712.4,134.7L726.0,131.1L729.8,128.2L728.5,126.0L729.9,123.9L734.0,124.9L743.5,119.3L749.6,119.0L746.4,114.9L738.8,114.4L741.7,109.2L748.3,108.3L751.9,102.0L750.1,100.1L752.2,98.4L764.1,99.1L768.8,109.3L776.7,112.1L777.6,115.8L786.8,114.0L782.7,123.8L777.3,124.6L778.2,129.2L776.3,131.8L774.7,130.4L770.1,133.5L770.4,135.4L766.7,134.3L752.9,143.6L755.8,138.1L754.7,136.6L744.3,142.4L747.9,148.4L751.8,146.4L756.7,147.7L748.0,155.2L754.8,165.2L749.0,163.4L749.0,163.9L750.0,164.6L751.9,164.5L754.9,167.6L752.1,169.7L751.7,169.5L751.2,169.4L751.1,169.5L750.9,169.8L750.6,169.8L750.4,170.1L753.1,169.6L754.3,170.8L754.8,171.0L755.3,171.0L752.9,174.3L754.1,175.8L751.4,176.5L750.3,181.1L748.9,180.8L749.9,182.0L747.7,182.7L749.1,185.1L748.3,184.3L744.5,187.9L745.3,188.5L741.3,191.1L741.2,192.6L734.7,194.1L734.6,192.0L733.5,192.1L733.0,192.7L733.7,195.0L732.9,193.7L732.3,196.0L725.9,197.3L725.4,199.1L726.3,200.2L725.7,200.9L724.0,196.3L718.4,196.8L717.0,193.0L713.3,191.3L709.9,193.9L704.2,194.0L704.4,198.2L700.4,197.3L697.9,195.0L697.2,188.9L693.8,189.5L696.9,181.2L694.2,175.3L686.6,172.8L679.9,177.8L675.6,175.8L672.4,179.0L671.5,176.6L665.0,177.3L655.2,169.7L652.7,170.6L646.9,166.6L646.0,162.8L649.1,162.2Z" fill="#cccccc" stroke="#999999" stroke-width="0.3">
    <animate attributeName="fill" values="#cccccc;#cccccc;#e63946;#e63946;#cccccc;#cccccc" keyTimes="0.0000;0.1000;0.1100;0.1800;0.2000;1.0000" dur="20s" repeatCount="indefinite" calcMode="linear"/>
    <animate attributeName="stroke" values="#999999;#999999;#c1121f;#c1121f;#999999;#999999" keyTimes="0.0000;0.1000;0.1100;0.1800;0.2000;1.0000" dur="20s" repeatCount="indefinite" calcMode="linear"/>
  </path>
  <path id="country_DEU" d="M484.5,112.6L481.8,114.5L482.5,116.5L469.0,116.2L470.5,111.9L465.9,110.3L464.8,103.0L467.6,101.7L468.1,97.2L474.6,97.6L471.7,93.4L477.3,96.3L478.6,96.5L480.3,95.9L480.3,95.6L481.3,94.7L480.9,95.4L484.3,95.7L484.5,96.7L485.7,97.0L487.4,105.3L480.2,107.6L484.5,112.6Z" fill="#cccccc" stroke="#999999" stroke-width="0.3">
    <animate attributeName="fill" values="#cccccc;#cccccc;#e63946;#e63946;#cccccc;#cccccc" keyTimes="0.0000;0.2000;0.2100;0.2800;0.3000;1.0000" dur="20s" repeatCount="indefinite" calcMode="linear"/>
    <animate attributeName="stroke" values="#999999;#999999;#c1121f;#c1121f;#999999;#999999" keyTimes="0.0000;0.2000;0.2100;0.2800;0.3000;1.0000" dur="20s" repeatCount="indefinite" calcMode="linear"/>
  </path>
  <path id="country_SAU" d="M571.2,175.3L581.4,192.6L588.0,193.3L589.1,195.6L587.4,201.7L572.6,206.1L567.9,211.2L558.5,209.4L557.0,213.0L547.9,198.3L546.1,190.0L538.0,176.7L536.4,176.5L537.4,172.7L540.2,173.2L545.0,169.1L542.4,166.1L550.9,164.7L561.7,173.2L571.2,175.3Z" fill="#cccccc" stroke="#999999" stroke-width="0.3">
    <animate attributeName="fill" values="#cccccc;#cccccc;#e63946;#e63946;#cccccc;#cccccc" keyTimes="0.0000;0.3000;0.3100;0.3800;0.4000;1.0000" dur="20s" repeatCount="indefinite" calcMode="linear"/>
    <animate attributeName="stroke" values="#999999;#999999;#c1121f;#c1121f;#999999;#999999" keyTimes="0.0000;0.3000;0.3100;0.3800;0.4000;1.0000" dur="20s" repeatCount="indefinite" calcMode="linear"/>
  </path>
  <path id="country_CAN" d="M141.4,113.5L137.2,112.5L137.0,112.3L137.9,111.7L138.1,111.3L138.0,111.0L136.3,112.0L135.2,110.4L133.7,110.5L134.8,109.6L129.0,106.2L136.4,107.6L137.1,108.9L137.8,109.5L138.0,110.3L140.5,111.4L141.4,113.5Z M161.2,35.9L152.1,38.4L143.0,43.2L135.3,40.5L140.6,34.9L138.1,33.1L156.5,33.4L161.2,35.9Z M186.3,29.2L167.4,32.9L163.9,32.0L172.7,30.3L155.8,30.2L162.5,28.9L156.9,29.1L162.9,28.3L158.2,28.1L162.8,26.3L177.7,29.5L174.0,26.7L178.1,25.2L179.9,28.6L186.3,29.2Z M155.5,25.4L142.4,27.7L152.1,23.8L161.5,23.9L157.2,27.0L155.5,25.4Z M176.0,21.6L169.7,23.8L166.7,22.3L176.0,21.6Z M211.5,111.7L142.3,111.7L142.1,109.5L141.2,110.2L141.2,110.5L139.8,109.8L140.6,110.2L141.2,109.5L140.4,108.1L139.3,109.4L137.9,108.5L138.3,108.7L139.1,107.0L137.3,107.6L137.8,106.8L138.0,105.7L137.1,107.3L136.4,106.4L135.8,107.3L135.5,107.0L135.0,107.2L134.3,107.0L135.9,106.3L136.2,105.7L135.9,105.2L131.4,105.7L132.2,104.3L130.6,104.4L131.1,104.1L131.3,103.6L133.3,103.5L133.5,103.3L130.3,102.8L133.3,102.5L132.6,99.8L129.0,101.5L129.9,99.6L127.6,97.6L130.3,98.6L128.5,96.1L127.5,96.5L126.8,98.1L124.7,96.4L126.3,95.4L123.8,95.0L126.3,91.6L124.7,93.1L124.8,89.7L120.4,88.2L112.4,78.9L106.3,81.0L102.3,76.5L97.5,76.6L97.5,47.6L112.1,50.7L110.1,49.0L111.5,49.3L113.8,47.4L114.7,48.0L115.6,47.9L114.4,48.8L114.2,49.2L126.5,46.2L120.0,48.0L116.3,50.1L117.0,50.5L117.7,50.6L131.2,45.9L130.0,44.7L136.4,48.7L139.0,46.1L138.9,48.5L145.9,47.2L165.2,51.5L162.2,53.4L170.3,53.7L174.9,52.7L181.9,57.9L180.5,56.6L182.3,56.4L181.0,54.3L180.0,53.7L180.3,52.5L183.9,52.3L185.9,50.8L178.0,51.9L184.4,49.8L188.8,52.7L194.5,53.7L204.1,53.4L203.5,52.5L205.2,53.7L206.1,54.0L207.0,53.9L206.9,53.0L203.2,51.6L210.3,51.8L208.8,54.4L211.7,55.8L208.9,55.7L210.4,57.1L210.9,56.9L209.8,56.1L212.0,55.9L211.3,52.6L216.6,50.8L213.4,50.4L216.4,48.1L208.7,46.1L210.5,44.9L208.7,42.6L213.5,40.8L211.9,40.5L215.7,41.1L221.2,46.1L217.7,47.6L224.2,48.2L221.4,48.6L224.3,52.0L226.7,48.9L229.9,50.2L229.1,52.8L231.2,55.5L238.7,49.6L236.1,47.0L239.2,47.0L240.7,47.5L244.4,47.7L241.8,48.0L246.8,49.3L243.4,51.4L246.2,55.9L241.1,57.9L240.2,56.2L237.7,55.7L240.8,58.3L236.3,57.2L233.0,57.3L235.4,58.5L231.5,61.0L225.8,59.1L221.3,59.1L227.4,61.1L232.7,61.6L224.4,66.4L215.6,64.6L218.8,66.6L220.6,66.1L221.5,66.8L223.0,67.0L223.4,68.1L216.9,70.2L218.1,70.7L216.0,71.5L213.0,76.0L214.1,83.1L217.0,81.4L218.9,85.8L217.8,87.2L227.8,87.3L236.5,93.1L244.2,92.6L244.2,99.4L246.3,101.5L245.4,101.6L245.3,101.8L248.5,103.3L247.5,105.4L251.7,106.4L250.8,104.3L252.9,105.0L254.0,101.6L250.6,94.2L255.5,92.3L257.2,91.1L258.3,89.9L258.7,88.6L258.7,86.5L257.6,84.3L256.3,83.1L253.6,81.9L257.0,77.4L254.5,75.1L256.3,72.8L254.6,70.5L265.8,69.9L271.1,74.0L275.2,75.1L276.6,74.7L275.5,77.6L272.4,77.4L276.1,78.0L276.4,81.0L274.4,81.4L279.5,82.1L276.6,84.5L280.0,82.0L280.7,84.0L284.0,81.1L284.9,82.8L287.5,79.5L286.3,78.2L287.8,76.5L289.0,76.8L287.9,77.6L291.5,79.8L291.4,80.3L290.1,80.4L289.9,80.6L292.9,81.7L291.0,82.8L293.6,82.3L291.7,83.8L293.8,83.2L293.3,84.0L295.3,84.9L293.7,85.4L296.6,86.6L293.5,87.5L298.3,91.4L299.2,90.7L298.3,93.1L306.6,94.4L297.7,97.1L299.7,98.5L306.3,95.6L306.6,98.0L308.8,96.9L310.1,97.6L309.6,99.9L310.6,100.5L308.7,100.6L311.0,101.7L303.3,104.7L299.7,108.0L295.7,108.3L293.2,107.6L283.8,107.8L275.8,114.4L274.1,113.7L272.5,113.4L272.3,113.4L275.7,114.4L273.1,117.6L272.6,117.9L271.6,118.7L270.3,118.9L267.5,120.4L265.1,122.6L264.1,122.4L258.0,128.3L253.1,128.4L252.5,131.0L243.9,134.5L242.1,133.3L244.6,128.6L243.7,123.2L239.7,119.4L229.1,113.9L221.1,114.7L211.5,111.7Z M211.5,50.4L208.7,51.4L201.0,49.6L205.2,46.9L211.5,50.4Z M197.6,47.6L194.4,46.8L191.3,47.5L195.6,49.2L192.6,50.3L183.5,48.1L166.9,51.3L166.1,49.1L156.4,46.6L163.7,45.6L168.5,45.9L171.3,45.5L165.0,44.3L156.0,44.7L153.9,43.5L162.4,41.8L152.2,41.0L163.5,36.0L165.1,36.8L163.6,38.6L172.0,38.1L170.3,39.2L170.6,39.7L175.5,39.0L173.2,37.2L175.9,37.5L178.4,38.6L179.4,41.2L180.6,41.5L181.9,40.6L179.3,36.8L182.8,36.3L186.6,37.9L188.5,43.2L197.6,47.6Z M209.0,39.1L203.2,42.6L193.1,37.8L200.6,36.6L195.9,35.7L198.9,35.9L197.8,34.7L202.0,35.1L205.6,34.4L207.7,35.1L205.9,35.6L207.1,36.0L203.8,37.2L203.9,37.6L209.0,39.1Z M188.6,35.8L186.8,37.7L182.4,35.7L186.5,34.8L188.6,35.8Z M206.3,29.6L200.9,31.1L198.0,29.9L202.8,28.9L193.4,29.5L192.8,29.1L194.3,28.3L196.8,28.7L197.7,28.5L194.9,26.6L200.1,28.3L201.5,27.4L197.5,26.4L203.9,25.8L205.8,26.4L206.3,29.6Z M207.3,22.2L204.1,19.3L212.9,20.6L212.3,21.8L207.3,22.2Z M176.5,20.7L172.1,20.5L166.7,20.7L173.9,19.3L176.5,20.7Z M186.4,17.8L195.9,18.4L202.6,21.5L200.2,22.4L197.4,21.1L188.8,20.9L187.4,20.2L191.7,19.4L186.4,17.8Z M245.2,68.7L242.3,70.8L240.2,70.1L241.8,68.5L245.2,68.7Z M248.7,66.2L242.3,64.6L236.4,67.9L235.7,65.9L231.9,66.2L234.5,64.9L236.3,59.2L237.7,61.4L248.7,66.2Z M224.2,34.6L219.8,38.0L214.2,38.0L216.3,38.9L214.8,40.4L212.0,40.4L210.7,37.3L213.2,33.8L224.2,34.6Z M216.4,31.8L213.2,32.2L208.5,31.1L212.8,29.0L216.4,31.8Z M251.7,31.3L221.2,32.1L217.3,26.8L211.5,27.2L213.0,26.9L207.6,25.6L222.7,25.9L221.1,26.4L227.0,27.2L221.0,27.1L224.5,27.7L222.1,27.9L222.2,28.4L227.7,29.7L247.2,28.6L251.1,29.6L248.9,30.9L251.7,31.3Z M208.1,15.1L214.0,15.6L208.3,14.5L215.5,13.9L211.2,13.0L216.9,11.3L237.7,17.8L229.6,18.6L228.0,21.2L219.9,21.1L217.5,20.3L220.9,20.0L214.3,18.7L224.1,17.9L212.0,17.7L210.5,17.1L214.1,16.5L214.2,16.2L208.1,15.1Z M262.3,52.7L260.3,55.1L256.7,53.7L259.3,51.7L262.3,52.7Z M263.8,58.5L269.5,55.0L267.0,51.6L263.0,49.4L258.4,50.6L261.0,48.9L252.9,44.6L251.0,45.3L253.0,46.9L235.5,46.6L227.7,44.9L226.1,43.2L232.5,43.5L224.7,40.6L228.3,35.9L237.2,34.7L233.2,38.1L234.0,40.3L237.9,42.6L237.0,42.5L232.9,43.5L238.0,43.7L238.4,41.4L236.9,41.4L236.1,40.6L234.9,40.4L234.9,40.3L239.6,40.3L235.8,37.6L240.1,38.0L236.3,36.9L246.2,35.0L249.4,38.1L246.5,39.6L248.7,38.8L247.5,40.7L250.5,38.8L255.6,41.1L252.8,39.6L257.5,39.9L253.6,39.0L256.0,38.0L262.0,38.8L259.0,40.8L264.4,40.1L261.5,41.8L265.9,41.1L264.2,42.2L266.6,43.5L268.6,41.4L272.2,42.6L271.3,43.2L269.9,43.2L268.1,44.0L268.6,44.6L273.4,43.2L270.1,45.2L272.1,44.9L271.1,46.5L272.5,44.6L275.2,43.8L275.6,43.9L273.9,44.6L273.8,45.1L279.1,44.7L278.9,45.4L275.5,46.0L273.8,47.0L280.5,45.7L282.2,47.4L280.0,47.2L274.9,48.0L283.0,48.6L276.5,50.1L283.3,51.4L281.5,51.5L280.5,51.7L280.3,51.9L284.0,53.4L285.2,52.2L285.0,53.9L285.5,52.8L288.1,52.8L287.3,53.0L287.0,53.9L290.2,54.9L288.0,54.8L290.1,55.0L288.5,55.4L288.2,55.8L296.8,57.0L292.8,57.9L295.1,58.9L294.2,59.0L292.7,58.5L292.3,58.6L294.3,59.5L292.8,59.3L293.6,59.7L293.4,60.2L291.2,59.2L291.2,62.4L286.2,59.7L289.1,57.9L277.9,58.4L283.2,62.8L288.3,65.1L287.5,65.7L288.7,67.5L288.2,67.4L287.6,66.3L286.7,65.8L288.4,68.6L287.1,69.6L277.5,65.9L284.8,71.8L271.5,68.1L269.6,66.9L271.0,67.0L271.9,66.4L266.7,63.1L263.4,62.4L263.3,64.0L260.4,63.2L260.7,64.0L258.2,64.2L258.3,64.6L254.3,63.0L256.5,60.6L261.6,62.9L260.1,61.1L266.3,60.6L263.8,58.5Z M248.3,34.9L256.4,35.5L259.9,37.5L251.1,38.0L248.3,34.9Z M297.3,8.3L276.7,10.2L283.5,10.8L274.5,11.9L288.9,10.9L269.0,14.9L273.8,15.3L272.1,16.2L254.9,17.5L263.8,17.9L263.9,18.4L252.8,18.4L263.4,19.9L258.3,20.1L262.4,20.7L254.5,21.7L255.7,22.9L253.3,23.8L245.2,22.7L255.7,25.4L247.3,27.5L248.1,26.6L243.2,25.4L244.7,26.6L241.5,25.6L225.8,26.1L233.5,24.3L229.4,22.1L238.8,23.9L241.3,23.7L244.2,21.5L238.1,23.2L236.5,22.2L239.2,22.0L235.8,21.9L239.9,21.2L237.6,21.1L238.5,19.9L236.3,21.4L231.2,21.3L232.6,19.5L244.1,20.0L241.8,19.1L245.6,19.1L246.3,18.5L243.7,19.0L238.1,18.5L238.9,18.2L240.0,18.5L241.4,18.5L241.6,18.4L233.7,14.6L248.5,16.9L250.6,16.4L242.0,14.5L254.9,13.8L250.1,13.6L258.7,12.9L252.7,12.8L258.1,11.0L237.2,14.0L233.1,13.6L244.1,11.9L230.7,13.5L226.3,12.7L233.3,12.4L238.2,11.5L225.4,12.4L224.1,11.9L231.9,10.9L220.1,10.4L238.5,9.6L232.8,8.7L238.2,7.8L251.9,9.9L243.2,8.1L261.5,7.4L256.5,6.2L259.7,6.0L297.3,8.3Z M281.8,123.6L280.5,117.7L276.9,116.5L272.8,123.4L263.2,124.1L266.2,122.8L269.5,119.4L270.3,119.0L270.7,119.1L271.7,118.7L272.1,118.4L272.6,118.4L273.7,117.9L277.9,113.7L286.1,110.9L289.5,113.2L282.9,114.8L288.0,115.4L286.6,117.7L288.6,120.3L293.1,122.2L295.2,121.4L296.3,123.0L297.5,123.1L297.6,123.3L289.2,125.5L286.3,128.9L284.5,125.9L291.6,123.0L287.7,123.1L289.3,121.8L288.1,120.8L281.8,123.6Z M294.4,119.9L293.1,121.2L289.0,118.9L290.0,117.7L290.2,119.5L294.4,119.9Z M318.3,116.6L316.1,119.1L316.1,117.3L314.5,118.5L315.5,116.6L314.8,115.2L310.7,118.4L313.3,115.8L301.5,115.1L305.3,111.8L307.3,105.5L311.2,103.6L307.9,110.0L309.7,108.1L311.3,108.7L309.7,110.4L311.7,110.7L311.7,110.1L312.0,110.2L312.0,110.1L312.1,110.0L312.2,110.0L311.5,111.6L316.3,110.8L314.6,113.6L317.5,113.1L315.2,114.1L315.1,114.3L315.2,114.6L315.8,114.6L315.2,114.8L316.0,114.7L315.2,115.3L317.7,114.3L316.9,116.2L318.3,116.6Z M288.8,109.1L292.2,109.3L295.8,111.3L292.3,111.0L288.8,109.1Z" fill="#cccccc" stroke="#999999" stroke-width="0.3">
    <animate attributeName="fill" values="#cccccc;#cccccc;#e63946;#e63946;#cccccc;#cccccc" keyTimes="0.0000;0.4000;0.4100;0.4800;0.5000;1.0000" dur="20s" repeatCount="indefinite" calcMode="linear"/>
    <animate attributeName="stroke" values="#999999;#999999;#c1121f;#c1121f;#999999;#999999" keyTimes="0.0000;0.4000;0.4100;0.4800;0.5000;1.0000" dur="20s" repeatCount="indefinite" calcMode="linear"/>
  </path>
  <path id="country_MEX" d="M207.0,184.1L205.3,193.6L206.7,196.9L206.5,197.8L206.6,197.0L205.5,195.2L205.8,196.5L210.3,205.7L213.7,207.4L221.3,206.6L225.2,197.9L232.9,197.3L230.4,207.3L229.9,205.2L227.8,208.3L222.5,208.5L221.4,210.3L223.9,213.8L220.7,213.9L219.4,218.6L214.6,213.4L205.6,214.2L187.5,203.8L185.5,193.5L177.9,183.7L177.1,184.5L176.5,184.2L177.3,182.2L173.7,177.3L169.6,173.9L169.4,172.8L167.3,168.6L167.3,167.0L162.4,164.6L163.7,170.8L170.5,181.3L171.1,180.9L171.7,183.8L173.3,186.6L173.5,188.5L176.3,190.7L175.0,192.7L174.2,190.7L169.8,186.9L169.9,184.7L169.6,183.2L167.1,180.1L162.4,177.7L165.1,178.0L164.8,175.3L160.8,171.4L157.2,162.8L163.2,162.3L172.5,166.6L184.0,165.3L191.5,173.7L196.5,171.4L202.2,181.8L207.0,184.1Z" fill="#cccccc" stroke="#999999" stroke-width="0.3">
    <animate attributeName="fill" values="#cccccc;#cccccc;#e63946;#e63946;#cccccc;#cccccc" keyTimes="0.0000;0.5000;0.5100;0.5800;0.6000;1.0000" dur="20s" repeatCount="indefinite" calcMode="linear"/>
    <animate attributeName="stroke" values="#999999;#999999;#c1121f;#c1121f;#999999;#999999" keyTimes="0.0000;0.5000;0.5100;0.5800;0.6000;1.0000" dur="20s" repeatCount="indefinite" calcMode="linear"/>
  </path>
  <path id="country_RUS" d="M534.6,120.4L538.7,123.2L539.6,122.7L541.6,123.0L534.3,126.0L531.2,122.9L534.6,120.4Z M507.1,93.6L499.0,94.8L502.3,92.2L501.3,93.2L507.1,93.6Z M0.0,51.0L11.8,53.8L13.8,58.1L15.8,57.6L13.5,55.7L15.9,55.5L25.9,58.8L17.9,59.9L19.8,61.8L17.1,62.8L19.4,63.9L17.2,64.4L9.9,60.7L3.8,60.6L2.6,58.8L3.3,58.9L3.8,57.8L0.8,58.4L1.8,60.4L0.0,61.9L0.0,51.0Z M575.3,49.6L572.0,50.5L570.5,49.7L572.7,48.1L575.3,49.6Z M0.0,43.5L4.0,41.8L6.4,42.7L0.0,43.5Z M579.3,13.4L570.9,15.2L566.5,14.6L570.3,14.5L568.4,14.1L573.0,13.9L574.2,13.3L572.4,13.2L575.6,12.6L579.3,13.4Z M601.1,47.3L598.9,47.4L596.0,45.7L597.6,45.1L601.1,47.3Z M578.8,41.7L583.3,36.6L591.1,36.5L588.1,40.6L594.1,44.3L583.6,44.0L585.6,43.1L583.4,41.7L578.8,41.7Z M591.6,32.0L589.3,30.8L602.7,27.1L622.6,25.7L595.5,32.3L596.8,33.4L591.4,34.5L594.0,35.2L591.8,36.5L584.1,34.9L591.6,32.0Z M694.5,13.4L684.4,15.5L678.6,14.6L687.8,11.6L694.5,13.4Z M668.7,111.4L666.9,109.3L663.1,109.9L658.6,105.5L650.1,106.2L641.2,96.2L642.2,94.8L633.5,98.0L634.4,96.0L627.9,95.9L627.1,92.2L622.3,91.8L602.5,96.4L605.2,99.3L600.0,102.6L603.7,104.2L603.4,106.2L586.2,107.0L583.5,104.0L576.9,103.2L571.4,106.6L572.0,108.8L568.7,107.3L566.2,113.6L573.3,120.2L568.5,121.8L566.7,125.6L571.4,133.9L569.7,135.9L562.8,131.3L549.9,129.1L541.4,123.5L546.4,120.9L544.3,119.0L548.5,117.6L545.5,116.9L549.4,115.3L550.3,109.9L539.0,107.5L534.5,101.3L529.4,102.1L528.1,99.3L531.8,97.9L526.9,93.8L527.3,91.3L520.7,89.9L519.1,87.4L520.0,78.3L525.6,77.7L521.7,75.3L519.5,75.9L528.9,68.6L525.0,66.0L526.4,64.5L522.6,56.1L525.0,53.7L521.0,50.0L530.1,46.7L533.8,48.3L533.9,49.0L532.7,49.4L532.6,49.8L539.7,49.1L552.6,53.8L552.9,56.5L546.4,58.8L536.2,57.3L532.3,55.6L531.0,55.4L529.6,55.4L537.1,59.3L535.7,60.9L536.9,63.4L543.8,65.8L545.1,64.2L541.1,62.3L551.3,63.5L551.3,62.8L549.4,60.4L555.5,57.3L560.4,59.4L561.3,56.1L559.4,55.0L561.0,52.6L558.3,50.7L566.3,52.3L562.3,54.7L566.0,56.6L572.8,53.9L571.5,53.0L581.0,51.7L580.8,50.8L584.7,49.7L586.4,49.7L583.0,51.9L587.1,52.2L597.2,49.6L599.2,51.7L602.4,49.9L600.3,47.9L602.3,47.0L620.7,52.2L623.0,49.8L620.3,48.0L617.5,47.5L617.0,47.8L618.3,44.2L616.6,43.3L623.4,37.4L628.9,37.5L632.1,38.1L629.5,42.0L632.1,43.9L631.4,49.8L633.8,51.0L634.1,51.3L628.9,56.9L622.4,56.5L624.8,57.7L630.2,58.2L636.8,53.7L636.6,50.4L641.5,49.7L643.3,51.1L642.7,53.4L644.2,54.2L647.6,54.1L643.7,53.5L645.4,51.9L644.1,49.9L634.4,49.1L635.8,44.5L632.6,42.1L637.5,39.9L636.9,37.8L639.3,38.6L638.2,42.3L642.3,43.2L646.0,43.8L647.6,43.6L647.8,43.4L640.0,40.6L646.2,39.1L658.1,41.2L655.2,44.8L657.3,43.4L656.6,46.0L657.8,46.3L659.4,45.1L657.8,43.1L659.0,41.5L651.8,38.7L651.3,35.5L667.7,34.5L664.5,35.7L664.6,36.2L667.0,37.2L664.6,35.9L667.9,35.3L669.2,34.5L664.8,33.0L668.2,33.0L667.0,32.4L664.4,32.2L667.4,32.2L669.5,31.0L667.6,30.5L669.9,30.7L685.4,28.1L682.1,28.0L684.2,27.5L698.9,28.6L697.0,26.4L705.6,26.7L702.1,25.2L710.7,22.5L715.7,23.7L710.4,24.6L718.7,25.1L716.0,26.4L727.7,25.6L734.7,28.4L730.8,28.4L734.3,29.8L717.9,35.3L712.7,38.0L727.3,35.1L723.8,34.8L725.1,34.1L732.1,34.2L732.9,38.1L733.7,38.3L735.2,38.5L732.9,37.8L735.1,36.2L733.7,35.7L746.1,35.4L749.3,37.4L756.8,37.8L761.0,34.7L773.6,37.2L770.7,37.5L770.3,37.9L773.0,38.3L771.2,38.1L769.8,38.3L773.7,39.9L769.2,39.0L777.6,44.3L781.8,40.5L786.7,42.6L800.1,42.0L798.3,40.5L800.5,39.7L797.7,39.6L801.8,37.6L817.3,39.4L814.0,39.6L812.2,41.4L824.0,39.9L825.2,40.7L822.1,41.4L831.4,44.1L848.1,44.0L850.2,45.6L849.4,47.3L852.5,47.9L852.4,49.3L853.5,49.7L852.1,51.1L853.9,49.9L854.3,48.1L860.1,47.3L869.5,47.2L876.6,50.4L877.9,49.5L875.4,47.8L876.5,47.3L876.2,46.1L900.0,49.7L900.0,61.9L896.4,63.3L892.3,61.8L886.1,63.0L893.7,62.8L898.9,69.4L892.5,68.7L875.7,77.8L873.0,75.6L859.1,77.4L855.0,83.5L858.3,84.7L857.0,87.6L858.1,87.7L858.4,89.4L856.0,88.8L855.3,93.8L850.1,95.7L850.1,99.0L846.1,99.2L845.7,102.5L841.7,105.9L838.9,92.2L841.9,84.6L845.8,83.9L859.4,74.8L860.3,70.6L864.1,70.0L858.5,69.6L858.3,72.4L850.5,75.8L850.9,71.6L842.6,72.5L835.6,78.0L838.0,80.1L828.4,81.2L830.8,80.0L823.4,78.3L822.3,80.0L807.9,79.5L802.3,82.6L787.9,93.7L792.1,94.2L791.9,96.9L792.7,95.8L794.3,95.2L793.3,97.7L799.4,95.3L803.5,98.4L801.8,99.0L803.9,101.9L801.7,104.5L800.4,113.4L787.8,128.8L782.9,131.3L779.6,129.3L776.8,132.5L775.9,131.3L778.2,129.2L777.3,124.6L782.7,123.8L786.8,114.0L777.4,115.7L776.7,112.1L768.8,109.3L765.2,100.0L759.0,97.6L750.1,100.1L751.8,102.5L748.3,108.3L744.7,110.1L735.7,107.8L726.8,111.3L721.3,110.7L716.6,107.6L708.2,108.0L705.2,104.4L697.3,102.0L693.4,109.4L680.9,105.9L668.7,111.4Z M713.5,19.9L699.7,21.9L698.2,21.6L705.8,17.3L707.9,17.7L705.9,19.2L713.5,19.9Z M698.9,19.1L687.5,18.5L682.1,16.9L698.0,15.4L700.2,16.2L697.6,17.7L698.9,19.1Z M804.1,101.4L807.5,95.8L808.1,103.9L811.9,112.8L810.1,110.9L808.1,110.5L806.4,115.6L809.1,119.9L806.5,118.8L805.2,121.3L805.7,105.2L804.1,101.4Z M827.0,30.8L823.0,31.8L815.2,30.3L816.1,29.2L827.0,30.8Z M813.5,29.4L808.4,30.8L806.2,29.9L807.5,28.8L805.8,28.8L806.1,30.4L809.3,31.2L797.8,32.1L792.2,29.9L793.6,29.9L793.6,28.1L796.1,27.7L796.3,27.4L797.6,27.2L813.5,29.4Z" fill="#cccccc" stroke="#999999" stroke-width="0.3">
    <animate attributeName="fill" values="#cccccc;#cccccc;#e63946;#e63946;#cccccc;#cccccc" keyTimes="0.0000;0.6000;0.6100;0.6800;0.7000;1.0000" dur="20s" repeatCount="indefinite" calcMode="linear"/>
    <animate attributeName="stroke" values="#999999;#999999;#c1121f;#c1121f;#999999;#999999" keyTimes="0.0000;0.6000;0.6100;0.6800;0.7000;1.0000" dur="20s" repeatCount="indefinite" calcMode="linear"/>
  </path>
  <path id="country_ARG" d="M278.6,434.0L278.4,427.2L281.1,431.1L287.1,433.4L278.6,434.0Z M281.7,338.3L284.4,331.4L289.2,334.8L290.1,332.1L293.0,332.1L297.5,337.7L305.6,341.9L303.5,348.6L310.6,349.0L313.5,343.2L315.8,345.3L315.4,348.1L305.3,358.6L303.6,370.2L308.3,377.4L306.1,382.1L294.1,384.2L293.2,391.2L287.2,390.5L287.5,394.4L290.6,394.4L290.9,396.5L287.6,396.2L289.2,397.2L286.7,399.3L286.2,403.2L281.1,406.5L285.6,410.3L284.0,412.3L285.6,412.6L280.3,419.0L278.2,418.1L277.5,419.0L279.1,419.4L276.0,424.0L277.6,424.0L279.1,426.1L278.9,426.4L270.1,425.1L269.2,421.0L267.1,421.3L266.1,418.8L270.8,408.7L271.7,404.3L269.8,402.8L272.2,402.0L270.3,401.5L269.6,396.0L270.7,386.7L272.9,383.5L272.0,378.1L275.4,370.0L273.6,360.6L275.9,351.9L279.2,347.7L278.6,340.7L281.7,338.3Z" fill="#cccccc" stroke="#999999" stroke-width="0.3">
    <animate attributeName="fill" values="#cccccc;#cccccc;#e63946;#e63946;#cccccc;#cccccc" keyTimes="0.0000;0.7000;0.7100;0.7800;0.8000;1.0000" dur="20s" repeatCount="indefinite" calcMode="linear"/>
    <animate attributeName="stroke" values="#999999;#999999;#c1121f;#c1121f;#999999;#999999" keyTimes="0.0000;0.7000;0.7100;0.7800;0.8000;1.0000" dur="20s" repeatCount="indefinite" calcMode="linear"/>
  </path>
  <path id="country_AUS" d="M777.1,361.9L765.0,364.0L758.8,369.1L750.0,369.1L744.8,372.8L737.8,370.4L737.5,367.8L738.4,368.2L739.3,367.0L739.3,362.4L732.9,345.0L734.7,346.1L733.6,343.6L733.8,343.0L735.6,345.5L733.5,339.6L734.9,331.9L735.8,333.6L742.0,327.5L752.8,324.4L757.3,314.7L758.9,318.4L758.9,314.0L759.7,314.8L759.8,314.1L760.6,314.7L761.0,314.5L761.2,314.7L762.1,314.8L762.3,314.7L760.9,312.0L763.0,312.0L765.2,306.9L768.5,307.1L770.1,311.9L770.7,311.6L770.5,310.5L771.1,310.5L771.3,309.6L774.3,310.9L775.0,309.5L773.4,308.3L776.4,302.3L781.9,301.4L781.7,300.0L781.2,299.4L780.3,299.6L779.4,298.9L780.0,298.3L780.4,299.2L780.9,298.3L781.7,299.5L783.8,300.6L788.0,302.0L789.8,300.3L790.1,302.5L790.7,302.3L790.4,301.6L791.1,300.9L791.4,300.7L792.5,302.1L789.7,305.1L788.7,310.2L791.8,313.2L797.5,316.2L798.2,317.6L801.3,318.5L806.4,297.0L809.5,308.5L813.4,310.2L813.5,314.8L815.8,322.6L822.0,326.6L824.2,333.6L826.7,333.2L827.0,336.8L828.9,338.6L829.5,338.3L832.6,344.4L833.0,344.3L832.6,348.2L834.1,352.7L832.6,360.2L828.1,367.9L825.0,380.2L819.4,381.7L815.6,383.9L816.0,385.3L813.7,382.5L813.1,382.5L812.4,383.3L811.7,382.8L812.3,381.3L808.8,384.4L803.5,383.0L799.5,379.5L798.4,373.6L795.3,374.3L795.2,369.7L794.4,372.8L792.1,373.2L793.6,372.2L794.8,368.1L794.4,364.7L789.9,372.4L784.2,363.4L777.1,361.9Z M819.7,397.6L818.2,396.6L817.3,399.1L815.1,399.0L811.7,390.0L812.8,390.5L813.2,390.2L816.5,391.6L820.5,390.5L819.7,397.6Z" fill="#cccccc" stroke="#999999" stroke-width="0.3">
    <animate attributeName="fill" values="#cccccc;#cccccc;#e63946;#e63946;#cccccc;#cccccc" keyTimes="0.0000;0.8000;0.8100;0.8800;0.9000;1.0000" dur="20s" repeatCount="indefinite" calcMode="linear"/>
    <animate attributeName="stroke" values="#999999;#999999;#c1121f;#c1121f;#999999;#999999" keyTimes="0.0000;0.8000;0.8100;0.8800;0.9000;1.0000" dur="20s" repeatCount="indefinite" calcMode="linear"/>
  </path>
  <path id="country_IRN" d="M560.0,141.6L565.3,143.2L569.9,140.6L572.8,147.0L579.8,150.3L592.9,145.0L602.9,150.1L601.4,161.2L602.1,166.1L604.6,167.5L602.1,171.1L606.9,176.1L607.9,181.1L604.6,182.4L603.5,186.0L595.2,184.5L592.0,179.6L590.3,179.5L587.0,181.6L584.3,180.9L578.5,177.1L575.2,170.1L571.2,170.7L568.5,163.3L563.5,158.4L565.8,152.7L563.3,152.1L560.5,146.2L560.0,141.6Z" fill="#cccccc" stroke="#999999" stroke-width="0.3">
    <animate attributeName="fill" values="#cccccc;#cccccc;#e63946;#e63946;#cccccc" keyTimes="0.0000;0.9000;0.9100;0.9800;1.0000" dur="20s" repeatCount="indefinite" calcMode="linear"/>
    <animate attributeName="stroke" values="#999999;#999999;#c1121f;#c1121f;#999999" keyTimes="0.0000;0.9000;0.9100;0.9800;1.0000" dur="20s" repeatCount="indefinite" calcMode="linear"/>
  </path>
</svg>