<svg xmlns="http://www.w3.org/2000/svg" viewBox="0 0 64 64" width="64" height="64" fill="none">
  <!-- Axes -->
  <line x1="8" y1="56" x2="58" y2="56" stroke="#00897b" stroke-width="1.8" stroke-linecap="round" opacity="0.55"/>
  <line x1="8" y1="8"  x2="8"  y2="56" stroke="#00897b" stroke-width="1.8" stroke-linecap="round" opacity="0.55"/>
  <!-- Grid -->
  <line x1="8" y1="38" x2="58" y2="38" stroke="#00897b" stroke-width="0.8" opacity="0.2"/>
  <line x1="8" y1="20" x2="58" y2="20" stroke="#00897b" stroke-width="0.8" opacity="0.2"/>
  <line x1="28" y1="8"  x2="28" y2="56" stroke="#00897b" stroke-width="0.8" opacity="0.15"/>
  <line x1="48" y1="8"  x2="48" y2="56" stroke="#00897b" stroke-width="0.8" opacity="0.15"/>

  <!-- Area fill under the curve -->
  <path d="M8,50 C14,48 20,44 28,36 S42,20 58,14 L58,56 L8,56 Z"
        fill="#00897b" opacity="0.12"/>

  <!-- Trend line -->
  <path d="M8,50 C14,48 20,44 28,36 S42,20 58,14"
        stroke="#00897b" stroke-width="2.5" stroke-linecap="round" fill="none"/>

  <!-- Orange vertical scanner line (sweeps left → right) -->
  <rect x="8" y="8" width="2.5" height="48" fill="#ff6d00" opacity="0.75" rx="1">
    <animate attributeName="x" from="8" to="57.5"
      dur="3s" repeatCount="indefinite"
      calcMode="spline" keyTimes="0;1" keySplines="0.4 0 0.4 1"/>
  </rect>

  <!-- Circle at the data intersection (follows the trend path in sync) -->
  <circle r="4.5" fill="#ff6d00" stroke="white" stroke-width="1.5">
    <animateMotion path="M8,50 C14,48 20,44 28,36 S42,20 58,14"
      dur="3s" repeatCount="indefinite"
      calcMode="spline" keyTimes="0;1" keySplines="0.4 0 0.4 1"/>
  </circle>
</svg>
