<svg xmlns="http://www.w3.org/2000/svg" viewBox="0 0 64 64" width="64" height="64" fill="none">
  <style>
    .country {
      transform-origin: 32px 32px;
      animation: pulse 2.5s ease-in-out infinite;
    }
    .capital-dot {
      transform-origin: 36.4px 31.1px;
      animation: dot-blink 2.5s ease-in-out infinite;
    }
    @keyframes pulse {
      0%, 100% { transform: scale(1); }
      50% { transform: scale(1.06); }
    }
    @keyframes dot-blink {
      0%, 100% { r: 2.2; opacity: 1; }
      50% { r: 3.5; opacity: 0.4; }
    }
  </style>

  <!-- Tanzania silhouette -->
  <g class="country">
    <path
      d="M23.4,47.9L20.1,46.6L19.6,46.1L17.2,45.6L17.2,45.0L15.8,44.9L15.2,43.8L14.2,43.3L12.8,43.4L12.2,43.1L9.6,38.3L8.9,36.0L7.9,34.7L5.9,33.3L5.0,31.6L4.8,30.2L5.5,28.7L4.0,24.8L4.4,22.4L6.1,22.5L7.4,21.5L9.0,19.1L9.3,19.1L9.6,17.9L11.4,16.5L11.6,16.0L11.6,15.0L9.9,14.8L9.5,14.4L10.0,13.3L9.5,13.4L10.0,12.4L11.6,11.8L11.9,10.5L11.4,9.7L11.6,8.0L11.1,7.1L10.2,6.6L9.8,5.3L10.6,5.4L11.3,5.0L27.6,5.0L45.9,15.3L46.2,16.7L45.6,17.2L45.7,17.7L46.3,17.8L46.6,18.4L53.8,23.6L53.8,24.5L53.3,24.8L53.2,25.4L53.5,25.7L51.6,30.5L52.3,32.4L53.0,32.6L54.2,33.9L54.2,34.4L55.1,34.5L55.5,35.3L55.5,35.9L54.4,36.8L54.0,39.4L54.4,38.9L55.0,39.5L55.0,40.3L54.2,41.9L54.5,43.9L55.5,44.9L55.0,44.6L54.7,44.8L55.2,45.0L55.3,46.0L55.6,45.8L56.0,46.3L55.6,47.6L56.0,47.6L56.5,48.7L56.3,49.1L56.8,49.5L56.2,50.6L56.9,50.3L57.7,51.5L57.9,51.0L58.5,51.2L58.4,51.7L59.0,51.9L59.0,51.4L59.6,52.2L60.0,51.9L60.0,52.8L57.8,54.5L55.3,55.4L54.1,56.3L52.2,56.3L50.2,57.5L49.0,56.8L47.4,56.8L46.8,58.1L45.0,59.0L43.4,58.8L42.8,58.3L41.8,58.3L40.8,59.0L38.6,58.9L38.5,58.3L36.8,57.5L35.5,58.5L32.4,58.3L32.0,57.3L31.4,57.2L30.7,55.9L31.0,54.2L30.5,53.1L30.3,50.6L29.2,49.0L27.6,47.7L27.1,49.0L26.2,48.3L24.7,48.5L24.0,47.8Z"
      fill="#1a73e8" fill-opacity="0.13"
      stroke="#1a73e8" stroke-width="1.8" stroke-linejoin="round"/>
  </g>

  <!-- Capital city dot (Dodoma) -->
  <circle class="capital-dot" cx="36.4" cy="31.1" r="2.2" fill="#1a73e8"/>
</svg>
