<svg xmlns="http://www.w3.org/2000/svg" viewBox="0 0 100 100.0" width="100" height="100" fill="none">
  <path d="M38.31,3.38L39.88,1.37L41.21,0.95L41.49,0.00L43.05,1.07L46.80,1.37L47.69,3.55L48.92,0.72L52.66,0.71L55.43,4.08L58.53,6.60L61.71,7.25L65.71,9.77L69.16,11.09L69.74,12.34L67.86,14.36L67.77,15.89L66.22,17.54L66.38,18.07L68.28,17.88L71.03,18.63L73.10,18.52L73.58,18.95L74.48,18.01L75.69,18.48L76.80,16.97L77.70,16.88L78.83,15.87L79.46,12.38L79.96,12.75L81.04,12.11L81.72,12.55L82.53,14.62L81.98,17.55L78.79,18.75L78.06,19.81L75.63,21.06L75.89,21.61L75.20,21.54L68.71,28.64L69.02,29.67L68.11,31.66L68.19,32.71L67.69,33.02L67.87,36.80L66.95,36.97L66.56,38.94L67.12,40.52L66.49,40.85L67.33,42.05L70.81,43.99L71.20,44.62L70.42,46.40L71.82,47.70L72.47,47.48L72.69,48.40L72.65,49.47L70.03,52.43L69.80,53.37L67.27,54.59L62.48,55.72L56.86,56.28L54.04,55.59L54.22,57.08L55.21,57.44L54.36,57.26L55.10,57.72L54.91,58.93L54.29,58.90L53.68,60.52L54.42,61.31L54.21,61.70L54.69,61.56L54.18,62.36L52.90,62.91L49.47,63.30L45.77,62.20L46.15,61.88L45.05,62.26L45.47,66.35L47.18,66.88L46.78,67.43L47.29,67.51L48.41,67.45L48.53,66.93L47.64,66.82L49.50,66.30L50.06,67.03L49.99,68.50L48.40,68.94L47.32,67.70L45.66,68.19L45.49,68.61L47.76,69.25L45.66,70.10L44.40,71.48L44.77,73.78L43.11,75.23L43.78,75.63L39.18,76.69L37.06,79.09L37.56,80.97L39.64,82.41L43.05,83.05L42.72,84.81L42.11,84.80L40.94,85.21L42.53,84.90L42.99,85.48L37.13,88.97L36.23,90.16L36.96,89.79L36.02,92.18L34.56,92.57L33.54,91.40L33.26,91.30L33.79,91.95L32.37,92.21L33.77,92.09L34.54,92.67L32.81,93.27L31.96,95.14L31.07,95.73L31.86,95.38L32.53,97.29L31.18,97.28L30.40,97.50L32.50,97.48L34.48,99.72L34.26,100.00L29.30,98.75L22.72,98.63L21.14,97.26L21.76,96.26L21.29,95.80L21.74,95.33L21.62,94.31L18.76,94.64L17.47,91.97L19.15,90.73L18.78,89.54L20.59,88.33L20.72,87.13L21.62,86.79L20.83,85.37L21.43,83.86L23.00,83.11L22.77,81.78L23.63,81.37L23.38,79.92L22.89,79.62L23.88,79.02L23.38,77.72L24.84,76.72L23.95,75.78L22.37,75.53L22.32,75.14L24.90,75.18L25.48,74.38L23.06,73.81L23.07,72.93L23.72,72.34L23.20,71.79L23.54,71.28L22.76,70.76L23.45,69.94L22.19,69.45L22.12,67.98L22.48,66.52L23.47,66.32L22.85,64.91L22.75,61.87L23.67,60.57L23.18,60.20L23.86,59.22L23.54,58.21L24.23,58.21L24.57,55.95L26.41,54.89L25.27,52.02L25.58,50.05L25.24,49.18L25.73,48.02L26.80,47.80L27.88,46.63L27.74,44.34L27.25,44.02L27.88,43.72L28.96,40.86L29.70,40.67L29.42,39.16L29.84,37.88L28.79,37.19L29.14,36.24L27.87,33.55L28.34,33.18L27.22,31.96L27.37,30.72L28.27,30.22L28.58,28.03L29.26,28.06L29.68,27.37L29.21,27.07L29.01,24.54L29.78,23.89L30.28,21.60L31.79,20.14L33.02,17.43L34.60,17.18L33.73,15.26L34.34,14.24L33.70,11.93L34.48,10.90L33.81,9.75L34.88,8.49L37.84,7.23L38.90,3.97L38.31,3.38Z" fill="#c4a882" fill-opacity="0.9" stroke="#8b7355" stroke-width="0.5"/>
</svg>