<svg xmlns="http://www.w3.org/2000/svg" viewBox="0 0 100 70.3" width="100" height="70" fill="none">
  <path d="M44.52,51.37L39.12,51.89L34.92,53.33L31.75,53.33L27.29,55.22L26.67,56.53L25.62,57.45L24.70,57.62L24.38,57.25L22.08,57.65L21.86,57.16L20.20,57.14L16.91,57.42L15.85,57.95L15.82,58.55L15.00,58.91L14.04,58.72L12.46,60.11L11.56,60.15L11.80,60.37L8.60,60.19L7.98,59.72L6.97,59.66L5.81,58.55L4.85,58.50L4.48,57.80L4.53,56.42L5.46,56.69L6.31,55.80L6.04,54.29L6.29,53.92L6.13,54.28L6.32,54.59L6.34,52.10L4.70,49.01L4.16,45.51L2.49,43.04L2.11,41.08L0.00,38.21L0.29,38.41L0.37,37.82L0.42,38.51L0.56,38.78L0.51,37.86L1.01,39.23L1.16,38.92L1.27,39.45L1.76,39.12L1.80,38.68L1.04,38.05L0.65,37.16L0.89,36.62L1.48,37.55L1.41,38.32L1.72,37.70L2.14,38.80L2.66,38.62L2.72,37.44L1.32,35.62L0.58,33.91L0.75,32.67L1.51,31.55L1.61,30.25L1.21,29.38L1.95,27.83L2.51,27.46L2.36,29.13L2.92,29.17L3.68,27.56L5.74,26.72L7.51,25.10L8.98,24.33L9.14,24.77L11.31,24.64L12.34,23.89L13.96,23.70L14.67,22.93L15.89,23.17L19.70,21.82L21.38,19.21L22.71,18.37L22.70,18.02L22.27,18.01L22.27,16.24L23.02,15.40L23.32,15.52L23.29,15.05L23.88,15.05L23.72,14.62L24.11,14.15L24.37,14.07L24.22,14.56L25.73,17.07L25.79,15.56L26.58,16.13L26.28,15.60L26.67,15.17L26.28,15.33L25.58,14.74L25.82,14.48L25.37,14.34L26.08,14.19L25.73,13.56L26.31,13.60L26.45,14.19L26.77,14.06L26.57,13.66L27.34,14.10L27.74,13.99L27.96,14.10L28.86,14.18L29.02,14.12L27.78,13.94L27.86,13.27L28.26,13.41L28.60,12.65L27.99,13.12L27.72,11.95L28.48,11.83L28.43,11.27L29.72,11.93L29.62,11.43L28.98,11.39L29.40,11.06L28.94,11.27L28.87,11.00L29.44,10.58L29.67,11.06L29.62,10.72L29.67,10.68L29.97,11.00L30.33,11.00L29.60,10.00L30.12,9.42L30.35,9.76L30.72,9.53L30.79,8.74L31.07,8.85L30.84,9.75L31.07,9.17L31.53,9.76L32.09,8.67L31.66,8.24L31.95,7.91L32.45,8.75L33.04,8.01L32.85,8.38L33.22,8.75L33.87,7.55L34.52,8.10L35.24,8.04L37.24,9.96L36.96,10.29L36.73,11.88L36.98,11.10L37.39,11.65L37.16,10.80L37.45,10.42L37.54,10.75L37.79,10.76L37.76,10.28L37.63,10.17L37.99,10.04L39.40,10.42L39.52,11.21L39.71,10.25L40.94,11.13L40.75,10.24L41.57,10.18L41.60,9.98L41.03,10.21L40.60,9.70L40.92,9.66L41.09,9.50L40.47,9.53L40.07,9.00L40.34,8.31L40.96,8.16L41.35,6.79L41.54,7.02L42.44,6.57L41.92,6.12L41.94,5.57L42.40,5.48L42.87,4.72L43.06,4.99L43.33,4.97L43.04,4.23L43.84,4.82L43.65,4.23L44.21,4.17L44.15,3.61L44.72,3.83L44.82,3.35L45.19,3.96L46.70,4.00L47.18,3.63L47.51,4.18L47.64,3.63L48.43,3.57L48.02,2.71L48.27,2.39L47.78,1.95L46.82,2.06L45.98,1.54L46.52,1.09L46.99,1.78L46.92,1.11L47.26,1.44L47.40,1.07L48.22,2.03L48.81,1.59L49.44,2.51L50.34,2.62L50.34,2.91L51.29,2.56L51.11,2.88L51.84,2.94L51.96,3.43L53.40,3.11L53.63,3.56L54.51,3.99L56.19,2.65L55.74,3.25L56.23,3.16L55.58,3.74L55.78,4.01L56.57,3.40L56.28,3.77L56.59,3.82L56.52,4.39L57.14,4.27L57.34,3.79L56.88,3.66L57.55,3.10L57.85,2.99L57.60,3.21L58.08,3.89L58.32,3.65L58.87,4.10L58.27,4.42L57.95,5.29L57.60,5.15L58.06,5.70L57.67,5.65L57.61,6.31L57.23,6.47L57.26,5.83L56.15,6.52L56.16,7.48L56.63,7.35L56.22,8.67L54.88,9.97L55.13,10.53L56.99,11.66L58.21,12.97L58.89,12.79L60.75,13.75L61.84,14.85L63.87,15.34L64.53,16.46L66.32,17.34L67.61,17.15L68.41,16.69L69.86,13.28L70.44,10.68L69.95,7.85L70.51,6.33L70.24,5.68L70.79,4.89L71.11,5.49L71.28,5.01L70.63,4.37L70.25,4.58L70.85,3.26L71.35,3.34L71.13,2.99L71.64,0.65L72.61,0.00L72.50,0.64L73.10,0.71L73.42,1.72L73.39,2.84L74.35,3.16L73.93,4.05L74.81,4.76L74.62,5.42L75.08,5.30L75.04,7.57L75.67,9.18L76.06,9.45L77.41,8.58L77.88,9.56L79.53,10.51L79.28,11.71L79.82,13.27L79.67,14.22L80.59,15.57L81.04,15.28L80.85,15.74L81.51,17.16L81.17,18.65L81.66,19.34L81.99,19.37L81.97,20.44L83.38,21.29L83.68,20.98L83.95,21.55L84.66,21.56L84.61,21.29L85.31,22.58L85.65,22.30L87.08,23.50L87.47,23.14L88.02,23.60L88.40,24.33L87.82,24.09L87.72,24.42L88.13,25.21L89.13,25.70L89.28,26.74L89.76,26.80L90.20,29.17L90.57,28.88L91.15,29.54L90.84,28.69L91.16,28.30L92.53,29.46L92.37,28.86L92.70,28.83L93.07,29.67L93.04,31.68L94.86,33.12L95.43,32.95L96.28,34.35L97.13,34.88L97.37,35.80L98.23,36.07L98.16,37.03L98.49,37.76L98.59,37.38L98.95,37.67L98.62,38.62L98.96,40.49L98.54,40.78L99.54,42.26L100.00,44.41L98.50,49.14L98.59,50.38L97.32,52.77L97.31,53.75L95.48,54.87L94.55,56.43L94.07,56.45L94.20,57.48L93.74,57.63L94.07,57.70L93.01,58.95L93.30,59.09L92.83,59.76L93.12,60.26L92.75,60.13L92.91,60.51L92.40,60.60L91.50,61.87L90.72,65.25L91.16,65.67L90.99,66.24L90.33,66.29L89.77,66.95L85.49,67.44L83.24,69.17L81.70,69.25L81.85,69.73L82.32,69.48L82.12,70.31L81.60,69.63L80.95,69.72L80.68,69.09L79.60,68.81L80.05,68.43L79.82,68.06L79.31,68.08L79.24,68.50L78.54,68.74L77.88,68.30L78.63,68.33L78.97,67.88L78.51,67.16L77.13,67.77L77.95,67.84L77.82,68.19L77.20,68.23L75.06,69.60L72.51,68.41L70.68,68.13L69.81,68.49L69.12,67.80L67.31,67.28L65.82,65.67L65.51,64.90L65.97,64.11L65.65,63.46L64.98,62.44L63.65,61.49L64.96,62.36L65.51,63.10L65.03,62.28L63.95,61.56L64.24,61.31L64.69,61.77L64.39,61.32L64.75,61.00L64.29,60.85L63.76,61.09L63.93,61.35L63.34,61.27L63.84,61.42L62.69,61.67L61.65,61.60L62.46,60.92L62.74,59.53L61.57,57.92L60.76,60.39L58.51,60.70L58.96,59.83L60.01,59.87L60.03,57.98L61.21,56.65L60.91,55.77L61.48,55.33L60.82,53.94L60.83,55.09L60.03,55.47L59.47,56.74L57.94,57.36L56.69,58.92L56.28,58.92L55.94,59.59L56.48,59.44L56.35,60.09L54.24,59.07L54.49,58.67L54.88,59.15L55.21,59.11L54.61,57.59L53.58,56.69L53.24,55.56L52.32,55.63L51.86,55.20L51.66,54.45L52.04,54.64L52.17,54.11L51.82,53.77L51.14,53.99L51.37,53.62L50.69,52.93L49.70,53.20L48.47,52.54L47.13,52.74L44.52,51.37Z" fill="#c4a882" fill-opacity="0.9" stroke="#8b7355" stroke-width="0.5"/>
</svg>