<svg xmlns="http://www.w3.org/2000/svg" viewBox="0 0 100 99.4" width="100" height="99" fill="none">
  <path d="M41.94,90.56L46.18,85.78L46.72,85.83L46.52,85.40L48.41,84.43L48.98,83.60L51.47,82.66L51.90,80.38L51.26,78.77L50.74,78.42L49.89,78.92L49.51,78.63L50.41,74.74L49.41,74.12L48.06,74.66L47.41,74.50L46.90,71.14L46.29,70.25L45.39,70.22L44.90,69.71L43.75,70.26L40.87,69.70L41.30,66.85L40.43,64.84L41.20,64.37L40.52,63.73L41.56,61.98L41.39,61.64L42.20,59.87L41.35,58.13L39.82,57.37L39.61,55.96L39.97,54.96L35.33,54.89L35.11,52.89L34.25,51.92L35.05,51.88L34.53,48.60L33.07,47.75L31.06,47.95L30.35,46.95L28.63,46.57L27.90,45.69L27.28,45.81L26.05,45.18L24.81,45.29L23.00,44.01L22.00,42.18L22.23,41.39L21.84,40.12L22.27,39.45L21.98,38.12L21.50,38.51L20.98,38.24L18.80,38.69L16.05,40.72L15.23,40.62L13.77,41.76L11.78,41.31L8.61,41.50L8.91,37.47L6.93,38.91L4.65,38.94L4.35,37.73L2.05,37.42L2.66,36.34L1.22,34.74L0.60,33.67L0.78,33.28L0.00,32.66L0.09,32.18L0.78,32.05L0.66,30.99L2.22,29.94L2.00,28.92L2.66,27.84L2.81,26.51L5.38,24.95L7.78,24.61L8.60,23.92L9.40,23.99L9.72,24.50L10.32,24.37L11.78,16.44L11.21,14.77L10.07,13.84L10.11,11.93L11.58,11.56L12.44,11.77L12.06,10.78L10.62,10.73L10.61,9.07L14.93,9.04L14.63,8.76L14.85,8.29L15.52,8.99L16.81,7.98L17.59,9.07L17.67,10.43L18.21,10.31L19.72,11.53L21.47,10.92L21.72,11.75L22.64,10.56L24.50,9.59L24.64,9.95L25.30,9.29L25.45,8.51L27.14,7.65L27.11,7.26L25.42,7.13L25.02,4.26L23.52,2.51L24.04,2.93L25.17,2.95L25.45,3.53L27.19,3.34L28.37,4.35L28.73,4.10L28.69,3.18L29.55,2.76L30.93,2.85L32.38,1.90L33.25,1.87L34.23,0.81L33.85,0.17L35.19,0.00L35.78,0.46L35.33,1.89L36.54,2.26L36.41,2.71L36.94,3.38L36.09,4.30L35.75,6.14L35.96,7.36L36.40,7.66L36.35,8.68L38.71,10.41L39.51,10.20L40.02,9.35L40.77,9.56L42.57,8.39L46.05,8.70L46.14,8.20L45.56,7.68L46.01,6.98L46.64,7.32L48.59,6.78L49.24,7.50L50.69,8.05L51.63,7.39L53.69,7.88L54.63,7.04L55.23,5.39L57.19,2.63L57.57,3.41L57.37,2.11L58.21,3.03L58.23,4.13L58.48,3.53L58.64,5.69L59.50,7.89L59.25,8.15L59.65,8.06L60.04,8.80L61.36,9.04L61.53,10.09L60.85,10.31L61.52,10.43L60.08,11.74L59.22,13.00L57.85,13.63L56.30,16.84L54.33,17.51L55.42,17.30L55.61,17.74L59.09,15.76L58.79,16.31L59.56,17.86L58.99,18.15L59.08,18.41L59.68,18.05L60.17,18.71L61.29,18.08L61.71,18.80L61.62,18.28L62.27,18.56L62.11,18.26L62.71,17.96L62.63,18.08L62.62,18.16L62.81,18.50L62.09,20.25L63.87,17.51L64.15,17.40L63.70,18.14L64.66,16.96L65.24,17.67L65.10,17.28L65.50,17.18L65.07,17.15L65.10,16.69L65.48,16.78L66.23,15.12L66.43,15.42L66.84,15.19L66.82,14.87L67.02,15.36L67.32,15.20L67.39,14.90L67.61,15.38L67.88,15.50L67.70,14.94L68.13,14.94L68.52,15.47L68.68,15.13L68.74,15.64L68.96,15.20L69.08,15.56L68.98,15.63L69.02,15.73L69.34,15.24L69.52,15.83L69.90,15.64L69.85,15.81L69.73,15.78L69.55,15.94L69.52,16.03L70.34,15.64L70.22,16.09L70.80,16.22L70.92,15.74L70.76,16.44L71.17,16.16L71.30,16.51L71.48,16.12L71.56,16.62L71.77,16.14L71.69,16.63L71.91,16.81L72.14,16.32L72.26,16.91L72.92,16.71L72.60,17.23L72.81,17.37L73.15,16.78L73.15,17.88L73.56,17.21L74.06,17.49L74.32,17.05L74.15,17.65L74.40,17.42L74.43,17.91L74.72,17.81L74.46,18.05L75.00,17.88L75.28,18.50L74.96,18.63L75.27,18.64L74.43,19.24L74.83,19.22L74.69,19.55L74.87,19.62L75.35,18.90L75.60,19.38L74.86,20.04L75.15,19.90L74.50,21.84L75.43,20.95L75.78,19.75L76.44,19.59L75.64,20.59L76.05,20.46L76.02,20.74L76.72,19.92L77.71,19.64L77.92,19.94L77.99,19.39L81.02,20.65L82.04,20.39L83.55,21.12L83.52,20.76L86.76,20.69L90.61,22.85L93.91,25.95L95.54,26.50L98.17,26.54L98.90,27.66L99.69,31.61L99.88,31.21L100.00,31.72L99.97,32.58L99.65,32.69L99.97,32.86L99.71,33.14L99.82,33.10L99.75,33.22L99.75,33.33L99.95,33.65L98.70,36.87L97.70,38.09L97.02,37.93L97.41,38.27L95.88,40.20L94.62,40.89L94.02,41.79L93.67,41.53L93.99,41.95L93.53,42.54L93.35,42.49L93.68,42.11L93.61,41.97L93.18,42.39L93.12,42.79L93.46,42.63L92.71,44.15L91.01,46.41L90.47,46.61L90.53,45.86L90.06,45.48L89.77,46.15L89.63,45.69L89.47,45.90L89.65,46.19L89.98,46.25L89.17,47.42L88.98,48.10L89.25,47.84L89.33,48.70L89.04,48.39L88.90,48.45L89.29,48.77L89.09,48.85L89.33,49.28L89.10,49.31L89.09,49.48L89.17,49.57L89.11,49.40L89.39,49.29L89.45,48.86L89.47,49.13L89.11,50.84L89.63,53.85L88.74,57.18L88.93,58.50L87.60,60.02L87.27,63.40L86.66,63.82L86.13,65.10L85.79,65.01L86.07,65.24L85.84,65.69L84.79,66.62L84.03,68.20L84.19,69.55L81.71,70.88L81.96,71.43L81.59,72.02L79.00,72.00L78.89,71.21L78.39,71.42L78.64,71.99L77.65,72.24L76.52,72.30L77.54,72.08L76.91,71.79L76.05,72.19L75.48,71.91L74.74,72.34L75.25,72.82L72.93,73.64L72.89,74.18L71.78,73.99L70.70,74.67L70.62,74.66L70.73,74.57L70.67,74.42L70.45,74.29L70.27,74.43L70.47,74.68L69.04,75.31L66.20,77.26L66.62,77.31L65.80,78.33L66.01,77.88L65.48,78.08L65.50,77.75L65.17,77.80L65.13,78.38L64.44,78.06L64.52,78.43L65.41,78.62L64.95,79.32L64.37,79.37L64.90,79.37L64.82,80.18L64.46,80.29L64.30,79.89L64.30,80.49L64.78,80.83L64.78,82.53L65.12,82.65L64.75,82.89L64.71,85.40L64.39,86.05L64.10,85.69L64.40,86.16L61.72,88.49L59.39,92.57L55.94,95.44L55.91,94.57L56.55,94.64L58.06,93.64L58.27,92.66L58.74,92.79L58.74,92.19L59.47,91.76L59.38,90.84L59.79,91.06L59.67,90.39L58.85,91.01L57.96,89.93L57.85,90.48L58.45,90.81L58.04,91.09L58.00,91.90L57.72,91.55L57.55,92.67L56.23,93.31L56.11,94.11L55.92,93.88L55.58,94.35L55.79,94.83L55.47,95.15L55.93,95.09L55.90,95.43L54.49,97.91L52.62,99.45L52.21,99.21L52.22,97.99L53.30,96.85L52.15,96.16L51.65,95.15L50.34,94.56L49.49,93.63L47.86,93.08L46.98,92.07L45.91,92.67L45.91,91.95L43.82,90.17L43.19,90.18L42.84,90.64L41.94,90.56Z M65.24,14.09L64.69,16.19L63.98,16.34L64.21,17.04L63.93,16.73L63.81,16.72L64.19,17.12L63.61,17.33L63.28,16.97L63.35,17.47L62.79,17.21L62.83,17.63L62.43,17.25L62.38,17.82L62.03,17.94L61.88,17.46L61.74,18.06L61.16,17.65L60.66,17.86L60.57,17.21L60.48,18.03L59.81,18.02L59.19,17.09L59.21,16.20L59.81,16.44L60.02,16.08L59.21,16.03L59.35,14.84L59.49,15.06L59.83,15.16L59.46,14.35L60.34,13.68L65.24,14.09Z M58.08,14.80L57.57,16.45L56.28,17.14L57.40,14.98L58.08,14.80Z" fill="#c4a882" fill-opacity="0.9" stroke="#8b7355" stroke-width="0.5"/>
</svg>