<svg xmlns="http://www.w3.org/2000/svg" viewBox="0 0 100 44.2" width="100" height="44" fill="none">
  <path d="M98.55,17.96L100.00,28.17L90.83,28.28L92.73,35.01L88.28,31.88L79.77,33.50L77.50,29.05L73.67,29.34L67.86,44.16L63.55,38.16L55.28,34.91L54.41,30.08L41.75,42.07L24.71,42.61L18.18,37.15L18.47,30.92L14.60,29.99L0.00,37.25L3.56,27.15L24.03,10.52L20.24,9.97L22.62,6.96L58.01,4.72L54.23,3.03L57.96,0.00L82.31,7.78L78.44,16.44L92.58,21.27L98.55,17.96Z" fill="#c4a882" fill-opacity="0.9" stroke="#8b7355" stroke-width="0.5"/>
</svg>