<svg xmlns="http://www.w3.org/2000/svg" viewBox="0 0 100 54.5" width="100" height="55" fill="none">
  <path d="M8.49,32.88L8.34,31.87L8.74,31.49L7.63,30.98L7.15,29.92L7.22,29.56L5.37,29.41L4.75,28.89L4.14,29.04L3.71,28.62L3.90,28.35L3.63,27.67L2.94,27.54L2.75,27.21L2.03,27.24L1.23,26.88L2.50,26.44L2.06,26.11L1.97,24.71L1.15,24.36L0.30,24.50L0.00,23.09L0.47,22.87L0.30,22.53L0.56,22.11L2.01,21.65L1.97,21.35L2.55,21.46L3.15,21.15L3.35,21.71L4.27,21.46L4.38,21.62L5.28,20.53L7.27,20.48L8.22,19.68L10.79,18.86L10.65,17.86L11.31,17.48L11.02,17.23L11.71,17.03L10.97,15.44L11.00,14.57L11.22,14.45L10.18,14.16L13.14,13.44L13.60,13.77L14.57,13.80L14.72,13.33L14.16,13.13L15.36,10.40L16.80,10.78L18.04,10.76L18.17,11.04L19.41,10.65L19.70,10.29L19.44,9.23L19.77,8.51L21.15,8.24L21.63,7.29L23.20,7.19L23.29,7.52L23.07,7.68L23.60,7.94L23.47,8.20L24.32,8.46L24.47,8.78L25.21,9.11L26.02,9.05L27.33,9.66L28.48,11.44L28.24,11.88L28.41,12.33L27.84,13.20L28.20,13.70L32.54,14.09L34.45,15.08L35.60,15.18L35.47,15.61L35.82,15.71L36.38,16.87L37.17,17.73L45.62,18.03L46.45,18.61L49.16,19.31L50.49,19.12L50.49,19.47L51.26,19.59L54.20,18.44L58.64,18.18L60.15,17.66L61.07,16.76L62.64,16.14L61.77,15.01L62.69,13.87L65.38,14.43L66.90,13.38L68.75,13.26L69.57,12.85L70.23,11.89L71.48,11.79L71.58,11.44L72.24,11.52L73.95,11.12L74.72,11.37L75.60,11.29L75.67,10.90L75.35,10.47L73.45,9.15L72.19,9.11L71.52,9.67L70.64,9.30L69.69,9.32L69.16,9.62L68.60,9.25L68.50,8.88L68.97,8.70L68.97,8.23L70.41,6.12L72.30,6.63L73.62,5.90L74.72,5.68L74.79,5.27L74.43,5.19L76.00,3.11L77.11,2.36L76.86,1.99L77.02,1.67L75.97,1.59L75.89,1.31L77.27,0.46L81.75,0.00L83.80,0.74L84.14,0.57L85.03,0.82L85.07,1.11L85.80,1.29L85.64,1.60L86.56,2.34L86.37,2.56L87.14,3.55L86.97,3.72L87.24,3.66L87.18,4.09L87.76,4.60L87.83,5.29L88.25,5.49L88.17,6.17L88.69,6.51L90.02,6.46L90.75,6.89L91.34,6.77L92.52,7.66L93.30,7.68L93.06,8.09L93.54,8.58L93.30,8.99L93.87,9.62L96.32,9.58L96.57,9.18L97.25,8.92L97.96,8.94L99.37,8.48L99.91,8.67L99.65,9.08L100.00,9.57L99.04,10.20L99.11,10.54L98.48,11.60L98.58,11.95L98.23,12.14L97.88,12.98L97.39,13.20L97.26,13.83L96.97,13.96L95.22,13.45L94.54,14.07L93.72,14.27L94.26,15.55L94.09,16.41L94.29,16.66L94.00,17.42L92.86,17.71L93.13,17.90L93.06,18.05L92.62,17.75L92.58,17.44L92.00,17.28L91.71,18.19L91.11,18.18L90.46,18.86L88.98,18.92L89.42,19.59L89.16,19.93L87.51,19.69L87.17,19.24L86.76,19.34L86.51,19.97L85.66,20.71L83.85,21.39L82.60,22.44L81.16,22.48L81.11,22.71L79.58,23.25L78.90,23.90L78.66,23.77L78.43,23.92L78.61,24.04L77.77,24.28L77.67,23.91L78.58,23.68L78.44,23.39L79.02,23.17L78.33,23.22L78.19,22.99L77.84,22.96L78.35,22.80L78.24,22.49L78.90,22.20L79.60,21.36L78.87,20.82L78.89,20.56L78.68,20.80L78.06,20.65L77.44,20.83L76.61,21.83L75.08,22.36L74.54,22.89L74.66,23.19L74.08,23.61L73.10,23.77L72.61,23.46L72.10,23.64L71.82,24.44L72.10,24.84L72.67,25.22L74.12,25.30L74.63,25.92L74.15,26.12L74.14,26.61L74.44,26.80L75.46,26.84L76.37,26.06L76.19,25.97L77.05,25.73L78.41,26.39L79.09,26.39L79.31,26.17L79.41,26.41L80.23,26.42L79.77,27.06L79.99,27.05L79.94,27.26L79.63,27.38L79.38,27.07L79.16,27.26L78.99,27.10L78.50,27.52L78.23,27.37L77.51,27.77L77.07,27.72L77.39,27.98L77.01,28.03L76.86,28.54L76.42,28.66L76.34,28.28L76.00,28.36L76.33,28.77L75.26,29.41L74.52,30.36L74.52,30.82L74.93,30.78L76.26,31.49L77.30,33.61L77.20,34.13L78.11,34.64L78.20,35.08L78.98,35.67L77.94,35.45L77.44,35.57L76.88,35.14L76.05,35.36L75.58,34.78L75.20,34.69L75.19,34.95L75.85,35.35L76.21,35.42L76.61,35.23L77.07,35.30L77.03,35.57L77.71,35.78L79.03,36.93L79.04,37.11L77.47,37.63L77.20,38.04L76.98,37.90L76.62,37.88L76.54,37.90L76.46,38.09L76.26,38.05L76.08,38.21L76.47,38.13L76.57,37.94L76.85,37.93L77.04,38.16L76.87,38.34L76.95,38.40L77.13,38.43L76.90,38.33L77.89,37.97L78.65,38.60L79.00,38.72L79.32,38.70L78.20,39.32L78.27,39.54L79.06,39.21L79.02,39.86L78.76,39.90L78.76,39.56L78.66,39.88L78.41,39.68L78.14,39.91L78.60,40.15L78.59,40.32L78.43,40.24L78.41,40.29L78.32,40.25L78.28,40.29L78.49,40.61L77.71,40.43L78.31,40.74L78.55,41.26L78.14,41.31L78.04,41.57L77.75,41.18L77.42,41.83L76.75,41.63L77.26,42.00L76.88,42.20L76.95,42.66L76.69,43.12L76.16,42.96L76.53,43.21L75.89,43.61L76.05,43.78L76.06,44.03L75.59,44.23L75.97,43.78L75.64,44.01L75.59,43.69L75.32,43.75L75.39,43.94L75.11,43.86L75.18,44.15L75.49,44.14L75.50,44.41L75.27,44.27L75.13,44.34L75.32,44.56L75.76,44.49L75.27,44.64L74.95,45.11L74.91,45.11L74.88,45.07L74.66,45.00L74.56,44.92L74.36,44.84L74.61,45.14L74.74,45.17L75.34,45.08L75.17,45.59L74.94,45.59L75.27,46.13L74.70,45.73L74.37,46.03L74.77,46.32L74.36,46.54L74.25,46.26L74.00,46.32L74.23,46.78L73.50,46.91L73.81,47.11L73.58,47.46L73.27,47.21L72.93,47.47L72.83,47.22L72.60,47.62L72.23,47.59L72.77,47.93L72.15,48.50L72.24,48.32L72.02,48.25L71.90,48.78L71.87,48.51L71.61,48.44L71.73,48.63L71.38,48.71L71.35,48.98L70.79,48.91L70.56,49.42L70.15,49.30L70.61,49.60L70.13,49.61L70.10,50.09L69.65,50.02L68.99,50.40L68.85,50.10L68.32,50.11L68.66,50.21L68.60,50.53L68.04,50.34L68.16,50.15L67.64,50.50L67.44,50.38L67.49,50.73L67.24,50.63L67.29,50.29L66.88,50.47L67.03,50.78L66.87,50.88L66.67,50.62L65.85,50.88L65.38,50.24L65.43,49.93L65.36,50.12L65.25,49.97L65.75,49.80L65.07,49.83L65.18,50.11L64.74,50.15L65.37,50.68L65.18,51.37L64.66,50.68L65.05,51.33L64.88,51.32L64.65,51.58L64.53,51.29L64.24,51.86L64.10,51.68L63.65,52.00L63.40,51.51L63.22,52.10L62.57,51.75L62.75,51.99L62.54,52.15L62.23,51.98L62.41,52.25L62.15,52.39L61.16,52.38L60.19,52.95L60.28,52.71L60.07,52.55L60.14,52.97L59.80,53.14L59.74,53.51L60.09,53.51L59.97,53.82L60.36,54.11L59.94,54.48L59.35,54.50L59.26,54.23L59.50,54.19L59.19,54.05L59.25,53.73L58.93,53.38L59.39,52.45L58.91,52.41L58.82,52.04L58.61,52.17L58.71,52.46L58.07,52.60L58.07,52.27L57.73,52.25L57.72,52.01L57.52,51.92L57.62,52.21L57.43,52.27L57.15,51.70L56.96,51.76L57.14,52.15L56.98,52.34L56.77,52.07L56.68,52.37L56.55,52.21L56.16,52.55L55.90,52.20L55.14,52.28L54.59,51.74L54.01,51.68L53.80,50.91L54.23,50.32L53.16,50.03L52.70,50.15L51.81,49.39L51.09,49.72L50.81,50.29L50.22,50.50L49.81,50.33L49.60,50.80L49.09,50.32L48.86,50.67L48.54,50.34L48.08,50.92L47.16,50.37L46.75,50.95L45.89,50.84L45.61,51.22L46.08,52.24L46.00,53.03L45.16,52.94L44.90,52.01L44.14,52.49L43.39,52.55L43.36,52.19L43.04,52.08L43.03,51.55L41.73,51.37L42.08,50.81L41.99,50.41L42.37,50.11L42.04,49.78L41.26,49.70L41.26,48.99L40.93,48.42L41.27,48.12L40.03,48.19L39.24,48.60L39.06,48.45L39.40,48.07L39.28,47.65L39.06,47.64L39.10,47.14L39.47,46.99L39.37,46.60L40.03,46.08L40.08,45.72L40.37,45.81L40.98,45.32L40.75,44.91L41.01,44.80L41.09,44.06L40.97,42.50L40.53,42.33L40.34,42.57L40.05,41.58L39.32,40.97L39.08,40.95L38.75,41.46L37.76,41.10L37.19,41.19L37.56,40.65L37.33,40.18L36.90,40.27L37.16,39.73L36.25,39.60L35.55,40.12L34.34,39.65L33.78,39.93L33.88,40.14L33.19,40.69L32.20,40.82L32.02,41.25L31.15,41.59L31.16,41.96L29.96,42.26L28.88,41.66L28.49,41.87L27.55,41.69L27.73,41.43L27.14,41.23L26.05,41.59L25.10,42.58L25.09,42.94L24.74,42.74L24.84,41.82L24.50,41.64L23.69,42.04L22.47,42.13L21.34,41.64L20.92,41.96L20.48,41.56L20.20,42.00L19.73,41.26L18.74,41.31L18.86,40.84L18.28,40.92L17.69,40.61L17.10,39.76L16.18,39.88L15.61,39.16L13.94,38.44L13.83,38.00L12.68,37.93L12.62,38.28L12.21,38.51L12.01,38.12L10.71,37.62L10.67,37.24L9.44,36.87L8.99,36.19L8.36,36.40L8.36,35.33L7.89,34.89L7.77,34.37L8.35,34.24L8.69,34.70L9.79,34.08L9.32,33.64L9.52,33.22L8.49,32.88Z" fill="#c4a882" fill-opacity="0.9" stroke="#8b7355" stroke-width="0.5"/>
</svg>