<svg xmlns="http://www.w3.org/2000/svg" viewBox="0 0 100 100.0" width="100" height="100" fill="none">
  <path d="M19.04,69.12L13.64,64.83L14.69,63.73L16.34,63.97L15.55,61.53L16.32,60.07L17.69,58.79L18.97,59.72L19.18,58.77L20.06,58.63L20.33,59.19L21.19,59.12L20.88,58.09L22.04,57.09L21.42,56.79L23.01,54.55L23.84,54.76L23.82,53.40L25.56,51.20L24.23,51.65L24.61,50.29L23.67,51.12L23.14,50.52L24.33,49.11L23.43,48.62L24.20,46.48L23.46,42.30L22.40,41.70L24.27,40.31L22.85,37.59L23.68,35.33L20.38,31.33L21.17,28.51L22.27,29.57L24.77,27.11L22.82,23.91L23.15,22.99L26.75,25.93L26.30,27.17L27.20,27.21L27.09,24.25L26.06,23.48L29.84,21.08L32.07,18.12L34.00,18.05L33.50,16.57L34.54,13.34L33.51,13.97L34.63,12.87L34.61,11.33L36.12,10.02L38.65,8.13L41.92,8.84L40.13,9.58L41.34,10.29L42.79,6.73L47.94,7.03L54.10,3.49L54.85,1.27L56.05,1.81L57.62,0.00L60.10,0.76L60.84,2.71L55.73,4.90L54.08,7.86L52.69,8.07L51.59,9.65L50.20,12.18L49.78,15.90L47.35,19.73L49.63,18.99L49.96,20.14L50.94,20.08L53.67,26.13L52.74,27.12L52.81,29.83L54.44,30.45L55.71,32.66L60.56,32.96L63.44,32.14L66.88,32.90L70.98,37.99L72.16,38.24L73.27,37.42L75.82,37.91L80.66,36.85L82.91,37.54L81.91,41.47L80.61,42.68L80.37,47.51L81.83,52.12L83.76,54.38L80.59,57.36L80.48,57.94L81.86,57.80L84.47,60.31L86.31,66.56L86.36,67.32L85.09,67.60L84.91,64.40L83.07,61.84L80.05,64.22L78.47,62.58L77.94,63.69L78.64,64.33L68.51,64.42L68.53,68.30L71.91,68.42L72.81,70.75L70.77,70.25L67.32,71.12L67.24,75.60L69.93,77.78L71.24,81.72L67.86,100.00L65.79,97.56L63.25,97.28L67.02,90.35L62.23,87.88L59.14,88.86L57.20,87.40L54.62,89.07L50.08,89.16L48.51,87.89L48.53,85.35L46.51,84.66L45.88,82.15L42.11,80.46L41.20,77.89L38.77,75.66L32.99,74.13L29.93,71.88L28.35,73.35L23.37,72.32L21.54,69.59L19.04,69.12Z" fill="#c4a882" fill-opacity="0.9" stroke="#8b7355" stroke-width="0.5"/>
</svg>