<svg xmlns="http://www.w3.org/2000/svg" viewBox="0 0 100 36.7" width="100" height="37" fill="none">
  <path d="M40.44,2.64L45.38,0.37L48.52,3.87L62.96,5.82L64.36,6.95L61.00,9.34L67.83,13.97L73.08,12.12L71.27,8.94L79.14,11.79L83.34,10.75L82.23,13.78L95.94,16.73L100.00,22.60L95.59,23.03L83.62,32.19L75.34,32.24L72.04,36.02L65.74,33.04L59.31,33.97L43.30,30.01L38.44,36.43L33.11,36.70L8.35,23.80L4.50,19.16L6.58,16.76L0.00,11.76L3.27,12.97L6.38,9.60L33.57,2.32L32.69,0.00L40.44,2.64Z" fill="#c4a882" fill-opacity="0.9" stroke="#8b7355" stroke-width="0.5"/>
</svg>