<svg xmlns="http://www.w3.org/2000/svg" viewBox="0 0 100 83.8" width="100" height="84" fill="none">
  <path d="M87.29,68.08L86.38,70.07L83.50,69.50L82.96,71.67L75.64,74.56L78.41,77.49L77.32,78.85L79.30,79.55L78.53,81.68L75.89,79.47L70.18,78.75L59.13,82.47L50.25,80.46L50.24,82.45L47.29,83.82L47.83,82.70L44.93,80.85L29.68,77.99L27.85,79.48L30.22,79.58L29.85,80.29L26.10,79.96L24.01,80.64L19.25,80.59L18.92,74.55L21.46,69.05L25.75,65.27L17.06,62.96L9.53,63.10L5.35,59.81L7.08,56.07L2.62,53.29L5.68,50.35L0.00,42.62L3.18,41.16L2.18,40.50L3.84,38.57L0.81,33.86L9.73,32.84L9.03,31.17L12.84,29.30L12.26,26.88L8.94,25.88L12.75,24.96L14.69,18.15L16.58,17.52L12.81,16.71L15.04,13.52L23.89,13.06L25.80,16.33L26.52,14.11L29.61,14.87L28.93,15.50L29.09,16.91L29.76,14.84L28.89,13.15L30.00,11.28L36.85,11.26L40.94,14.35L43.68,14.87L38.88,11.71L37.37,11.11L34.37,10.98L33.61,10.54L32.70,9.45L34.74,8.78L32.48,7.87L34.13,6.36L30.14,6.14L34.66,4.29L30.81,0.00L44.95,1.28L45.82,3.70L43.77,4.63L47.10,4.45L47.09,6.29L49.03,4.98L53.57,6.44L58.01,5.61L57.25,7.83L53.80,9.30L55.44,10.28L61.55,10.88L64.10,8.15L68.78,8.78L68.71,7.84L73.38,4.49L77.64,5.09L74.37,5.20L73.31,5.76L72.33,5.59L71.57,6.89L78.60,5.04L79.77,6.77L83.82,8.85L86.33,7.94L86.71,9.45L88.46,10.48L87.50,11.19L87.49,11.47L92.41,12.58L94.35,18.08L90.86,22.49L96.59,25.50L95.49,27.64L97.87,30.99L95.94,33.99L97.30,37.00L100.00,38.04L100.00,42.13L97.84,44.92L92.66,42.42L93.31,44.15L73.12,49.55L70.82,52.05L70.15,51.00L68.35,50.36L73.27,54.87L71.73,56.65L74.59,60.09L85.20,65.41L87.29,68.08Z M86.64,6.23L80.15,6.66L81.51,4.55L80.08,3.88L84.08,4.49L80.98,2.87L83.40,2.38L86.64,6.23Z" fill="#c4a882" fill-opacity="0.9" stroke="#8b7355" stroke-width="0.5"/>
</svg>