<svg xmlns="http://www.w3.org/2000/svg" viewBox="0 0 100 87.7" width="100" height="88" fill="none">
  <path d="M18.70,58.58L0.00,47.49L0.02,40.68L5.15,37.30L14.17,36.22L15.22,36.66L16.98,34.46L20.87,31.88L24.39,30.90L24.83,29.72L23.43,28.68L24.32,26.37L28.35,25.66L28.09,24.29L36.18,24.23L36.02,22.93L37.05,22.27L35.15,21.07L33.94,18.67L33.96,14.59L33.28,13.17L33.80,12.65L32.98,12.09L33.47,11.39L31.28,9.70L33.51,9.51L37.04,6.83L39.01,6.63L39.72,5.82L41.64,6.29L43.70,4.30L48.56,2.65L54.64,2.40L56.25,1.38L60.80,0.85L65.22,0.96L67.73,2.18L73.11,0.00L75.69,0.98L77.07,0.61L77.02,0.02L80.34,1.18L83.70,0.74L83.89,1.24L81.60,2.75L82.51,3.21L81.95,6.13L82.21,8.56L82.87,8.96L81.93,11.84L79.97,12.97L78.26,15.49L79.45,18.70L81.20,19.36L82.39,22.11L85.84,24.31L88.14,33.24L87.01,33.78L89.62,38.57L89.39,42.74L90.15,44.87L89.12,47.46L89.96,50.55L87.45,52.90L90.50,56.95L90.62,59.25L91.64,60.52L97.93,61.96L100.00,65.74L78.28,78.54L70.10,85.43L58.18,87.73L57.07,86.96L57.83,85.73L57.53,83.64L53.67,82.50L52.70,81.44L50.65,81.30L49.60,79.88L47.63,79.19L47.59,77.43L18.70,58.58Z" fill="#c4a882" fill-opacity="0.9" stroke="#8b7355" stroke-width="0.5"/>
</svg>