<svg xmlns="http://www.w3.org/2000/svg" viewBox="0 0 100 78.9" width="100" height="79" fill="none">
  <path d="M78.00,2.45L83.63,17.41L78.46,31.86L70.03,24.96L69.61,21.52L65.82,17.69L64.69,13.14L62.72,16.57L64.72,18.40L67.08,24.88L72.70,30.48L72.22,32.53L76.32,38.68L75.93,39.22L75.87,40.67L85.74,58.33L91.05,63.23L88.52,63.11L90.26,71.19L100.00,78.87L55.32,78.87L55.22,76.97L53.79,78.88L2.40,78.87L2.40,19.94L0.00,11.73L2.51,6.79L1.31,2.17L3.28,0.00L21.58,1.91L22.61,3.20L25.95,3.06L26.55,4.22L30.63,4.35L35.58,6.45L44.12,2.30L44.91,3.25L45.92,3.08L45.03,2.75L46.52,0.86L51.54,0.22L48.00,1.73L49.58,1.85L52.73,0.99L51.57,0.24L52.55,0.05L56.32,1.40L58.92,0.64L59.24,0.64L59.50,0.76L61.59,2.61L59.05,0.67L58.04,2.70L60.83,4.59L62.28,3.91L61.65,2.61L64.89,4.53L67.56,3.76L65.42,4.60L65.95,4.71L68.24,4.57L68.68,3.92L68.40,4.20L67.78,4.15L69.05,3.42L69.25,4.66L73.47,4.07L78.00,2.45Z M88.07,70.81L86.29,72.38L89.65,69.49L88.07,70.81Z M82.73,74.73L83.15,73.86L83.42,73.25L82.73,74.73Z M77.56,77.26L78.99,76.98L81.95,76.39L79.82,76.79L77.56,77.26Z" fill="#c4a882" fill-opacity="0.9" stroke="#8b7355" stroke-width="0.5"/>
</svg>