<svg xmlns="http://www.w3.org/2000/svg" viewBox="0 0 100 61.1" width="100" height="61" fill="none">
  <path d="M51.05,2.68L61.76,4.32L61.34,5.87L62.68,5.37L68.31,8.01L74.93,8.83L79.15,7.55L83.31,8.51L84.14,10.66L86.17,10.13L88.54,11.35L97.74,10.69L98.81,11.54L97.25,12.36L98.14,14.50L89.49,19.54L80.76,21.52L78.38,23.37L79.51,24.38L77.19,25.14L70.24,33.57L71.53,37.60L74.61,39.64L68.77,42.81L66.05,47.49L67.24,48.45L62.38,48.90L59.66,50.46L56.08,55.38L54.24,54.59L51.44,55.81L38.22,55.48L36.21,57.18L32.07,57.93L28.73,61.11L25.40,59.67L22.59,56.16L24.16,53.85L22.64,54.82L18.68,52.01L18.99,51.00L18.40,51.96L14.59,51.80L13.80,48.59L18.25,43.92L17.03,44.10L15.02,41.96L18.05,37.51L13.47,32.28L17.67,32.17L18.78,29.70L17.50,28.35L19.45,26.97L18.29,21.80L24.07,17.45L21.44,16.75L20.90,14.37L8.58,15.56L9.24,13.75L8.25,12.87L3.07,14.91L2.96,13.14L3.50,13.05L5.10,11.35L3.18,12.06L4.85,10.61L3.37,10.91L2.59,10.39L3.50,10.45L4.25,8.67L1.94,9.81L3.02,7.55L1.36,8.13L1.09,6.87L0.00,7.06L1.30,5.12L0.44,5.01L3.48,3.55L8.34,3.77L7.60,2.69L8.67,2.37L7.54,1.78L12.46,0.00L17.49,2.47L26.85,1.02L37.60,3.22L44.68,2.16L49.17,3.71L51.05,2.68Z M100.00,31.88L96.79,35.51L93.82,33.23L91.22,33.09L97.72,30.02L97.39,31.43L100.00,31.88Z M85.38,37.40L83.78,38.93L82.32,38.52L83.42,37.01L85.38,37.40Z" fill="#c4a882" fill-opacity="0.9" stroke="#8b7355" stroke-width="0.5"/>
</svg>