<svg xmlns="http://www.w3.org/2000/svg" viewBox="0 0 100 76.6" width="100" height="77" fill="none">
  <path d="M7.21,36.19L8.91,31.06L8.60,28.78L10.57,26.65L12.33,27.69L13.90,20.42L18.00,14.81L20.85,14.53L23.59,4.11L27.16,4.02L28.71,2.82L30.45,5.16L32.70,0.00L36.27,3.08L40.16,1.52L41.49,2.93L43.53,2.08L47.47,2.76L52.33,5.16L62.64,16.10L58.73,21.18L58.52,25.91L66.27,25.89L64.43,28.34L65.69,31.17L69.58,36.47L73.35,39.17L93.33,45.92L100.00,45.92L79.73,66.50L70.31,66.97L65.66,70.56L60.80,71.30L59.02,72.92L54.53,72.96L51.86,70.68L45.76,73.47L43.46,76.56L34.10,75.17L26.86,70.11L19.69,69.19L18.43,66.88L18.78,63.79L15.33,63.41L11.43,54.67L4.85,48.18L0.00,46.45L1.64,42.86L5.01,43.45L7.34,42.18L7.21,36.19Z" fill="#c4a882" fill-opacity="0.9" stroke="#8b7355" stroke-width="0.5"/>
</svg>