<svg xmlns="http://www.w3.org/2000/svg" viewBox="0 0 100 67.8" width="100" height="68" fill="none">
  <path d="M50.88,0.00L51.57,1.89L55.12,2.15L56.11,3.91L58.46,4.26L59.08,5.51L62.58,5.79L62.12,7.76L64.44,8.04L67.22,6.56L67.12,9.03L71.36,11.09L77.97,11.32L80.14,13.46L85.00,13.39L90.51,14.86L87.79,17.26L86.22,20.64L86.23,24.45L84.78,25.52L81.95,25.11L81.20,26.06L82.39,26.23L78.25,28.92L74.84,34.11L76.14,34.46L78.53,32.38L80.65,32.62L80.50,34.45L82.29,36.03L80.71,37.47L83.26,39.62L82.52,41.00L79.36,41.77L82.19,43.73L81.20,46.87L86.95,49.00L85.46,51.11L80.26,53.60L79.28,54.57L79.90,55.04L76.41,56.20L68.41,54.10L69.76,53.09L68.38,52.55L67.17,54.06L66.49,53.50L66.38,52.79L66.05,52.40L66.38,53.50L66.92,54.03L60.87,52.68L55.01,55.70L54.51,59.03L55.48,60.41L51.86,61.06L47.21,60.99L45.30,59.17L38.95,57.62L37.86,57.57L37.77,58.65L33.01,58.64L24.30,55.68L23.11,56.13L23.48,54.75L20.74,53.83L22.97,52.40L24.51,45.59L25.99,44.79L25.10,44.03L24.48,45.09L25.71,38.52L29.55,43.22L29.12,42.32L29.83,42.50L27.73,39.16L24.57,37.53L26.39,37.48L25.24,36.43L25.53,33.40L20.75,32.06L18.49,29.78L19.39,28.28L17.64,27.53L18.20,26.64L21.23,27.06L19.25,26.30L17.38,26.81L15.54,26.43L16.78,25.00L13.62,25.04L12.98,24.63L14.15,24.68L14.52,24.31L14.55,24.18L14.39,24.04L12.52,23.90L11.42,25.19L11.52,23.42L10.78,23.95L9.84,23.66L10.37,23.03L9.23,23.61L4.44,22.08L2.77,22.89L2.33,21.72L0.28,21.27L3.37,20.74L1.47,20.31L1.55,19.13L1.76,19.48L3.48,19.54L4.05,19.40L2.20,19.21L3.34,18.54L0.00,19.14L0.03,17.92L5.54,16.43L8.26,16.78L8.75,15.67L10.74,15.46L14.56,18.00L17.12,16.67L19.46,17.96L19.70,16.67L23.81,17.06L22.44,16.33L22.47,13.00L20.60,11.89L19.77,9.52L24.46,9.72L25.03,12.08L33.04,12.34L34.41,11.67L36.15,11.41L36.72,11.12L33.83,10.97L34.93,9.48L44.95,6.25L44.04,5.65L44.31,1.53L50.88,0.00Z M47.24,60.33L46.94,60.06L46.87,60.28L47.24,60.33Z M92.95,61.73L93.92,61.52L92.95,60.79L94.06,59.38L98.13,58.72L98.51,56.42L99.33,56.52L99.19,58.95L100.00,62.40L97.65,67.80L94.64,66.49L95.55,65.56L93.69,65.17L94.74,64.07L93.40,64.12L94.31,63.03L92.95,61.73Z" fill="#c4a882" fill-opacity="0.9" stroke="#8b7355" stroke-width="0.5"/>
</svg>