<svg xmlns="http://www.w3.org/2000/svg" viewBox="0 0 100 100.0" width="100" height="100" fill="none">
  <path d="M57.77,83.02L46.95,86.53L44.12,84.44L39.92,85.06L41.98,83.93L39.22,82.87L33.83,84.67L32.16,83.91L34.73,83.58L34.92,82.81L31.57,83.81L32.10,82.25L30.37,82.17L39.68,78.87L43.13,75.76L41.46,75.25L42.75,74.03L41.24,73.30L41.91,72.22L35.50,73.51L40.97,69.50L48.90,68.25L51.18,69.34L50.25,67.86L51.45,67.47L53.11,68.84L54.81,68.25L52.70,68.26L51.04,66.31L52.94,64.65L51.47,63.06L53.33,62.48L53.91,59.85L50.64,61.58L50.06,59.72L49.12,60.38L46.06,57.38L48.37,53.91L51.79,53.05L46.66,52.86L42.53,54.99L38.87,53.69L39.06,55.81L34.60,54.07L34.60,56.25L31.81,53.95L36.85,48.18L34.02,46.19L34.34,44.21L38.13,44.13L34.67,43.57L35.56,41.53L34.02,41.89L33.43,44.67L32.12,43.37L32.47,44.38L31.59,43.75L30.50,44.84L30.11,43.49L34.02,40.86L29.12,43.20L30.30,45.49L28.69,46.78L28.36,49.46L25.95,49.88L26.90,46.51L29.02,44.90L27.10,45.36L27.93,43.11L26.65,44.00L28.30,42.65L27.92,40.39L29.00,39.33L31.32,39.28L32.17,38.71L32.67,38.17L28.89,39.01L31.01,38.17L29.40,38.36L30.30,37.27L33.32,36.76L31.05,36.75L32.16,35.80L26.97,38.81L23.84,37.45L28.19,36.95L22.40,37.11L21.72,36.64L26.19,36.11L25.31,35.70L26.41,35.55L27.10,35.29L24.66,35.09L25.49,34.13L26.21,33.85L27.11,34.29L27.93,34.25L28.38,34.06L26.01,33.39L29.53,33.10L26.90,32.62L29.15,31.11L26.45,31.31L28.58,30.63L29.08,30.15L25.72,30.78L25.42,28.68L27.29,29.32L28.48,29.03L25.73,28.08L26.97,27.46L25.68,26.30L31.20,26.17L29.85,25.27L32.61,26.30L29.09,23.95L31.01,23.35L29.61,22.29L33.90,22.65L31.66,21.43L33.13,21.11L32.29,20.01L33.39,18.86L36.46,19.54L35.51,20.55L38.64,19.62L38.00,20.53L51.82,18.75L50.78,21.28L41.85,25.07L42.55,25.97L38.96,25.60L42.26,26.44L44.70,26.09L42.75,27.58L39.88,27.73L38.63,28.69L42.55,27.65L40.31,29.44L48.17,27.33L62.95,28.36L63.61,29.67L56.54,37.92L48.97,40.03L53.07,39.17L55.96,40.86L48.79,43.20L44.16,42.46L51.26,43.96L55.41,42.91L60.06,44.26L64.81,47.34L68.81,56.32L74.81,57.71L79.37,61.13L78.02,61.96L81.33,65.52L81.47,65.83L81.30,66.17L77.64,64.65L74.11,64.69L73.28,64.98L77.46,64.92L82.13,67.61L83.41,70.17L80.17,72.60L83.68,73.71L85.41,71.83L92.01,72.20L96.43,75.05L94.89,80.14L92.55,81.46L91.91,80.95L90.91,80.63L92.00,81.26L90.08,81.33L92.02,82.35L89.25,82.36L86.61,83.52L88.78,83.30L88.73,84.75L84.34,85.53L83.68,86.02L89.22,86.99L93.63,86.67L93.03,88.84L89.25,91.02L72.68,92.78L71.29,91.72L66.35,91.02L67.75,92.13L60.99,92.69L61.68,93.98L57.63,93.57L57.11,94.68L53.26,92.75L47.65,93.27L45.81,97.55L40.76,95.32L40.82,96.60L32.78,97.78L31.49,100.00L28.83,98.40L26.68,99.13L33.13,94.58L34.73,94.81L34.02,94.10L37.23,92.37L37.71,90.12L40.69,89.54L40.50,88.46L51.79,88.46L52.23,86.66L57.77,83.02Z M11.12,52.49L14.91,51.00L22.97,50.83L26.82,54.75L24.78,56.51L27.90,55.81L29.22,57.86L28.45,59.01L28.05,57.39L26.71,56.77L26.64,58.89L28.10,59.38L23.17,61.85L18.01,61.79L14.39,58.31L11.94,61.00L8.86,60.87L3.57,57.86L7.93,56.52L5.86,55.66L9.47,55.24L11.12,52.49Z M13.50,26.46L16.13,25.66L13.50,24.83L15.17,24.25L13.50,23.80L14.09,22.56L15.87,23.74L17.28,22.97L16.25,22.07L21.99,20.23L22.35,21.50L20.49,22.52L22.42,22.71L18.12,23.93L20.62,24.38L18.12,25.53L17.47,24.19L17.73,25.86L14.81,27.23L13.50,26.46Z M17.07,30.20L18.64,29.38L17.92,28.41L21.01,29.77L20.03,28.05L21.01,27.52L22.48,28.58L22.48,31.24L24.85,31.82L27.22,31.62L23.85,33.83L25.36,32.34L20.94,32.59L19.40,31.18L20.89,31.18L17.07,30.20Z M70.39,1.80L68.15,7.38L67.20,6.87L68.26,4.94L68.21,3.72L66.45,4.56L64.26,3.35L68.28,2.70L65.01,1.49L67.89,0.00L67.25,2.25L70.39,1.80Z M26.56,39.74L21.42,40.99L20.49,40.44L21.60,40.54L23.72,39.88L22.01,39.90L23.76,38.74L20.75,38.29L22.50,37.36L26.56,39.74Z M41.49,69.27L38.77,70.30L37.29,67.86L39.60,67.61L41.49,69.27Z M23.59,46.47L21.23,47.40L21.58,45.55L19.20,46.05L22.61,44.01L23.59,46.47Z M54.49,16.13L50.10,16.17L48.72,14.46L51.21,14.18L52.05,14.82L50.76,15.33L54.49,16.13Z" fill="#c4a882" fill-opacity="0.9" stroke="#8b7355" stroke-width="0.5"/>
</svg>