<svg xmlns="http://www.w3.org/2000/svg" viewBox="0 0 100 93.8" width="100" height="94" fill="none">
  <path d="M33.59,0.00L34.75,2.93L37.07,4.01L36.23,4.80L36.47,6.80L38.72,7.64L38.30,8.51L39.26,9.30L38.67,10.09L36.96,10.73L36.26,9.76L35.05,10.04L35.30,11.13L36.28,12.04L36.28,14.29L37.61,13.84L38.53,15.26L40.07,15.50L41.35,16.25L41.19,16.85L44.01,18.03L41.84,19.59L40.70,22.74L44.58,24.37L45.01,25.17L46.93,26.12L49.75,26.65L50.00,27.34L51.81,27.90L52.17,27.42L53.77,27.85L54.67,27.27L56.34,27.97L56.46,28.93L58.67,29.93L59.78,29.54L60.53,30.51L62.09,30.36L63.56,31.03L64.68,30.47L65.56,31.27L67.51,30.86L67.87,31.20L68.54,29.91L67.85,28.65L68.30,25.85L70.05,25.24L70.88,26.09L70.50,27.21L71.01,27.95L70.46,28.51L71.71,29.64L74.17,30.07L76.00,29.38L77.26,29.83L81.23,29.70L81.90,29.41L81.95,28.03L81.56,27.41L80.29,27.21L80.16,26.12L81.48,26.55L83.62,26.13L84.17,25.66L83.97,25.15L85.78,24.44L86.16,23.54L88.25,23.27L90.55,21.10L93.17,22.06L94.46,21.02L95.59,20.92L96.59,21.30L96.01,22.39L96.90,22.20L97.37,23.01L96.37,24.17L99.16,24.35L100.00,25.62L98.29,26.98L99.17,28.73L97.75,27.79L95.83,28.15L92.34,30.36L92.43,32.28L90.57,34.52L90.39,35.18L90.92,35.79L88.94,39.79L86.13,39.08L86.35,42.28L85.55,42.61L85.66,45.25L84.65,46.29L83.99,45.61L83.62,46.22L82.54,40.30L81.38,40.24L80.95,42.41L80.23,42.91L79.58,41.82L79.30,42.37L78.69,40.56L79.47,38.96L81.23,38.76L81.31,38.14L82.02,37.91L82.41,36.25L83.30,36.12L81.76,35.25L76.05,35.36L74.18,34.90L74.22,32.52L73.62,31.69L73.23,32.59L72.53,32.46L71.53,31.15L71.01,31.13L71.45,31.65L70.23,31.55L69.23,30.36L69.04,30.86L69.66,31.24L68.52,31.97L68.26,33.03L71.33,34.90L71.12,35.30L69.47,35.23L68.03,37.09L70.48,38.31L69.81,40.49L70.59,41.05L70.34,41.86L71.24,42.03L70.83,42.80L71.65,45.63L71.59,46.35L71.06,46.25L71.66,47.45L70.90,46.94L70.38,47.58L70.57,45.69L70.12,46.33L70.30,45.51L70.22,45.44L69.90,46.65L69.92,47.65L69.63,47.66L69.78,46.84L69.65,46.31L69.52,47.43L69.09,47.10L69.02,47.48L68.98,46.95L68.85,46.83L68.83,47.67L68.64,45.57L67.64,44.69L68.52,45.83L67.39,47.07L64.25,48.44L64.12,50.32L64.68,50.60L62.57,52.99L61.64,52.50L62.39,53.11L59.34,54.13L59.64,53.41L58.61,53.74L58.12,54.77L58.54,54.16L59.03,54.05L58.82,54.44L59.66,54.05L56.80,55.90L54.66,58.81L52.39,60.10L51.66,61.22L48.75,62.82L48.29,63.50L48.68,63.57L48.48,64.69L46.61,65.57L44.89,65.54L44.04,67.44L43.65,66.57L43.34,67.65L42.87,66.99L41.54,67.70L40.76,69.78L41.25,71.59L40.74,72.81L41.65,75.43L41.06,74.45L40.76,74.82L41.70,75.47L41.72,76.27L39.85,81.16L39.96,82.48L39.72,82.51L39.47,82.77L40.01,82.62L40.09,86.21L38.14,86.35L36.86,89.01L37.41,89.61L38.32,89.55L38.71,90.09L37.12,89.68L35.14,90.29L34.36,91.05L33.93,92.81L32.06,93.80L30.30,92.80L28.75,90.93L29.18,90.61L28.70,90.82L28.13,89.52L27.96,88.95L27.70,87.37L27.75,87.34L28.11,88.85L28.61,88.80L27.51,86.85L27.71,86.39L25.98,82.52L24.81,80.45L24.13,80.29L22.88,77.54L23.26,77.36L22.84,77.42L22.56,74.71L21.51,71.89L20.37,70.81L20.85,70.52L19.75,69.83L19.30,68.70L19.93,68.82L19.14,68.14L19.49,67.84L19.08,67.95L18.15,66.44L17.31,61.25L16.37,59.07L16.87,58.90L16.25,58.36L16.67,58.22L16.11,57.37L16.37,57.00L16.60,57.33L16.54,55.85L15.84,56.59L15.89,55.33L16.79,55.66L15.81,55.11L16.21,54.59L15.67,54.57L15.42,53.49L16.44,50.39L15.97,49.12L15.30,49.20L15.71,48.88L15.13,48.24L17.07,46.97L15.08,47.28L15.71,46.16L14.92,46.22L15.17,45.48L15.76,45.58L16.34,45.21L14.79,45.35L14.56,44.89L13.71,45.19L14.25,45.87L13.19,46.83L14.22,47.42L13.56,48.86L8.89,50.53L6.54,49.04L2.74,45.13L3.18,44.49L3.66,45.20L6.96,44.22L8.08,42.36L7.70,42.92L6.80,42.74L4.94,43.54L2.47,42.65L0.96,41.19L0.91,40.59L2.32,39.71L0.63,40.71L0.00,40.62L0.45,40.44L0.07,40.13L0.41,39.52L1.99,39.42L2.07,38.16L6.26,38.73L7.78,37.92L8.94,38.50L10.06,37.89L8.59,33.57L7.21,33.45L6.58,32.52L6.90,30.64L4.66,29.94L4.76,28.60L7.52,25.57L8.18,25.55L9.20,26.63L12.77,25.74L14.41,22.98L16.38,22.02L17.89,19.01L19.85,18.12L19.54,17.49L22.30,15.05L21.78,14.74L21.93,12.51L24.70,11.02L22.40,10.30L22.39,9.07L21.23,9.29L21.11,8.51L20.05,7.89L20.58,6.80L19.93,5.98L20.98,5.20L19.68,4.89L20.01,4.32L19.27,3.80L19.77,2.87L21.24,2.43L26.13,3.35L26.97,2.75L29.12,2.52L30.46,1.28L33.59,0.00Z" fill="#c4a882" fill-opacity="0.9" stroke="#8b7355" stroke-width="0.5"/>
</svg>