<svg xmlns="http://www.w3.org/2000/svg" viewBox="0 0 100 76.2" width="100" height="76" fill="none">
  <path d="M2.85,0.00L7.38,3.95L10.94,4.68L13.15,4.54L20.50,0.32L22.40,2.00L21.19,2.57L22.16,3.94L20.61,4.74L23.79,7.10L25.17,6.90L26.51,11.10L32.02,12.31L32.67,13.53L36.21,15.53L40.89,16.49L51.76,14.57L49.70,14.97L51.80,15.25L51.83,14.18L51.28,12.55L55.11,12.05L57.58,9.39L68.17,7.71L69.09,9.32L74.30,11.05L76.59,10.73L79.24,11.58L80.02,13.25L82.90,14.19L84.58,16.21L88.84,16.21L88.66,19.66L89.49,21.85L88.32,25.65L86.43,27.19L87.42,28.22L85.36,29.15L85.46,31.74L87.57,32.38L85.72,34.75L87.11,38.94L87.06,42.85L91.54,43.47L92.27,45.33L87.18,51.32L92.61,58.14L97.11,59.67L97.01,64.75L99.26,64.79L100.00,65.52L99.19,67.97L95.33,68.40L92.30,70.14L91.20,75.01L90.12,76.18L86.09,75.06L85.65,74.17L84.85,74.53L85.22,74.98L72.82,73.57L68.88,72.43L67.13,66.11L66.27,65.41L62.72,65.30L55.82,68.74L53.32,67.60L50.25,67.64L44.48,64.30L44.83,63.80L43.74,62.85L38.25,61.30L36.49,57.14L35.17,56.11L35.82,55.49L34.34,55.02L34.40,53.44L31.75,50.91L31.38,49.57L28.58,50.47L25.41,48.62L26.87,48.79L26.92,47.97L25.73,47.92L25.11,48.80L25.38,50.37L23.05,50.64L22.70,49.44L20.71,48.19L20.71,45.46L18.95,45.44L19.79,41.23L17.59,38.18L10.79,35.28L11.09,33.70L7.07,30.00L7.92,29.15L7.70,26.80L8.74,27.01L8.56,25.69L9.83,24.24L11.07,24.11L10.30,21.19L11.98,20.53L8.98,20.49L6.76,19.54L6.34,17.42L5.48,17.31L5.29,15.94L4.19,15.32L4.52,14.24L2.89,12.10L3.01,10.62L0.97,9.68L2.30,7.39L1.42,7.17L1.35,4.78L0.00,2.03L1.93,1.82L2.85,0.00Z M63.50,66.24L61.81,67.70L58.38,68.41L60.91,67.18L60.83,66.37L63.50,66.24Z" fill="#c4a882" fill-opacity="0.9" stroke="#8b7355" stroke-width="0.5"/>
</svg>