<svg xmlns="http://www.w3.org/2000/svg" viewBox="0 0 100 87.6" width="100" height="88" fill="none">
  <path d="M1.51,10.83L10.42,9.79L15.08,5.31L15.41,7.13L18.52,8.36L20.14,10.61L22.49,4.93L24.63,6.60L27.83,5.99L29.15,7.26L28.79,4.64L32.24,4.60L32.33,1.85L36.88,2.65L38.37,1.02L46.82,0.00L46.37,1.48L48.70,3.32L59.58,4.75L56.76,6.67L59.05,7.60L57.57,9.06L60.81,12.60L58.52,10.88L57.07,11.83L54.70,11.02L54.41,12.11L48.86,13.83L50.19,12.86L48.63,12.98L46.60,14.87L49.79,17.75L47.54,18.96L48.40,23.79L58.87,29.59L62.72,37.66L68.31,41.97L71.87,43.29L80.06,43.36L80.43,44.53L78.04,45.92L78.55,47.22L95.73,54.01L100.00,58.30L98.93,61.01L96.27,60.22L94.52,57.08L87.07,55.34L82.99,61.36L88.61,64.46L88.72,68.20L83.80,69.56L83.66,72.66L79.53,76.77L76.23,76.65L75.80,74.41L78.19,71.92L77.51,70.81L80.74,69.07L75.73,58.82L72.68,59.23L69.74,57.44L70.47,56.14L68.66,53.85L64.97,54.68L66.07,53.35L62.49,52.84L59.76,48.96L54.07,49.17L42.44,40.34L37.81,39.40L38.24,37.95L34.65,35.93L34.93,34.98L32.71,34.79L32.95,32.22L29.28,25.68L18.13,22.27L12.30,26.76L7.55,27.64L8.84,24.42L3.11,23.80L1.96,21.41L3.80,20.15L3.38,18.95L0.00,16.63L4.24,15.33L4.68,14.05L1.51,10.83Z M48.91,26.80L49.35,26.04L48.54,26.53L48.91,26.80Z M49.11,43.49L49.12,43.50L49.11,43.49L49.11,43.49Z M75.88,74.06L71.30,80.50L73.28,84.56L71.27,87.55L66.18,86.39L64.43,84.28L55.16,80.57L50.84,79.91L48.89,77.96L51.45,74.64L52.87,76.02L56.37,74.41L60.34,76.48L75.88,74.06Z M26.94,55.34L25.38,57.26L26.27,58.77L24.88,66.61L20.24,65.65L20.34,67.91L17.11,69.01L14.86,66.00L16.39,60.71L15.04,60.21L15.84,58.60L14.92,55.54L12.97,54.49L13.35,51.38L16.10,52.53L22.06,48.87L25.68,51.06L24.36,51.69L26.20,52.38L26.94,55.34Z" fill="#c4a882" fill-opacity="0.9" stroke="#8b7355" stroke-width="0.5"/>
</svg>