<svg xmlns="http://www.w3.org/2000/svg" viewBox="0 0 100 100.0" width="100" height="100" fill="none">
  <path d="M27.24,63.38L25.78,63.76L25.43,64.59L24.90,63.97L21.87,65.10L21.59,64.18L20.60,64.20L19.89,64.83L19.54,67.12L18.93,67.49L19.18,66.94L17.13,65.88L14.35,66.64L13.07,65.93L12.38,66.70L12.17,66.56L12.63,63.75L15.25,63.77L22.28,58.77L22.26,57.93L24.88,57.00L26.66,57.85L37.16,56.02L37.69,57.89L38.51,56.99L40.65,57.39L41.71,56.06L42.00,56.66L41.39,54.71L45.56,50.51L46.10,46.82L49.36,46.06L48.67,47.29L47.07,47.62L46.55,48.52L47.62,48.40L47.38,49.91L49.06,50.36L56.26,46.79L58.02,44.21L61.28,42.35L64.56,35.59L64.75,32.73L62.85,31.79L63.82,31.82L64.65,30.37L63.78,28.23L66.14,27.06L66.93,25.83L66.01,25.27L66.55,24.45L68.22,24.86L68.63,26.82L69.69,25.92L71.06,26.71L71.52,24.46L68.99,25.14L69.80,22.88L71.92,23.95L72.98,23.51L72.85,27.87L75.11,30.28L76.48,34.31L75.81,34.82L76.42,34.79L75.58,36.91L74.00,37.56L73.00,39.42L73.35,41.68L72.08,40.87L70.14,42.24L70.38,48.20L67.83,53.09L69.64,56.32L67.37,57.21L66.76,59.45L64.16,60.99L63.19,60.71L63.84,60.46L63.33,58.63L65.17,57.20L63.24,56.70L62.78,59.65L61.97,58.69L59.90,58.95L59.65,61.20L57.89,62.78L57.71,59.76L56.28,59.91L54.43,62.79L47.44,62.88L49.31,62.03L47.45,61.70L47.23,60.89L47.18,62.20L46.52,61.95L46.69,59.95L46.37,60.01L44.59,62.29L46.86,63.71L46.75,64.67L43.53,65.15L40.22,69.46L36.19,66.90L36.94,65.35L36.20,64.67L37.99,63.42L38.23,62.23L36.12,62.61L32.93,61.68L29.74,62.83L30.37,62.86L29.74,63.61L27.24,63.38Z M97.79,12.44L96.37,13.51L94.12,13.75L93.40,14.54L89.43,14.47L86.92,15.38L83.83,18.40L83.22,20.64L75.03,16.79L70.20,18.51L68.80,16.99L67.46,16.90L66.26,18.74L71.48,21.38L68.38,21.22L65.79,23.67L64.47,22.64L65.42,20.33L63.25,18.44L63.88,16.42L66.20,15.88L67.58,14.51L66.66,12.62L71.31,13.67L72.77,12.66L72.27,10.39L74.02,9.09L74.91,5.05L73.69,1.55L74.16,0.40L75.76,0.00L86.01,8.09L88.97,8.05L89.75,8.99L90.05,9.07L90.85,9.17L91.83,9.23L95.28,6.75L93.73,10.03L95.58,12.73L94.81,12.60L96.29,13.17L97.79,12.44Z M16.55,75.41L14.81,81.31L13.28,80.86L13.62,81.84L10.90,83.43L11.69,81.47L10.51,80.08L11.48,80.21L11.58,79.36L10.82,79.34L10.16,80.50L10.49,82.55L7.80,81.10L9.04,80.21L8.15,77.16L10.06,75.76L10.96,73.97L9.69,74.13L10.63,73.19L8.51,70.87L7.72,72.67L9.07,72.78L9.19,73.75L8.07,74.29L7.66,73.13L5.63,74.43L6.31,73.54L5.04,72.38L5.29,71.41L5.94,72.67L7.14,72.84L4.54,70.66L4.71,69.82L6.27,70.34L6.27,68.78L7.22,69.39L8.31,68.13L9.36,68.48L9.41,68.11L9.12,68.27L8.81,68.14L8.81,67.99L11.10,66.57L12.27,66.84L12.91,66.40L13.46,68.37L16.70,68.12L17.10,69.17L15.80,70.38L18.05,70.42L17.52,71.22L19.10,72.34L16.55,75.41Z M33.93,67.36L31.90,68.66L31.12,70.60L28.61,68.86L26.04,69.86L24.37,72.03L24.37,73.61L22.22,73.38L22.69,72.47L20.81,71.84L20.88,70.78L21.76,70.65L21.03,69.40L18.67,69.95L22.50,67.84L23.77,65.50L25.09,66.59L27.30,66.41L28.04,65.75L27.57,64.71L29.74,64.05L33.82,64.83L33.93,67.36Z M35.87,62.71L35.61,64.65L34.29,65.11L34.03,64.32L35.87,62.71Z M5.24,97.76L3.53,100.00L2.21,99.25L5.24,97.76Z M8.30,75.71L7.09,76.60L7.14,74.63L8.21,74.70L8.30,75.71Z" fill="#c4a882" fill-opacity="0.9" stroke="#8b7355" stroke-width="0.5"/>
</svg>