<svg xmlns="http://www.w3.org/2000/svg" viewBox="0 0 100 36.4" width="100" height="36" fill="none">
  <path d="M100.00,15.54L98.54,15.78L98.60,16.45L98.14,16.91L96.07,17.32L95.57,18.40L95.97,19.98L95.53,20.52L93.67,21.10L93.49,20.69L91.63,20.71L89.47,20.15L87.68,24.24L88.51,24.53L88.29,25.24L86.84,25.19L86.15,24.69L81.72,25.78L83.27,26.21L82.94,26.40L82.90,27.70L84.01,30.08L82.97,30.37L83.41,30.74L82.63,30.95L82.68,32.39L81.87,31.85L80.66,31.74L79.98,30.95L74.62,30.47L71.78,30.60L71.35,30.92L67.82,29.80L66.33,30.36L65.94,31.36L66.17,31.90L62.11,30.85L60.64,31.06L60.04,31.51L59.67,32.14L59.91,32.28L59.08,32.82L58.46,32.74L57.37,33.59L55.23,34.42L55.22,34.83L54.09,35.55L54.19,36.30L53.82,36.36L52.67,35.80L53.01,35.27L52.54,34.85L49.59,34.95L49.03,32.91L47.82,32.88L48.04,30.47L47.29,30.74L46.61,29.72L45.16,28.68L43.94,29.10L40.96,28.91L38.06,29.27L35.64,27.06L29.57,24.18L23.25,25.56L23.26,34.55L21.97,34.66L20.64,33.06L18.72,32.06L15.91,32.58L14.59,33.51L14.50,32.66L15.17,31.57L14.90,31.07L15.26,31.46L15.32,31.17L13.93,30.72L13.30,30.83L12.66,29.97L11.75,30.06L11.84,29.31L10.70,27.53L9.30,27.17L9.17,26.60L12.44,26.74L10.98,25.88L10.97,25.60L11.74,25.49L12.09,24.59L16.61,24.71L15.31,24.19L16.26,22.82L16.35,22.26L15.96,21.86L16.48,21.40L16.11,20.91L14.63,20.65L13.79,21.11L11.59,20.35L8.17,21.78L6.92,21.66L7.08,22.12L6.72,21.95L6.73,22.30L4.84,21.48L6.19,21.22L4.15,18.90L2.29,18.60L2.16,18.98L1.58,18.67L1.52,17.55L0.00,17.20L1.33,15.52L0.73,14.94L1.09,13.64L2.08,13.13L2.03,12.58L2.74,12.20L4.31,13.64L5.65,13.47L5.87,13.13L5.12,11.75L7.08,11.28L7.24,10.58L9.42,10.11L10.05,9.30L10.56,9.39L10.50,9.00L11.98,9.32L11.82,9.70L12.77,9.75L13.20,9.21L14.27,8.96L14.85,9.73L16.96,9.67L19.59,11.22L19.34,11.79L19.64,12.02L20.07,11.83L19.65,11.03L19.98,10.79L22.48,12.01L24.48,10.68L25.00,10.93L26.14,10.61L26.90,11.20L27.53,11.08L27.64,10.56L28.96,10.49L29.66,10.80L29.83,11.37L31.73,11.76L31.94,12.14L32.65,11.93L33.16,11.21L34.86,11.71L36.46,11.39L37.18,10.22L36.71,9.81L34.02,9.23L34.21,8.88L33.07,8.53L35.65,7.59L34.75,6.76L35.49,6.03L38.23,5.98L38.13,5.65L35.95,5.23L36.13,4.73L36.91,4.72L35.26,4.41L36.04,4.01L35.54,3.66L36.07,3.74L36.38,3.36L38.01,3.68L39.01,3.45L39.29,3.83L39.42,3.38L40.83,3.07L44.31,2.57L45.80,2.75L45.83,2.25L46.45,1.98L53.10,1.17L53.44,0.89L53.12,0.65L54.17,0.59L54.41,0.18L55.07,0.38L55.00,0.00L58.11,0.74L59.60,0.34L60.05,1.62L60.68,1.89L60.38,2.13L60.50,2.73L59.96,2.77L60.43,3.26L61.62,3.25L61.90,2.91L62.92,3.18L62.59,2.59L63.67,3.18L63.44,3.74L64.20,3.62L63.72,3.39L64.01,3.18L65.81,3.66L66.75,3.37L66.60,3.82L65.49,4.34L65.94,4.91L67.15,4.40L68.33,4.83L68.45,4.31L69.27,3.93L74.47,2.38L73.90,3.18L73.20,3.13L73.49,3.53L76.85,5.29L82.12,11.43L83.14,10.96L83.10,10.40L83.74,10.12L84.89,10.40L84.64,10.97L85.50,10.96L85.64,11.52L88.13,11.56L88.74,11.10L90.48,10.87L91.74,11.39L92.47,12.67L94.28,13.14L94.20,13.53L94.86,14.29L97.19,14.62L98.59,13.84L98.23,14.35L100.00,15.54Z M41.81,24.12L42.75,23.45L42.57,22.59L41.39,22.14L40.21,22.59L40.21,23.72L41.81,24.12Z" fill="#c4a882" fill-opacity="0.9" stroke="#8b7355" stroke-width="0.5"/>
</svg>