<svg xmlns="http://www.w3.org/2000/svg" viewBox="0 0 100 59.8" width="100" height="60" fill="none">
  <path d="M65.78,22.21L63.53,29.37L63.79,32.06L63.30,33.25L63.73,34.94L65.20,36.70L64.88,37.65L65.02,36.78L63.67,34.94L64.02,36.33L65.74,39.71L68.03,42.27L68.57,44.04L70.34,45.79L69.66,45.61L69.98,46.04L72.19,46.10L73.52,46.74L74.36,47.90L77.58,47.01L78.98,47.30L80.33,46.47L80.49,47.01L80.40,46.40L81.36,46.22L82.86,46.15L83.13,46.45L82.86,46.35L82.52,46.62L83.02,46.51L83.30,47.14L84.38,46.99L85.39,46.26L84.62,45.75L85.20,45.27L84.32,45.74L86.74,44.11L87.03,42.65L87.70,42.10L88.09,38.55L89.53,37.76L95.43,36.52L98.30,37.10L98.69,36.70L97.79,36.79L98.78,36.50L99.72,37.12L100.00,38.01L99.56,39.03L97.73,41.11L97.72,42.21L97.57,42.55L97.69,42.13L97.58,41.96L96.71,42.92L96.93,43.47L97.79,43.23L96.93,44.11L97.63,44.08L96.37,47.78L95.60,46.78L95.74,45.54L94.93,46.81L94.12,46.93L92.99,48.78L92.40,48.43L92.04,49.03L86.04,49.05L86.01,50.89L84.53,50.93L87.98,53.63L87.84,54.68L83.55,54.81L82.00,57.40L82.45,58.05L81.95,59.78L80.16,57.73L75.64,54.26L74.67,54.20L76.23,55.01L73.73,54.35L74.20,53.93L73.50,54.16L73.22,53.61L72.61,54.12L73.37,54.07L73.05,54.20L73.46,54.23L73.59,54.35L72.33,54.39L67.87,56.13L63.69,55.07L60.39,53.18L57.47,52.71L52.88,50.85L49.81,48.51L45.30,47.55L43.26,45.54L39.93,44.01L37.61,40.50L39.10,39.92L38.11,39.31L39.14,38.35L39.30,37.09L37.83,35.40L37.27,33.16L33.21,28.74L30.77,27.10L30.69,26.99L31.69,27.54L31.58,26.96L30.33,26.77L29.83,26.09L30.08,25.54L29.74,25.97L28.95,25.02L30.02,25.28L27.62,24.21L28.08,24.23L27.51,24.13L27.50,23.61L26.36,23.62L26.81,23.59L27.27,22.74L26.54,23.44L25.92,23.13L26.23,23.55L25.39,23.26L25.80,23.05L25.39,23.10L25.32,22.02L26.03,20.96L26.38,21.38L26.45,21.14L25.15,19.65L24.16,19.73L23.56,18.44L21.73,17.85L21.39,16.69L21.76,15.93L19.81,15.72L16.32,12.33L16.08,11.18L15.51,11.09L13.31,6.72L13.27,4.97L11.53,4.57L10.36,3.46L10.19,4.02L9.60,3.95L6.90,2.44L7.72,3.48L7.38,5.24L7.95,5.91L8.53,9.03L11.48,11.29L11.85,12.58L12.85,12.80L13.24,13.85L14.08,14.06L14.32,15.96L15.70,17.00L16.17,18.11L17.03,18.50L17.58,20.21L17.93,20.18L17.36,19.20L18.32,19.80L19.15,22.82L21.20,25.77L21.44,27.84L22.26,28.31L22.68,27.55L25.20,30.14L25.12,31.47L23.45,32.31L22.44,30.19L17.92,26.75L17.48,27.01L16.84,25.80L16.98,26.23L16.58,26.13L16.77,23.83L16.28,22.24L13.38,20.12L13.19,19.48L12.87,19.64L13.10,18.90L12.69,19.62L11.48,19.71L10.89,18.97L8.85,18.22L8.62,17.47L6.92,16.37L6.72,16.00L9.24,15.92L9.95,16.82L10.44,16.64L9.82,16.40L9.78,15.69L9.38,15.84L10.15,15.42L10.06,13.81L7.09,10.98L4.70,9.73L3.51,6.29L2.60,5.78L2.58,4.91L1.23,3.16L1.69,2.86L0.85,2.30L0.00,0.60L7.90,0.00L7.58,0.70L20.14,4.56L29.33,4.56L29.33,3.08L35.33,3.18L40.12,6.92L41.50,10.07L45.22,12.13L46.09,12.23L46.95,11.47L47.51,9.79L48.72,9.28L51.74,9.66L54.16,11.84L55.46,14.60L57.96,16.87L58.13,18.61L59.30,20.70L64.84,22.57L65.78,22.21Z M15.69,13.02L14.95,12.63L15.34,11.62L16.00,11.41L16.22,12.15L15.69,13.02Z" fill="#c4a882" fill-opacity="0.9" stroke="#8b7355" stroke-width="0.5"/>
</svg>