<svg xmlns="http://www.w3.org/2000/svg" viewBox="0 0 100 32.8" width="100" height="33" fill="none">
  <path d="M90.08,7.17L87.33,11.20L87.33,12.09L86.44,12.44L86.63,13.13L87.68,13.83L88.71,13.27L90.51,13.23L92.18,13.93L93.45,12.87L95.64,12.88L99.46,15.46L100.00,16.98L98.27,17.17L96.81,16.69L93.54,17.45L92.29,17.29L92.11,17.96L89.72,18.17L88.48,19.98L86.91,20.77L83.39,20.98L80.50,22.99L75.37,21.92L73.63,24.09L75.30,26.24L72.31,27.42L70.55,29.13L67.68,30.12L59.22,30.62L53.64,32.80L52.18,32.59L52.17,31.92L49.65,32.27L44.49,30.94L42.91,29.84L26.83,29.26L25.32,27.64L24.27,25.43L23.60,25.24L23.84,24.42L21.67,24.22L18.02,22.33L9.76,21.60L9.07,20.65L10.17,19.00L9.83,18.13L10.31,17.31L8.12,13.91L7.18,13.22L6.27,13.39L5.62,12.75L4.17,12.90L2.80,12.30L2.39,11.63L0.67,11.06L1.01,10.64L0.00,10.09L0.43,9.83L0.25,9.22L1.27,8.89L1.37,8.35L4.43,8.17L4.61,7.76L6.12,7.49L6.01,6.85L12.49,4.49L13.76,4.48L14.39,3.92L15.29,4.53L16.26,4.20L16.71,4.76L20.30,4.89L21.37,6.56L24.16,6.98L25.89,6.63L29.90,7.45L32.09,6.55L32.76,5.74L32.85,5.01L32.06,4.68L31.34,3.51L32.06,2.09L34.06,0.96L34.70,0.00L37.91,1.18L44.62,2.35L45.33,4.87L48.36,6.01L50.99,6.16L54.74,5.14L58.88,5.61L60.54,6.60L62.89,6.83L62.83,7.65L64.73,8.72L71.56,9.31L73.44,8.60L77.92,8.17L82.62,5.76L84.07,5.89L86.04,6.96L88.63,6.58L90.08,7.17Z" fill="#c4a882" fill-opacity="0.9" stroke="#8b7355" stroke-width="0.5"/>
</svg>