<svg xmlns="http://www.w3.org/2000/svg" viewBox="0 0 100 58.3" width="100" height="58" fill="none">
  <path d="M47.00,53.18L44.27,49.22L35.02,47.23L35.77,45.19L32.94,45.89L27.64,43.97L28.85,46.11L25.32,47.36L20.72,44.24L22.98,42.63L22.03,41.86L12.30,40.55L10.19,38.19L6.85,39.72L8.94,35.60L4.61,30.29L6.36,27.56L4.21,24.51L5.20,22.57L0.00,19.84L3.17,15.83L1.40,11.36L4.66,12.38L5.06,9.85L0.51,9.30L20.51,5.74L24.41,2.81L40.21,0.00L42.08,0.05L46.19,1.48L47.02,2.35L42.81,0.92L44.56,4.04L47.53,4.87L86.97,4.37L93.07,6.82L97.51,16.83L97.80,20.92L90.24,25.44L94.95,27.49L94.01,32.39L94.93,35.27L100.00,39.74L98.15,40.23L99.65,42.89L85.26,52.61L85.41,56.66L87.15,58.33L74.63,54.01L67.82,55.37L61.82,54.36L59.15,56.54L56.26,56.33L56.35,54.35L53.23,52.30L50.08,54.34L47.00,53.18Z" fill="#c4a882" fill-opacity="0.9" stroke="#8b7355" stroke-width="0.5"/>
</svg>