<svg xmlns="http://www.w3.org/2000/svg" viewBox="0 0 100 74.0" width="100" height="74" fill="none">
  <path d="M0.51,67.56L2.47,64.55L0.61,58.69L4.69,55.19L3.38,53.06L9.53,51.34L8.49,49.49L13.24,45.70L8.96,40.96L10.77,39.23L3.70,38.92L2.94,27.38L0.00,24.91L1.13,20.89L6.53,21.30L9.76,15.21L14.14,15.19L12.14,11.43L13.77,6.19L19.98,9.32L25.89,9.10L37.59,4.98L52.85,8.69L74.93,2.09L99.54,0.00L100.00,2.67L91.98,9.35L85.09,10.87L83.47,13.30L84.77,23.81L82.37,36.77L78.78,42.65L16.47,73.99L9.99,73.05L0.51,67.56Z" fill="#c4a882" fill-opacity="0.9" stroke="#8b7355" stroke-width="0.5"/>
</svg>