<svg xmlns="http://www.w3.org/2000/svg" viewBox="0 0 100 39.7" width="100" height="40" fill="none">
  <path d="M48.87,1.58L56.09,1.52L56.75,0.18L64.81,0.00L68.19,3.20L66.39,3.82L67.61,5.66L66.93,6.14L71.89,6.37L73.42,7.38L73.55,9.62L74.84,11.12L77.59,10.74L80.30,11.94L84.86,10.68L88.11,13.63L89.77,12.74L93.31,14.17L94.53,13.78L98.11,15.62L99.85,15.35L100.00,17.26L97.40,18.79L99.51,19.46L97.99,19.70L97.17,20.92L98.41,21.09L98.19,22.47L99.16,22.77L97.74,25.20L92.98,24.95L92.19,25.97L89.88,26.45L88.90,29.52L85.59,29.28L81.27,31.75L80.87,30.96L78.55,31.91L76.46,31.66L72.35,34.57L71.35,34.85L73.35,33.42L72.49,32.44L72.05,33.63L70.41,34.31L71.31,36.86L69.72,35.43L65.04,34.20L63.21,35.03L61.65,34.04L57.59,34.86L53.69,33.70L55.13,33.10L53.05,32.90L52.06,32.02L56.55,32.71L58.38,31.68L54.92,31.79L54.66,29.68L54.04,29.59L54.22,29.22L53.85,28.70L53.45,28.53L53.36,28.29L53.27,28.51L54.09,29.21L53.89,29.69L54.61,30.08L54.23,31.68L51.98,31.79L52.67,30.77L51.68,30.84L51.55,31.79L48.08,32.22L46.43,34.84L42.91,37.12L42.21,37.43L41.68,36.25L41.50,38.18L42.33,38.46L41.88,39.65L40.52,38.45L36.52,39.58L33.69,38.27L35.37,38.01L36.69,35.55L37.89,35.28L37.83,32.76L39.16,32.30L39.25,33.30L40.67,32.59L41.55,33.28L42.10,32.67L42.73,33.40L44.42,32.94L43.14,32.34L43.29,30.79L41.23,30.03L41.22,27.93L39.00,27.23L39.44,24.90L38.82,24.31L35.76,23.32L35.24,23.82L34.57,22.86L30.26,21.48L26.09,22.01L23.16,23.00L22.43,24.22L17.37,24.74L15.35,25.79L13.38,24.49L5.59,23.64L4.14,24.48L0.00,21.93L2.26,18.23L4.08,18.57L3.05,17.73L2.96,15.48L10.97,10.07L10.13,8.59L11.16,8.32L8.34,5.83L8.24,4.05L10.26,4.27L12.54,2.64L20.18,2.37L27.87,3.32L28.51,4.26L30.87,4.25L30.99,4.95L33.75,3.90L36.63,5.29L38.48,4.02L39.91,5.49L44.51,4.83L46.68,6.22L47.27,5.48L46.55,4.17L48.87,1.58Z" fill="#c4a882" fill-opacity="0.9" stroke="#8b7355" stroke-width="0.5"/>
</svg>