<svg xmlns="http://www.w3.org/2000/svg" viewBox="0 0 100 91.5" width="100" height="92" fill="none">
  <path d="M15.73,1.66L22.45,3.60L30.23,0.00L45.64,13.09L45.64,18.42L53.53,14.03L60.06,21.48L72.09,25.52L78.30,32.36L88.02,36.71L91.70,44.13L100.00,48.98L92.63,56.35L92.11,66.68L95.13,68.40L87.87,80.61L65.80,91.51L51.62,87.65L42.92,90.97L24.20,81.75L10.98,82.13L4.34,76.05L0.00,67.61L1.65,56.76L7.35,52.82L4.45,33.67L7.34,31.87L6.84,25.81L12.09,14.41L10.57,7.76L15.73,1.66Z" fill="#c4a882" fill-opacity="0.9" stroke="#8b7355" stroke-width="0.5"/>
</svg>