<svg xmlns="http://www.w3.org/2000/svg" viewBox="0 0 100 42.0" width="100" height="42" fill="none">
  <path d="M3.31,0.72L51.17,0.65L51.20,0.00L51.75,0.10L52.18,1.11L53.63,1.48L54.97,1.30L55.55,1.44L55.43,1.58L55.82,1.62L56.03,1.99L56.55,1.77L57.41,2.29L58.62,1.97L58.83,2.23L61.24,2.41L62.95,1.84L69.00,4.28L69.54,5.04L70.33,4.92L70.58,5.73L71.45,5.82L71.15,6.23L73.04,6.99L73.73,10.03L73.08,11.69L72.12,12.23L71.98,12.68L72.14,13.02L72.83,13.33L75.24,12.40L77.02,12.13L79.15,11.37L79.34,11.15L78.88,10.23L79.61,9.96L82.92,9.95L83.81,8.98L86.27,7.56L92.16,7.54L92.46,7.07L93.05,6.96L93.22,7.16L94.31,5.97L94.28,5.47L94.75,4.62L96.09,3.31L96.66,3.77L97.71,3.47L98.55,3.96L98.56,6.33L99.21,6.53L99.14,7.11L99.66,7.26L99.89,7.61L99.61,7.73L100.00,7.89L98.92,8.38L98.53,8.29L98.12,8.73L97.88,8.39L97.40,8.44L97.23,8.59L97.29,8.89L96.81,8.75L97.02,8.59L96.82,8.60L96.94,8.37L96.84,8.33L96.17,9.38L95.87,9.19L95.55,9.58L95.57,9.26L95.47,9.63L95.41,9.25L95.18,9.49L95.18,9.71L95.16,9.19L95.06,9.82L94.99,9.52L94.72,9.75L94.77,9.54L94.27,9.90L94.41,10.06L93.27,11.33L93.73,11.66L92.95,12.20L93.48,12.35L93.74,12.73L93.53,12.76L94.19,13.25L94.77,13.08L94.34,12.65L94.63,12.66L94.87,13.33L93.63,13.59L93.54,13.20L92.71,13.68L92.84,13.11L92.58,13.37L92.36,13.07L92.17,13.86L89.73,13.96L88.02,14.83L88.06,14.23L87.88,13.99L87.98,14.61L87.78,14.99L87.48,15.13L87.35,15.36L87.88,15.45L87.68,16.61L87.75,16.16L87.73,16.12L87.32,17.08L87.13,16.99L87.03,17.26L87.12,17.34L86.73,17.42L86.19,18.08L86.27,17.64L85.85,17.63L85.14,16.89L85.40,16.57L85.86,16.44L86.07,16.20L85.43,16.50L85.08,16.83L85.43,17.86L85.96,18.31L85.75,18.70L86.00,18.63L86.03,18.95L85.80,18.98L85.93,19.14L84.69,20.63L84.73,20.72L84.57,20.80L84.46,21.20L84.49,20.42L85.01,19.76L84.59,19.77L84.82,19.50L84.48,19.45L84.65,18.99L84.31,19.28L83.82,18.87L84.08,18.71L83.90,18.61L84.28,18.70L84.43,18.64L83.88,18.34L83.79,18.52L83.85,18.26L84.19,18.17L83.73,18.23L84.26,17.70L83.96,17.90L84.07,17.41L84.65,17.31L84.32,17.28L84.67,16.94L84.38,17.17L84.49,16.91L84.23,16.99L84.01,17.32L83.97,17.13L83.88,17.42L83.84,17.26L83.68,17.28L83.60,17.62L83.39,17.48L83.30,17.51L83.69,17.91L83.39,17.84L83.70,19.08L83.27,18.87L83.20,18.51L83.21,18.85L83.73,19.17L83.82,19.61L82.85,19.00L82.78,19.18L82.59,18.85L82.20,19.01L82.62,18.48L82.62,18.21L82.53,18.13L82.56,18.45L82.25,18.55L82.05,19.08L82.57,19.00L82.72,19.32L83.95,19.85L83.85,20.31L83.50,20.28L82.76,19.53L82.54,19.40L82.41,19.40L83.42,20.33L83.88,20.43L83.70,20.50L83.93,20.84L83.66,20.65L83.52,20.99L83.11,20.56L82.99,20.55L83.90,21.34L83.63,21.46L83.28,21.04L82.89,20.86L82.17,20.87L83.22,21.10L83.47,21.66L84.37,21.54L85.20,23.51L84.47,21.91L84.55,22.29L84.31,22.28L84.75,23.01L84.44,22.62L84.54,22.86L84.03,22.59L84.27,22.87L83.57,22.79L83.84,22.98L83.38,23.13L83.19,23.05L83.20,22.65L83.11,22.59L83.11,23.25L84.29,23.18L84.13,23.67L84.31,23.75L84.63,23.19L84.86,23.45L84.75,23.88L84.57,23.78L84.12,24.28L83.51,24.20L83.57,23.95L83.26,23.98L83.34,24.20L82.55,23.96L83.56,24.41L83.05,24.90L82.51,24.61L82.75,24.92L83.44,25.00L83.59,24.76L83.58,24.99L83.91,24.93L83.78,25.08L83.28,25.39L82.42,25.29L82.06,25.64L81.95,25.59L82.07,25.49L81.89,25.31L81.87,25.56L81.99,25.70L81.72,25.80L81.38,26.07L81.20,26.26L81.13,26.40L81.07,26.69L81.01,26.73L81.05,26.43L80.98,26.28L80.88,26.79L80.26,26.70L79.59,27.00L78.86,27.97L78.85,27.59L78.70,27.72L78.86,28.03L78.59,28.08L78.51,28.32L77.75,28.76L77.55,28.60L77.65,28.89L76.89,29.23L76.29,29.17L76.62,29.25L76.50,29.48L76.71,29.37L76.49,29.59L75.97,29.14L76.28,29.71L75.79,30.29L75.51,30.24L75.54,30.52L75.25,30.48L75.15,31.20L74.87,31.17L75.25,31.36L74.93,31.45L74.79,32.06L75.21,33.72L76.54,36.18L76.67,37.23L76.41,35.96L75.98,35.63L76.17,36.36L76.79,37.58L76.85,37.84L77.11,38.40L77.11,38.42L77.07,38.37L76.91,38.31L77.38,39.06L77.23,40.86L77.21,40.64L76.92,41.13L76.75,41.88L75.54,41.98L75.41,41.80L75.43,41.68L75.49,41.60L75.58,41.73L75.74,41.79L75.71,41.83L75.86,41.77L75.12,40.78L74.64,40.56L74.45,40.60L74.24,39.69L73.97,39.63L74.37,39.23L73.92,39.55L73.82,38.89L74.02,38.74L73.51,38.71L73.73,39.08L73.44,39.00L72.99,38.05L72.78,37.95L72.72,37.84L72.97,37.86L73.26,37.15L73.07,37.31L73.05,37.10L72.79,36.94L73.01,37.20L72.85,37.53L72.58,37.29L72.71,37.47L72.74,37.59L72.53,37.30L72.89,35.47L71.08,33.68L70.16,33.35L69.72,33.56L69.93,33.63L69.92,33.71L69.87,33.74L68.19,34.10L68.17,33.73L67.62,33.31L68.03,33.51L68.11,33.44L67.54,33.20L67.83,33.05L67.78,32.98L67.31,33.08L67.54,33.31L66.18,32.83L66.87,32.87L66.70,32.67L64.99,32.92L65.51,32.78L65.28,32.49L64.76,32.99L64.41,33.06L64.73,32.80L64.59,32.70L64.31,33.06L64.20,33.10L63.55,33.15L64.01,33.06L63.55,32.26L63.36,32.99L61.99,32.77L60.83,33.27L59.81,32.86L59.43,33.16L59.84,33.50L60.71,33.26L60.41,33.52L60.71,33.76L61.02,33.41L61.23,33.46L61.27,33.90L60.82,34.00L61.03,34.17L60.55,34.17L61.85,34.97L61.15,35.40L61.39,34.99L60.45,34.72L60.45,34.45L59.82,34.27L60.10,34.76L59.74,35.12L59.38,34.65L59.02,35.03L58.60,35.04L57.83,34.76L58.21,34.80L58.01,34.22L57.89,34.43L57.43,34.34L56.93,33.83L56.32,33.95L56.63,34.19L56.13,34.35L54.59,33.93L53.50,34.06L53.46,33.56L53.42,34.10L51.89,34.64L51.99,34.47L52.33,34.36L52.37,34.29L51.86,34.35L51.94,33.92L51.62,34.14L51.39,33.97L51.79,34.62L51.18,34.91L51.20,35.19L49.83,35.81L50.23,35.76L49.37,36.16L49.77,35.89L49.35,35.99L49.42,35.81L48.97,35.68L49.10,35.92L49.00,35.97L48.89,36.00L48.62,35.74L49.05,36.25L48.61,36.45L48.37,36.17L48.22,36.74L48.17,36.55L47.71,36.73L47.75,36.99L47.98,36.83L47.69,37.29L47.11,37.22L47.56,37.53L47.30,38.15L46.92,38.22L46.67,37.92L46.70,38.25L47.28,38.28L47.04,39.02L47.77,40.51L47.38,40.74L44.37,39.73L43.75,38.64L43.66,37.72L42.34,36.52L41.66,35.07L40.39,33.92L38.80,33.72L38.16,34.00L37.87,34.87L37.41,35.28L36.95,35.22L35.00,34.14L34.27,32.48L31.75,30.52L28.59,30.46L28.59,31.24L23.65,31.23L17.15,29.21L17.32,28.84L13.16,29.16L12.50,27.76L11.45,27.06L11.32,27.08L11.27,27.01L11.21,27.02L11.17,27.04L11.14,27.13L10.94,27.06L10.76,26.58L9.69,26.44L8.94,25.90L7.08,25.64L7.07,24.64L4.90,22.62L4.76,22.14L5.06,21.70L4.14,21.21L3.82,20.50L4.02,20.02L4.08,20.37L4.55,20.63L4.67,20.62L4.09,19.67L5.68,19.68L5.11,19.62L5.27,19.43L4.50,19.61L4.04,19.42L3.81,20.01L3.13,19.57L3.06,19.70L2.94,19.70L3.00,19.27L3.29,19.56L3.28,19.52L1.73,18.10L1.51,16.51L0.55,15.46L1.11,14.80L0.86,14.90L1.14,13.56L0.28,11.32L0.56,10.49L1.02,10.38L0.68,10.40L1.14,9.80L0.91,9.85L1.48,6.36L1.22,5.43L1.61,5.66L1.49,5.51L2.09,5.43L2.32,5.58L2.55,5.60L2.68,5.52L2.48,5.57L2.20,5.37L1.79,5.31L1.12,5.36L1.15,4.70L1.24,5.17L1.33,5.18L1.54,5.11L1.34,4.76L1.67,4.66L1.10,4.55L1.04,4.28L1.58,4.17L1.06,4.03L0.95,4.23L0.00,1.70L1.31,2.08L2.80,2.05L3.21,2.38L3.39,2.13L3.35,2.23L3.65,2.58L3.34,2.93L3.24,2.67L2.71,3.49L2.86,3.51L3.27,3.36L2.79,3.43L3.73,2.68L3.66,2.47L3.91,2.79L3.58,2.84L3.70,3.09L3.52,3.02L3.84,3.20L3.74,3.65L3.63,3.40L3.38,3.80L3.33,3.41L2.85,3.88L3.11,3.80L2.97,3.96L3.18,4.02L3.25,3.82L3.47,3.95L4.15,3.48L4.02,2.72L4.39,2.33L4.07,2.00L4.12,2.28L3.84,2.12L4.06,1.86L3.50,1.53L3.88,1.58L3.74,1.36L3.95,1.33L3.31,0.72Z" fill="#c4a882" fill-opacity="0.9" stroke="#8b7355" stroke-width="0.5"/>
</svg>