<svg xmlns="http://www.w3.org/2000/svg" viewBox="0 0 100 85.1" width="100" height="85" fill="none">
  <path d="M100.00,28.96L93.27,34.43L94.10,36.97L96.44,37.41L95.87,38.75L89.77,41.28L90.39,44.29L88.36,46.07L94.29,53.40L91.45,56.46L88.96,56.56L84.74,59.29L80.76,59.05L78.43,60.15L78.39,62.90L77.36,63.64L73.96,60.70L68.90,61.27L68.10,59.59L63.25,58.40L67.69,63.39L68.83,71.66L73.71,72.04L73.80,73.17L68.91,75.67L68.50,77.91L66.58,79.81L66.17,78.76L60.81,81.57L57.82,85.09L57.42,82.62L52.35,84.37L48.00,80.86L45.68,72.23L42.46,69.14L40.78,69.32L44.80,64.94L42.43,62.16L40.63,56.48L40.93,50.53L42.54,49.04L43.77,44.21L40.99,43.36L35.03,44.67L31.90,44.06L30.53,45.07L29.08,44.77L24.03,38.50L19.80,37.56L16.26,38.58L10.29,38.21L8.73,35.49L6.72,34.73L6.63,31.39L7.77,30.17L4.42,22.73L3.21,22.80L2.81,21.39L0.00,22.13L2.99,17.58L3.51,13.01L6.57,7.94L8.28,7.69L10.46,3.96L14.98,2.56L10.54,4.48L13.37,10.89L9.33,17.48L10.28,20.18L12.20,20.73L12.39,23.00L15.84,22.42L17.15,21.16L17.35,18.08L13.32,10.24L14.33,10.33L13.92,9.13L24.71,5.58L23.79,4.64L26.49,5.62L26.34,3.72L23.42,4.35L22.76,2.51L24.85,0.00L27.75,5.39L33.35,5.50L36.74,7.36L38.76,12.61L52.42,11.39L54.10,11.95L55.01,14.12L61.20,15.85L67.79,12.68L71.72,12.56L67.46,12.41L67.19,11.24L85.05,10.74L81.45,12.29L79.04,12.02L77.11,12.29L76.47,12.86L77.60,12.28L77.79,13.20L76.58,13.19L76.52,14.17L78.28,13.29L79.30,15.24L76.42,15.44L78.01,16.23L79.36,15.52L79.64,14.55L81.57,18.36L82.28,16.65L82.33,18.87L82.48,16.69L83.71,17.12L82.47,16.05L85.16,17.73L85.05,18.77L85.54,17.97L85.81,19.17L85.90,18.45L85.18,17.47L86.92,17.81L86.59,16.95L92.77,20.73L90.65,22.81L91.58,22.22L90.55,23.86L89.74,26.45L86.48,26.62L89.19,28.01L91.09,27.24L90.71,27.50L90.75,27.96L91.46,26.69L97.19,26.34L100.00,28.96Z M70.75,9.03L68.74,9.88L66.17,9.07L67.56,8.16L68.95,8.86L70.06,7.51L70.75,9.03Z M92.52,24.52L93.60,25.12L92.98,25.47L92.55,26.13L89.98,26.48L92.52,24.52Z" fill="#c4a882" fill-opacity="0.9" stroke="#8b7355" stroke-width="0.5"/>
</svg>