<svg xmlns="http://www.w3.org/2000/svg" viewBox="0 0 100 77.3" width="100" height="77" fill="none">
  <path d="M21.45,16.13L25.49,20.35L26.62,24.39L25.18,26.59L25.70,29.02L31.63,28.84L36.99,24.85L39.95,19.32L42.56,19.22L45.39,21.33L49.90,22.51L54.73,21.83L57.23,15.96L60.49,15.26L63.14,13.03L64.89,8.52L68.71,6.66L72.04,2.91L75.76,1.99L76.53,0.59L80.32,0.00L84.42,1.33L89.40,1.16L94.48,13.98L94.54,21.37L93.90,23.49L90.92,21.98L89.20,23.04L87.28,26.01L87.27,28.51L89.34,30.87L91.68,31.57L94.37,31.60L94.50,28.51L100.00,28.74L99.83,29.78L96.95,39.02L90.70,43.88L82.77,55.48L73.55,63.54L64.73,69.41L60.93,70.86L56.72,70.74L55.80,71.42L56.19,72.51L51.65,72.21L50.93,73.55L43.63,72.17L42.25,72.97L37.23,72.26L34.70,72.80L32.39,74.62L27.06,74.49L21.59,77.28L19.38,77.01L17.21,76.06L17.60,75.34L16.26,74.09L14.29,74.59L14.19,72.84L12.23,72.95L12.18,74.41L11.24,73.26L12.27,71.35L8.36,65.13L11.12,63.83L11.00,59.47L4.94,50.06L2.16,42.47L0.00,39.54L3.69,35.93L5.33,37.15L5.68,40.05L10.33,41.26L16.14,41.59L18.87,39.00L21.38,38.34L21.45,16.13Z M78.95,43.94L74.07,39.24L71.15,40.04L68.67,41.30L65.92,45.05L64.25,45.60L66.35,49.84L70.69,51.95L72.54,48.82L77.17,47.45L76.99,46.42L78.95,43.94Z" fill="#c4a882" fill-opacity="0.9" stroke="#8b7355" stroke-width="0.5"/>
</svg>